<svg width="155" height="33" viewBox="0 0 155 33" fill="none" xmlns="http://www.w3.org/2000/svg">
<g clip-path="url(#clip0_1212_2043)">
<path d="M61.8121 17.2721L59.14 10.1597C59.1153 10.0956 59.0718 10.0405 59.0151 10.0016C58.9585 9.96278 58.8914 9.94197 58.8227 9.94197C58.754 9.94197 58.687 9.96278 58.6303 10.0016C58.5737 10.0405 58.5303 10.0956 58.5055 10.1597L55.8333 17.2733C55.8148 17.3238 55.8089 17.378 55.8161 17.4312C55.8233 17.4845 55.8435 17.5353 55.8747 17.5789C55.906 17.6227 55.9475 17.6581 55.9956 17.6822C56.0437 17.7062 56.0969 17.718 56.1506 17.7167H61.5176C61.5976 17.7176 61.6748 17.6882 61.7339 17.6344C61.7929 17.5806 61.8294 17.5064 61.836 17.4268C61.841 17.3745 61.8328 17.3217 61.8121 17.2733V17.2721ZM63.0572 21.2633H54.5882C54.5192 21.2638 54.4518 21.2852 54.3951 21.3248C54.3385 21.3644 54.2952 21.4203 54.271 21.485L52.5949 25.9219C52.5708 25.9865 52.5277 26.0422 52.4713 26.0818C52.4149 26.1215 52.3478 26.143 52.2788 26.1437H48.6072C48.5511 26.1445 48.4957 26.1313 48.446 26.1053C48.3964 26.0793 48.3539 26.0414 48.3226 25.9949C48.2912 25.9484 48.2718 25.8949 48.2664 25.839C48.2609 25.7832 48.2693 25.7269 48.2911 25.6752L56.7373 4.94276C56.7626 4.88002 56.8069 4.82681 56.864 4.79068C56.9212 4.75456 56.9883 4.73734 57.0557 4.74149H60.5647C60.6314 4.7419 60.6965 4.76098 60.7528 4.79656C60.8091 4.83214 60.8542 4.88279 60.8831 4.94276L69.3282 25.6752C69.35 25.727 69.3585 25.7835 69.3529 25.8395C69.3473 25.8954 69.3279 25.9491 69.2965 25.9957C69.265 26.0422 69.2225 26.0803 69.1726 26.1064C69.1228 26.1324 69.0673 26.1456 69.011 26.1448H65.345C65.2758 26.1442 65.2084 26.1226 65.1517 26.0828C65.0951 26.043 65.0519 25.987 65.0278 25.9219L63.3517 21.485C63.3358 21.4196 63.2978 21.3618 63.2442 21.3212C63.1905 21.2806 63.1245 21.2598 63.0572 21.2622V21.2633ZM71.0737 12.0097H74.2223C74.3112 12.0114 74.396 12.0472 74.4592 12.1097C74.5226 12.172 74.5594 12.2563 74.5622 12.3451V25.8116C74.5594 25.9003 74.5224 25.9844 74.4591 26.0464C74.3958 26.1084 74.3109 26.1437 74.2223 26.1448H71.0748C70.986 26.144 70.9009 26.1089 70.8374 26.0468C70.7738 25.9847 70.7366 25.9004 70.7337 25.8116V12.3451C70.7332 12.3005 70.7418 12.2562 70.7588 12.215C70.7759 12.1737 70.8011 12.1363 70.8329 12.1049C70.8648 12.0736 70.9027 12.0491 70.9442 12.0327C70.9858 12.0163 71.0302 12.0085 71.0748 12.0097H71.0737ZM86.0218 15.2868C86.0192 15.3758 85.9824 15.4604 85.9191 15.5231C85.8559 15.5857 85.7709 15.6217 85.6818 15.6234H85.5908C84.0285 15.6234 82.8959 15.9781 82.1716 16.715C81.4473 17.4518 81.0846 18.6548 81.0846 20.3468V25.7878C81.0817 25.8764 81.045 25.9606 80.982 26.023C80.919 26.0853 80.8344 26.1213 80.7457 26.1232H77.6415C77.5529 26.1213 77.4683 26.0853 77.4053 26.023C77.3423 25.9606 77.3056 25.8764 77.3026 25.7878V12.3451C77.3056 12.2563 77.3424 12.172 77.4057 12.1097C77.469 12.0472 77.5538 12.0114 77.6426 12.0097H80.7218C80.811 12.0112 80.896 12.0468 80.9596 12.1092C81.023 12.1716 81.0601 12.2561 81.063 12.3451V14.998H81.13C81.4446 13.9903 82.061 13.1036 82.8959 12.4577C83.7688 11.8421 84.8191 11.5289 85.8865 11.5662H86.0445V15.2879H86.0218V15.2868ZM94.6045 15.1549C94.5162 15.1564 94.4319 15.1915 94.3689 15.2534C94.3058 15.3151 94.2688 15.3987 94.2656 15.4869V21.0836C94.2236 21.5214 94.3441 21.9581 94.6045 22.3117C94.8319 22.555 95.2162 22.6665 95.7825 22.6665H96.0997C96.1884 22.6685 96.2729 22.7043 96.336 22.7667C96.399 22.8292 96.4358 22.9133 96.4386 23.0019V25.8105C96.4358 25.899 96.3989 25.9829 96.3358 26.0448C96.2728 26.1069 96.1882 26.1423 96.0997 26.1437H94.7648C93.3821 26.1437 92.3189 25.7866 91.5719 25.0953C90.8237 24.3835 90.4621 23.3567 90.4621 21.9535V15.4869C90.4589 15.3983 90.4217 15.3144 90.3582 15.2526C90.2946 15.1907 90.2097 15.1557 90.121 15.1549H88.1515C88.0627 15.153 87.978 15.1169 87.915 15.0543C87.8519 14.9916 87.8153 14.9071 87.8127 14.8183V12.3451C87.8153 12.2565 87.852 12.1721 87.915 12.1097C87.9781 12.0472 88.0628 12.0114 88.1515 12.0097H90.1221C90.2108 12.0086 90.2956 11.9733 90.3589 11.9114C90.4223 11.8493 90.4592 11.7652 90.4621 11.6765V6.68136C90.465 6.59276 90.502 6.50868 90.5653 6.44663C90.6287 6.38457 90.7135 6.34932 90.8021 6.34819H93.9495C94.0382 6.34932 94.123 6.38457 94.1864 6.44663C94.2497 6.50868 94.2867 6.59276 94.2895 6.68136V11.6765C94.2925 11.7652 94.3294 11.8493 94.3928 11.9114C94.4561 11.9733 94.5409 12.0086 94.6295 12.0097H96.8934C96.9824 12.0114 97.0672 12.0472 97.1304 12.1097C97.1937 12.172 97.2306 12.2563 97.2334 12.3451V14.8183C97.2308 14.9073 97.1941 14.9919 97.1307 15.0546C97.0675 15.1172 96.9826 15.1532 96.8934 15.1549H94.6045ZM108.985 21.9319C109.347 21.5488 109.628 21.0966 109.811 20.6022C109.994 20.1078 110.075 19.5815 110.049 19.0551C110.07 18.5292 109.986 18.0044 109.804 17.5108C109.621 17.0172 109.343 16.5644 108.985 16.1783C108.219 15.4763 107.217 15.087 106.177 15.087C105.138 15.087 104.136 15.4763 103.369 16.1783C103.007 16.5613 102.726 17.0137 102.543 17.508C102.36 18.0024 102.279 18.5286 102.305 19.0551C102.285 19.581 102.368 20.1057 102.551 20.5994C102.733 21.093 103.012 21.5457 103.369 21.9319C103.737 22.2978 104.176 22.5837 104.659 22.7715C105.143 22.9594 105.66 23.0452 106.178 23.0235C106.697 23.0524 107.216 22.9699 107.7 22.7818C108.185 22.5935 108.623 22.3037 108.986 21.9319H108.985ZM101.737 25.7002C100.674 25.0973 99.8088 24.1981 99.2472 23.1122C98.6507 21.8428 98.3413 20.4572 98.3413 19.0545C98.3413 17.6518 98.6507 16.2664 99.2472 14.9968C99.8156 13.9161 100.679 13.0191 101.737 12.41C102.801 11.8115 104.003 11.504 105.224 11.5185C106.221 11.494 107.21 11.7167 108.101 12.1666C108.888 12.5836 109.546 13.2085 110.003 13.9735H110.071V12.3201C110.074 12.2318 110.111 12.1481 110.174 12.0861C110.237 12.0241 110.322 11.9887 110.41 11.987H113.513C113.602 11.9884 113.686 12.0237 113.75 12.0858C113.813 12.1478 113.85 12.2317 113.853 12.3201V25.7855C113.85 25.8747 113.814 25.9595 113.75 26.0222C113.686 26.0849 113.601 26.1207 113.512 26.1221H110.412C110.323 26.1203 110.238 26.0844 110.175 26.0218C110.112 25.9591 110.075 25.8745 110.072 25.7855V24.1367H110.004C109.547 24.9024 108.889 25.5278 108.101 25.9447C107.209 26.3929 106.221 26.6151 105.224 26.5917C104.003 26.6062 102.801 26.2988 101.737 25.7002ZM126.785 21.9319C127.147 21.5488 127.428 21.0965 127.611 20.6021C127.794 20.1078 127.875 19.5815 127.85 19.0551C127.87 18.5292 127.786 18.0044 127.604 17.5108C127.421 17.0172 127.142 16.5644 126.785 16.1783C126.019 15.476 125.016 15.0864 123.977 15.0864C122.937 15.0864 121.934 15.476 121.168 16.1783C120.806 16.5616 120.526 17.0139 120.342 17.5082C120.161 18.0026 120.079 18.5287 120.105 19.0551C120.084 19.581 120.169 20.1057 120.35 20.5994C120.534 21.093 120.811 21.5457 121.169 21.9319C121.536 22.2978 121.975 22.5837 122.46 22.7715C122.943 22.9594 123.459 23.0452 123.978 23.0235C124.496 23.0523 125.016 22.9697 125.5 22.7815C125.985 22.5932 126.422 22.3036 126.786 21.9319H126.785ZM122.075 25.9435C121.287 25.5265 120.629 24.9011 120.172 24.1356H120.104V25.7866C120.1 25.8753 120.064 25.9595 120.001 26.0219C119.938 26.0842 119.854 26.1201 119.765 26.1221H116.616C116.528 26.1201 116.443 26.0842 116.38 26.0219C116.317 25.9595 116.28 25.8753 116.277 25.7866V5.05305C116.28 4.96453 116.317 4.8805 116.38 4.81829C116.443 4.75608 116.528 4.72046 116.616 4.71875H119.765C119.854 4.72015 119.938 4.7555 120.001 4.81749C120.065 4.87949 120.101 4.9634 120.105 5.05192V13.9939H120.173C120.63 13.2293 121.289 12.6042 122.075 12.186C122.967 11.7379 123.954 11.5158 124.951 11.539C126.171 11.5243 127.374 11.833 128.437 12.4338C129.501 13.0356 130.366 13.9337 130.928 15.0184C131.564 16.2737 131.876 17.6686 131.835 19.0755C131.863 20.4816 131.553 21.8736 130.929 23.1338C130.36 24.2152 129.496 25.1123 128.439 25.7207C127.374 26.3192 126.171 26.6268 124.951 26.6121C123.953 26.6203 122.966 26.3904 122.074 25.9413L122.075 25.9435ZM137.135 26.1243H133.989C133.9 26.123 133.815 26.0871 133.751 26.0244C133.687 25.9616 133.651 25.8769 133.649 25.7878V5.05419C133.652 4.96528 133.688 4.88092 133.752 4.81865C133.816 4.75639 133.901 4.72101 133.99 4.71989H137.136C137.225 4.72185 137.309 4.75741 137.371 4.81931C137.434 4.88123 137.472 4.96483 137.475 5.05305V25.7866C137.476 25.852 137.458 25.9161 137.423 25.9711C137.387 26.026 137.336 26.0691 137.276 26.0948C137.232 26.114 137.184 26.1233 137.136 26.1221V26.1243H137.135ZM144.541 15.2663C143.993 15.7038 143.616 16.3195 143.476 17.0061C143.466 17.0556 143.468 17.1068 143.481 17.1557C143.494 17.2046 143.517 17.2501 143.55 17.2886C143.582 17.3272 143.623 17.3579 143.67 17.3785C143.715 17.399 143.766 17.4089 143.816 17.4074H149.795C149.843 17.4077 149.891 17.3976 149.935 17.378C149.979 17.3584 150.018 17.3298 150.05 17.2939C150.083 17.258 150.107 17.2157 150.122 17.1699C150.136 17.124 150.141 17.0755 150.135 17.0277C150.044 16.3612 149.713 15.7507 149.205 15.3107C148.55 14.7899 147.731 14.5204 146.896 14.5511C146.054 14.5283 145.228 14.7785 144.541 15.2652L144.54 15.2663H144.541ZM152.196 13.5277C153.418 14.841 154.03 16.6979 154.029 19.0994V19.5031C154.025 19.5917 153.989 19.6756 153.925 19.7376C153.861 19.7995 153.777 19.8349 153.689 19.8363H143.704C143.654 19.8373 143.605 19.8488 143.561 19.87C143.515 19.8913 143.475 19.9219 143.443 19.9596C143.41 19.9975 143.387 20.0417 143.373 20.0895C143.359 20.1372 143.356 20.1873 143.363 20.2365C143.492 21.0716 143.919 21.8318 144.565 22.3776C145.357 22.9977 146.345 23.3136 147.351 23.268C148.851 23.2471 150.288 22.6484 151.359 21.5965C151.394 21.5642 151.436 21.5401 151.482 21.5259C151.528 21.5116 151.576 21.5077 151.624 21.5141C151.671 21.5206 151.717 21.5374 151.757 21.5635C151.798 21.5895 151.832 21.6241 151.857 21.6647L153.374 23.8263C153.417 23.8953 153.436 23.9766 153.427 24.0576C153.419 24.1384 153.384 24.2144 153.328 24.2732C152.575 24.9149 151.746 25.4618 150.861 25.9015C149.757 26.3937 148.558 26.6372 147.349 26.6144C145.934 26.6466 144.532 26.3241 143.273 25.6763C142.138 25.0801 141.201 24.1663 140.578 23.0462C139.919 21.8453 139.583 20.4933 139.605 19.1233C139.58 17.7511 139.899 16.3945 140.534 15.1776C141.128 14.0613 142.032 13.1404 143.138 12.5259C144.338 11.8711 145.688 11.5403 147.056 11.5662C149.274 11.5401 150.973 12.2098 152.196 13.5266V13.5277ZM74.9693 7.01907C74.9758 7.47594 74.8467 7.92447 74.5983 8.30797C74.3498 8.69146 73.9934 8.99268 73.5738 9.17357C73.1542 9.35446 72.6904 9.40689 72.241 9.32422C71.7916 9.24156 71.3768 9.02751 71.0491 8.70914C70.7214 8.39078 70.4953 7.98239 70.3997 7.5356C70.304 7.08882 70.343 6.6237 70.5116 6.19904C70.6802 5.77437 70.971 5.40926 71.3471 5.14982C71.7233 4.89038 72.1679 4.74829 72.6247 4.74149H72.636C73.2456 4.73867 73.8318 4.97551 74.2683 5.40093C74.7047 5.82636 74.9566 6.40628 74.9693 7.01566V7.01793V7.01907Z" fill="white"/>
<path d="M18.246 0.404488L3.95979 6.31584C3.16556 6.64485 3.17357 7.77328 3.97322 8.09015L18.319 13.7791C19.5794 14.2789 20.9832 14.2789 22.2436 13.7791L36.5895 8.09015C37.3888 7.77328 37.3972 6.64485 36.6026 6.31606L22.3167 0.404488C21.0134 -0.134829 19.5493 -0.134829 18.246 0.404488Z" fill="#FCB400"/>
<path d="M21.5541 16.8853V31.0973C21.5541 31.7729 22.2357 32.2361 22.8641 31.9869L38.8496 25.7821C39.0279 25.7115 39.1809 25.5889 39.2886 25.4302C39.3964 25.2716 39.4539 25.0842 39.4539 24.8925V10.6807C39.4539 10.0047 38.7723 9.54189 38.144 9.79096L22.1584 15.9958C21.9801 16.0665 21.8273 16.1891 21.7195 16.3478C21.6118 16.5065 21.5541 16.6937 21.5541 16.8856" fill="#18BFFF"/>
<path d="M17.8212 17.6186L13.0771 19.9093L12.5954 20.1421L2.5807 24.9406C1.94609 25.2469 1.13562 24.7843 1.13562 24.0791V10.7402C1.13562 10.4851 1.26644 10.2648 1.44188 10.0991C1.51384 10.0274 1.5955 9.96619 1.68445 9.91717C1.92357 9.77357 2.26491 9.73524 2.55514 9.85003L17.7415 15.8673C18.5135 16.1735 18.5741 17.2552 17.8212 17.6188" fill="#F82B60"/>
<path d="M17.8212 17.6186L13.077 19.9093L1.44189 10.0989C1.51388 10.0273 1.59554 9.96612 1.68448 9.91717C1.92359 9.77357 2.26494 9.73524 2.55517 9.85003L17.7416 15.8673C18.5134 16.1735 18.574 17.2552 17.8212 17.6188" fill="black" fill-opacity="0.25"/>
</g>
<defs>
<clipPath id="clip0_1212_2043">
<rect width="154.643" height="32.9754" fill="white" transform="translate(0.24707)"/>
</clipPath>
</defs>
</svg>
