<svg width="147" height="34" viewBox="0 0 147 34" fill="none" xmlns="http://www.w3.org/2000/svg">
<g clip-path="url(#clip0_1212_2103)">
<path d="M71.5522 9.55238C68.6 9.55238 65.6807 10.8188 63.4604 13.3187V1.0166H59.061V21.7311C59.061 28.4578 64.513 33.9098 71.2397 33.9098C77.9663 33.9098 83.4184 28.4578 83.4184 21.7311C83.4184 15.0044 78.2788 9.55238 71.5522 9.55238ZM71.2315 29.2143C67.0951 29.2143 63.7483 25.8592 63.7483 21.7311C63.7483 17.603 67.1034 14.2479 71.2315 14.2479C75.3678 14.2479 78.7147 17.603 78.7147 21.7311C78.7147 25.8592 75.3678 29.2143 71.2315 29.2143Z" fill="white"/>
<path d="M98.8289 9.55238C95.8767 9.55238 92.9575 10.8188 90.7372 13.3187V1.0166H86.3377V21.7311C86.3377 28.4578 91.7898 33.9098 98.5164 33.9098C105.243 33.9098 110.695 28.4578 110.695 21.7311C110.695 15.0044 105.547 9.55238 98.8289 9.55238ZM98.5082 29.2143C94.3719 29.2143 91.025 25.8592 91.025 21.7311C91.025 17.603 94.3801 14.2479 98.5082 14.2479C102.645 14.2479 105.991 17.603 105.991 21.7311C105.991 25.8592 102.645 29.2143 98.5082 29.2143Z" fill="white"/>
<path d="M34.2924 23.8606V10.21H39.0126V23.8195C39.0126 27.298 41.0273 29.5265 44.4235 29.5265C47.8609 29.5265 49.8345 27.3802 49.8345 23.8195V10.21H54.5957V23.8606C54.5957 30.1679 50.7719 33.9013 44.4235 33.9013C38.2396 33.9095 34.2924 30.0446 34.2924 23.8606Z" fill="white"/>
<path d="M119.206 33.3506H114.486V1.0166H119.206V33.3506Z" fill="white"/>
<path d="M145.932 23.6058H127.865C128.556 27.2076 131.081 29.6582 135.546 29.6582C138.161 29.6582 141.343 28.6714 143.399 27.1665L145.373 30.645C143.013 32.4047 139.279 33.8603 135.373 33.8603C126.706 33.8603 122.973 27.8079 122.973 21.7145C122.973 18.236 124.042 15.3661 126.237 13.0882C128.425 10.8104 131.303 9.65088 134.781 9.65088C138.087 9.65088 140.834 10.6788 142.939 12.784C145.044 14.8891 146.113 17.7179 146.113 21.328C146.096 21.9776 146.055 22.7506 145.932 23.6058ZM127.857 19.7409H141.335C140.949 16.0897 138.243 13.7296 134.765 13.7296C131.204 13.7296 128.548 16.1391 127.857 19.7409Z" fill="white"/>
<path d="M19.3013 9.55238C16.3491 9.55238 13.4299 10.8188 11.2096 13.3187V1.0166H6.80188V21.7311C6.80188 28.4578 12.2539 33.9098 18.9806 33.9098C25.7072 33.9098 31.1593 28.4578 31.1593 21.7311C31.1593 15.0044 26.0197 9.55238 19.3013 9.55238ZM18.9806 29.2143C14.8443 29.2143 11.4974 25.8592 11.4974 21.7311C11.4974 17.603 14.8525 14.2479 18.9806 14.2479C23.1169 14.2479 26.4638 17.603 26.4638 21.7311C26.4638 25.8592 23.1169 29.2143 18.9806 29.2143Z" fill="white"/>
<path d="M3.60299 33.9013C5.26522 33.9013 6.61272 32.5538 6.61272 30.8916C6.61272 29.2293 5.26522 27.8818 3.60299 27.8818C1.94077 27.8818 0.593262 29.2293 0.593262 30.8916C0.593262 32.5538 1.94077 33.9013 3.60299 33.9013Z" fill="#0000FF"/>
</g>
<defs>
<clipPath id="clip0_1212_2103">
<rect width="145.635" height="32.9754" fill="white" transform="translate(0.543945 0.950684)"/>
</clipPath>
</defs>
</svg>
