<svg width="666" height="282" viewBox="0 0 666 282" fill="none" xmlns="http://www.w3.org/2000/svg">
<g filter="url(#filter0_d_1201_1347)">
<path d="M21.4128 179.152L27.2658 185.766C33.2225 192.073 45.0565 205.709 57.5318 214.693C69.9606 224.117 83.2489 228.849 101.676 210.324C119.667 191.88 142.617 148.773 157.844 146.167C172.68 143.201 179.443 180.802 191.918 189.786C204.609 199.162 222.881 179.946 236.063 185.417C249.506 190.84 258.203 219.448 275.398 204.965C292.857 190.001 319.075 131.898 333.158 132.885C347.372 133.848 356.647 160.21 365.125 189.074C373.586 218.229 388.377 215.488 407.661 192.703C428.411 170.469 438.169 161.467 458.467 147.577C479.589 134.368 488.784 146.493 506.88 127.526C525.221 108.801 549.805 58.1956 566.248 47.4493C582.893 36.9534 591.59 65.5609 605.568 67.0715C619.781 68.2507 639.687 41.537 649.509 28.2044L659.331 14.8718" stroke="url(#paint0_linear_1201_1347)" stroke-width="4" stroke-linecap="round"/>
</g>
<g filter="url(#filter1_d_1201_1347)">
<path fill-rule="evenodd" clip-rule="evenodd" d="M314.216 64.6776C308.786 65.6841 303.501 70.8893 302.412 76.3037L295.315 111.597C294.226 117.012 297.746 120.585 303.176 119.579L331.498 114.33L334.277 120.893C334.524 121.477 335.47 121.301 335.98 120.578L341.716 112.436L371.021 107.004C376.451 105.998 381.736 100.793 382.825 95.3783L389.922 60.0848C391.011 54.6703 387.491 51.0969 382.061 52.1034L314.216 64.6776Z" fill="#363636"/>
</g>
<path opacity="0.8" d="M332.65 80.2396C332.084 80.3446 331.563 80.3771 331.086 80.337C330.619 80.2877 330.231 80.1633 329.923 79.9637C329.814 79.9007 329.76 79.8126 329.76 79.6993C329.76 79.5861 329.794 79.4741 329.862 79.3634C329.937 79.2512 330.03 79.17 330.138 79.1196C330.248 79.0615 330.362 79.0631 330.478 79.1246C330.78 79.3178 331.12 79.4322 331.499 79.4676C331.878 79.5031 332.32 79.4741 332.823 79.3808C333.531 79.2496 334.08 79.0233 334.471 78.7017C334.87 78.3709 335.113 77.9898 335.2 77.5585C335.27 77.2134 335.199 76.9622 334.988 76.8049C334.785 76.6462 334.405 76.562 333.846 76.5522L332.669 76.5326C331.961 76.5128 331.458 76.3607 331.159 76.0762C330.87 75.7825 330.785 75.3376 330.905 74.7416C331.004 74.2475 331.217 73.7928 331.543 73.3775C331.876 72.9608 332.292 72.6082 332.789 72.3197C333.286 72.0312 333.834 71.8316 334.432 71.7208C334.927 71.6289 335.373 71.6142 335.77 71.6767C336.175 71.7298 336.524 71.8616 336.815 72.0719C336.907 72.1378 336.95 72.2281 336.942 72.3428C336.943 72.4483 336.907 72.5531 336.833 72.6575C336.759 72.7618 336.668 72.8391 336.559 72.8894C336.452 72.9319 336.337 72.9231 336.213 72.8631C335.947 72.6783 335.651 72.567 335.326 72.5292C335.008 72.4899 334.648 72.5074 334.247 72.5818C333.626 72.6969 333.101 72.9339 332.673 73.2926C332.247 73.6435 331.986 74.0542 331.891 74.5248C331.816 74.9012 331.87 75.1781 332.054 75.3555C332.246 75.5313 332.595 75.6214 333.101 75.6257L334.276 75.6571C335.038 75.6745 335.573 75.8169 335.883 76.0842C336.202 76.3421 336.304 76.7574 336.189 77.3299C336.096 77.7927 335.888 78.2238 335.565 78.6234C335.251 79.0215 334.841 79.3616 334.338 79.6437C333.842 79.9244 333.28 80.123 332.65 80.2396ZM338.895 79.0823C338.502 79.1552 338.163 79.1463 337.878 79.0556C337.603 78.9556 337.401 78.789 337.274 78.5559C337.147 78.3227 337.116 78.0415 337.183 77.7121C337.266 77.2964 337.439 76.9473 337.7 76.6648C337.969 76.3809 338.362 76.142 338.878 75.9482C339.403 75.7451 340.099 75.5633 340.964 75.403L341.341 75.333L341.415 74.9683C341.513 74.482 341.48 74.152 341.319 73.9781C341.166 73.7949 340.87 73.7442 340.429 73.8258C340.154 73.8769 339.867 73.9639 339.57 74.087C339.281 74.2086 338.971 74.3755 338.64 74.5878C338.492 74.6832 338.375 74.72 338.288 74.6983C338.211 74.6672 338.163 74.6083 338.142 74.5215C338.131 74.4254 338.152 74.3234 338.204 74.2156C338.265 74.0985 338.36 74.0016 338.489 73.9248C338.862 73.6896 339.226 73.5014 339.58 73.3603C339.942 73.2177 340.276 73.118 340.583 73.0611C341.322 72.9241 341.833 73.0032 342.114 73.2983C342.403 73.592 342.472 74.1193 342.319 74.8801L341.677 78.0682C341.611 78.3976 341.433 78.5893 341.142 78.6433C340.835 78.7001 340.714 78.5638 340.781 78.2344L340.897 77.658C340.679 78.0229 340.394 78.3326 340.04 78.587C339.693 78.8399 339.312 79.005 338.895 79.0823ZM339.193 78.3362C339.665 78.2488 340.082 78.0165 340.446 77.6396C340.811 77.2548 341.044 76.8114 341.145 76.3094L341.216 75.9565L340.85 76.0243C340.213 76.1424 339.703 76.2671 339.321 76.3983C338.948 76.5203 338.672 76.6696 338.493 76.8463C338.323 77.0138 338.212 77.223 338.162 77.4739C338.097 77.7955 338.155 78.0378 338.334 78.2009C338.521 78.3626 338.807 78.4077 339.193 78.3362ZM345.093 77.9336C344.526 78.0386 344.128 77.9501 343.897 77.6683C343.667 77.3786 343.618 76.9083 343.749 76.2573L344.955 70.2574C345.02 69.9358 345.209 69.7459 345.524 69.6876C345.847 69.6278 345.976 69.7587 345.911 70.0803L344.719 76.0096C344.55 76.8488 344.8 77.2064 345.468 77.0825C345.539 77.0694 345.603 77.0538 345.659 77.0357C345.716 77.0177 345.772 77.0036 345.827 76.9934C345.915 76.9695 345.97 76.9782 345.992 77.0194C346.022 77.0591 346.023 77.1496 345.994 77.2908C345.941 77.5575 345.776 77.7352 345.501 77.824C345.435 77.8513 345.366 77.8715 345.296 77.8847C345.223 77.9056 345.156 77.9219 345.093 77.9336ZM349.364 77.1419C348.46 77.3096 347.797 77.1795 347.375 76.7517C346.955 76.3161 346.837 75.6434 347.02 74.7336C347.138 74.1453 347.36 73.6058 347.686 73.1151C348.014 72.6164 348.406 72.2076 348.864 71.8887C349.332 71.5604 349.837 71.346 350.379 71.2454C351.158 71.1011 351.717 71.2391 352.057 71.6594C352.398 72.0719 352.481 72.7134 352.306 73.584C352.257 73.8271 352.095 73.9742 351.82 74.0252L347.914 74.749C347.815 75.3942 347.903 75.8572 348.18 76.1382C348.458 76.4113 348.904 76.491 349.518 76.3772C349.777 76.3291 350.047 76.2489 350.327 76.1366C350.609 76.0165 350.893 75.8468 351.179 75.6276C351.384 75.4764 351.538 75.4252 351.642 75.4739C351.754 75.5212 351.795 75.6193 351.765 75.7683C351.744 75.908 351.64 76.0481 351.453 76.1885C351.155 76.4249 350.816 76.6275 350.433 76.7966C350.059 76.9641 349.702 77.0792 349.364 77.1419ZM350.261 71.9469C349.718 72.0475 349.256 72.2956 348.873 72.6912C348.491 73.0867 348.217 73.5641 348.051 74.1233L351.532 73.4782C351.625 72.9022 351.563 72.4797 351.344 72.2106C351.133 71.9401 350.772 71.8522 350.261 71.9469ZM354.995 76.0983C354.641 76.1639 354.292 76.1871 353.947 76.1679C353.612 76.1394 353.312 76.0516 353.046 75.9046C352.922 75.8445 352.873 75.7478 352.9 75.6145C352.936 75.4719 353.013 75.3519 353.131 75.2545C353.249 75.1571 353.379 75.1331 353.521 75.1823C353.79 75.3137 354.058 75.3924 354.325 75.4183C354.602 75.435 354.882 75.417 355.165 75.3646C355.614 75.2815 355.968 75.1364 356.23 74.9294C356.491 74.7225 356.65 74.4778 356.707 74.1954C356.751 73.9758 356.711 73.8171 356.587 73.7194C356.464 73.6137 356.248 73.5555 355.94 73.5447L354.914 73.5084C353.981 73.4774 353.594 73.0658 353.753 72.2737C353.858 71.7561 354.146 71.3025 354.618 70.913C355.098 70.522 355.672 70.2645 356.341 70.1406C356.679 70.0779 356.996 70.0645 357.292 70.1003C357.589 70.1282 357.844 70.2169 358.056 70.3663C358.171 70.4357 358.207 70.5385 358.164 70.6747C358.122 70.8109 358.038 70.9285 357.912 71.0273C357.795 71.1169 357.672 71.1284 357.541 71.062C357.337 70.9489 357.12 70.8796 356.89 70.8542C356.662 70.821 356.43 70.8263 356.194 70.87C355.753 70.9516 355.402 71.0999 355.139 71.3147C354.876 71.5295 354.716 71.7781 354.66 72.0604C354.571 72.4997 354.806 72.7281 355.362 72.7457L356.391 72.7702C356.873 72.7867 357.219 72.8924 357.429 73.0875C357.642 73.2747 357.707 73.5722 357.625 73.98C357.519 74.5055 357.227 74.9598 356.749 75.3429C356.272 75.7182 355.687 75.97 354.995 76.0983Z" fill="white"/>
<path d="M320.779 103.102C320.496 103.155 320.304 103.13 320.203 103.028C320.105 102.915 320.079 102.744 320.125 102.514C320.155 102.367 320.22 102.219 320.32 102.07C320.421 101.92 320.554 101.76 320.72 101.588L324.79 97.3906C325.414 96.7516 325.881 96.1868 326.191 95.6963C326.514 95.1934 326.722 94.7119 326.815 94.2518C326.933 93.6662 326.844 93.2548 326.548 93.0176C326.252 92.7805 325.759 92.726 325.066 92.8543C324.647 92.9321 324.23 93.0697 323.817 93.2671C323.404 93.4645 322.975 93.7403 322.53 94.0946C322.352 94.2283 322.195 94.3026 322.061 94.3174C321.927 94.3322 321.817 94.3023 321.731 94.2276C321.655 94.151 321.616 94.0476 321.611 93.9175C321.607 93.7874 321.641 93.6452 321.712 93.4911C321.784 93.3369 321.909 93.1929 322.087 93.0592C322.582 92.6553 323.131 92.312 323.733 92.0293C324.335 91.7465 324.93 91.5507 325.517 91.4419C326.283 91.3 326.903 91.3007 327.379 91.444C327.868 91.5749 328.204 91.84 328.386 92.2391C328.568 92.6382 328.594 93.162 328.464 93.8103C328.375 94.2495 328.216 94.6919 327.985 95.1374C327.764 95.5809 327.463 96.0495 327.081 96.5432C326.712 97.0244 326.248 97.5483 325.69 98.1149L321.843 102.029L321.935 101.574L326.937 100.647C327.168 100.604 327.335 100.629 327.438 100.721C327.54 100.812 327.57 100.968 327.525 101.188C327.481 101.407 327.384 101.591 327.233 101.74C327.084 101.879 326.894 101.969 326.663 102.012L320.779 103.102ZM329.894 102.938C329.749 103.106 329.606 103.213 329.466 103.259C329.336 103.304 329.231 103.298 329.151 103.242C329.071 103.186 329.04 103.092 329.057 102.958C329.072 102.834 329.158 102.682 329.315 102.502C329.55 102.237 329.724 101.973 329.838 101.71C329.959 101.456 330.039 101.235 330.077 101.047L330.058 101.443C329.743 101.501 329.504 101.46 329.341 101.319C329.19 101.166 329.145 100.938 329.206 100.634C329.265 100.342 329.401 100.09 329.615 99.879C329.831 99.6578 330.092 99.5189 330.396 99.4626C330.71 99.4043 330.935 99.4684 331.069 99.6549C331.216 99.8291 331.249 100.115 331.169 100.512C331.123 100.742 331.048 100.988 330.945 101.248C330.853 101.507 330.723 101.778 330.555 102.061C330.387 102.344 330.166 102.636 329.894 102.938ZM336.969 100.238C336.078 100.403 335.36 100.329 334.817 100.017C334.285 99.7032 333.932 99.1747 333.758 98.4317C333.597 97.6763 333.631 96.7286 333.86 95.5888C334.051 94.6372 334.326 93.7759 334.683 93.005C335.04 92.2341 335.468 91.5608 335.967 90.985C336.467 90.4091 337.026 89.938 337.645 89.5716C338.274 89.2033 338.951 88.9521 339.675 88.8179C340.146 88.7305 340.612 88.7247 341.071 88.8007C341.533 88.8662 341.935 89.0231 342.279 89.2715C342.397 89.3403 342.456 89.445 342.458 89.5856C342.473 89.7138 342.451 89.8487 342.392 89.9905C342.335 90.1218 342.25 90.2433 342.137 90.3549C342.024 90.4665 341.892 90.5464 341.741 90.5945C341.602 90.6302 341.465 90.6104 341.328 90.535C341.024 90.3396 340.705 90.2227 340.369 90.1842C340.046 90.1334 339.712 90.14 339.365 90.2041C338.715 90.3247 338.133 90.5836 337.619 90.9809C337.105 91.3782 336.669 91.9119 336.313 92.5821C335.956 93.2523 335.684 94.0528 335.496 94.9835L335.228 96.3168L335.055 96.3489C335.242 95.7706 335.513 95.2522 335.868 94.7939C336.235 94.3231 336.661 93.9371 337.146 93.6358C337.63 93.3346 338.14 93.1344 338.675 93.0353C339.325 92.9147 339.866 92.9604 340.298 93.1723C340.741 93.3823 341.05 93.7277 341.226 94.2085C341.404 94.6789 341.425 95.254 341.288 95.9337C341.147 96.6343 340.869 97.29 340.453 97.9006C340.038 98.5112 339.526 99.0239 338.917 99.4387C338.321 99.8411 337.672 100.107 336.969 100.238ZM337.14 98.9375C337.57 98.8578 337.966 98.6937 338.329 98.4452C338.692 98.1967 338.997 97.8886 339.242 97.521C339.49 97.1428 339.659 96.7289 339.749 96.2793C339.84 95.8296 339.829 95.454 339.718 95.1524C339.607 94.8508 339.408 94.636 339.121 94.508C338.836 94.3696 338.478 94.3402 338.048 94.4199C337.618 94.4996 337.221 94.669 336.856 94.9279C336.503 95.1745 336.199 95.4825 335.943 95.8522C335.697 96.2198 335.529 96.6285 335.439 97.0782C335.348 97.5278 335.357 97.9087 335.466 98.2207C335.588 98.5204 335.787 98.7352 336.064 98.8651C336.351 98.9931 336.71 99.0172 337.14 98.9375ZM343.97 98.9099C343.781 98.9449 343.627 98.9332 343.508 98.8748C343.401 98.804 343.347 98.6931 343.347 98.5421C343.36 98.3786 343.434 98.1888 343.568 97.9726L350.375 87.6955L350.252 88.3072L344.84 89.3102C344.61 89.353 344.443 89.3285 344.34 89.2368C344.24 89.1347 344.21 88.979 344.252 88.7699C344.296 88.5503 344.393 88.3713 344.542 88.2329C344.693 88.0841 344.884 87.9883 345.115 87.9456L351.297 86.7997C351.528 86.7569 351.699 86.7856 351.81 86.8858C351.934 86.9737 351.974 87.1274 351.93 87.347C351.892 87.5352 351.833 87.7022 351.753 87.8478C351.684 87.9915 351.59 88.1548 351.473 88.3377L344.99 98.2074C344.858 98.4132 344.71 98.5715 344.546 98.6823C344.382 98.7932 344.19 98.8691 343.97 98.9099ZM355.442 96.8139C354.603 96.9694 353.904 96.9833 353.344 96.8555C352.794 96.7258 352.403 96.461 352.171 96.0611C351.951 95.6488 351.906 95.1185 352.036 94.4702C352.141 93.9473 352.339 93.4678 352.628 93.0315C352.92 92.5848 353.28 92.201 353.708 91.88C354.136 91.559 354.603 91.3215 355.108 91.1674L355.052 91.4498C354.399 91.4297 353.918 91.2118 353.608 90.7961C353.31 90.3681 353.231 89.8089 353.37 89.1187C353.494 88.5018 353.752 87.9455 354.144 87.4499C354.55 86.9419 355.058 86.5204 355.671 86.1854C356.284 85.8504 356.968 85.6129 357.723 85.4729C358.488 85.331 359.131 85.3226 359.651 85.4477C360.171 85.5728 360.538 85.832 360.752 86.2253C360.978 86.6062 361.029 87.1051 360.905 87.7221C360.813 88.1822 360.633 88.6232 360.367 89.0451C360.113 89.4547 359.792 89.8212 359.403 90.1449C359.017 90.458 358.59 90.6983 358.123 90.8655L358.176 90.5988C358.9 90.5654 359.436 90.7631 359.784 91.1919C360.144 91.6083 360.247 92.2035 360.091 92.9773C359.961 93.6257 359.685 94.2153 359.266 94.7461C358.859 95.2645 358.332 95.6994 357.686 96.0507C357.039 96.402 356.292 96.6564 355.442 96.8139ZM355.701 95.5276C356.529 95.3741 357.185 95.1015 357.667 94.7101C358.152 94.3081 358.459 93.7882 358.587 93.1503C358.715 92.5124 358.601 92.0755 358.245 91.8395C357.888 91.6036 357.296 91.5624 356.467 91.7159C355.649 91.8676 354.994 92.1401 354.5 92.5335C354.018 92.925 353.712 93.4397 353.584 94.0775C353.456 94.7154 353.569 95.1576 353.923 95.404C354.29 95.6381 354.883 95.6793 355.701 95.5276ZM356.726 90.4297C357.198 90.3422 357.611 90.1951 357.966 89.9885C358.333 89.7694 358.633 89.5074 358.866 89.2025C359.101 88.8871 359.256 88.5412 359.332 88.1647C359.446 87.6 359.336 87.1925 359.002 86.9422C358.679 86.6899 358.167 86.6289 357.464 86.7592C356.761 86.8894 356.183 87.1526 355.73 87.5487C355.277 87.9448 354.993 88.4252 354.88 88.9899C354.764 89.565 354.867 89.9839 355.188 90.2467C355.51 90.4989 356.023 90.5599 356.726 90.4297Z" fill="white"/>
<defs>
<filter id="filter0_d_1201_1347" x="15.4067" y="12.877" width="649.93" height="220.107" filterUnits="userSpaceOnUse" color-interpolation-filters="sRGB">
<feFlood flood-opacity="0" result="BackgroundImageFix"/>
<feColorMatrix in="SourceAlpha" type="matrix" values="0 0 0 0 0 0 0 0 0 0 0 0 0 0 0 0 0 0 127 0" result="hardAlpha"/>
<feOffset dy="4"/>
<feGaussianBlur stdDeviation="2"/>
<feColorMatrix type="matrix" values="0 0 0 0 0.376471 0 0 0 0 0.356863 0 0 0 0 1 0 0 0 0.17 0"/>
<feBlend mode="normal" in2="BackgroundImageFix" result="effect1_dropShadow_1201_1347"/>
<feBlend mode="normal" in="SourceGraphic" in2="effect1_dropShadow_1201_1347" result="shape"/>
</filter>
<filter id="filter1_d_1201_1347" x="288.117" y="48.9336" width="109.002" height="83.3091" filterUnits="userSpaceOnUse" color-interpolation-filters="sRGB">
<feFlood flood-opacity="0" result="BackgroundImageFix"/>
<feColorMatrix in="SourceAlpha" type="matrix" values="0 0 0 0 0 0 0 0 0 0 0 0 0 0 0 0 0 0 127 0" result="hardAlpha"/>
<feOffset dy="4"/>
<feGaussianBlur stdDeviation="3.5"/>
<feColorMatrix type="matrix" values="0 0 0 0 0.0117647 0 0 0 0 0.00784314 0 0 0 0 0.160784 0 0 0 0.07 0"/>
<feBlend mode="normal" in2="BackgroundImageFix" result="effect1_dropShadow_1201_1347"/>
<feBlend mode="normal" in="SourceGraphic" in2="effect1_dropShadow_1201_1347" result="shape"/>
</filter>
<linearGradient id="paint0_linear_1201_1347" x1="659.331" y1="14.8717" x2="142.444" y2="394.212" gradientUnits="userSpaceOnUse">
<stop stop-color="#B6FF06"/>
<stop offset="1" stop-color="white" stop-opacity="0"/>
</linearGradient>
</defs>
</svg>
