<svg width="58" height="58" viewBox="0 0 58 58" fill="none" xmlns="http://www.w3.org/2000/svg">
<g clip-path="url(#clip0_1213_70)">
<path d="M52.8448 18.8481H22.357C19.5757 18.8481 17.3131 21.1107 17.3131 23.8921V40.7052C17.3131 43.4865 19.5757 45.7491 22.357 45.7491H48.786L55.0186 51.9817C55.5039 52.467 56.2314 52.6048 56.851 52.3462C57.4798 52.0868 57.8887 51.4727 57.8887 50.793V23.8921C57.8887 21.1107 55.6261 18.8481 52.8448 18.8481ZM44.4382 37.3425H30.7636C29.8343 37.3425 29.0823 36.5906 29.0823 35.6612C29.0823 34.7319 29.8343 33.9799 30.7636 33.9799H44.4382C45.3675 33.9799 46.1195 34.7319 46.1195 35.6612C46.1195 36.5906 45.3675 37.3425 44.4382 37.3425ZM47.8009 30.6173H27.401C26.4716 30.6173 25.7197 29.8653 25.7197 28.936C25.7197 28.0067 26.4716 27.2547 27.401 27.2547H47.8009C48.7302 27.2547 49.4822 28.0067 49.4822 28.936C49.4822 29.8653 48.7302 30.6173 47.8009 30.6173Z" fill="#D33A35"/>
<path d="M1.5377 38.8955C2.15732 39.1541 2.88466 39.0164 3.37011 38.531L9.60272 32.2984H13.9505V23.8919C13.9505 19.2567 17.7219 15.4853 22.357 15.4853H41.0756V10.4414C41.0756 7.65568 38.8174 5.39746 36.0317 5.39746H5.54393C2.75822 5.39746 0.5 7.65568 0.5 10.4414V37.3423C0.5 38.022 0.908782 38.6362 1.5377 38.8955Z" fill="#D33A35"/>
</g>
<defs>
<clipPath id="clip0_1213_70">
<rect width="57.3887" height="57.3887" fill="white" transform="translate(0.5 0.241699)"/>
</clipPath>
</defs>
</svg>
