<svg width="136" height="34" viewBox="0 0 136 34" fill="none" xmlns="http://www.w3.org/2000/svg">
<g clip-path="url(#clip0_1212_2092)">
<path d="M0.183838 25.1977L5.03041 21.4849C7.60535 24.8455 10.3411 26.3945 13.3862 26.3945C16.4151 26.3945 19.0735 24.8638 21.5324 21.5296L26.4482 25.1529C22.9003 29.9608 18.4913 32.5011 13.3862 32.5011C8.29742 32.5011 3.84574 29.9771 0.183838 25.1977Z" fill="url(#paint0_linear_1212_2092)"/>
<path d="M13.37 9.06034L4.74345 16.4941L0.755859 11.8694L13.3883 0.983398L25.921 11.8775L21.9151 16.4859L13.37 9.06034Z" fill="url(#paint1_linear_1212_2092)"/>
<path d="M45.0345 27.9153C42.0891 27.9153 39.6342 26.9607 37.6435 25.0513C35.6528 23.1156 34.6716 20.6342 34.6716 17.6054C34.6716 14.5521 35.6792 12.0423 37.67 10.078C39.6892 8.08728 42.144 7.10616 45.063 7.10616C48.6638 7.10616 51.8535 8.65927 53.7099 11.0876L50.4612 14.4971C48.906 12.8321 47.2145 11.9873 45.3886 11.9873C43.8335 11.9873 42.5511 12.5044 41.4866 13.5689C40.4505 14.6335 39.9334 15.9709 39.9334 17.5789C39.9334 19.1341 40.4505 20.4429 41.4866 21.5075C42.5511 22.5436 43.8335 23.0606 45.3601 23.0606C47.3509 23.0606 49.0974 22.1874 50.5426 20.4694L53.9256 23.716C52.9974 24.9435 51.7435 25.9531 50.1884 26.7429C48.6333 27.5347 46.9153 27.9153 45.0324 27.9153H45.0345ZM59.6495 6.80491V27.6161H54.8497V6.80491H59.6495ZM64.1989 11.222C62.5908 11.222 61.4184 10.0495 61.4184 8.44146C61.4184 6.88633 62.6458 5.71387 64.1989 5.71387C65.754 5.71387 66.955 6.88633 66.955 8.44146C66.955 10.0495 65.754 11.224 64.1989 11.224V11.222ZM66.6273 12.5593V27.6161H61.799V12.5593H66.6273ZM75.8685 27.9438C73.4951 27.9438 71.5858 27.2069 70.0877 25.7332C68.6139 24.2616 67.8771 22.3787 67.8771 20.0602C67.8771 17.7418 68.6139 15.8609 70.1141 14.3872C71.6143 12.9135 73.5501 12.1787 75.95 12.1787C79.0867 12.1787 81.8428 13.7053 83.1231 16.5693L79.278 18.5885C78.5147 17.3062 77.4501 16.6507 76.0599 16.6507C75.0503 16.6507 74.232 16.9784 73.5765 17.6339C73.2655 17.9556 73.0212 18.3355 72.8574 18.7519C72.6935 19.1683 72.6135 19.6128 72.6219 20.0602C72.6219 22.051 74.0671 23.5247 76.0049 23.5247C77.3952 23.5247 78.6776 22.7614 79.2231 21.5889L83.0702 23.8789C81.7593 26.3887 79.0602 27.9438 75.8685 27.9438ZM99.8124 27.6161H94.0824L89.6348 21.6418L88.9264 22.2973V27.6161H84.1287V6.80491H88.9284V16.9235L93.4554 12.5593H99.3198L92.857 18.615L99.8124 27.6161ZM100.134 19.7875V7.45831H105.261V19.706C105.261 21.9696 106.57 23.0606 108.453 23.0606C110.308 23.0606 111.616 21.9146 111.616 19.706V7.45831H116.772V19.7875C116.772 25.7332 112.652 27.9703 108.453 27.9703C104.28 27.9703 100.134 25.7332 100.134 19.7875ZM128.167 12.1787C130.323 12.1787 132.069 12.942 133.46 14.4686C134.85 15.9688 135.532 17.8517 135.532 20.0602C135.532 22.2708 134.823 24.1516 133.433 25.7068C132.041 27.2334 130.296 27.9988 128.196 27.9988C126.531 27.9988 125.085 27.4532 123.913 26.3622V33.8081H119.085V12.5593H123.831V13.9516C125.004 12.7771 126.449 12.1787 128.167 12.1787ZM130.622 20.1152C130.622 18.1509 129.205 16.6507 127.241 16.6507C125.277 16.6507 123.831 18.1509 123.831 20.1152C123.831 21.0698 124.157 21.8881 124.786 22.57C125.44 23.2519 126.258 23.5797 127.241 23.5797C128.222 23.5797 129.04 23.2519 129.667 22.57C130.293 21.9069 130.636 21.0266 130.624 20.1152H130.622Z" fill="white"/>
</g>
<defs>
<linearGradient id="paint0_linear_1212_2092" x1="0.183838" y1="28.977" x2="26.4482" y2="28.977" gradientUnits="userSpaceOnUse">
<stop stop-color="#8930FD"/>
<stop offset="1" stop-color="#49CCF9"/>
</linearGradient>
<linearGradient id="paint1_linear_1212_2092" x1="0.755859" y1="11.5322" x2="25.921" y2="11.5322" gradientUnits="userSpaceOnUse">
<stop stop-color="#FF02F0"/>
<stop offset="1" stop-color="#FFC800"/>
</linearGradient>
<clipPath id="clip0_1212_2092">
<rect width="135.566" height="32.9754" fill="white" transform="translate(0.102539 0.950684)"/>
</clipPath>
</defs>
</svg>
