<svg width="58" height="58" viewBox="0 0 58 58" fill="none" xmlns="http://www.w3.org/2000/svg">
<g clip-path="url(#clip0_1213_50)">
<path d="M40.6251 15.6134H48.0901C48.7841 17.5704 50.653 18.976 52.8448 18.976C55.6261 18.976 57.8888 16.7133 57.8888 13.9321C57.8888 11.1509 55.6261 8.88818 52.8448 8.88818C50.653 8.88818 48.7841 10.2939 48.0901 12.2508H39.3944C38.6613 12.2508 38.0135 12.7261 37.7915 13.4244L35.4343 20.8625C36.5866 21.0474 37.6436 21.5283 38.5291 22.2277L40.6251 15.6134Z" fill="#D33A35"/>
<path d="M18.8677 40.9598L18.0764 42.5145H10.2987C9.60463 40.5575 7.73579 39.1519 5.54393 39.1519C2.76271 39.1519 0.5 41.4146 0.5 44.1958C0.5 46.977 2.76271 49.2397 5.54393 49.2397C7.73579 49.2397 9.60463 47.834 10.2987 45.8771H19.1065C19.7387 45.8771 20.3182 45.5218 20.6051 44.9591L22.6215 40.9991C19.7019 40.9878 19.5226 41.0258 18.8677 40.9598Z" fill="#D33A35"/>
<path d="M27.513 10.1678V17.2226C28.7045 17.3896 29.8422 17.7797 30.8756 18.3569V10.1678C32.8326 9.47377 34.2382 7.60493 34.2382 5.41307C34.2382 2.63185 31.9755 0.369141 29.1943 0.369141C26.4131 0.369141 24.1504 2.63185 24.1504 5.41307C24.1504 7.60493 25.5561 9.47377 27.513 10.1678Z" fill="#D33A35"/>
<path d="M30.8756 47.9592V40.9985H27.513V47.9592C25.5561 48.6532 24.1504 50.522 24.1504 52.7139C24.1504 55.4951 26.4131 57.7578 29.1943 57.7578C31.9755 57.7578 34.2382 55.4951 34.2382 52.7139C34.2382 50.522 32.8326 48.6532 30.8756 47.9592Z" fill="#D33A35"/>
<path d="M52.8447 39.1519C50.6529 39.1519 48.784 40.5575 48.09 42.5145H40.4176L39.6072 40.9497C38.8831 41.033 38.5571 40.9859 35.8456 40.9991L37.9013 44.9692C38.1904 45.5263 38.7655 45.8771 39.3943 45.8771H48.09C48.784 47.834 50.6529 49.2397 52.8447 49.2397C55.626 49.2397 57.8887 46.977 57.8887 44.1958C57.8887 41.4146 55.626 39.1519 52.8447 39.1519Z" fill="#D33A35"/>
<path d="M5.54393 18.976C7.73579 18.976 9.60462 17.5704 10.2987 15.6134H17.989L19.6849 19.6564C20.53 18.8909 21.504 18.271 22.5677 17.8384L20.6567 13.282C20.3944 12.6566 19.7835 12.2508 19.1065 12.2508H10.2987C9.60462 10.2939 7.73579 8.88818 5.54393 8.88818C2.76271 8.88818 0.5 11.1509 0.5 13.9321C0.5 16.7133 2.76271 18.976 5.54393 18.976Z" fill="#D33A35"/>
<path d="M26.1882 20.4912C22.0842 20.4912 18.993 24.4259 19.8392 28.6447C17.3646 28.5298 15.3286 30.5885 15.3286 33.1378C15.3286 35.6221 17.2606 37.6361 19.6436 37.6361H38.7451C41.1282 37.6361 43.0601 35.6221 43.0601 33.1378C43.0601 30.207 40.4088 28.0541 37.6779 28.7784C38.6576 25.3848 34.8733 22.7936 32.2667 24.8892C31.3469 22.3206 28.9728 20.4912 26.1882 20.4912Z" fill="#D33A35"/>
</g>
<defs>
<clipPath id="clip0_1213_50">
<rect width="57.3887" height="57.3887" fill="white" transform="translate(0.5 0.369141)"/>
</clipPath>
</defs>
</svg>
