<svg width="97" height="33" viewBox="0 0 97 33" fill="none" xmlns="http://www.w3.org/2000/svg">
<g clip-path="url(#clip0_1212_2049)">
<path d="M0.891602 20.1328C0.891602 28.0528 6.37377 32.9756 13.3104 32.9756C15.7482 32.9756 18.186 32.3867 19.9644 31.0559V24.8671C18.3529 26.3059 16.2656 27.0968 14.1053 27.0871C10.5016 27.0871 7.62801 24.5079 7.62801 20.1505C7.62801 15.793 10.4898 13.261 14.1053 13.261C16.2768 13.2195 18.3825 14.007 19.9938 15.4633V9.2627C18.2273 7.90246 15.7777 7.38428 13.3398 7.38428C6.37377 7.38428 0.891602 12.307 0.891602 20.1328Z" fill="white"/>
<path d="M34.0967 7.38428C27.0306 7.38428 22.096 12.6368 22.096 20.1328C22.096 27.6288 27.0188 32.9756 34.0967 32.9756C41.1747 32.9756 46.1387 27.6759 46.1387 20.1328C46.1387 12.5897 41.2218 7.38428 34.0967 7.38428ZM34.0967 27.2108C30.7226 27.2108 28.8442 24.2665 28.8442 20.1446C28.8442 16.0227 30.7226 13.1138 34.0967 13.1138C37.4708 13.1138 39.3434 16.058 39.3434 20.1446C39.3434 24.2312 37.5179 27.2108 34.0967 27.2108Z" fill="white"/>
<path d="M65.4704 9.96329C64.6667 9.13779 63.7039 8.48364 62.6399 8.04035C61.5764 7.59707 60.434 7.37384 59.2817 7.38414C52.1566 7.38414 48.1289 13.149 48.1289 20.1327C48.1289 27.1988 52.1566 32.9754 59.2817 32.9754C60.4323 32.9751 61.5717 32.747 62.634 32.3044C63.6963 31.8617 64.6602 31.2132 65.4704 30.3963V32.416H72.2657V0H65.4704V9.96329ZM65.4704 24.2134C65.03 25.0628 64.364 25.7744 63.5449 26.2699C62.7264 26.7655 61.7872 27.0257 60.8303 27.0222C57.1265 27.0222 54.9419 24.078 54.9419 20.1327C54.9419 16.1874 57.1442 13.2903 60.8303 13.2903C61.7925 13.2924 62.7353 13.5609 63.5543 14.066C64.3734 14.5711 65.0365 15.2932 65.4704 16.1521V24.2134Z" fill="white"/>
<path d="M85.8623 7.38428C82.5824 7.38428 79.4438 8.27932 77.6596 9.40402V15.2925C79.6494 13.9815 81.9782 13.2796 84.3607 13.2727C87.829 13.2727 89.8488 14.7743 89.8488 17.165V18.5253C88.8595 17.8186 86.4688 17.0708 84.3607 17.0708C78.9728 17.0708 74.8979 20.2565 74.8979 24.9437C74.8979 30.0078 78.9728 32.8637 83.9426 32.8637C86.6101 32.8637 89.0479 31.9274 89.8311 31.1325V32.4456H96.3909V16.7587C96.4085 10.8055 92.5634 7.38428 85.8623 7.38428ZM89.8488 25.7563C89.2599 27.0694 87.4581 27.8703 85.5325 27.8703C83.3773 27.8703 81.1751 26.9752 81.1751 24.8671C81.1751 22.7591 83.3773 21.8699 85.5325 21.8699C87.4581 21.8699 89.2364 22.6649 89.8488 23.978V25.7563Z" fill="white"/>
</g>
<defs>
<clipPath id="clip0_1212_2049">
<rect width="95.9821" height="32.9754" fill="white" transform="translate(0.891602)"/>
</clipPath>
</defs>
</svg>
