<svg width="106" height="106" viewBox="0 0 106 106" fill="none" xmlns="http://www.w3.org/2000/svg">
<path d="M55.6143 3.17664C55.6143 4.64598 54.4227 5.82865 52.9623 5.82865C51.493 5.82865 50.3103 4.63703 50.3103 3.17664C50.3103 1.70729 51.5019 0.524658 52.9623 0.524658C54.4316 0.524658 55.6143 1.71625 55.6143 3.17664Z" fill="#B7FF06"/>
<path d="M55.6143 103.04C55.6143 104.51 54.4227 105.692 52.9623 105.692C51.493 105.692 50.3103 104.501 50.3103 103.04C50.3103 101.571 51.5019 100.388 52.9623 100.388C54.4316 100.388 55.6143 101.58 55.6143 103.04Z" fill="#B7FF06"/>
<path d="M30.6485 3.17664C30.6485 4.64598 29.4569 5.82865 27.9965 5.82865C26.5271 5.82865 25.3445 4.63703 25.3445 3.17664C25.3445 1.70729 26.5361 0.524658 27.9965 0.524658C29.4658 0.524658 30.6485 1.71625 30.6485 3.17664Z" fill="#B7FF06"/>
<path d="M30.6485 103.04C30.6485 104.51 29.4569 105.692 27.9965 105.692C26.5271 105.692 25.3445 104.501 25.3445 103.04C25.3445 101.571 26.5361 100.388 27.9965 100.388C29.4658 100.388 30.6485 101.58 30.6485 103.04Z" fill="#B7FF06"/>
<path d="M80.5803 3.17664C80.5803 4.64598 79.3887 5.82865 77.9283 5.82865C76.459 5.82865 75.2764 4.63703 75.2764 3.17664C75.2764 1.70729 76.468 0.524658 77.9283 0.524658C79.3887 0.524658 80.5803 1.71625 80.5803 3.17664Z" fill="#B7FF06"/>
<path d="M80.5803 103.04C80.5803 104.51 79.3887 105.692 77.9283 105.692C76.459 105.692 75.2764 104.501 75.2764 103.04C75.2764 101.571 76.468 100.388 77.9283 100.388C79.3887 100.388 80.5803 101.58 80.5803 103.04Z" fill="#B7FF06"/>
<path d="M105.546 3.17664C105.546 4.64598 104.355 5.82865 102.894 5.82865C101.425 5.82865 100.242 4.63703 100.242 3.17664C100.242 1.70729 101.434 0.524658 102.894 0.524658C104.364 0.524658 105.546 1.71625 105.546 3.17664Z" fill="#B7FF06"/>
<path d="M105.546 103.04C105.546 104.51 104.355 105.692 102.894 105.692C101.425 105.692 100.242 104.501 100.242 103.04C100.242 101.571 101.434 100.388 102.894 100.388C104.364 100.388 105.546 101.58 105.546 103.04Z" fill="#B7FF06"/>
<path d="M5.68264 3.17664C5.68264 4.64598 4.49103 5.82865 3.03064 5.82865C1.5613 5.82865 0.378662 4.63703 0.378662 3.17664C0.378662 1.70729 1.57026 0.524658 3.03064 0.524658C4.49999 0.524658 5.68264 1.71625 5.68264 3.17664Z" fill="#B7FF06"/>
<path d="M5.68264 103.04C5.68264 104.51 4.49103 105.692 3.03064 105.692C1.5613 105.692 0.378662 104.501 0.378662 103.04C0.378662 101.571 1.57026 100.388 3.03064 100.388C4.49999 100.388 5.68264 101.58 5.68264 103.04Z" fill="#B7FF06"/>
<path d="M52.9623 30.7945C54.427 30.7945 55.6143 29.6071 55.6143 28.1425C55.6143 26.6778 54.427 25.4905 52.9623 25.4905C51.4976 25.4905 50.3103 26.6778 50.3103 28.1425C50.3103 29.6071 51.4976 30.7945 52.9623 30.7945Z" fill="#B7FF06"/>
<path d="M27.9965 30.7945C29.4611 30.7945 30.6485 29.6071 30.6485 28.1425C30.6485 26.6778 29.4611 25.4905 27.9965 25.4905C26.5318 25.4905 25.3445 26.6778 25.3445 28.1425C25.3445 29.6071 26.5318 30.7945 27.9965 30.7945Z" fill="#B7FF06"/>
<path d="M77.9284 30.7945C79.393 30.7945 80.5803 29.6071 80.5803 28.1425C80.5803 26.6778 79.393 25.4905 77.9284 25.4905C76.4637 25.4905 75.2764 26.6778 75.2764 28.1425C75.2764 29.6071 76.4637 30.7945 77.9284 30.7945Z" fill="#B7FF06"/>
<path d="M105.546 28.1425C105.546 29.6119 104.355 30.7945 102.894 30.7945C101.425 30.7945 100.242 29.6029 100.242 28.1425C100.242 26.6732 101.434 25.4905 102.894 25.4905C104.364 25.4816 105.546 26.6732 105.546 28.1425Z" fill="#B7FF06"/>
<path d="M5.68264 28.1425C5.68264 29.6119 4.49103 30.7945 3.03064 30.7945C1.5613 30.7945 0.378662 29.6029 0.378662 28.1425C0.378662 26.6732 1.57026 25.4905 3.03064 25.4905C4.49999 25.4816 5.68264 26.6732 5.68264 28.1425Z" fill="#B7FF06"/>
<path d="M52.9623 55.7603C54.427 55.7603 55.6143 54.5729 55.6143 53.1083C55.6143 51.6436 54.427 50.4563 52.9623 50.4563C51.4976 50.4563 50.3103 51.6436 50.3103 53.1083C50.3103 54.5729 51.4976 55.7603 52.9623 55.7603Z" fill="#B7FF06"/>
<path d="M27.9965 55.7605C29.4611 55.7605 30.6485 54.5732 30.6485 53.1085C30.6485 51.6439 29.4611 50.4565 27.9965 50.4565C26.5318 50.4565 25.3445 51.6439 25.3445 53.1085C25.3445 54.5732 26.5318 55.7605 27.9965 55.7605Z" fill="#B7FF06"/>
<path d="M77.9284 55.7603C79.393 55.7603 80.5803 54.5729 80.5803 53.1083C80.5803 51.6436 79.393 50.4563 77.9284 50.4563C76.4637 50.4563 75.2764 51.6436 75.2764 53.1083C75.2764 54.5729 76.4637 55.7603 77.9284 55.7603Z" fill="#B7FF06"/>
<path d="M105.546 53.1083C105.546 54.5777 104.355 55.7603 102.894 55.7603C101.425 55.7603 100.242 54.5687 100.242 53.1083C100.242 51.639 101.434 50.4563 102.894 50.4563C104.364 50.4474 105.546 51.639 105.546 53.1083Z" fill="#B7FF06"/>
<path d="M5.68264 53.1083C5.68264 54.5777 4.49103 55.7603 3.03064 55.7603C1.5613 55.7603 0.378662 54.5687 0.378662 53.1083C0.378662 51.639 1.57026 50.4563 3.03064 50.4563C4.49999 50.4474 5.68264 51.639 5.68264 53.1083Z" fill="#B7FF06"/>
<path d="M52.9623 80.7263C54.427 80.7263 55.6143 79.539 55.6143 78.0743C55.6143 76.6097 54.427 75.4224 52.9623 75.4224C51.4976 75.4224 50.3103 76.6097 50.3103 78.0743C50.3103 79.539 51.4976 80.7263 52.9623 80.7263Z" fill="#B7FF06"/>
<path d="M27.9965 80.7263C29.4611 80.7263 30.6485 79.539 30.6485 78.0743C30.6485 76.6097 29.4611 75.4224 27.9965 75.4224C26.5318 75.4224 25.3445 76.6097 25.3445 78.0743C25.3445 79.539 26.5318 80.7263 27.9965 80.7263Z" fill="#B7FF06"/>
<path d="M77.9284 80.7263C79.393 80.7263 80.5803 79.539 80.5803 78.0743C80.5803 76.6097 79.393 75.4224 77.9284 75.4224C76.4637 75.4224 75.2764 76.6097 75.2764 78.0743C75.2764 79.539 76.4637 80.7263 77.9284 80.7263Z" fill="#B7FF06"/>
<path d="M105.546 78.0744C105.546 79.5437 104.355 80.7264 102.894 80.7264C101.425 80.7264 100.242 79.5348 100.242 78.0744C100.242 76.605 101.434 75.4224 102.894 75.4224C104.364 75.4135 105.546 76.605 105.546 78.0744Z" fill="#B7FF06"/>
<path d="M5.68264 78.0744C5.68264 79.5437 4.49103 80.7264 3.03064 80.7264C1.5613 80.7264 0.378662 79.5348 0.378662 78.0744C0.378662 76.605 1.57026 75.4224 3.03064 75.4224C4.49999 75.4135 5.68264 76.605 5.68264 78.0744Z" fill="#B7FF06"/>
</svg>
