<svg width="106" height="106" viewBox="0 0 106 106" fill="none" xmlns="http://www.w3.org/2000/svg">
<path d="M55.813 3.46839C55.813 4.93773 54.6214 6.1204 53.161 6.1204C51.6917 6.1204 50.509 4.92877 50.509 3.46839C50.509 1.99904 51.7006 0.816406 53.161 0.816406C54.6304 0.816406 55.813 2.008 55.813 3.46839Z" fill="#B7FF06"/>
<path d="M55.813 103.332C55.813 104.801 54.6214 105.984 53.161 105.984C51.6917 105.984 50.509 104.792 50.509 103.332C50.509 101.862 51.7006 100.68 53.161 100.68C54.6304 100.68 55.813 101.871 55.813 103.332Z" fill="#B7FF06"/>
<path d="M30.8472 3.46839C30.8472 4.93773 29.6556 6.1204 28.1952 6.1204C26.7259 6.1204 25.5432 4.92877 25.5432 3.46839C25.5432 1.99904 26.7348 0.816406 28.1952 0.816406C29.6646 0.816406 30.8472 2.008 30.8472 3.46839Z" fill="#B7FF06"/>
<path d="M30.8472 103.332C30.8472 104.801 29.6556 105.984 28.1952 105.984C26.7259 105.984 25.5432 104.792 25.5432 103.332C25.5432 101.862 26.7348 100.68 28.1952 100.68C29.6646 100.68 30.8472 101.871 30.8472 103.332Z" fill="#B7FF06"/>
<path d="M80.7791 3.46839C80.7791 4.93773 79.5875 6.1204 78.1271 6.1204C76.6577 6.1204 75.4751 4.92877 75.4751 3.46839C75.4751 1.99904 76.6667 0.816406 78.1271 0.816406C79.5875 0.816406 80.7791 2.008 80.7791 3.46839Z" fill="#B7FF06"/>
<path d="M80.7791 103.332C80.7791 104.801 79.5875 105.984 78.1271 105.984C76.6577 105.984 75.4751 104.792 75.4751 103.332C75.4751 101.862 76.6667 100.68 78.1271 100.68C79.5875 100.68 80.7791 101.871 80.7791 103.332Z" fill="#B7FF06"/>
<path d="M105.745 3.46839C105.745 4.93773 104.553 6.1204 103.093 6.1204C101.624 6.1204 100.441 4.92877 100.441 3.46839C100.441 1.99904 101.633 0.816406 103.093 0.816406C104.562 0.816406 105.745 2.008 105.745 3.46839Z" fill="#B7FF06"/>
<path d="M105.745 103.332C105.745 104.801 104.553 105.984 103.093 105.984C101.624 105.984 100.441 104.792 100.441 103.332C100.441 101.862 101.633 100.68 103.093 100.68C104.562 100.68 105.745 101.871 105.745 103.332Z" fill="#B7FF06"/>
<path d="M5.88137 3.46839C5.88137 4.93773 4.68976 6.1204 3.22937 6.1204C1.76003 6.1204 0.577393 4.92877 0.577393 3.46839C0.577393 1.99904 1.76899 0.816406 3.22937 0.816406C4.69872 0.816406 5.88137 2.008 5.88137 3.46839Z" fill="#B7FF06"/>
<path d="M5.88137 103.332C5.88137 104.801 4.68976 105.984 3.22937 105.984C1.76003 105.984 0.577393 104.792 0.577393 103.332C0.577393 101.862 1.76899 100.68 3.22937 100.68C4.69872 100.68 5.88137 101.871 5.88137 103.332Z" fill="#B7FF06"/>
<path d="M53.161 31.0862C54.6257 31.0862 55.813 29.8989 55.813 28.4342C55.813 26.9696 54.6257 25.7822 53.161 25.7822C51.6964 25.7822 50.509 26.9696 50.509 28.4342C50.509 29.8989 51.6964 31.0862 53.161 31.0862Z" fill="#B7FF06"/>
<path d="M28.1952 31.0862C29.6599 31.0862 30.8472 29.8989 30.8472 28.4342C30.8472 26.9696 29.6599 25.7822 28.1952 25.7822C26.7306 25.7822 25.5432 26.9696 25.5432 28.4342C25.5432 29.8989 26.7306 31.0862 28.1952 31.0862Z" fill="#B7FF06"/>
<path d="M78.1271 31.0862C79.5917 31.0862 80.7791 29.8989 80.7791 28.4342C80.7791 26.9696 79.5917 25.7822 78.1271 25.7822C76.6624 25.7822 75.4751 26.9696 75.4751 28.4342C75.4751 29.8989 76.6624 31.0862 78.1271 31.0862Z" fill="#B7FF06"/>
<path d="M105.745 28.4343C105.745 29.9036 104.553 31.0863 103.093 31.0863C101.624 31.0863 100.441 29.8946 100.441 28.4343C100.441 26.9649 101.633 25.7823 103.093 25.7823C104.562 25.7733 105.745 26.9649 105.745 28.4343Z" fill="#B7FF06"/>
<path d="M5.88137 28.4343C5.88137 29.9036 4.68976 31.0863 3.22937 31.0863C1.76003 31.0863 0.577393 29.8946 0.577393 28.4343C0.577393 26.9649 1.76899 25.7823 3.22937 25.7823C4.69872 25.7733 5.88137 26.9649 5.88137 28.4343Z" fill="#B7FF06"/>
<path d="M53.161 56.052C54.6257 56.052 55.813 54.8647 55.813 53.4C55.813 51.9354 54.6257 50.748 53.161 50.748C51.6964 50.748 50.509 51.9354 50.509 53.4C50.509 54.8647 51.6964 56.052 53.161 56.052Z" fill="#B7FF06"/>
<path d="M28.1952 56.052C29.6599 56.052 30.8472 54.8647 30.8472 53.4C30.8472 51.9354 29.6599 50.748 28.1952 50.748C26.7306 50.748 25.5432 51.9354 25.5432 53.4C25.5432 54.8647 26.7306 56.052 28.1952 56.052Z" fill="#B7FF06"/>
<path d="M78.1271 56.052C79.5917 56.052 80.7791 54.8647 80.7791 53.4C80.7791 51.9354 79.5917 50.748 78.1271 50.748C76.6624 50.748 75.4751 51.9354 75.4751 53.4C75.4751 54.8647 76.6624 56.052 78.1271 56.052Z" fill="#B7FF06"/>
<path d="M105.745 53.4001C105.745 54.8694 104.553 56.0521 103.093 56.0521C101.624 56.0521 100.441 54.8605 100.441 53.4001C100.441 51.9307 101.633 50.7481 103.093 50.7481C104.562 50.7391 105.745 51.9307 105.745 53.4001Z" fill="#B7FF06"/>
<path d="M5.88137 53.4001C5.88137 54.8694 4.68976 56.0521 3.22937 56.0521C1.76003 56.0521 0.577393 54.8605 0.577393 53.4001C0.577393 51.9307 1.76899 50.7481 3.22937 50.7481C4.69872 50.7391 5.88137 51.9307 5.88137 53.4001Z" fill="#B7FF06"/>
<path d="M53.161 81.0178C54.6257 81.0178 55.813 79.8305 55.813 78.3658C55.813 76.9012 54.6257 75.7139 53.161 75.7139C51.6964 75.7139 50.509 76.9012 50.509 78.3658C50.509 79.8305 51.6964 81.0178 53.161 81.0178Z" fill="#B7FF06"/>
<path d="M28.1952 81.0178C29.6599 81.0178 30.8472 79.8305 30.8472 78.3658C30.8472 76.9012 29.6599 75.7139 28.1952 75.7139C26.7306 75.7139 25.5432 76.9012 25.5432 78.3658C25.5432 79.8305 26.7306 81.0178 28.1952 81.0178Z" fill="#B7FF06"/>
<path d="M78.1271 81.0178C79.5917 81.0178 80.7791 79.8305 80.7791 78.3658C80.7791 76.9012 79.5917 75.7139 78.1271 75.7139C76.6624 75.7139 75.4751 76.9012 75.4751 78.3658C75.4751 79.8305 76.6624 81.0178 78.1271 81.0178Z" fill="#B7FF06"/>
<path d="M105.745 78.3659C105.745 79.8352 104.553 81.0179 103.093 81.0179C101.624 81.0179 100.441 79.8263 100.441 78.3659C100.441 76.8966 101.633 75.7139 103.093 75.7139C104.562 75.705 105.745 76.8966 105.745 78.3659Z" fill="#B7FF06"/>
<path d="M5.88137 78.3659C5.88137 79.8352 4.68976 81.0179 3.22937 81.0179C1.76003 81.0179 0.577393 79.8263 0.577393 78.3659C0.577393 76.8966 1.76899 75.7139 3.22937 75.7139C4.69872 75.705 5.88137 76.8966 5.88137 78.3659Z" fill="#B7FF06"/>
</svg>
