<svg width="415" height="416" viewBox="0 0 415 416" fill="none" xmlns="http://www.w3.org/2000/svg">
<path d="M298.557 4.42724C298.557 6.66916 296.739 8.47366 294.51 8.47366C292.268 8.47366 290.464 6.65549 290.464 4.42724C290.464 2.18532 292.282 0.380859 294.51 0.380859C296.752 0.380859 298.557 2.19899 298.557 4.42724Z" fill="#B7FF06"/>
<path d="M298.557 236.798C298.557 239.04 296.739 240.845 294.51 240.845C292.268 240.845 290.464 239.027 290.464 236.798C290.464 234.556 292.282 232.752 294.51 232.752C296.752 232.752 298.557 234.57 298.557 236.798Z" fill="#B7FF06"/>
<path d="M66.1856 4.42724C66.1856 6.66916 64.3674 8.47366 62.1392 8.47366C59.8973 8.47366 58.0928 6.65549 58.0928 4.42724C58.0928 2.18532 59.9109 0.380859 62.1392 0.380859C64.3811 0.380859 66.1856 2.19899 66.1856 4.42724Z" fill="#B7FF06"/>
<path d="M66.1856 236.798C66.1856 239.04 64.3674 240.845 62.1392 240.845C59.8973 240.845 58.0928 239.027 58.0928 236.798C58.0928 234.556 59.9109 232.752 62.1392 232.752C64.3811 232.752 66.1856 234.57 66.1856 236.798Z" fill="#B7FF06"/>
<path d="M240.464 4.42724C240.464 6.66916 238.646 8.47366 236.417 8.47366C234.176 8.47366 232.371 6.65549 232.371 4.42724C232.371 2.18532 234.189 0.380859 236.417 0.380859C238.659 0.380859 240.464 2.19899 240.464 4.42724Z" fill="#B7FF06"/>
<path d="M240.464 236.798C240.464 239.04 238.646 240.845 236.417 240.845C234.176 240.845 232.371 239.027 232.371 236.798C232.371 234.556 234.189 232.752 236.417 232.752C238.659 232.752 240.464 234.57 240.464 236.798Z" fill="#B7FF06"/>
<path d="M8.09278 4.42724C8.09278 6.66916 6.27465 8.47366 4.0464 8.47366C1.80448 8.47366 0 6.65549 0 4.42724C0 2.18532 1.81815 0.380859 4.0464 0.380859C6.28832 0.380859 8.09278 2.19899 8.09278 4.42724Z" fill="#B7FF06"/>
<path d="M8.09278 236.798C8.09278 239.04 6.27465 240.845 4.0464 240.845C1.80448 240.845 0 239.027 0 236.798C0 234.556 1.81815 232.752 4.0464 232.752C6.28832 232.752 8.09278 234.57 8.09278 236.798Z" fill="#B7FF06"/>
<path d="M356.649 4.42724C356.649 6.66916 354.831 8.47366 352.603 8.47366C350.361 8.47366 348.557 6.65549 348.557 4.42724C348.557 2.18532 350.375 0.380859 352.603 0.380859C354.831 0.380859 356.649 2.19899 356.649 4.42724Z" fill="#B7FF06"/>
<path d="M356.649 236.798C356.649 239.04 354.831 240.845 352.603 240.845C350.361 240.845 348.557 239.027 348.557 236.798C348.557 234.556 350.375 232.752 352.603 232.752C354.831 232.752 356.649 234.57 356.649 236.798Z" fill="#B7FF06"/>
<path d="M124.278 4.42724C124.278 6.66916 122.46 8.47366 120.232 8.47366C117.99 8.47366 116.186 6.65549 116.186 4.42724C116.186 2.18532 118.004 0.380859 120.232 0.380859C122.46 0.380859 124.278 2.19899 124.278 4.42724Z" fill="#B7FF06"/>
<path d="M124.278 236.798C124.278 239.04 122.46 240.845 120.232 240.845C117.99 240.845 116.186 239.027 116.186 236.798C116.186 234.556 118.004 232.752 120.232 232.752C122.46 232.752 124.278 234.57 124.278 236.798Z" fill="#B7FF06"/>
<path d="M414.742 4.42724C414.742 6.66916 412.924 8.47366 410.696 8.47366C408.454 8.47366 406.649 6.65549 406.649 4.42724C406.649 2.18532 408.467 0.380859 410.696 0.380859C412.937 0.380859 414.742 2.19899 414.742 4.42724Z" fill="#B7FF06"/>
<path d="M414.742 236.798C414.742 239.04 412.924 240.845 410.696 240.845C408.454 240.845 406.649 239.027 406.649 236.798C406.649 234.556 408.467 232.752 410.696 232.752C412.937 232.752 414.742 234.57 414.742 236.798Z" fill="#B7FF06"/>
<path d="M182.371 4.42724C182.371 6.66916 180.553 8.47366 178.325 8.47366C176.083 8.47366 174.278 6.65549 174.278 4.42724C174.278 2.18532 176.096 0.380859 178.325 0.380859C180.567 0.380859 182.371 2.19899 182.371 4.42724Z" fill="#B7FF06"/>
<path d="M182.371 236.798C182.371 239.04 180.553 240.845 178.325 240.845C176.083 240.845 174.278 239.027 174.278 236.798C174.278 234.556 176.096 232.752 178.325 232.752C180.567 232.752 182.371 234.57 182.371 236.798Z" fill="#B7FF06"/>
<path d="M294.51 66.5664C296.745 66.5664 298.557 64.7548 298.557 62.52C298.557 60.2853 296.745 58.4736 294.51 58.4736C292.276 58.4736 290.464 60.2853 290.464 62.52C290.464 64.7548 292.276 66.5664 294.51 66.5664Z" fill="#B7FF06"/>
<path d="M294.51 298.938C296.745 298.938 298.557 297.126 298.557 294.891C298.557 292.656 296.745 290.845 294.51 290.845C292.276 290.845 290.464 292.656 290.464 294.891C290.464 297.126 292.276 298.938 294.51 298.938Z" fill="#B7FF06"/>
<path d="M62.1392 66.5664C64.3739 66.5664 66.1856 64.7548 66.1856 62.52C66.1856 60.2853 64.3739 58.4736 62.1392 58.4736C59.9044 58.4736 58.0928 60.2853 58.0928 62.52C58.0928 64.7548 59.9044 66.5664 62.1392 66.5664Z" fill="#B7FF06"/>
<path d="M62.1392 298.938C64.3739 298.938 66.1856 297.126 66.1856 294.891C66.1856 292.656 64.3739 290.845 62.1392 290.845C59.9044 290.845 58.0928 292.656 58.0928 294.891C58.0928 297.126 59.9044 298.938 62.1392 298.938Z" fill="#B7FF06"/>
<path d="M236.417 66.5664C238.652 66.5664 240.464 64.7548 240.464 62.52C240.464 60.2853 238.652 58.4736 236.417 58.4736C234.183 58.4736 232.371 60.2853 232.371 62.52C232.371 64.7548 234.183 66.5664 236.417 66.5664Z" fill="#B7FF06"/>
<path d="M236.417 298.938C238.652 298.938 240.464 297.126 240.464 294.891C240.464 292.656 238.652 290.845 236.417 290.845C234.183 290.845 232.371 292.656 232.371 294.891C232.371 297.126 234.183 298.938 236.417 298.938Z" fill="#B7FF06"/>
<path d="M4.0464 66.5664C6.28116 66.5664 8.09278 64.7548 8.09278 62.52C8.09278 60.2853 6.28116 58.4736 4.0464 58.4736C1.81164 58.4736 0 60.2853 0 62.52C0 64.7548 1.81164 66.5664 4.0464 66.5664Z" fill="#B7FF06"/>
<path d="M4.0464 298.938C6.28116 298.938 8.09278 297.126 8.09278 294.891C8.09278 292.656 6.28116 290.845 4.0464 290.845C1.81164 290.845 0 292.656 0 294.891C0 297.126 1.81164 298.938 4.0464 298.938Z" fill="#B7FF06"/>
<path d="M352.603 66.5664C354.838 66.5664 356.649 64.7548 356.649 62.52C356.649 60.2853 354.838 58.4736 352.603 58.4736C350.368 58.4736 348.557 60.2853 348.557 62.52C348.557 64.7548 350.368 66.5664 352.603 66.5664Z" fill="#B7FF06"/>
<path d="M352.603 298.938C354.838 298.938 356.649 297.126 356.649 294.891C356.649 292.656 354.838 290.845 352.603 290.845C350.368 290.845 348.557 292.656 348.557 294.891C348.557 297.126 350.368 298.938 352.603 298.938Z" fill="#B7FF06"/>
<path d="M120.232 66.5664C122.467 66.5664 124.278 64.7548 124.278 62.52C124.278 60.2853 122.467 58.4736 120.232 58.4736C117.997 58.4736 116.186 60.2853 116.186 62.52C116.186 64.7548 117.997 66.5664 120.232 66.5664Z" fill="#B7FF06"/>
<path d="M120.232 298.938C122.467 298.938 124.278 297.126 124.278 294.891C124.278 292.656 122.467 290.845 120.232 290.845C117.997 290.845 116.186 292.656 116.186 294.891C116.186 297.126 117.997 298.938 120.232 298.938Z" fill="#B7FF06"/>
<path d="M414.742 62.5201C414.742 64.762 412.924 66.5665 410.696 66.5665C408.454 66.5665 406.649 64.7483 406.649 62.5201C406.649 60.2782 408.467 58.4737 410.696 58.4737C412.937 58.46 414.742 60.2782 414.742 62.5201Z" fill="#B7FF06"/>
<path d="M414.742 294.891C414.742 297.133 412.924 298.938 410.696 298.938C408.454 298.938 406.649 297.119 406.649 294.891C406.649 292.649 408.467 290.845 410.696 290.845C412.937 290.831 414.742 292.649 414.742 294.891Z" fill="#B7FF06"/>
<path d="M182.371 62.5201C182.371 64.762 180.553 66.5665 178.325 66.5665C176.083 66.5665 174.278 64.7483 174.278 62.5201C174.278 60.2782 176.096 58.4737 178.325 58.4737C180.567 58.46 182.371 60.2782 182.371 62.5201Z" fill="#B7FF06"/>
<path d="M182.371 294.891C182.371 297.133 180.553 298.938 178.325 298.938C176.083 298.938 174.278 297.119 174.278 294.891C174.278 292.649 176.096 290.845 178.325 290.845C180.567 290.831 182.371 292.649 182.371 294.891Z" fill="#B7FF06"/>
<path d="M294.51 124.659C296.745 124.659 298.557 122.848 298.557 120.613C298.557 118.378 296.745 116.566 294.51 116.566C292.276 116.566 290.464 118.378 290.464 120.613C290.464 122.848 292.276 124.659 294.51 124.659Z" fill="#B7FF06"/>
<path d="M294.51 357.03C296.745 357.03 298.557 355.219 298.557 352.984C298.557 350.749 296.745 348.938 294.51 348.938C292.276 348.938 290.464 350.749 290.464 352.984C290.464 355.219 292.276 357.03 294.51 357.03Z" fill="#B7FF06"/>
<path d="M62.1392 124.659C64.3739 124.659 66.1856 122.848 66.1856 120.613C66.1856 118.378 64.3739 116.566 62.1392 116.566C59.9044 116.566 58.0928 118.378 58.0928 120.613C58.0928 122.848 59.9044 124.659 62.1392 124.659Z" fill="#B7FF06"/>
<path d="M62.1392 357.03C64.3739 357.03 66.1856 355.219 66.1856 352.984C66.1856 350.749 64.3739 348.938 62.1392 348.938C59.9044 348.938 58.0928 350.749 58.0928 352.984C58.0928 355.219 59.9044 357.03 62.1392 357.03Z" fill="#B7FF06"/>
<path d="M236.417 124.659C238.652 124.659 240.464 122.848 240.464 120.613C240.464 118.378 238.652 116.566 236.417 116.566C234.183 116.566 232.371 118.378 232.371 120.613C232.371 122.848 234.183 124.659 236.417 124.659Z" fill="#B7FF06"/>
<path d="M236.417 357.03C238.652 357.03 240.464 355.219 240.464 352.984C240.464 350.749 238.652 348.938 236.417 348.938C234.183 348.938 232.371 350.749 232.371 352.984C232.371 355.219 234.183 357.03 236.417 357.03Z" fill="#B7FF06"/>
<path d="M4.0464 124.659C6.28116 124.659 8.09278 122.848 8.09278 120.613C8.09278 118.378 6.28116 116.566 4.0464 116.566C1.81164 116.566 0 118.378 0 120.613C0 122.848 1.81164 124.659 4.0464 124.659Z" fill="#B7FF06"/>
<path d="M4.0464 357.03C6.28116 357.03 8.09278 355.219 8.09278 352.984C8.09278 350.749 6.28116 348.938 4.0464 348.938C1.81164 348.938 0 350.749 0 352.984C0 355.219 1.81164 357.03 4.0464 357.03Z" fill="#B7FF06"/>
<path d="M352.603 124.659C354.838 124.659 356.649 122.848 356.649 120.613C356.649 118.378 354.838 116.566 352.603 116.566C350.368 116.566 348.557 118.378 348.557 120.613C348.557 122.848 350.368 124.659 352.603 124.659Z" fill="#B7FF06"/>
<path d="M352.603 357.03C354.838 357.03 356.649 355.219 356.649 352.984C356.649 350.749 354.838 348.938 352.603 348.938C350.368 348.938 348.557 350.749 348.557 352.984C348.557 355.219 350.368 357.03 352.603 357.03Z" fill="#B7FF06"/>
<path d="M120.232 124.659C122.467 124.659 124.278 122.848 124.278 120.613C124.278 118.378 122.467 116.566 120.232 116.566C117.997 116.566 116.186 118.378 116.186 120.613C116.186 122.848 117.997 124.659 120.232 124.659Z" fill="#B7FF06"/>
<path d="M120.232 357.03C122.467 357.03 124.278 355.219 124.278 352.984C124.278 350.749 122.467 348.938 120.232 348.938C117.997 348.938 116.186 350.749 116.186 352.984C116.186 355.219 117.997 357.03 120.232 357.03Z" fill="#B7FF06"/>
<path d="M414.742 120.613C414.742 122.855 412.924 124.659 410.696 124.659C408.454 124.659 406.649 122.841 406.649 120.613C406.649 118.371 408.467 116.566 410.696 116.566C412.937 116.553 414.742 118.371 414.742 120.613Z" fill="#B7FF06"/>
<path d="M414.742 352.984C414.742 355.226 412.924 357.03 410.696 357.03C408.454 357.03 406.649 355.212 406.649 352.984C406.649 350.742 408.467 348.938 410.696 348.938C412.937 348.924 414.742 350.742 414.742 352.984Z" fill="#B7FF06"/>
<path d="M182.371 120.613C182.371 122.855 180.553 124.659 178.325 124.659C176.083 124.659 174.278 122.841 174.278 120.613C174.278 118.371 176.096 116.566 178.325 116.566C180.567 116.553 182.371 118.371 182.371 120.613Z" fill="#B7FF06"/>
<path d="M182.371 352.984C182.371 355.226 180.553 357.03 178.325 357.03C176.083 357.03 174.278 355.212 174.278 352.984C174.278 350.742 176.096 348.938 178.325 348.938C180.567 348.924 182.371 350.742 182.371 352.984Z" fill="#B7FF06"/>
<path d="M294.51 182.752C296.745 182.752 298.557 180.94 298.557 178.706C298.557 176.471 296.745 174.659 294.51 174.659C292.276 174.659 290.464 176.471 290.464 178.706C290.464 180.94 292.276 182.752 294.51 182.752Z" fill="#B7FF06"/>
<path d="M294.51 415.124C296.745 415.124 298.557 413.312 298.557 411.078C298.557 408.843 296.745 407.031 294.51 407.031C292.276 407.031 290.464 408.843 290.464 411.078C290.464 413.312 292.276 415.124 294.51 415.124Z" fill="#B7FF06"/>
<path d="M62.1392 182.752C64.3739 182.752 66.1856 180.94 66.1856 178.706C66.1856 176.471 64.3739 174.659 62.1392 174.659C59.9044 174.659 58.0928 176.471 58.0928 178.706C58.0928 180.94 59.9044 182.752 62.1392 182.752Z" fill="#B7FF06"/>
<path d="M62.1392 415.124C64.3739 415.124 66.1856 413.312 66.1856 411.078C66.1856 408.843 64.3739 407.031 62.1392 407.031C59.9044 407.031 58.0928 408.843 58.0928 411.078C58.0928 413.312 59.9044 415.124 62.1392 415.124Z" fill="#B7FF06"/>
<path d="M236.417 182.752C238.652 182.752 240.464 180.94 240.464 178.706C240.464 176.471 238.652 174.659 236.417 174.659C234.183 174.659 232.371 176.471 232.371 178.706C232.371 180.94 234.183 182.752 236.417 182.752Z" fill="#B7FF06"/>
<path d="M236.417 415.124C238.652 415.124 240.464 413.312 240.464 411.078C240.464 408.843 238.652 407.031 236.417 407.031C234.183 407.031 232.371 408.843 232.371 411.078C232.371 413.312 234.183 415.124 236.417 415.124Z" fill="#B7FF06"/>
<path d="M4.0464 182.752C6.28116 182.752 8.09278 180.94 8.09278 178.706C8.09278 176.471 6.28116 174.659 4.0464 174.659C1.81164 174.659 0 176.471 0 178.706C0 180.94 1.81164 182.752 4.0464 182.752Z" fill="#B7FF06"/>
<path d="M4.0464 415.124C6.28116 415.124 8.09278 413.312 8.09278 411.078C8.09278 408.843 6.28116 407.031 4.0464 407.031C1.81164 407.031 0 408.843 0 411.078C0 413.312 1.81164 415.124 4.0464 415.124Z" fill="#B7FF06"/>
<path d="M352.603 182.752C354.838 182.752 356.649 180.94 356.649 178.706C356.649 176.471 354.838 174.659 352.603 174.659C350.368 174.659 348.557 176.471 348.557 178.706C348.557 180.94 350.368 182.752 352.603 182.752Z" fill="#B7FF06"/>
<path d="M352.603 415.124C354.838 415.124 356.649 413.312 356.649 411.078C356.649 408.843 354.838 407.031 352.603 407.031C350.368 407.031 348.557 408.843 348.557 411.078C348.557 413.312 350.368 415.124 352.603 415.124Z" fill="#B7FF06"/>
<path d="M120.232 182.752C122.467 182.752 124.278 180.94 124.278 178.706C124.278 176.471 122.467 174.659 120.232 174.659C117.997 174.659 116.186 176.471 116.186 178.706C116.186 180.94 117.997 182.752 120.232 182.752Z" fill="#B7FF06"/>
<path d="M120.232 415.124C122.467 415.124 124.278 413.312 124.278 411.078C124.278 408.843 122.467 407.031 120.232 407.031C117.997 407.031 116.186 408.843 116.186 411.078C116.186 413.312 117.997 415.124 120.232 415.124Z" fill="#B7FF06"/>
<path d="M414.742 178.706C414.742 180.948 412.924 182.752 410.696 182.752C408.454 182.752 406.649 180.934 406.649 178.706C406.649 176.464 408.467 174.659 410.696 174.659C412.937 174.646 414.742 176.464 414.742 178.706Z" fill="#B7FF06"/>
<path d="M414.742 411.078C414.742 413.32 412.924 415.124 410.696 415.124C408.454 415.124 406.649 413.306 406.649 411.078C406.649 408.836 408.467 407.031 410.696 407.031C412.937 407.018 414.742 408.836 414.742 411.078Z" fill="#B7FF06"/>
<path d="M182.371 178.706C182.371 180.948 180.553 182.752 178.325 182.752C176.083 182.752 174.278 180.934 174.278 178.706C174.278 176.464 176.096 174.659 178.325 174.659C180.567 174.646 182.371 176.464 182.371 178.706Z" fill="#B7FF06"/>
<path d="M182.371 411.078C182.371 413.32 180.553 415.124 178.325 415.124C176.083 415.124 174.278 413.306 174.278 411.078C174.278 408.836 176.096 407.031 178.325 407.031C180.567 407.018 182.371 408.836 182.371 411.078Z" fill="#B7FF06"/>
</svg>
