<svg width="118" height="172" viewBox="0 0 118 172" fill="none" xmlns="http://www.w3.org/2000/svg">
<mask id="mask0_1254_982" style="mask-type:alpha" maskUnits="userSpaceOnUse" x="0" y="0" width="118" height="172">
<rect y="0.862305" width="117.672" height="170.97" fill="#D9D9D9"/>
</mask>
<g mask="url(#mask0_1254_982)">
<path d="M38.9408 17.5104C38.9408 19.5247 37.3073 21.1459 35.3054 21.1459C33.2911 21.1459 31.6699 19.5124 31.6699 17.5104C31.6699 15.4962 33.3034 13.875 35.3054 13.875C37.3196 13.875 38.9408 15.5085 38.9408 17.5104Z" fill="#B7FF06"/>
<path d="M38.9408 154.407C38.9408 156.421 37.3073 158.042 35.3054 158.042C33.2911 158.042 31.6699 156.409 31.6699 154.407C31.6699 152.393 33.3034 150.771 35.3054 150.771C37.3196 150.771 38.9408 152.405 38.9408 154.407Z" fill="#B7FF06"/>
<path d="M4.7167 17.5104C4.7167 19.5247 3.08322 21.1459 1.08126 21.1459C-0.932976 21.1459 -2.5542 19.5124 -2.5542 17.5104C-2.5542 15.4962 -0.920694 13.875 1.08126 13.875C3.0955 13.875 4.7167 15.5085 4.7167 17.5104Z" fill="#B7FF06"/>
<path d="M4.7167 154.407C4.7167 156.421 3.08322 158.042 1.08126 158.042C-0.932976 158.042 -2.5542 156.409 -2.5542 154.407C-2.5542 152.393 -0.920694 150.771 1.08126 150.771C3.0955 150.771 4.7167 152.405 4.7167 154.407Z" fill="#B7FF06"/>
<path d="M73.1649 17.5104C73.1649 19.5247 71.5314 21.1459 69.5295 21.1459C67.5152 21.1459 65.894 19.5124 65.894 17.5104C65.894 15.4962 67.5275 13.875 69.5295 13.875C71.5314 13.875 73.1649 15.5085 73.1649 17.5104Z" fill="#B7FF06"/>
<path d="M73.1649 154.407C73.1649 156.421 71.5314 158.042 69.5295 158.042C67.5152 158.042 65.894 156.409 65.894 154.407C65.894 152.393 67.5275 150.771 69.5295 150.771C71.5314 150.771 73.1649 152.405 73.1649 154.407Z" fill="#B7FF06"/>
<path d="M107.39 17.5104C107.39 19.5247 105.756 21.1459 103.754 21.1459C101.74 21.1459 100.119 19.5124 100.119 17.5104C100.119 15.4962 101.752 13.875 103.754 13.875C105.768 13.875 107.39 15.5085 107.39 17.5104Z" fill="#B7FF06"/>
<path d="M107.39 154.407C107.39 156.421 105.756 158.042 103.754 158.042C101.74 158.042 100.119 156.409 100.119 154.407C100.119 152.393 101.752 150.771 103.754 150.771C105.768 150.771 107.39 152.405 107.39 154.407Z" fill="#B7FF06"/>
<path d="M35.3054 55.3696C37.3132 55.3696 38.9408 53.7419 38.9408 51.7341C38.9408 49.7263 37.3132 48.0986 35.3054 48.0986C33.2976 48.0986 31.6699 49.7263 31.6699 51.7341C31.6699 53.7419 33.2976 55.3696 35.3054 55.3696Z" fill="#B7FF06"/>
<path d="M1.08126 55.3696C3.08907 55.3696 4.7167 53.7419 4.7167 51.7341C4.7167 49.7263 3.08907 48.0986 1.08126 48.0986C-0.926543 48.0986 -2.5542 49.7263 -2.5542 51.7341C-2.5542 53.7419 -0.926543 55.3696 1.08126 55.3696Z" fill="#B7FF06"/>
<path d="M69.5295 55.3696C71.5373 55.3696 73.1649 53.7419 73.1649 51.7341C73.1649 49.7263 71.5373 48.0986 69.5295 48.0986C67.5217 48.0986 65.894 49.7263 65.894 51.7341C65.894 53.7419 67.5217 55.3696 69.5295 55.3696Z" fill="#B7FF06"/>
<path d="M107.39 51.7341C107.39 53.7484 105.756 55.3696 103.754 55.3696C101.74 55.3696 100.119 53.7361 100.119 51.7341C100.119 49.7199 101.752 48.0987 103.754 48.0987C105.768 48.0864 107.39 49.7199 107.39 51.7341Z" fill="#B7FF06"/>
<path d="M35.3054 89.5941C37.3132 89.5941 38.9408 87.9665 38.9408 85.9587C38.9408 83.9509 37.3132 82.3232 35.3054 82.3232C33.2976 82.3232 31.6699 83.9509 31.6699 85.9587C31.6699 87.9665 33.2976 89.5941 35.3054 89.5941Z" fill="#B7FF06"/>
<path d="M1.08126 89.5941C3.08907 89.5941 4.7167 87.9665 4.7167 85.9587C4.7167 83.9509 3.08907 82.3232 1.08126 82.3232C-0.926543 82.3232 -2.5542 83.9509 -2.5542 85.9587C-2.5542 87.9665 -0.926543 89.5941 1.08126 89.5941Z" fill="#B7FF06"/>
<path d="M69.5295 89.5941C71.5373 89.5941 73.1649 87.9665 73.1649 85.9587C73.1649 83.9509 71.5373 82.3232 69.5295 82.3232C67.5217 82.3232 65.894 83.9509 65.894 85.9587C65.894 87.9665 67.5217 89.5941 69.5295 89.5941Z" fill="#B7FF06"/>
<path d="M107.39 85.9588C107.39 87.973 105.756 89.5942 103.754 89.5942C101.74 89.5942 100.119 87.9607 100.119 85.9588C100.119 83.9445 101.752 82.3233 103.754 82.3233C105.768 82.311 107.39 83.9445 107.39 85.9588Z" fill="#B7FF06"/>
<path d="M35.3054 123.819C37.3132 123.819 38.9408 122.191 38.9408 120.183C38.9408 118.175 37.3132 116.548 35.3054 116.548C33.2976 116.548 31.6699 118.175 31.6699 120.183C31.6699 122.191 33.2976 123.819 35.3054 123.819Z" fill="#B7FF06"/>
<path d="M1.08126 123.819C3.08907 123.819 4.7167 122.191 4.7167 120.183C4.7167 118.175 3.08907 116.548 1.08126 116.548C-0.926543 116.548 -2.5542 118.175 -2.5542 120.183C-2.5542 122.191 -0.926543 123.819 1.08126 123.819Z" fill="#B7FF06"/>
<path d="M69.5295 123.819C71.5373 123.819 73.1649 122.191 73.1649 120.183C73.1649 118.175 71.5373 116.548 69.5295 116.548C67.5217 116.548 65.894 118.175 65.894 120.183C65.894 122.191 67.5217 123.819 69.5295 123.819Z" fill="#B7FF06"/>
<path d="M107.39 120.183C107.39 122.198 105.756 123.819 103.754 123.819C101.74 123.819 100.119 122.185 100.119 120.183C100.119 118.169 101.752 116.548 103.754 116.548C105.768 116.536 107.39 118.169 107.39 120.183Z" fill="#B7FF06"/>
</g>
</svg>
