<svg width="25" height="25" viewBox="0 0 25 25" fill="none" xmlns="http://www.w3.org/2000/svg">
<g clip-path="url(#clip0_506_1368)">
<path d="M2.45418 20.2815C1.10586 18.7984 0.296875 17.1804 0.296875 14.4837C0.296875 9.76465 3.66766 5.58487 8.38676 3.42757L9.60025 5.18038C5.15081 7.60734 4.20699 10.7085 3.93732 12.7309C4.61148 12.3264 5.5553 12.1916 6.49912 12.3264C8.92609 12.5961 10.8137 14.4837 10.8137 17.0455C10.8137 18.259 10.2744 19.4725 9.46541 20.4163C8.52159 21.3602 7.44294 21.7646 6.09463 21.7646C4.61148 21.7646 3.26317 21.0905 2.45418 20.2815ZM15.9373 20.2815C14.589 18.7984 13.78 17.1804 13.78 14.4837C13.78 9.76465 17.1508 5.58487 21.8699 3.42757L23.0834 5.18038C18.634 7.60734 17.6901 10.7085 17.4205 12.7309C18.0946 12.3264 19.0384 12.1916 19.9823 12.3264C22.4092 12.5961 24.2969 14.6186 24.2969 17.0455C24.2969 18.259 23.7575 19.4725 22.9486 20.4163C22.0047 21.3602 20.9261 21.7646 19.5778 21.7646C18.0946 21.7646 16.7463 21.0905 15.9373 20.2815Z" fill="#B7FF06"/>
</g>
<defs>
<clipPath id="clip0_506_1368">
<rect width="24" height="24" fill="white" transform="matrix(-1 0 0 -1 24.2969 24.5957)"/>
</clipPath>
</defs>
</svg>
