<svg width="136" height="33" viewBox="0 0 136 33" fill="none" xmlns="http://www.w3.org/2000/svg">
<g clip-path="url(#clip0_1212_2036)">
<path fill-rule="evenodd" clip-rule="evenodd" d="M134.064 22.8353C133.646 22.5324 133.314 22.4891 133.04 23.0661C128.338 33.2343 120.42 28.1574 121.213 28.6045C122.973 27.7968 127.588 24.1045 126.896 18.9843C126.478 15.8545 123.795 14.4699 120.939 14.9747C115.963 15.8401 114.146 21.2055 115.069 25.9507C115.228 26.7728 115.516 27.4363 115.819 28.0998C110.208 32.6719 107.973 24.018 107.713 22.9795C107.699 22.9218 112.055 19.3016 113.266 10.6622C114.535 1.61887 111.651 -0.0397941 108.694 0.0178984C103.228 0.11886 101.756 11.5276 103.732 21.0324C103.574 21.0757 102.795 21.5084 101.555 21.5516C100.66 18.7391 96.8381 16.2728 95.8429 17.2247C93.3477 19.6045 96.4487 24.2487 98.6412 24.6093C97.3285 32.7007 89.1074 30.6959 90.6361 20.5564C93.3045 15.5949 95.3526 8.19581 94.9776 3.73905C94.8477 2.16694 93.6794 0.0467447 91.0401 0.147707C85.9632 0.349632 85.4151 11.7583 86.0063 19.8641C85.9777 19.6622 85.6891 20.8449 83.612 21.4362C83.1217 18.7103 78.7227 15.9555 77.6843 17.2824C75.7516 19.7488 79.1122 24.1478 80.6986 24.4507C79.3862 32.5421 71.1651 30.5372 72.6938 20.3978C75.3767 15.4362 77.4103 8.05158 77.0496 3.59485C76.92 2.02271 75.7516 -0.0974866 73.112 0.00347528C68.0351 0.205399 67.487 11.6141 68.0786 19.7199C68.0496 19.518 67.761 20.744 65.5975 21.3209C65.5256 17.7728 61.1122 16.1574 60.0448 17.2824C58.1553 19.3016 60.4774 23.441 62.6264 24.4507C61.314 32.5421 53.0929 30.5372 54.6217 20.3978C57.29 15.4362 59.3381 8.03717 58.9632 3.58041C58.8478 2.02271 57.6795 -0.0974866 55.0398 0.00347528C49.9629 0.205399 49.5593 12.191 50.1505 20.2968C48.4773 27.4651 42.8669 36.4075 43.6022 18.4795C43.6745 17.2247 43.7467 16.7487 43.1264 16.2728C42.6506 15.9122 41.5832 16.0853 41.0061 16.0997C40.2994 16.1285 40.1121 16.5468 39.9677 17.167C39.6073 18.7824 39.5351 20.3545 39.4774 22.5036C39.4487 23.5132 39.3619 23.9747 38.9725 25.3449C38.5831 26.7151 36.3909 29.2103 35.1793 28.792C33.5062 28.2151 34.0542 23.4988 34.3714 20.2535C34.6313 17.6862 33.7947 16.5468 31.66 16.1285C30.4052 15.8689 29.6408 15.9122 28.3427 15.4939C27.1023 15.1045 26.8283 12.768 24.2033 13.5468C22.761 13.9795 23.6841 17.0228 23.3379 19.2872C21.636 30.4074 18.1023 30.7103 16.4581 25.3161C23.8427 7.20061 18.5783 0.0611678 15.5061 0.0611678C12.3042 0.0611678 8.64074 2.2679 10.184 16.4026C9.434 16.1862 9.20324 16.0708 8.36668 16.0708C3.70802 16.0564 0.520508 19.8353 0.520508 24.494C0.520508 29.1526 3.70802 32.9315 8.38112 32.9315C11.1359 32.9315 13.0686 31.6767 14.5398 29.744C15.4917 31.1142 16.66 32.9603 18.7946 32.8738C25.1408 32.6286 26.987 19.6045 27.2033 18.8689C27.8812 18.9699 28.5302 19.1718 29.1504 19.2728C30.1889 19.4314 30.2754 19.8497 30.2466 20.8882C29.9725 29.744 31.6024 32.8449 35.3093 32.8449C37.3715 32.8449 39.2178 30.8113 40.4871 29.369C41.4391 31.3305 42.9388 32.7872 44.9727 32.8449C49.8765 32.9603 51.766 25.143 51.5929 26.167C51.4629 26.9747 53.1793 32.7872 58.242 32.8161C64.5014 32.8449 65.6697 25.9651 65.7997 24.8113C65.8142 24.5805 65.8284 24.6093 65.7997 24.8113C65.7997 24.8257 65.7997 24.8545 65.7997 24.8834C67.7901 24.5084 68.8139 23.4555 68.8139 23.4555C68.8139 23.4555 70.4149 32.9315 76.3142 32.8305C82.444 32.7151 83.612 26.4988 83.7564 25.2872C83.7709 24.9988 83.7851 25.0276 83.7564 25.2872C83.7564 25.3017 83.7564 25.3161 83.7564 25.3161C86.1218 24.4507 86.742 23.5997 86.742 23.5997C86.742 23.5997 88.0113 32.8882 94.242 32.9747C99.795 33.047 101.857 27.3497 101.872 24.9699C102.809 24.9843 104.54 24.4074 104.497 24.3786C104.497 24.3786 106.531 32.4988 112.213 32.9171C114.882 33.1189 116.886 31.417 118.026 30.6382C120.708 32.8161 129.636 35.5854 135.276 26.0228C136.083 24.667 134.367 23.0372 134.064 22.8353ZM8.15033 29.7728C5.42438 29.7728 3.67917 27.2488 3.67917 24.5372C3.67917 21.8257 5.28015 19.3016 8.00613 19.3016C9.23209 19.3016 9.90997 19.4314 10.8763 20.268C11.0494 20.9459 11.5398 22.518 11.785 23.2391C12.1023 24.1911 12.4917 25.0132 12.8667 25.893C12.3042 28.1718 10.5157 29.7728 8.15033 29.7728ZM14.785 20.3401C14.6696 20.1526 14.6985 20.268 14.5686 20.0949C14.0783 18.7391 13.1119 15.7103 12.9965 12.2631C12.8667 8.3689 13.5158 3.79676 15.434 3.79676C16.7321 3.79676 18.1167 13.0564 14.785 20.3401ZM53.1648 16.2872C52.8621 13.9795 52.8476 3.66697 55.3141 3.9554C56.6843 4.50349 54.4485 14.2247 53.1648 16.2872ZM71.237 16.2872C70.9343 13.9795 70.9198 3.66697 73.3863 3.9554C74.7564 4.50349 72.5207 14.2247 71.237 16.2872ZM89.1651 16.4314C88.862 14.1237 88.8478 3.81117 91.3141 4.09964C92.6842 4.63331 90.4488 14.3689 89.1651 16.4314ZM108.954 3.33523C111.218 3.10445 111.117 12.9843 106.588 19.2151C105.997 16.9651 105.103 4.11408 108.954 3.33523ZM118.473 24.6093C117.752 20.9315 119.627 18.5228 121.559 18.2631C122.237 18.1622 123.218 18.5949 123.405 19.417C123.723 20.9603 123.362 23.2535 119.021 26.1526C119.036 26.167 118.632 25.417 118.473 24.6093ZM41.7563 13.2727C43.2995 13.2727 44.5543 12.0179 44.5543 10.4747C44.5543 8.9314 43.2995 7.67658 41.7563 7.67658C40.213 7.67658 38.958 8.9314 38.958 10.4747C38.958 12.0179 40.213 13.2727 41.7563 13.2727Z" fill="white"/>
</g>
<defs>
<clipPath id="clip0_1212_2036">
<rect width="135.199" height="32.9754" fill="white" transform="translate(0.520508)"/>
</clipPath>
</defs>
</svg>
