<svg width="102" height="27" viewBox="0 0 102 27" fill="none" xmlns="http://www.w3.org/2000/svg">
<path fill-rule="evenodd" clip-rule="evenodd" d="M15.4529 18.6739C16.4634 19.1519 17.5931 19.4193 18.7852 19.4193C23.0941 19.4193 26.5872 15.9262 26.5872 11.6173C26.5872 7.30845 23.0941 3.8154 18.7852 3.8154C15.7943 3.8154 13.1965 5.49839 11.8871 7.96902C10.8765 7.49097 9.74687 7.2236 8.55474 7.2236C4.24585 7.2236 0.7528 10.7167 0.752799 15.0255C0.752799 19.3344 4.24585 22.8275 8.55474 22.8275C11.5457 22.8275 14.1435 21.1445 15.4529 18.6739ZM15.4529 18.6739C16.0299 17.5852 16.3567 16.3435 16.3567 15.0255C16.3567 11.9088 14.5291 9.21886 11.8871 7.96902C11.3101 9.05772 10.9833 10.2994 10.9833 11.6173C10.9833 14.7341 12.8109 17.424 15.4529 18.6739Z" fill="#D33A35"/>
<path fill-rule="evenodd" clip-rule="evenodd" d="M8.31203 11.5357C5.84186 12.8452 4.15925 15.4428 4.15925 18.4334C4.15925 22.7423 7.6523 26.2353 11.9612 26.2353C16.2701 26.2353 19.7631 22.7423 19.7631 18.4334C19.7631 17.2434 19.4967 16.1157 19.0203 15.1065C21.4905 13.797 23.1731 11.1994 23.1731 8.20884C23.1731 3.89994 19.68 0.406894 15.3712 0.406894C11.0623 0.406894 7.56921 3.89994 7.56921 8.20884C7.56921 9.3988 7.83561 10.5265 8.31203 11.5357ZM11.9612 10.6314C10.6429 10.6314 9.40093 10.9584 8.31203 11.5357C9.56074 14.1806 12.2522 16.0108 15.3712 16.0108C16.6895 16.0108 17.9314 15.6838 19.0203 15.1065C17.7716 12.4616 15.0801 10.6314 11.9612 10.6314Z" fill="#D33A35"/>
<path d="M52.4687 13.1714C52.4687 13.6314 52.4387 14.0714 52.3787 14.4914H41.6687C41.7687 15.9514 42.3787 16.6814 43.4987 16.6814C44.2187 16.6814 44.7387 16.3514 45.0587 15.6914H52.1087C51.8687 16.8914 51.3587 17.9714 50.5787 18.9314C49.8187 19.8714 48.8487 20.6214 47.6687 21.1814C46.5087 21.7214 45.2287 21.9914 43.8287 21.9914C42.1487 21.9914 40.6487 21.6414 39.3287 20.9414C38.0287 20.2414 37.0087 19.2414 36.2687 17.9414C35.5487 16.6214 35.1887 15.0814 35.1887 13.3214C35.1887 11.5614 35.5487 10.0314 36.2687 8.73144C37.0087 7.41144 38.0287 6.40144 39.3287 5.70144C40.6487 5.00144 42.1487 4.65144 43.8287 4.65144C45.5087 4.65144 46.9987 5.00144 48.2987 5.70144C49.6187 6.38144 50.6387 7.36144 51.3587 8.64144C52.0987 9.92144 52.4687 11.4314 52.4687 13.1714ZM45.7187 11.5814C45.7187 11.0214 45.5387 10.6014 45.1787 10.3214C44.8187 10.0214 44.3687 9.87144 43.8287 9.87144C42.6487 9.87144 41.9587 10.4414 41.7587 11.5814H45.7187Z" fill="black"/>
<path d="M60.965 16.2614H68.0151V21.7814H53.675V16.5614L60.125 10.3814H53.765V4.86144H67.715V10.0814L60.965 16.2614Z" fill="black"/>
<path d="M76.7624 7.98144C77.4424 7.00144 78.2724 6.22144 79.2524 5.64144C80.2324 5.04144 81.2524 4.74144 82.3124 4.74144V11.8514H80.4224C79.1624 11.8514 78.2324 12.0714 77.6324 12.5114C77.0524 12.9514 76.7624 13.7314 76.7624 14.8514V21.7814H70.1024V4.86144H76.7624V7.98144Z" fill="black"/>
<path d="M83.2063 13.3214C83.2063 11.5414 83.5063 10.0014 84.1063 8.70144C84.7263 7.38144 85.5663 6.38144 86.6263 5.70144C87.6863 5.00144 88.8763 4.65144 90.1963 4.65144C91.2963 4.65144 92.2463 4.88144 93.0463 5.34144C93.8463 5.78144 94.4563 6.39144 94.8763 7.17144V4.86144H101.506V21.7814H94.8763V19.4714C94.4563 20.2514 93.8463 20.8714 93.0463 21.3314C92.2463 21.7714 91.2963 21.9914 90.1963 21.9914C88.8763 21.9914 87.6863 21.6514 86.6263 20.9714C85.5663 20.2714 84.7263 19.2714 84.1063 17.9714C83.5063 16.6514 83.2063 15.1014 83.2063 13.3214ZM94.8763 13.3214C94.8763 12.4214 94.6463 11.7214 94.1863 11.2214C93.7263 10.7214 93.1363 10.4714 92.4163 10.4714C91.6963 10.4714 91.1063 10.7214 90.6463 11.2214C90.1863 11.7214 89.9563 12.4214 89.9563 13.3214C89.9563 14.2214 90.1863 14.9214 90.6463 15.4214C91.1063 15.9214 91.6963 16.1714 92.4163 16.1714C93.1363 16.1714 93.7263 15.9214 94.1863 15.4214C94.6463 14.9214 94.8763 14.2214 94.8763 13.3214Z" fill="black"/>
</svg>
