<svg width="102" height="27" viewBox="0 0 102 27" fill="none" xmlns="http://www.w3.org/2000/svg">
<path fill-rule="evenodd" clip-rule="evenodd" d="M14.9502 19.0131C15.9607 19.4911 17.0904 19.7585 18.2825 19.7585C22.5914 19.7585 26.0845 16.2654 26.0845 11.9565C26.0845 7.64765 22.5914 4.1546 18.2825 4.1546C15.2916 4.1546 12.6938 5.8376 11.3844 8.30822C10.3738 7.83018 9.24418 7.5628 8.05206 7.5628C3.74316 7.5628 0.250114 11.0559 0.250114 15.3647C0.250114 19.6736 3.74316 23.1667 8.05206 23.1667C11.043 23.1667 13.6408 21.4837 14.9502 19.0131ZM14.9502 19.0131C15.5272 17.9244 15.854 16.6827 15.854 15.3648C15.854 12.248 14.0264 9.55806 11.3844 8.30822C10.8074 9.39693 10.4806 10.6386 10.4806 11.9565C10.4806 15.0733 12.3082 17.7632 14.9502 19.0131Z" fill="#D33A35"/>
<path fill-rule="evenodd" clip-rule="evenodd" d="M7.80934 11.8749C5.33918 13.1844 3.65656 15.782 3.65656 18.7726C3.65656 23.0815 7.14961 26.5745 11.4585 26.5745C15.7674 26.5745 19.2605 23.0815 19.2605 18.7726C19.2605 17.5826 18.9941 16.4549 18.5176 15.4457C20.9878 14.1362 22.6704 11.5386 22.6704 8.54804C22.6704 4.23915 19.1774 0.746097 14.8685 0.746097C10.5596 0.746097 7.06652 4.23915 7.06652 8.54804C7.06652 9.73801 7.33293 10.8657 7.80934 11.8749ZM11.4585 10.9706C10.1402 10.9706 8.89825 11.2976 7.80934 11.8749C9.05806 14.5198 11.7495 16.35 14.8685 16.35C16.1868 16.35 17.4287 16.023 18.5176 15.4457C17.2689 12.8008 14.5774 10.9706 11.4585 10.9706Z" fill="#D33A35"/>
<path d="M51.966 13.5106C51.966 13.9706 51.936 14.4106 51.876 14.8306H41.166C41.266 16.2906 41.876 17.0206 42.996 17.0206C43.716 17.0206 44.236 16.6906 44.556 16.0306H51.606C51.366 17.2306 50.856 18.3106 50.076 19.2706C49.316 20.2106 48.346 20.9606 47.166 21.5206C46.006 22.0606 44.726 22.3306 43.326 22.3306C41.646 22.3306 40.146 21.9806 38.826 21.2806C37.526 20.5806 36.506 19.5806 35.766 18.2806C35.046 16.9606 34.686 15.4206 34.686 13.6606C34.686 11.9006 35.046 10.3706 35.766 9.07065C36.506 7.75065 37.526 6.74065 38.826 6.04065C40.146 5.34065 41.646 4.99065 43.326 4.99065C45.006 4.99065 46.496 5.34065 47.796 6.04065C49.116 6.72065 50.136 7.70065 50.856 8.98065C51.596 10.2606 51.966 11.7706 51.966 13.5106ZM45.216 11.9206C45.216 11.3606 45.036 10.9406 44.676 10.6606C44.316 10.3606 43.866 10.2106 43.326 10.2106C42.146 10.2106 41.456 10.7806 41.256 11.9206H45.216Z" fill="white"/>
<path d="M60.4624 16.6006H67.5124V22.1206H53.1724V16.9006L59.6224 10.7206H53.2624V5.20065H67.2124V10.4206L60.4624 16.6006Z" fill="white"/>
<path d="M76.2597 8.32065C76.9397 7.34065 77.7697 6.56065 78.7497 5.98065C79.7297 5.38065 80.7497 5.08065 81.8097 5.08065V12.1906H79.9197C78.6597 12.1906 77.7297 12.4106 77.1297 12.8506C76.5497 13.2906 76.2597 14.0706 76.2597 15.1906V22.1206H69.5997V5.20065H76.2597V8.32065Z" fill="white"/>
<path d="M82.7036 13.6606C82.7036 11.8806 83.0036 10.3406 83.6036 9.04065C84.2236 7.72065 85.0636 6.72065 86.1236 6.04065C87.1836 5.34065 88.3736 4.99065 89.6936 4.99065C90.7936 4.99065 91.7436 5.22065 92.5436 5.68065C93.3436 6.12065 93.9536 6.73065 94.3736 7.51065V5.20065H101.004V22.1206H94.3736V19.8106C93.9536 20.5906 93.3436 21.2106 92.5436 21.6706C91.7436 22.1106 90.7936 22.3306 89.6936 22.3306C88.3736 22.3306 87.1836 21.9906 86.1236 21.3106C85.0636 20.6106 84.2236 19.6106 83.6036 18.3106C83.0036 16.9906 82.7036 15.4406 82.7036 13.6606ZM94.3736 13.6606C94.3736 12.7606 94.1436 12.0606 93.6836 11.5606C93.2236 11.0606 92.6336 10.8106 91.9136 10.8106C91.1936 10.8106 90.6036 11.0606 90.1436 11.5606C89.6836 12.0606 89.4536 12.7606 89.4536 13.6606C89.4536 14.5606 89.6836 15.2606 90.1436 15.7606C90.6036 16.2606 91.1936 16.5106 91.9136 16.5106C92.6336 16.5106 93.2236 16.2606 93.6836 15.7606C94.1436 15.2606 94.3736 14.5606 94.3736 13.6606Z" fill="white"/>
</svg>
