<svg width="123" height="34" viewBox="0 0 123 34" fill="none" xmlns="http://www.w3.org/2000/svg">
<g clip-path="url(#clip0_1212_2055)">
<path d="M24.2042 15.0325H13.9988C13.7355 15.0325 13.5219 15.2462 13.5219 15.5096V20.499C13.5219 20.7623 13.7355 20.9766 13.9988 20.9766H17.9799V27.1757C17.9799 27.1757 17.0858 27.4803 14.6147 27.4803C11.6989 27.4803 7.62592 26.415 7.62592 17.4585C7.62592 8.50001 11.867 7.32133 15.8489 7.32133C19.2956 7.32133 20.7806 7.92824 21.7254 8.22057C22.0221 8.31161 22.2969 8.01598 22.2969 7.75248L23.4352 2.93161C23.4352 2.80845 23.3936 2.66001 23.253 2.55911C22.8692 2.2855 20.5284 0.975586 14.6147 0.975586C7.80174 0.975586 0.813477 3.87409 0.813477 17.8077C0.813477 31.7419 8.81445 33.8183 15.5568 33.8183C21.1393 33.8183 24.5261 31.4325 24.5261 31.4325C24.6656 31.3555 24.6806 31.1604 24.6806 31.071V15.5096C24.6806 15.2462 24.4674 15.0325 24.2042 15.0325Z" fill="white"/>
<path d="M76.7973 2.64524C76.7973 2.37971 76.587 2.16553 76.3236 2.16553H70.5775C70.3149 2.16553 70.1015 2.37971 70.1015 2.64524C70.1015 2.6465 70.1031 13.7498 70.1031 13.7498H61.1464V2.64524C61.1464 2.37971 60.935 2.16553 60.6722 2.16553H54.9263C54.6648 2.16553 54.4515 2.37971 54.4515 2.64524V32.7133C54.4515 32.9785 54.6648 33.1945 54.9263 33.1945H60.6722C60.935 33.1945 61.1464 32.9785 61.1464 32.7133V19.8522H70.1031C70.1031 19.8522 70.0874 32.7123 70.0874 32.7133C70.0874 32.9785 70.3006 33.1945 70.5634 33.1945H76.3232C76.5863 33.1945 76.7967 32.9785 76.7973 32.7133V2.64524Z" fill="white"/>
<path d="M35.0471 6.59071C35.0471 4.52165 33.3882 2.84961 31.3417 2.84961C29.2973 2.84961 27.637 4.52165 27.637 6.59071C27.637 8.6576 29.2973 10.3341 31.3417 10.3341C33.3882 10.3341 35.0471 8.6576 35.0471 6.59071Z" fill="white"/>
<path d="M34.6362 26.3707C34.6362 25.6004 34.6362 12.4912 34.6362 12.4912C34.6362 12.2276 34.4234 12.0122 34.1608 12.0122H28.4328C28.17 12.0122 27.9349 12.2832 27.9349 12.5467C27.9349 12.5467 27.9349 29.2483 27.9349 32.4319C27.9349 33.0164 28.2991 33.19 28.7705 33.19C28.7705 33.19 31.2153 33.19 33.9312 33.19C34.4973 33.19 34.6362 32.9122 34.6362 32.4226C34.6362 31.3567 34.6362 27.1811 34.6362 26.3707Z" fill="white"/>
<path d="M98.6352 12.0571H92.9331C92.6715 12.0571 92.4587 12.2726 92.4587 12.5379V27.2812C92.4587 27.2812 91.0102 28.341 88.954 28.341C86.8982 28.341 86.3523 27.4082 86.3523 25.3951C86.3523 23.3794 86.3523 12.5379 86.3523 12.5379C86.3523 12.2726 86.1399 12.0571 85.8781 12.0571H80.0911C79.8299 12.0571 79.6158 12.2726 79.6158 12.5379C79.6158 12.5379 79.6158 20.3893 79.6158 26.3686C79.6158 32.3483 82.9486 33.8111 87.5334 33.8111C91.2944 33.8111 94.3269 31.7333 94.3269 31.7333C94.3269 31.7333 94.4714 32.8281 94.5365 32.958C94.6021 33.0875 94.7722 33.2184 94.9561 33.2184L98.6378 33.2022C98.899 33.2022 99.1128 32.9861 99.1128 32.7221L99.1112 12.5379C99.1112 12.2726 98.898 12.0571 98.6352 12.0571Z" fill="white"/>
<path d="M111.971 28.3231C109.993 28.2628 108.651 27.3654 108.651 27.3654V17.8435C108.651 17.8435 109.975 17.0323 111.599 16.8873C113.652 16.7033 115.631 17.3236 115.631 22.2218C115.631 27.3872 114.738 28.4064 111.971 28.3231ZM114.22 11.3819C110.981 11.3819 108.778 12.8269 108.778 12.8269V2.64524C108.778 2.37971 108.566 2.16553 108.304 2.16553H102.542C102.28 2.16553 102.067 2.37971 102.067 2.64524V32.7133C102.067 32.9785 102.28 33.1945 102.543 33.1945C102.543 33.1945 106.539 33.1945 106.541 33.1945C106.721 33.1945 106.857 33.1017 106.958 32.9392C107.057 32.7776 107.2 31.5529 107.2 31.5529C107.2 31.5529 109.557 33.7859 114.017 33.7859C119.254 33.7859 122.257 31.1294 122.257 21.8613C122.257 12.5931 117.461 11.3819 114.22 11.3819Z" fill="white"/>
<path d="M51.151 12.0093H46.8407C46.8407 12.0093 46.8342 6.31615 46.8342 6.31488C46.8342 6.09943 46.7232 5.9917 46.4741 5.9917H40.6003C40.3719 5.9917 40.2493 6.0921 40.2493 6.3116V12.196C40.2493 12.196 37.3058 12.9066 37.1067 12.964C36.9084 13.0215 36.7626 13.2043 36.7626 13.4224V17.1201C36.7626 17.386 36.975 17.6005 37.2376 17.6005H40.2493C40.2493 17.6005 40.2493 21.4681 40.2493 26.4963C40.2493 33.1038 44.884 33.753 48.0116 33.753C49.4405 33.753 51.15 33.2939 51.4322 33.1898C51.6029 33.127 51.7021 32.9504 51.7021 32.7586L51.7069 28.6909C51.7069 28.4257 51.4828 28.2109 51.2305 28.2109C50.9794 28.2109 50.3367 28.313 49.6752 28.313C47.5581 28.313 46.8407 27.3286 46.8407 26.0545C46.8407 24.7812 46.8405 17.6005 46.8405 17.6005H51.151C51.4138 17.6005 51.6264 17.386 51.6264 17.1201V12.4884C51.6264 12.223 51.4138 12.0093 51.151 12.0093Z" fill="white"/>
</g>
<defs>
<clipPath id="clip0_1212_2055">
<rect width="121.584" height="32.9754" fill="white" transform="translate(0.813477 0.975586)"/>
</clipPath>
</defs>
</svg>
