<svg width="153" height="34" viewBox="0 0 153 34" fill="none" xmlns="http://www.w3.org/2000/svg">
<g clip-path="url(#clip0_1212_2063)">
<path d="M61.7468 13.5348H66.7215C65.8917 8.2456 61.3122 4.56152 55.3526 4.56152C48.3011 4.56152 43.0098 9.74587 43.0098 18.4287C43.0098 26.9563 48.0631 32.2455 55.4968 32.2455C62.1683 32.2455 66.9443 27.9543 66.9443 21.0077V17.7713H56.0099V21.5865H62.2207C62.1421 25.4299 59.5761 27.8626 55.523 27.8626C51.0112 27.8626 47.919 24.4821 47.919 18.3763C47.919 12.3097 51.0636 8.94223 55.4181 8.94223C58.6676 8.94223 60.8908 10.6784 61.7468 13.5348Z" fill="white"/>
<path d="M70.2331 31.8765H74.996V11.6764H70.2331V31.8765ZM72.6353 8.46617C74.1487 8.46617 75.3847 7.30657 75.3847 5.8871C75.3847 4.46762 74.1487 3.29492 72.6353 3.29492C71.1219 3.29492 69.8728 4.45234 69.8728 5.8871C69.8728 7.32186 71.1001 8.46617 72.6266 8.46617H72.6353Z" fill="white"/>
<path d="M89.2585 11.6761H85.2708V6.82373H80.508V11.6761H77.6406V15.3602H80.508V26.598C80.4817 30.4 83.2464 32.2759 86.8235 32.1645C87.7763 32.1457 88.7212 31.9859 89.6275 31.6906L88.8239 27.9651C88.3688 28.0832 87.9008 28.1457 87.4306 28.1507C86.2317 28.1507 85.2708 27.7292 85.2708 25.8075V15.3493H89.2585V11.6761Z" fill="white"/>
<path d="M92.9447 31.8763H109.694V27.7839H97.8277V4.92822H92.9447V31.8763Z" fill="white"/>
<path d="M118.818 32.2848C121.989 32.2848 123.883 30.7977 124.752 29.1009H124.909V31.8765H129.495V18.35C129.495 13.0084 125.141 11.4033 121.284 11.4033C117.034 11.4033 113.772 13.2967 112.719 16.9808L117.167 17.6141C117.639 16.2317 118.982 15.0481 121.317 15.0481C123.529 15.0481 124.739 16.1793 124.739 18.1666V18.2452C124.739 19.6122 123.304 19.6799 119.738 20.0599C115.818 20.4814 112.068 21.6519 112.068 26.2051C112.055 30.1797 114.962 32.2848 118.818 32.2848ZM120.384 28.7908C118.397 28.7908 116.975 27.8823 116.975 26.1331C116.975 24.303 118.567 23.5409 120.688 23.2374C121.939 23.067 124.44 22.7504 125.055 22.2525V24.6328C125.068 26.8756 123.252 28.7842 120.384 28.7842V28.7908Z" fill="white"/>
<path d="M133.002 31.8763H137.686V28.6923H137.962C138.713 30.1664 140.279 32.2323 143.753 32.2323C148.516 32.2323 152.082 28.4543 152.082 21.7981C152.082 15.0611 148.411 11.4032 143.74 11.4032C140.174 11.4032 138.687 13.5477 137.962 15.0087H137.761V4.92822H133.002V31.8763ZM137.673 21.7719C137.673 17.8411 139.357 15.31 142.423 15.31C145.594 15.31 147.227 18.007 147.227 21.7719C147.227 25.5368 145.57 28.3233 142.423 28.3233C139.383 28.3233 137.673 25.6918 137.673 21.7719Z" fill="white"/>
<path d="M34.0301 14.1594L33.9842 14.0371L29.3545 1.96066C29.2609 1.72354 29.094 1.52239 28.8785 1.38632C28.7175 1.28333 28.5348 1.21946 28.3448 1.19983C28.1548 1.1802 27.9628 1.20537 27.7842 1.2733C27.6058 1.34124 27.4455 1.45006 27.3166 1.59104C27.1878 1.73202 27.0937 1.90124 27.0419 2.08514L23.9169 11.6524H11.2617L8.13669 2.08514C8.08457 1.90152 7.99027 1.73262 7.86129 1.5919C7.73232 1.45119 7.57225 1.34257 7.39383 1.27469C7.21543 1.2068 7.02365 1.18155 6.83375 1.20093C6.64387 1.22031 6.46113 1.2838 6.30012 1.38632C6.08451 1.52239 5.91775 1.72354 5.82405 1.96066L1.19657 14.0393L1.14853 14.1594C0.482309 15.9006 0.400233 17.8111 0.914676 19.603C1.42912 21.3949 2.51219 22.971 4.00059 24.0935L4.01806 24.1066L4.05735 24.1371L11.1001 29.4154L14.5942 32.0556L16.7169 33.6607C16.9659 33.8489 17.2695 33.9507 17.5816 33.9507C17.8938 33.9507 18.1974 33.8489 18.4464 33.6607L20.5691 32.0556L24.0632 29.4154L31.1562 24.1066L31.1758 24.0913C32.6641 22.9692 33.7473 21.3936 34.2622 19.6022C34.7769 17.8107 34.6955 15.9005 34.0301 14.1594Z" fill="#E24329"/>
<path d="M34.0302 14.1594L33.9843 14.0371C31.7286 14.5 29.6031 15.456 27.7605 16.8367L17.5948 24.5237L24.0676 29.4154L31.1606 24.1066L31.1803 24.0913C32.6679 22.9686 33.7502 21.3928 34.2643 19.6014C34.7781 17.81 34.696 15.9 34.0302 14.1594Z" fill="#FC6D26"/>
<path d="M11.1001 29.4152L14.5942 32.0554L16.7168 33.6605C16.9659 33.8487 17.2695 33.9505 17.5816 33.9505C17.8938 33.9505 18.1974 33.8487 18.4464 33.6605L20.5691 32.0554L24.0632 29.4152L17.5904 24.5234L11.1001 29.4152Z" fill="#FCA326"/>
<path d="M7.41822 16.8365C5.5761 15.4565 3.45143 14.5012 1.19657 14.0391L1.14853 14.1592C0.482309 15.9003 0.400233 17.8109 0.914676 19.6028C1.42912 21.3947 2.51219 22.9708 4.00059 24.0932L4.01806 24.1063L4.05735 24.1369L11.1001 29.4152L17.5773 24.5234L7.41822 16.8365Z" fill="#FC6D26"/>
</g>
<defs>
<clipPath id="clip0_1212_2063">
<rect width="151.774" height="32.9754" fill="white" transform="translate(0.399414 0.975586)"/>
</clipPath>
</defs>
</svg>
