<svg width="507" height="182" viewBox="0 0 507 182" fill="none" xmlns="http://www.w3.org/2000/svg">
<g filter="url(#filter0_b_1212_2432)">
<rect x="0.181641" y="0.527344" width="506.818" height="181.474" rx="16.349" fill="url(#paint0_linear_1212_2432)"/>
</g>
<rect x="80.2917" y="72.0537" width="5.72214" height="81.3362" rx="2.86107" fill="#D33A35"/>
<rect x="129.339" y="95.3516" width="5.72214" height="58.0389" rx="2.86107" fill="#D33A35"/>
<rect x="178.385" y="122.327" width="5.72214" height="31.0631" rx="2.86107" fill="#D33A35"/>
<rect x="227.433" y="80.6377" width="5.72214" height="72.7529" rx="2.86107" fill="#D33A35"/>
<rect x="276.479" y="27.9121" width="5.72214" height="125.478" rx="2.86107" fill="#D33A35"/>
<rect x="325.526" y="49.9834" width="5.72214" height="103.407" rx="2.86107" fill="#D33A35"/>
<rect x="374.573" y="35.2686" width="5.72214" height="118.121" rx="2.86107" fill="#D33A35"/>
<rect x="423.62" y="80.6377" width="5.72214" height="72.7529" rx="2.86107" fill="#D33A35"/>
<rect x="472.667" y="112.518" width="5.72214" height="40.8724" rx="2.86107" fill="#D33A35"/>
<path d="M25.1955 150.34C25.1955 149.397 25.3536 148.662 25.6697 148.133C25.9912 147.599 26.5416 147.332 27.3209 147.332C28.1002 147.332 28.6479 147.599 28.964 148.133C29.2855 148.662 29.4463 149.397 29.4463 150.34C29.4463 151.294 29.2855 152.04 28.964 152.58C28.6479 153.114 28.1002 153.381 27.3209 153.381C26.5416 153.381 25.9912 153.114 25.6697 152.58C25.3536 152.04 25.1955 151.294 25.1955 150.34ZM28.5307 150.34C28.5307 149.899 28.5008 149.525 28.4408 149.22C28.3863 148.915 28.2719 148.667 28.0975 148.476C27.9231 148.28 27.6642 148.182 27.3209 148.182C26.9776 148.182 26.7187 148.28 26.5443 148.476C26.3699 148.667 26.2528 148.915 26.1928 149.22C26.1383 149.525 26.1111 149.899 26.1111 150.34C26.1111 150.798 26.1383 151.182 26.1928 151.493C26.2473 151.803 26.3618 152.054 26.5362 152.245C26.716 152.436 26.9776 152.531 27.3209 152.531C27.6642 152.531 27.9231 152.436 28.0975 152.245C28.2773 152.054 28.3945 151.803 28.449 151.493C28.5035 151.182 28.5307 150.798 28.5307 150.34Z" fill="black"/>
<path d="M25.0729 124.992V124.141H26.7732V130.101H25.8332V124.992H25.0729ZM28.0534 127.043C28.0534 126.101 28.2115 125.365 28.5275 124.836C28.8491 124.302 29.3995 124.035 30.1788 124.035C30.9581 124.035 31.5058 124.302 31.8219 124.836C32.1434 125.365 32.3042 126.101 32.3042 127.043C32.3042 127.997 32.1434 128.744 31.8219 129.283C31.5058 129.817 30.9581 130.084 30.1788 130.084C29.3995 130.084 28.8491 129.817 28.5275 129.283C28.2115 128.744 28.0534 127.997 28.0534 127.043ZM31.3886 127.043C31.3886 126.602 31.3586 126.229 31.2987 125.923C31.2442 125.618 31.1298 125.37 30.9554 125.18C30.781 124.983 30.5221 124.885 30.1788 124.885C29.8355 124.885 29.5766 124.983 29.4022 125.18C29.2278 125.37 29.1107 125.618 29.0507 125.923C28.9962 126.229 28.969 126.602 28.969 127.043C28.969 127.501 28.9962 127.885 29.0507 128.196C29.1052 128.507 29.2197 128.757 29.394 128.948C29.5739 129.139 29.8355 129.234 30.1788 129.234C30.5221 129.234 30.781 129.139 30.9554 128.948C31.1352 128.757 31.2524 128.507 31.3069 128.196C31.3614 127.885 31.3886 127.501 31.3886 127.043ZM33.2902 127.043C33.2902 126.101 33.4482 125.365 33.7643 124.836C34.0859 124.302 34.6363 124.035 35.4156 124.035C36.1949 124.035 36.7426 124.302 37.0586 124.836C37.3802 125.365 37.5409 126.101 37.5409 127.043C37.5409 127.997 37.3802 128.744 37.0586 129.283C36.7426 129.817 36.1949 130.084 35.4156 130.084C34.6363 130.084 34.0859 129.817 33.7643 129.283C33.4482 128.744 33.2902 127.997 33.2902 127.043ZM36.6254 127.043C36.6254 126.602 36.5954 126.229 36.5355 125.923C36.481 125.618 36.3665 125.37 36.1922 125.18C36.0178 124.983 35.7589 124.885 35.4156 124.885C35.0722 124.885 34.8134 124.983 34.639 125.18C34.4646 125.37 34.3474 125.618 34.2875 125.923C34.233 126.229 34.2057 126.602 34.2057 127.043C34.2057 127.501 34.233 127.885 34.2875 128.196C34.342 128.507 34.4564 128.757 34.6308 128.948C34.8107 129.139 35.0722 129.234 35.4156 129.234C35.7589 129.234 36.0178 129.139 36.1922 128.948C36.372 128.757 36.4892 128.507 36.5437 128.196C36.5982 127.885 36.6254 127.501 36.6254 127.043Z" fill="black"/>
<path d="M25.7105 105.127C26.2337 104.675 26.6452 104.305 26.9449 104.016C27.2501 103.721 27.5035 103.416 27.7051 103.1C27.9068 102.784 28.0076 102.468 28.0076 102.152C28.0076 101.825 27.9286 101.569 27.7705 101.384C27.6179 101.198 27.3754 101.106 27.043 101.106C26.7215 101.106 26.4708 101.209 26.2909 101.416C26.1165 101.618 26.0239 101.89 26.013 102.234H25.1138C25.1302 101.612 25.3154 101.138 25.6697 100.811C26.0293 100.479 26.4844 100.313 27.0348 100.313C27.6288 100.313 28.092 100.476 28.4245 100.803C28.7623 101.13 28.9313 101.566 28.9313 102.111C28.9313 102.503 28.8305 102.882 28.6288 103.247C28.4326 103.607 28.1956 103.931 27.9177 104.22C27.6452 104.503 27.2964 104.833 26.8713 105.209L26.5035 105.536H29.0948V106.313H25.122V105.634L25.7105 105.127ZM29.9134 103.337C29.9134 102.394 30.0715 101.659 30.3876 101.13C30.7091 100.596 31.2595 100.329 32.0388 100.329C32.8181 100.329 33.3658 100.596 33.6819 101.13C34.0034 101.659 34.1642 102.394 34.1642 103.337C34.1642 104.291 34.0034 105.038 33.6819 105.577C33.3658 106.111 32.8181 106.378 32.0388 106.378C31.2595 106.378 30.7091 106.111 30.3876 105.577C30.0715 105.038 29.9134 104.291 29.9134 103.337ZM33.2486 103.337C33.2486 102.896 33.2187 102.523 33.1587 102.217C33.1042 101.912 32.9898 101.664 32.8154 101.473C32.641 101.277 32.3821 101.179 32.0388 101.179C31.6955 101.179 31.4366 101.277 31.2622 101.473C31.0878 101.664 30.9707 101.912 30.9107 102.217C30.8562 102.523 30.829 102.896 30.829 103.337C30.829 103.795 30.8562 104.179 30.9107 104.49C30.9652 104.801 31.0797 105.051 31.2541 105.242C31.4339 105.433 31.6955 105.528 32.0388 105.528C32.3821 105.528 32.641 105.433 32.8154 105.242C32.9952 105.051 33.1124 104.801 33.1669 104.49C33.2214 104.179 33.2486 103.795 33.2486 103.337ZM35.1502 103.337C35.1502 102.394 35.3083 101.659 35.6243 101.13C35.9459 100.596 36.4963 100.329 37.2756 100.329C38.0549 100.329 38.6026 100.596 38.9187 101.13C39.2402 101.659 39.401 102.394 39.401 103.337C39.401 104.291 39.2402 105.038 38.9187 105.577C38.6026 106.111 38.0549 106.378 37.2756 106.378C36.4963 106.378 35.9459 106.111 35.6243 105.577C35.3083 105.038 35.1502 104.291 35.1502 103.337ZM38.4854 103.337C38.4854 102.896 38.4554 102.523 38.3955 102.217C38.341 101.912 38.2266 101.664 38.0522 101.473C37.8778 101.277 37.6189 101.179 37.2756 101.179C36.9323 101.179 36.6734 101.277 36.499 101.473C36.3246 101.664 36.2075 101.912 36.1475 102.217C36.093 102.523 36.0658 102.896 36.0658 103.337C36.0658 103.795 36.093 104.179 36.1475 104.49C36.202 104.801 36.3164 105.051 36.4908 105.242C36.6707 105.433 36.9323 105.528 37.2756 105.528C37.6189 105.528 37.8778 105.433 38.0522 105.242C38.232 105.051 38.3492 104.801 38.4037 104.49C38.4582 104.179 38.4854 103.795 38.4854 103.337Z" fill="black"/>
<path d="M25.1792 78.2007C25.2119 77.6939 25.4054 77.2988 25.7596 77.0154C26.1193 76.732 26.577 76.5903 27.1329 76.5903C27.5144 76.5903 27.8441 76.6584 28.122 76.7947C28.3999 76.9309 28.6098 77.1162 28.7515 77.3505C28.8931 77.5849 28.964 77.8492 28.964 78.1435C28.964 78.4813 28.8741 78.7702 28.6942 79.01C28.5144 79.2497 28.2991 79.4105 28.0484 79.4923V79.5249C28.37 79.623 28.6207 79.8029 28.8005 80.0645C28.9803 80.3206 29.0703 80.6503 29.0703 81.0536C29.0703 81.3751 28.9967 81.6612 28.8495 81.9119C28.7024 82.1626 28.4844 82.3615 28.1956 82.5086C27.9068 82.6503 27.5607 82.7212 27.1574 82.7212C26.5689 82.7212 26.0838 82.5713 25.7024 82.2716C25.3263 81.9664 25.1247 81.5304 25.0975 80.9637H25.9966C26.0184 81.2525 26.1302 81.4896 26.3318 81.6748C26.5334 81.8547 26.8059 81.9446 27.1493 81.9446C27.4817 81.9446 27.7378 81.8547 27.9177 81.6748C28.0975 81.4896 28.1874 81.2525 28.1874 80.9637C28.1874 80.5822 28.0648 80.3124 27.8196 80.1544C27.5798 79.9909 27.2092 79.9092 26.7078 79.9092H26.4953V79.1407H26.716C27.1574 79.1353 27.4926 79.0617 27.7215 78.92C27.9558 78.7783 28.073 78.5549 28.073 78.2497C28.073 77.9881 27.9885 77.7811 27.8196 77.6285C27.6506 77.4704 27.4108 77.3914 27.1002 77.3914C26.795 77.3914 26.558 77.4704 26.389 77.6285C26.2201 77.7811 26.1193 77.9718 26.0866 78.2007H25.1792ZM30.0491 79.6312C30.0491 78.6884 30.2072 77.9527 30.5233 77.4241C30.8448 76.89 31.3952 76.623 32.1745 76.623C32.9538 76.623 33.5015 76.89 33.8176 77.4241C34.1391 77.9527 34.2999 78.6884 34.2999 79.6312C34.2999 80.5849 34.1391 81.3315 33.8176 81.871C33.5015 82.4051 32.9538 82.6721 32.1745 82.6721C31.3952 82.6721 30.8448 82.4051 30.5233 81.871C30.2072 81.3315 30.0491 80.5849 30.0491 79.6312ZM33.3843 79.6312C33.3843 79.1898 33.3544 78.8165 33.2944 78.5113C33.2399 78.2061 33.1255 77.9582 32.9511 77.7674C32.7767 77.5712 32.5178 77.4732 32.1745 77.4732C31.8312 77.4732 31.5723 77.5712 31.3979 77.7674C31.2236 77.9582 31.1064 78.2061 31.0464 78.5113C30.9919 78.8165 30.9647 79.1898 30.9647 79.6312C30.9647 80.089 30.9919 80.4732 31.0464 80.7838C31.1009 81.0945 31.2154 81.3451 31.3898 81.5359C31.5696 81.7266 31.8312 81.822 32.1745 81.822C32.5178 81.822 32.7767 81.7266 32.9511 81.5359C33.1309 81.3451 33.2481 81.0945 33.3026 80.7838C33.3571 80.4732 33.3843 80.089 33.3843 79.6312ZM35.2859 79.6312C35.2859 78.6884 35.444 77.9527 35.7601 77.4241C36.0816 76.89 36.632 76.623 37.4113 76.623C38.1906 76.623 38.7383 76.89 39.0544 77.4241C39.3759 77.9527 39.5367 78.6884 39.5367 79.6312C39.5367 80.5849 39.3759 81.3315 39.0544 81.871C38.7383 82.4051 38.1906 82.6721 37.4113 82.6721C36.632 82.6721 36.0816 82.4051 35.7601 81.871C35.444 81.3315 35.2859 80.5849 35.2859 79.6312ZM38.6211 79.6312C38.6211 79.1898 38.5911 78.8165 38.5312 78.5113C38.4767 78.2061 38.3623 77.9582 38.1879 77.7674C38.0135 77.5712 37.7546 77.4732 37.4113 77.4732C37.068 77.4732 36.8091 77.5712 36.6347 77.7674C36.4603 77.9582 36.3432 78.2061 36.2832 78.5113C36.2287 78.8165 36.2015 79.1898 36.2015 79.6312C36.2015 80.089 36.2287 80.4732 36.2832 80.7838C36.3377 81.0945 36.4522 81.3451 36.6265 81.5359C36.8064 81.7266 37.068 81.822 37.4113 81.822C37.7546 81.822 38.0135 81.7266 38.1879 81.5359C38.3677 81.3451 38.4849 81.0945 38.5394 80.7838C38.5939 80.4732 38.6211 80.089 38.6211 79.6312Z" fill="black"/>
<path d="M25.0811 57.7399V57.0369L27.8277 53.0968H28.9558V56.9306H29.716V57.7399H28.9558V58.9824H28.0403V57.7399H25.0811ZM28.0811 54.045L26.152 56.9306H28.0811V54.045ZM30.4882 55.9252C30.4882 54.9824 30.6462 54.2467 30.9623 53.7181C31.2839 53.184 31.8343 52.917 32.6136 52.917C33.3929 52.917 33.9406 53.184 34.2566 53.7181C34.5782 54.2467 34.7389 54.9824 34.7389 55.9252C34.7389 56.8789 34.5782 57.6255 34.2566 58.165C33.9406 58.699 33.3929 58.9661 32.6136 58.9661C31.8343 58.9661 31.2839 58.699 30.9623 58.165C30.6462 57.6255 30.4882 56.8789 30.4882 55.9252ZM33.8234 55.9252C33.8234 55.4837 33.7934 55.1104 33.7335 54.8053C33.679 54.5001 33.5645 54.2521 33.3902 54.0614C33.2158 53.8652 32.9569 53.7671 32.6136 53.7671C32.2702 53.7671 32.0114 53.8652 31.837 54.0614C31.6626 54.2521 31.5454 54.5001 31.4855 54.8053C31.431 55.1104 31.4038 55.4837 31.4038 55.9252C31.4038 56.3829 31.431 56.7671 31.4855 57.0778C31.54 57.3884 31.6544 57.6391 31.8288 57.8298C32.0087 58.0206 32.2702 58.1159 32.6136 58.1159C32.9569 58.1159 33.2158 58.0206 33.3902 57.8298C33.57 57.6391 33.6872 57.3884 33.7417 57.0778C33.7962 56.7671 33.8234 56.3829 33.8234 55.9252ZM35.725 55.9252C35.725 54.9824 35.883 54.2467 36.1991 53.7181C36.5206 53.184 37.0711 52.917 37.8504 52.917C38.6297 52.917 39.1774 53.184 39.4934 53.7181C39.815 54.2467 39.9757 54.9824 39.9757 55.9252C39.9757 56.8789 39.815 57.6255 39.4934 58.165C39.1774 58.699 38.6297 58.9661 37.8504 58.9661C37.0711 58.9661 36.5206 58.699 36.1991 58.165C35.883 57.6255 35.725 56.8789 35.725 55.9252ZM39.0602 55.9252C39.0602 55.4837 39.0302 55.1104 38.9703 54.8053C38.9158 54.5001 38.8013 54.2521 38.6269 54.0614C38.4525 53.8652 38.1937 53.7671 37.8504 53.7671C37.507 53.7671 37.2482 53.8652 37.0738 54.0614C36.8994 54.2521 36.7822 54.5001 36.7223 54.8053C36.6678 55.1104 36.6405 55.4837 36.6405 55.9252C36.6405 56.3829 36.6678 56.7671 36.7223 57.0778C36.7768 57.3884 36.8912 57.6391 37.0656 57.8298C37.2454 58.0206 37.507 58.1159 37.8504 58.1159C38.1937 58.1159 38.4525 58.0206 38.6269 57.8298C38.8068 57.6391 38.9239 57.3884 38.9784 57.0778C39.0329 56.7671 39.0602 56.3829 39.0602 55.9252Z" fill="black"/>
<path d="M29.0376 30.1183H26.2991V31.745C26.4135 31.5924 26.5825 31.4643 26.8059 31.3608C27.0348 31.2572 27.2773 31.2055 27.5335 31.2055C27.9912 31.2055 28.3618 31.3036 28.6452 31.4998C28.934 31.6959 29.1384 31.9439 29.2583 32.2436C29.3836 32.5434 29.4463 32.8594 29.4463 33.1919C29.4463 33.5951 29.3673 33.9548 29.2092 34.2709C29.0566 34.5815 28.825 34.8268 28.5144 35.0066C28.2092 35.1864 27.8332 35.2764 27.3863 35.2764C26.7923 35.2764 26.3155 35.1292 25.9558 34.8349C25.5961 34.5407 25.3808 34.151 25.31 33.666H26.2174C26.2773 33.9221 26.4108 34.1265 26.6179 34.2791C26.825 34.4262 27.0839 34.4998 27.3945 34.4998C27.7814 34.4998 28.0702 34.3826 28.261 34.1483C28.4572 33.914 28.5553 33.6033 28.5553 33.2164C28.5553 32.824 28.4572 32.5243 28.261 32.3172C28.0648 32.1047 27.776 31.9984 27.3945 31.9984C27.1275 31.9984 26.9013 32.0665 26.716 32.2028C26.5362 32.3336 26.4054 32.5134 26.3236 32.7423H25.4408V29.3008H29.0376V30.1183ZM30.4164 32.2191C30.4164 31.2763 30.5744 30.5406 30.8905 30.012C31.212 29.4779 31.7624 29.2109 32.5417 29.2109C33.321 29.2109 33.8687 29.4779 34.1848 30.012C34.5063 30.5406 34.6671 31.2763 34.6671 32.2191C34.6671 33.1728 34.5063 33.9194 34.1848 34.4589C33.8687 34.993 33.321 35.26 32.5417 35.26C31.7624 35.26 31.212 34.993 30.8905 34.4589C30.5744 33.9194 30.4164 33.1728 30.4164 32.2191ZM33.7516 32.2191C33.7516 31.7777 33.7216 31.4044 33.6616 31.0992C33.6071 30.794 33.4927 30.5461 33.3183 30.3553C33.1439 30.1591 32.8851 30.061 32.5417 30.061C32.1984 30.061 31.9395 30.1591 31.7652 30.3553C31.5908 30.5461 31.4736 30.794 31.4137 31.0992C31.3592 31.4044 31.3319 31.7777 31.3319 32.2191C31.3319 32.6769 31.3592 33.0611 31.4137 33.3717C31.4681 33.6823 31.5826 33.933 31.757 34.1238C31.9368 34.3145 32.1984 34.4099 32.5417 34.4099C32.8851 34.4099 33.1439 34.3145 33.3183 34.1238C33.4981 33.933 33.6153 33.6823 33.6698 33.3717C33.7243 33.0611 33.7516 32.6769 33.7516 32.2191ZM35.6531 32.2191C35.6531 31.2763 35.8112 30.5406 36.1273 30.012C36.4488 29.4779 36.9992 29.2109 37.7785 29.2109C38.5578 29.2109 39.1055 29.4779 39.4216 30.012C39.7431 30.5406 39.9039 31.2763 39.9039 32.2191C39.9039 33.1728 39.7431 33.9194 39.4216 34.4589C39.1055 34.993 38.5578 35.26 37.7785 35.26C36.9992 35.26 36.4488 34.993 36.1273 34.4589C35.8112 33.9194 35.6531 33.1728 35.6531 32.2191ZM38.9883 32.2191C38.9883 31.7777 38.9584 31.4044 38.8984 31.0992C38.8439 30.794 38.7295 30.5461 38.5551 30.3553C38.3807 30.1591 38.1218 30.061 37.7785 30.061C37.4352 30.061 37.1763 30.1591 37.0019 30.3553C36.8275 30.5461 36.7104 30.794 36.6504 31.0992C36.5959 31.4044 36.5687 31.7777 36.5687 32.2191C36.5687 32.6769 36.5959 33.0611 36.6504 33.3717C36.7049 33.6823 36.8194 33.933 36.9938 34.1238C37.1736 34.3145 37.4352 34.4099 37.7785 34.4099C38.1218 34.4099 38.3807 34.3145 38.5551 34.1238C38.7349 33.933 38.8521 33.6823 38.9066 33.3717C38.9611 33.0611 38.9883 32.6769 38.9883 32.2191Z" fill="black"/>
<defs>
<filter id="filter0_b_1212_2432" x="-97.9122" y="-97.5665" width="703.006" height="377.661" filterUnits="userSpaceOnUse" color-interpolation-filters="sRGB">
<feFlood flood-opacity="0" result="BackgroundImageFix"/>
<feGaussianBlur in="BackgroundImageFix" stdDeviation="49.0469"/>
<feComposite in2="SourceAlpha" operator="in" result="effect1_backgroundBlur_1212_2432"/>
<feBlend mode="normal" in="SourceGraphic" in2="effect1_backgroundBlur_1212_2432" result="shape"/>
</filter>
<linearGradient id="paint0_linear_1212_2432" x1="253.591" y1="-0.60686" x2="356.738" y2="216.269" gradientUnits="userSpaceOnUse">
<stop stop-color="white"/>
<stop offset="1" stop-color="white" stop-opacity="0.8"/>
</linearGradient>
</defs>
</svg>
