<svg width="39" height="33" viewBox="0 0 39 33" fill="none" xmlns="http://www.w3.org/2000/svg">
<path d="M17.6452 0.879098L3.35902 6.79045C2.56479 7.11946 2.5728 8.24789 3.37245 8.56476L17.7182 14.2537C18.9787 14.7535 20.3824 14.7535 21.6428 14.2537L35.9887 8.56476C36.788 8.24789 36.7964 7.11946 36.0018 6.79067L21.716 0.879098C20.4126 0.33978 18.9485 0.33978 17.6452 0.879098Z" fill="#FCB400"/>
<path d="M20.9534 17.3599V31.5719C20.9534 32.2476 21.6349 32.7107 22.2633 32.4616L38.2489 26.2567C38.4272 26.1861 38.5801 26.0635 38.6878 25.9048C38.7956 25.7462 38.8531 25.5588 38.8531 25.3671V11.1553C38.8531 10.4793 38.1715 10.0165 37.5432 10.2656L21.5576 16.4704C21.3793 16.5411 21.2265 16.6637 21.1187 16.8224C21.011 16.9811 20.9534 17.1683 20.9534 17.3602" fill="#18BFFF"/>
<path d="M17.2204 18.0932L12.4763 20.3839L11.9946 20.6168L1.97993 25.4153C1.34533 25.7215 0.534851 25.2589 0.534851 24.5537V11.2148C0.534851 10.9597 0.665671 10.7394 0.841109 10.5737C0.913075 10.502 0.994729 10.4408 1.08368 10.3918C1.3228 10.2482 1.66414 10.2098 1.95437 10.3246L17.1407 16.3419C17.9127 16.6481 17.9733 17.7298 17.2204 18.0935" fill="#F82B60"/>
<path d="M17.2204 18.0932L12.4762 20.3839L0.841125 10.5735C0.913114 10.5019 0.994768 10.4407 1.08371 10.3918C1.32282 10.2482 1.66417 10.2098 1.9544 10.3246L17.1408 16.3419C17.9126 16.6481 17.9733 17.7298 17.2204 18.0935" fill="black" fill-opacity="0.25"/>
</svg>
