<svg width="35" height="34" viewBox="0 0 35 34" fill="none" xmlns="http://www.w3.org/2000/svg">
<path d="M33.9854 13.6247L33.9395 13.5024L29.3099 1.42599C29.2162 1.18887 29.0493 0.987718 28.8338 0.851654C28.6729 0.748659 28.4901 0.684789 28.3001 0.665163C28.1101 0.645536 27.9181 0.670699 27.7395 0.738635C27.5611 0.806573 27.4008 0.915392 27.2719 1.05637C27.1431 1.19735 27.049 1.36657 26.9972 1.55047L23.8722 11.1177H11.2171L8.09202 1.55047C8.03989 1.36685 7.94559 1.19795 7.81662 1.05724C7.68764 0.916526 7.52757 0.807899 7.34915 0.740018C7.17076 0.672136 6.97897 0.64688 6.78907 0.666262C6.59919 0.685645 6.41645 0.749128 6.25544 0.851654C6.03983 0.987718 5.87307 1.18887 5.77937 1.42599L1.1519 13.5046L1.10385 13.6247C0.437632 15.3659 0.355556 17.2764 0.869999 19.0683C1.38444 20.8602 2.46751 22.4363 3.95591 23.5588L3.97338 23.5719L4.01267 23.6025L11.0554 28.8807L14.5495 31.5209L16.6722 33.126C16.9212 33.3143 17.2249 33.416 17.537 33.416C17.8491 33.416 18.1527 33.3143 18.4018 33.126L20.5244 31.5209L24.0185 28.8807L31.1115 23.5719L31.1312 23.5566C32.6194 22.4346 33.7026 20.8589 34.2175 19.0675C34.7323 17.2761 34.6508 15.3658 33.9854 13.6247Z" fill="#E24329"/>
<path d="M33.9855 13.6247L33.9396 13.5024C31.684 13.9653 29.5585 14.9213 27.7158 16.3021L17.5502 23.989L24.023 28.8808L31.116 23.5719L31.1356 23.5566C32.6232 22.434 33.7055 20.8581 34.2196 19.0667C34.7334 17.2753 34.6513 15.3654 33.9855 13.6247Z" fill="#FC6D26"/>
<path d="M11.0554 28.8805L14.5495 31.5207L16.6722 33.1258C16.9212 33.314 17.2248 33.4158 17.5369 33.4158C17.8491 33.4158 18.1527 33.314 18.4017 33.1258L20.5244 31.5207L24.0185 28.8805L17.5457 23.9888L11.0554 28.8805Z" fill="#FCA326"/>
<path d="M7.37354 16.3018C5.53142 14.9218 3.40675 13.9665 1.1519 13.5044L1.10385 13.6245C0.437632 15.3657 0.355556 17.2762 0.869999 19.0681C1.38444 20.86 2.46751 22.4361 3.95591 23.5586L3.97338 23.5717L4.01267 23.6022L11.0554 28.8805L17.5326 23.9888L7.37354 16.3018Z" fill="#FC6D26"/>
</svg>
