<svg width="611" height="353" viewBox="0 0 611 353" fill="none" xmlns="http://www.w3.org/2000/svg">
<rect x="0.0576172" y="0.695312" width="610.074" height="351.966" rx="29.3305" fill="url(#paint0_linear_1212_2344)"/>
<path d="M121.726 264.634C122.246 264.716 122.719 264.928 123.143 265.27C123.581 265.612 123.923 266.037 124.17 266.543C124.43 267.05 124.56 267.59 124.56 268.165C124.56 268.89 124.375 269.547 124.005 270.136C123.636 270.711 123.095 271.169 122.383 271.512C121.685 271.84 120.857 272.004 119.899 272.004H114.561V257.694H119.694C120.666 257.694 121.494 257.858 122.178 258.187C122.862 258.502 123.376 258.933 123.718 259.48C124.06 260.028 124.231 260.644 124.231 261.328C124.231 262.177 123.998 262.882 123.533 263.443C123.081 263.99 122.479 264.387 121.726 264.634ZM116.429 263.874H119.571C120.447 263.874 121.124 263.669 121.603 263.258C122.082 262.847 122.322 262.279 122.322 261.554C122.322 260.829 122.082 260.26 121.603 259.85C121.124 259.439 120.433 259.234 119.529 259.234H116.429V263.874ZM119.735 270.465C120.666 270.465 121.391 270.246 121.911 269.808C122.431 269.37 122.691 268.76 122.691 267.98C122.691 267.186 122.418 266.564 121.87 266.112C121.323 265.647 120.59 265.414 119.673 265.414H116.429V270.465H119.735ZM128.117 258.926C127.761 258.926 127.46 258.803 127.214 258.556C126.968 258.31 126.844 258.009 126.844 257.653C126.844 257.297 126.968 256.996 127.214 256.75C127.46 256.503 127.761 256.38 128.117 256.38C128.46 256.38 128.747 256.503 128.98 256.75C129.226 256.996 129.349 257.297 129.349 257.653C129.349 258.009 129.226 258.31 128.98 258.556C128.747 258.803 128.46 258.926 128.117 258.926ZM129.021 260.753V272.004H127.152V260.753H129.021ZM134.073 256.811V272.004H132.205V256.811H134.073ZM139.126 256.811V272.004H137.258V256.811H139.126ZM158.768 272.004L156.9 270.116C156.202 270.841 155.456 271.382 154.662 271.737C153.868 272.08 152.972 272.251 151.972 272.251C150.987 272.251 150.111 272.073 149.344 271.717C148.592 271.361 148.003 270.855 147.579 270.198C147.168 269.541 146.963 268.774 146.963 267.898C146.963 266.899 147.243 266.023 147.804 265.27C148.379 264.504 149.221 263.901 150.33 263.463C149.892 262.943 149.577 262.464 149.385 262.026C149.194 261.588 149.098 261.109 149.098 260.589C149.098 259.987 149.249 259.446 149.55 258.967C149.864 258.474 150.309 258.091 150.884 257.817C151.459 257.543 152.123 257.407 152.876 257.407C153.615 257.407 154.258 257.55 154.806 257.838C155.353 258.125 155.764 258.529 156.038 259.049C156.311 259.556 156.434 260.124 156.407 260.753H154.539C154.552 260.192 154.395 259.754 154.067 259.439C153.738 259.111 153.314 258.946 152.794 258.946C152.246 258.946 151.801 259.104 151.459 259.419C151.131 259.72 150.966 260.11 150.966 260.589C150.966 261 151.076 261.397 151.295 261.78C151.527 262.163 151.911 262.635 152.445 263.196L156.715 267.488L157.085 266.913L158.481 264.572H160.493L158.809 267.488C158.577 267.898 158.303 268.329 157.988 268.781L161.211 272.004H158.768ZM151.972 270.649C152.711 270.649 153.375 270.506 153.964 270.218C154.566 269.931 155.134 269.486 155.668 268.884L151.459 264.654C149.707 265.325 148.831 266.386 148.831 267.837C148.831 268.644 149.118 269.315 149.693 269.849C150.282 270.382 151.042 270.649 151.972 270.649ZM177.244 257.694V259.213H173.343V272.004H171.474V259.213H167.553V257.694H177.244ZM178.845 266.338C178.845 265.188 179.078 264.182 179.543 263.32C180.009 262.444 180.645 261.766 181.453 261.287C182.274 260.808 183.184 260.568 184.183 260.568C185.169 260.568 186.024 260.781 186.75 261.205C187.475 261.629 188.016 262.163 188.372 262.806V260.753H190.261V272.004H188.372V269.91C188.002 270.567 187.448 271.115 186.709 271.553C185.983 271.977 185.135 272.189 184.163 272.189C183.164 272.189 182.26 271.943 181.453 271.45C180.645 270.957 180.009 270.266 179.543 269.376C179.078 268.487 178.845 267.474 178.845 266.338ZM188.372 266.358C188.372 265.51 188.201 264.771 187.859 264.141C187.516 263.511 187.051 263.032 186.462 262.704C185.888 262.362 185.251 262.19 184.553 262.19C183.855 262.19 183.218 262.355 182.644 262.683C182.069 263.012 181.61 263.491 181.268 264.12C180.926 264.75 180.755 265.489 180.755 266.338C180.755 267.2 180.926 267.953 181.268 268.596C181.61 269.226 182.069 269.712 182.644 270.054C183.218 270.382 183.855 270.547 184.553 270.547C185.251 270.547 185.888 270.382 186.462 270.054C187.051 269.712 187.516 269.226 187.859 268.596C188.201 267.953 188.372 267.207 188.372 266.358ZM199.29 272.004L196.621 267.816L194.055 272.004H192.104L195.738 266.42L192.104 260.753H194.219L196.888 264.921L199.434 260.753H201.384L197.771 266.317L201.405 272.004H199.29ZM213.508 265.948C213.508 266.304 213.488 266.68 213.447 267.077H204.454C204.522 268.186 204.899 269.055 205.583 269.684C206.281 270.3 207.123 270.608 208.109 270.608C208.916 270.608 209.587 270.423 210.121 270.054C210.668 269.671 211.051 269.164 211.27 268.535H213.282C212.981 269.616 212.379 270.499 211.476 271.183C210.572 271.854 209.45 272.189 208.109 272.189C207.041 272.189 206.083 271.95 205.234 271.471C204.399 270.992 203.742 270.314 203.263 269.438C202.784 268.548 202.545 267.522 202.545 266.358C202.545 265.195 202.777 264.175 203.243 263.299C203.708 262.423 204.358 261.752 205.193 261.287C206.042 260.808 207.014 260.568 208.109 260.568C209.176 260.568 210.121 260.801 210.942 261.267C211.763 261.732 212.393 262.375 212.831 263.196C213.282 264.004 213.508 264.921 213.508 265.948ZM211.578 265.558C211.578 264.846 211.421 264.237 211.106 263.73C210.791 263.21 210.36 262.82 209.813 262.56C209.279 262.286 208.683 262.149 208.026 262.149C207.082 262.149 206.274 262.45 205.604 263.053C204.947 263.655 204.57 264.49 204.474 265.558H211.578ZM219.957 272.189C219.095 272.189 218.322 272.045 217.637 271.758C216.953 271.457 216.412 271.046 216.015 270.526C215.619 269.992 215.4 269.383 215.358 268.699H217.288C217.343 269.26 217.603 269.719 218.069 270.074C218.548 270.43 219.17 270.608 219.937 270.608C220.649 270.608 221.21 270.451 221.621 270.136C222.031 269.821 222.236 269.424 222.236 268.945C222.236 268.452 222.017 268.09 221.579 267.857C221.141 267.611 220.464 267.371 219.547 267.138C218.712 266.919 218.028 266.7 217.494 266.481C216.974 266.249 216.522 265.913 216.139 265.475C215.769 265.024 215.584 264.435 215.584 263.71C215.584 263.135 215.755 262.608 216.098 262.129C216.44 261.65 216.926 261.273 217.555 261C218.185 260.712 218.904 260.568 219.711 260.568C220.957 260.568 221.963 260.883 222.729 261.513C223.496 262.143 223.906 263.005 223.961 264.1H222.093C222.052 263.511 221.812 263.039 221.374 262.683C220.95 262.327 220.375 262.149 219.65 262.149C218.979 262.149 218.445 262.293 218.048 262.581C217.651 262.868 217.453 263.244 217.453 263.71C217.453 264.079 217.569 264.387 217.802 264.634C218.048 264.866 218.349 265.058 218.705 265.209C219.075 265.345 219.581 265.503 220.224 265.681C221.032 265.9 221.689 266.119 222.195 266.338C222.702 266.543 223.133 266.858 223.489 267.282C223.858 267.707 224.05 268.261 224.064 268.945C224.064 269.561 223.893 270.116 223.55 270.608C223.208 271.101 222.722 271.491 222.093 271.779C221.477 272.052 220.765 272.189 219.957 272.189Z" fill="white"/>
<path d="M497.041 279.888V281.469H488.849V279.888H497.041ZM509.786 284.282C509.786 284.939 509.622 285.568 509.294 286.171C508.965 286.759 508.479 287.252 507.836 287.649C507.206 288.046 506.446 288.272 505.557 288.326V289.989H504.448V288.326C503.203 288.217 502.19 287.82 501.409 287.135C500.629 286.437 500.232 285.555 500.219 284.487H502.21C502.265 285.062 502.477 285.561 502.847 285.986C503.23 286.41 503.764 286.677 504.448 286.786V281.654C503.531 281.421 502.792 281.181 502.231 280.935C501.67 280.689 501.19 280.305 500.794 279.785C500.397 279.265 500.198 278.567 500.198 277.691C500.198 276.582 500.581 275.665 501.348 274.94C502.128 274.214 503.161 273.811 504.448 273.729V272.024H505.557V273.729C506.72 273.824 507.658 274.201 508.37 274.858C509.081 275.501 509.492 276.343 509.601 277.383H507.61C507.541 276.904 507.329 276.473 506.973 276.09C506.618 275.693 506.145 275.433 505.557 275.309V280.319C506.46 280.552 507.192 280.791 507.754 281.038C508.329 281.27 508.808 281.647 509.191 282.167C509.588 282.687 509.786 283.392 509.786 284.282ZM502.108 277.588C502.108 278.259 502.306 278.772 502.703 279.128C503.1 279.484 503.682 279.778 504.448 280.011V275.268C503.736 275.337 503.168 275.57 502.744 275.966C502.32 276.35 502.108 276.89 502.108 277.588ZM505.557 286.807C506.296 286.725 506.871 286.458 507.281 286.006C507.706 285.555 507.918 285.014 507.918 284.384C507.918 283.714 507.713 283.2 507.302 282.844C506.891 282.475 506.31 282.181 505.557 281.962V286.807ZM512.518 275.063V273.359H516.378V288.203H514.489V275.063H512.518ZM529.052 274.981H521.846V279.662C522.161 279.224 522.626 278.868 523.242 278.594C523.858 278.307 524.522 278.163 525.234 278.163C526.37 278.163 527.294 278.403 528.005 278.882C528.717 279.347 529.224 279.956 529.525 280.709C529.84 281.448 529.997 282.235 529.997 283.07C529.997 284.056 529.812 284.939 529.443 285.719C529.073 286.499 528.505 287.115 527.738 287.567C526.986 288.018 526.048 288.244 524.926 288.244C523.489 288.244 522.325 287.875 521.435 287.135C520.546 286.396 520.005 285.411 519.813 284.179H521.641C521.819 284.959 522.195 285.568 522.77 286.006C523.345 286.444 524.07 286.663 524.946 286.663C526.028 286.663 526.842 286.342 527.389 285.698C527.937 285.041 528.211 284.179 528.211 283.111C528.211 282.044 527.937 281.222 527.389 280.648C526.842 280.059 526.034 279.765 524.967 279.765C524.241 279.765 523.605 279.943 523.057 280.299C522.524 280.641 522.133 281.113 521.887 281.715H520.121V273.338H529.052V274.981ZM532.028 284.898V283.481L539.235 273.503H541.473V283.276H543.526V284.898H541.473V288.203H539.625V284.898H532.028ZM539.707 275.453L534.184 283.276H539.707V275.453ZM546.295 288.326C545.94 288.326 545.638 288.203 545.392 287.957C545.146 287.71 545.022 287.409 545.022 287.053C545.022 286.697 545.146 286.396 545.392 286.15C545.638 285.904 545.94 285.78 546.295 285.78C546.638 285.78 546.925 285.904 547.158 286.15C547.404 286.396 547.527 286.697 547.527 287.053C547.527 287.409 547.404 287.71 547.158 287.957C546.925 288.203 546.638 288.326 546.295 288.326ZM559.168 274.981H551.961V279.662C552.276 279.224 552.741 278.868 553.357 278.594C553.973 278.307 554.637 278.163 555.349 278.163C556.485 278.163 557.409 278.403 558.121 278.882C558.832 279.347 559.339 279.956 559.64 280.709C559.955 281.448 560.112 282.235 560.112 283.07C560.112 284.056 559.927 284.939 559.558 285.719C559.188 286.499 558.62 287.115 557.854 287.567C557.101 288.018 556.163 288.244 555.041 288.244C553.604 288.244 552.44 287.875 551.551 287.135C550.661 286.396 550.12 285.411 549.929 284.179H551.756C551.934 284.959 552.31 285.568 552.885 286.006C553.46 286.444 554.186 286.663 555.062 286.663C556.143 286.663 556.957 286.342 557.505 285.698C558.052 285.041 558.326 284.179 558.326 283.111C558.326 282.044 558.052 281.222 557.505 280.648C556.957 280.059 556.15 279.765 555.082 279.765C554.357 279.765 553.72 279.943 553.173 280.299C552.639 280.641 552.249 281.113 552.002 281.715H550.237V273.338H559.168V274.981ZM562.595 280.627C562.595 278.273 562.978 276.439 563.745 275.125C564.511 273.797 565.853 273.133 567.769 273.133C569.672 273.133 571.006 273.797 571.773 275.125C572.539 276.439 572.922 278.273 572.922 280.627C572.922 283.022 572.539 284.884 571.773 286.212C571.006 287.539 569.672 288.203 567.769 288.203C565.853 288.203 564.511 287.539 563.745 286.212C562.978 284.884 562.595 283.022 562.595 280.627ZM571.075 280.627C571.075 279.436 570.992 278.43 570.828 277.609C570.678 276.774 570.356 276.103 569.863 275.597C569.384 275.09 568.686 274.837 567.769 274.837C566.838 274.837 566.126 275.09 565.634 275.597C565.155 276.103 564.833 276.774 564.669 277.609C564.518 278.43 564.443 279.436 564.443 280.627C564.443 281.859 564.518 282.892 564.669 283.727C564.833 284.562 565.155 285.233 565.634 285.739C566.126 286.246 566.838 286.499 567.769 286.499C568.686 286.499 569.384 286.246 569.863 285.739C570.356 285.233 570.678 284.562 570.828 283.727C570.992 282.892 571.075 281.859 571.075 280.627Z" fill="white"/>
<path d="M123.369 290.958V292.477H119.468V305.268H117.6V292.477H113.678V290.958H123.369ZM130.576 305.453C129.522 305.453 128.564 305.213 127.701 304.734C126.853 304.255 126.182 303.578 125.689 302.702C125.21 301.812 124.971 300.785 124.971 299.622C124.971 298.472 125.217 297.459 125.71 296.583C126.216 295.694 126.901 295.016 127.763 294.551C128.625 294.072 129.59 293.832 130.658 293.832C131.725 293.832 132.69 294.072 133.553 294.551C134.415 295.016 135.093 295.687 135.585 296.563C136.092 297.439 136.345 298.459 136.345 299.622C136.345 300.785 136.085 301.812 135.565 302.702C135.058 303.578 134.367 304.255 133.491 304.734C132.615 305.213 131.643 305.453 130.576 305.453ZM130.576 303.81C131.246 303.81 131.876 303.653 132.465 303.338C133.053 303.023 133.525 302.551 133.881 301.921C134.251 301.292 134.436 300.525 134.436 299.622C134.436 298.719 134.258 297.952 133.902 297.322C133.546 296.693 133.08 296.227 132.506 295.926C131.931 295.611 131.308 295.454 130.637 295.454C129.953 295.454 129.323 295.611 128.748 295.926C128.187 296.227 127.735 296.693 127.393 297.322C127.051 297.952 126.88 298.719 126.88 299.622C126.88 300.539 127.044 301.312 127.373 301.942C127.715 302.572 128.167 303.044 128.728 303.359C129.289 303.66 129.905 303.81 130.576 303.81ZM138.103 299.601C138.103 298.452 138.336 297.446 138.801 296.583C139.267 295.707 139.903 295.03 140.711 294.551C141.532 294.072 142.449 293.832 143.462 293.832C144.338 293.832 145.153 294.037 145.905 294.448C146.658 294.845 147.233 295.372 147.63 296.029V290.075H149.519V305.268H147.63V303.153C147.26 303.824 146.713 304.378 145.987 304.816C145.262 305.241 144.413 305.453 143.442 305.453C142.442 305.453 141.532 305.206 140.711 304.714C139.903 304.221 139.267 303.53 138.801 302.64C138.336 301.75 138.103 300.737 138.103 299.601ZM147.63 299.622C147.63 298.773 147.459 298.034 147.117 297.405C146.774 296.775 146.309 296.296 145.721 295.967C145.146 295.625 144.509 295.454 143.811 295.454C143.113 295.454 142.477 295.618 141.902 295.947C141.327 296.275 140.868 296.754 140.526 297.384C140.184 298.014 140.013 298.753 140.013 299.601C140.013 300.464 140.184 301.217 140.526 301.86C140.868 302.489 141.327 302.975 141.902 303.318C142.477 303.646 143.113 303.81 143.811 303.81C144.509 303.81 145.146 303.646 145.721 303.318C146.309 302.975 146.774 302.489 147.117 301.86C147.459 301.217 147.63 300.471 147.63 299.622ZM151.978 299.601C151.978 298.452 152.211 297.446 152.676 296.583C153.142 295.707 153.778 295.03 154.586 294.551C155.407 294.072 156.317 293.832 157.316 293.832C158.302 293.832 159.157 294.044 159.883 294.469C160.608 294.893 161.149 295.427 161.505 296.07V294.017H163.394V305.268H161.505V303.174C161.135 303.831 160.581 304.378 159.842 304.816C159.116 305.241 158.268 305.453 157.296 305.453C156.297 305.453 155.393 305.206 154.586 304.714C153.778 304.221 153.142 303.53 152.676 302.64C152.211 301.75 151.978 300.737 151.978 299.601ZM161.505 299.622C161.505 298.773 161.334 298.034 160.991 297.405C160.649 296.775 160.184 296.296 159.595 295.967C159.02 295.625 158.384 295.454 157.686 295.454C156.988 295.454 156.351 295.618 155.776 295.947C155.202 296.275 154.743 296.754 154.401 297.384C154.059 298.014 153.888 298.753 153.888 299.601C153.888 300.464 154.059 301.217 154.401 301.86C154.743 302.489 155.202 302.975 155.776 303.318C156.351 303.646 156.988 303.81 157.686 303.81C158.384 303.81 159.02 303.646 159.595 303.318C160.184 302.975 160.649 302.489 160.991 301.86C161.334 301.217 161.505 300.471 161.505 299.622ZM176.242 294.017L169.466 310.565H167.536L169.754 305.145L165.216 294.017H167.29L170.821 303.133L174.312 294.017H176.242ZM180.05 302.681L177.75 308.204H176.498L177.997 302.681H180.05ZM186.863 292.128V290.424H190.723V305.268H188.834V292.128H186.863ZM202.206 293.955C201.905 292.436 200.968 291.676 199.393 291.676C198.175 291.676 197.265 292.149 196.663 293.093C196.061 294.024 195.766 295.564 195.78 297.713C196.095 297.001 196.615 296.446 197.34 296.05C198.079 295.639 198.901 295.434 199.804 295.434C201.214 295.434 202.336 295.872 203.171 296.748C204.02 297.624 204.444 298.835 204.444 300.382C204.444 301.312 204.259 302.147 203.89 302.886C203.534 303.626 202.986 304.214 202.247 304.652C201.522 305.09 200.639 305.309 199.599 305.309C198.189 305.309 197.087 304.994 196.293 304.365C195.499 303.735 194.945 302.866 194.63 301.757C194.315 300.649 194.158 299.28 194.158 297.651C194.158 292.628 195.91 290.116 199.414 290.116C200.755 290.116 201.809 290.479 202.576 291.204C203.342 291.93 203.794 292.847 203.931 293.955H202.206ZM199.414 297.014C198.825 297.014 198.271 297.138 197.751 297.384C197.231 297.617 196.807 297.979 196.478 298.472C196.163 298.951 196.006 299.54 196.006 300.238C196.006 301.278 196.307 302.127 196.909 302.784C197.511 303.427 198.374 303.749 199.496 303.749C200.454 303.749 201.214 303.454 201.775 302.866C202.35 302.264 202.637 301.456 202.637 300.443C202.637 299.376 202.364 298.541 201.816 297.938C201.269 297.322 200.468 297.014 199.414 297.014ZM207.868 305.391C207.512 305.391 207.211 305.268 206.965 305.022C206.718 304.775 206.595 304.474 206.595 304.118C206.595 303.762 206.718 303.461 206.965 303.215C207.211 302.969 207.512 302.845 207.868 302.845C208.21 302.845 208.498 302.969 208.73 303.215C208.977 303.461 209.1 303.762 209.1 304.118C209.1 304.474 208.977 304.775 208.73 305.022C208.498 305.268 208.21 305.391 207.868 305.391ZM207.868 296.604C207.512 296.604 207.211 296.481 206.965 296.234C206.718 295.988 206.595 295.687 206.595 295.331C206.595 294.975 206.718 294.674 206.965 294.428C207.211 294.181 207.512 294.058 207.868 294.058C208.21 294.058 208.498 294.181 208.73 294.428C208.977 294.674 209.1 294.975 209.1 295.331C209.1 295.687 208.977 295.988 208.73 296.234C208.498 296.481 208.21 296.604 207.868 296.604ZM211.295 294.161C211.39 292.901 211.876 291.916 212.752 291.204C213.628 290.492 214.764 290.136 216.16 290.136C217.091 290.136 217.892 290.308 218.563 290.65C219.247 290.978 219.76 291.43 220.102 292.005C220.458 292.58 220.636 293.23 220.636 293.955C220.636 294.804 220.39 295.536 219.897 296.152C219.418 296.768 218.788 297.165 218.008 297.343V297.446C218.898 297.665 219.603 298.096 220.123 298.739C220.643 299.382 220.903 300.224 220.903 301.264C220.903 302.045 220.725 302.75 220.369 303.379C220.014 303.995 219.48 304.481 218.768 304.837C218.056 305.193 217.201 305.371 216.202 305.371C214.751 305.371 213.56 304.994 212.629 304.242C211.698 303.475 211.178 302.394 211.069 300.998H212.875C212.971 301.819 213.307 302.489 213.882 303.01C214.456 303.53 215.223 303.79 216.181 303.79C217.139 303.79 217.865 303.543 218.357 303.051C218.864 302.544 219.117 301.894 219.117 301.1C219.117 300.074 218.775 299.335 218.09 298.883C217.406 298.431 216.373 298.205 214.99 298.205H214.518V296.645H215.011C216.27 296.631 217.221 296.426 217.865 296.029C218.508 295.618 218.83 294.989 218.83 294.14C218.83 293.415 218.59 292.833 218.111 292.395C217.646 291.957 216.975 291.738 216.099 291.738C215.25 291.738 214.566 291.957 214.046 292.395C213.526 292.833 213.218 293.421 213.122 294.161H211.295ZM231.7 293.955C231.399 292.436 230.461 291.676 228.887 291.676C227.669 291.676 226.759 292.149 226.157 293.093C225.554 294.024 225.26 295.564 225.274 297.713C225.588 297.001 226.109 296.446 226.834 296.05C227.573 295.639 228.394 295.434 229.298 295.434C230.708 295.434 231.83 295.872 232.665 296.748C233.514 297.624 233.938 298.835 233.938 300.382C233.938 301.312 233.753 302.147 233.384 302.886C233.028 303.626 232.48 304.214 231.741 304.652C231.016 305.09 230.133 305.309 229.092 305.309C227.683 305.309 226.581 304.994 225.787 304.365C224.993 303.735 224.439 302.866 224.124 301.757C223.809 300.649 223.652 299.28 223.652 297.651C223.652 292.628 225.404 290.116 228.908 290.116C230.249 290.116 231.303 290.479 232.07 291.204C232.836 291.93 233.288 292.847 233.425 293.955H231.7ZM228.908 297.014C228.319 297.014 227.765 297.138 227.245 297.384C226.725 297.617 226.3 297.979 225.972 298.472C225.657 298.951 225.5 299.54 225.5 300.238C225.5 301.278 225.801 302.127 226.403 302.784C227.005 303.427 227.867 303.749 228.99 303.749C229.948 303.749 230.708 303.454 231.269 302.866C231.844 302.264 232.131 301.456 232.131 300.443C232.131 299.376 231.857 298.541 231.31 297.938C230.762 297.322 229.962 297.014 228.908 297.014Z" fill="white"/>
<circle cx="66.0514" cy="280.801" r="30.797" fill="#B7FF06"/>
<g clip-path="url(#clip0_1212_2344)">
<path d="M66.0512 273.469V267.603H51.386V294H80.7165V273.469H66.0512ZM57.2521 291.067H54.319V288.134H57.2521V291.067ZM57.2521 285.201H54.319V282.268H57.2521V285.201ZM57.2521 279.335H54.319V276.402H57.2521V279.335ZM57.2521 273.469H54.319V270.536H57.2521V273.469ZM63.1182 291.067H60.1851V288.134H63.1182V291.067ZM63.1182 285.201H60.1851V282.268H63.1182V285.201ZM63.1182 279.335H60.1851V276.402H63.1182V279.335ZM63.1182 273.469H60.1851V270.536H63.1182V273.469ZM77.7834 291.067H66.0512V288.134H68.9843V285.201H66.0512V282.268H68.9843V279.335H66.0512V276.402H77.7834V291.067ZM74.8504 279.335H71.9173V282.268H74.8504V279.335ZM74.8504 285.201H71.9173V288.134H74.8504V285.201Z" fill="black"/>
</g>
<path d="M44.4202 232.274H43.0856L37.7182 224.135V232.274H36.3836V222.038H37.7182L43.0856 230.163V222.038H44.4202V232.274ZM48.0296 223.138V226.555H51.7546V227.655H48.0296V231.175H52.1946V232.274H46.6951V222.038H52.1946V223.138H48.0296ZM67.0607 222.053L64.0983 232.274H62.6024L60.2267 224.047L57.7629 232.274L56.2817 232.289L53.422 222.053H54.8445L57.0736 230.72L59.5374 222.053H61.0332L63.3797 230.691L65.6235 222.053H67.0607ZM69.8556 223.138V226.555H73.5806V227.655H69.8556V231.175H74.0206V232.274H68.5211V222.038H74.0206V223.138H69.8556ZM79.2809 232.377C78.6063 232.377 78.0002 232.26 77.4624 232.025C76.9345 231.781 76.519 231.448 76.2159 231.028C75.9128 230.598 75.7564 230.104 75.7466 229.547H77.1691C77.218 230.026 77.4135 230.431 77.7557 230.764C78.1077 231.087 78.6161 231.248 79.2809 231.248C79.9164 231.248 80.415 231.091 80.7768 230.779C81.1483 230.456 81.3341 230.045 81.3341 229.547C81.3341 229.156 81.2265 228.838 81.0114 228.593C80.7963 228.349 80.5275 228.163 80.2048 228.036C79.8822 227.909 79.4471 227.772 78.8996 227.626C78.225 227.45 77.6824 227.274 77.2718 227.098C76.8709 226.922 76.5239 226.648 76.2306 226.276C75.947 225.895 75.8053 225.387 75.8053 224.751C75.8053 224.194 75.947 223.7 76.2306 223.27C76.5141 222.84 76.91 222.507 77.4184 222.273C77.9366 222.038 78.5281 221.921 79.1929 221.921C80.1511 221.921 80.9332 222.16 81.5394 222.639C82.1553 223.118 82.5024 223.754 82.5806 224.546H81.1141C81.0652 224.155 80.8599 223.813 80.4981 223.519C80.1364 223.216 79.6573 223.065 79.0609 223.065C78.5037 223.065 78.049 223.211 77.6971 223.505C77.3451 223.788 77.1691 224.189 77.1691 224.707C77.1691 225.079 77.2718 225.382 77.4771 225.616C77.6922 225.851 77.9513 226.032 78.2544 226.159C78.5672 226.276 79.0023 226.413 79.5596 226.57C80.2342 226.755 80.7768 226.941 81.1874 227.127C81.598 227.303 81.95 227.582 82.2433 227.963C82.5366 228.334 82.6833 228.843 82.6833 229.488C82.6833 229.987 82.5513 230.456 82.2873 230.896C82.0233 231.336 81.6322 231.693 81.1141 231.966C80.5959 232.24 79.9849 232.377 79.2809 232.377ZM90.9385 222.053V223.138H88.1521V232.274H86.8176V223.138H84.0165V222.053H90.9385Z" fill="white"/>
<g clip-path="url(#clip1_1212_2344)">
<g filter="url(#filter0_b_1212_2344)">
<rect x="35.2544" y="37.3584" width="539.681" height="151.052" rx="29.3305" fill="url(#paint1_linear_1212_2344)"/>
</g>
<mask id="mask0_1212_2344" style="mask-type:alpha" maskUnits="userSpaceOnUse" x="35" y="37" width="540" height="152">
<rect x="35.2544" y="37.3584" width="539.681" height="151.052" rx="29.3305" fill="#4318FF"/>
</mask>
<g mask="url(#mask0_1212_2344)">
<path opacity="0.1" d="M316.827 258.803L495.286 -52.0996H593.096L601.332 258.803H316.827Z" fill="url(#paint2_linear_1212_2344)"/>
<path d="M459.08 119.777C460.11 125.057 464.212 134.882 473.745 134.149C483.277 133.416 484.419 109.218 501.106 109.218C517.793 109.218 517.793 137.124 545.604 112.989" stroke="white" stroke-width="2.93305" stroke-linecap="round" stroke-linejoin="round"/>
<path d="M58.0089 78.6141C58.0089 77.4174 58.2788 76.3439 58.8184 75.3936C59.3581 74.4315 60.0914 73.6807 61.0182 73.141C61.9568 72.6013 62.9951 72.3315 64.1331 72.3315C65.4706 72.3315 66.6379 72.6541 67.6352 73.2994C68.6324 73.9446 69.3598 74.8598 69.8174 76.0447H67.8992C67.5589 75.3056 67.0662 74.7366 66.4209 74.3377C65.7874 73.9388 65.0248 73.7393 64.1331 73.7393C63.2767 73.7393 62.5082 73.9388 61.8278 74.3377C61.1473 74.7366 60.6135 75.3056 60.2263 76.0447C59.8391 76.7721 59.6456 77.6286 59.6456 78.6141C59.6456 79.5878 59.8391 80.4443 60.2263 81.1834C60.6135 81.9108 61.1473 82.4739 61.8278 82.8728C62.5082 83.2717 63.2767 83.4712 64.1331 83.4712C65.0248 83.4712 65.7874 83.2776 66.4209 82.8904C67.0662 82.4915 67.5589 81.9225 67.8992 81.1834H69.8174C69.3598 82.3566 68.6324 83.2659 67.6352 83.9111C66.6379 84.5447 65.4706 84.8614 64.1331 84.8614C62.9951 84.8614 61.9568 84.5975 61.0182 84.0695C60.0914 83.5298 59.3581 82.7849 58.8184 81.8345C58.2788 80.8842 58.0089 79.8107 58.0089 78.6141ZM73.4507 76.6782C73.7323 76.1268 74.1312 75.6986 74.6474 75.3936C75.1754 75.0885 75.8148 74.936 76.5656 74.936V76.5903H76.1433C74.3482 76.5903 73.4507 77.564 73.4507 79.5116V84.7559H71.8493V75.112H73.4507V76.6782ZM86.8614 79.5644C86.8614 79.8694 86.8438 80.192 86.8086 80.5323H79.1006C79.1593 81.4826 79.4819 82.2276 80.0685 82.7673C80.6668 83.2952 81.3884 83.5592 82.2331 83.5592C82.9253 83.5592 83.5002 83.4008 83.9577 83.084C84.427 82.7555 84.7555 82.3214 84.9432 81.7817H86.6679C86.4098 82.7086 85.8935 83.4653 85.1192 84.0519C84.3449 84.6268 83.3828 84.9142 82.2331 84.9142C81.318 84.9142 80.4967 84.7089 79.7693 84.2983C79.0537 83.8877 78.4905 83.3069 78.0799 82.5561C77.6693 81.7935 77.464 80.9136 77.464 79.9163C77.464 78.9191 77.6634 78.045 78.0623 77.2942C78.4612 76.5433 79.0185 75.9685 79.7341 75.5696C80.4615 75.1589 81.2945 74.9536 82.2331 74.9536C83.1482 74.9536 83.9577 75.1531 84.6617 75.552C85.3656 75.9509 85.9053 76.5023 86.2807 77.2062C86.6679 77.8984 86.8614 78.6845 86.8614 79.5644ZM85.2072 79.23C85.2072 78.6199 85.0723 78.0978 84.8024 77.6638C84.5326 77.2179 84.163 76.8836 83.6938 76.6607C83.2362 76.426 82.7258 76.3087 82.1627 76.3087C81.3532 76.3087 80.661 76.5668 80.0861 77.083C79.523 77.5992 79.2003 78.3149 79.1182 79.23H85.2072ZM88.025 79.8987C88.025 78.9132 88.2244 78.0509 88.6233 77.3118C89.0222 76.5609 89.5678 75.9802 90.26 75.5696C90.9639 75.1589 91.75 74.9536 92.6181 74.9536C93.369 74.9536 94.0671 75.1296 94.7123 75.4816C95.3576 75.8218 95.8504 76.2735 96.1906 76.8366V71.7331H97.8096V84.7559H96.1906V82.9432C95.8738 83.5181 95.4045 83.9933 94.7827 84.3687C94.1609 84.7324 93.4335 84.9142 92.6005 84.9142C91.7441 84.9142 90.9639 84.7031 90.26 84.2807C89.5678 83.8583 89.0222 83.2659 88.6233 82.5033C88.2244 81.7407 88.025 80.8725 88.025 79.8987ZM96.1906 79.9163C96.1906 79.1889 96.0439 78.5554 95.7506 78.0157C95.4573 77.476 95.0584 77.0654 94.554 76.7838C94.0612 76.4905 93.5157 76.3439 92.9173 76.3439C92.319 76.3439 91.7734 76.4847 91.2807 76.7662C90.7879 77.0478 90.3949 77.4584 90.1016 77.9981C89.8083 78.5378 89.6616 79.1713 89.6616 79.8987C89.6616 80.6379 89.8083 81.2831 90.1016 81.8345C90.3949 82.3742 90.7879 82.7907 91.2807 83.084C91.7734 83.3656 92.319 83.5064 92.9173 83.5064C93.5157 83.5064 94.0612 83.3656 94.554 83.084C95.0584 82.7907 95.4573 82.3742 95.7506 81.8345C96.0439 81.2831 96.1906 80.6437 96.1906 79.9163ZM100.991 73.5458C100.686 73.5458 100.428 73.4402 100.217 73.229C100.006 73.0178 99.9 72.7597 99.9 72.4547C99.9 72.1496 100.006 71.8915 100.217 71.6803C100.428 71.4692 100.686 71.3636 100.991 71.3636C101.284 71.3636 101.531 71.4692 101.73 71.6803C101.941 71.8915 102.047 72.1496 102.047 72.4547C102.047 72.7597 101.941 73.0178 101.73 73.229C101.531 73.4402 101.284 73.5458 100.991 73.5458ZM101.765 75.112V84.7559H100.164V75.112H101.765ZM106.096 76.4319V82.1161C106.096 82.5854 106.196 82.9198 106.395 83.1192C106.595 83.3069 106.941 83.4008 107.434 83.4008H108.613V84.7559H107.17C106.278 84.7559 105.609 84.5505 105.164 84.1399C104.718 83.7293 104.495 83.0547 104.495 82.1161V76.4319H103.245V75.112H104.495V72.6834H106.096V75.112H108.613V76.4319H106.096ZM120.683 78.4381C121.129 78.5085 121.533 78.6903 121.897 78.9836C122.272 79.2769 122.566 79.6406 122.777 80.0747C123 80.5088 123.111 80.9722 123.111 81.465C123.111 82.0868 122.953 82.6499 122.636 83.1544C122.319 83.6472 121.856 84.0402 121.246 84.3335C120.648 84.6151 119.938 84.7559 119.116 84.7559H114.541V72.4899H118.94C119.773 72.4899 120.483 72.6306 121.07 72.9122C121.656 73.1821 122.096 73.5516 122.39 74.0209C122.683 74.4902 122.83 75.0181 122.83 75.6048C122.83 76.3321 122.63 76.9364 122.231 77.4174C121.844 77.8867 121.328 78.2269 120.683 78.4381ZM116.142 77.7869H118.835C119.586 77.7869 120.167 77.611 120.577 77.259C120.988 76.907 121.193 76.4201 121.193 75.7983C121.193 75.1765 120.988 74.6896 120.577 74.3377C120.167 73.9857 119.574 73.8097 118.8 73.8097H116.142V77.7869ZM118.976 83.436C119.773 83.436 120.395 83.2483 120.841 82.8728C121.287 82.4974 121.51 81.9753 121.51 81.3066C121.51 80.6261 121.275 80.0923 120.806 79.7052C120.337 79.3063 119.709 79.1068 118.923 79.1068H116.142V83.436H118.976ZM124.383 79.8987C124.383 78.9132 124.583 78.0509 124.982 77.3118C125.381 76.5609 125.926 75.9802 126.618 75.5696C127.322 75.1589 128.102 74.9536 128.959 74.9536C129.804 74.9536 130.537 75.1355 131.159 75.4992C131.78 75.8629 132.244 76.3204 132.549 76.8718V75.112H134.168V84.7559H132.549V82.9608C132.232 83.524 131.757 83.9933 131.123 84.3687C130.502 84.7324 129.774 84.9142 128.941 84.9142C128.085 84.9142 127.31 84.7031 126.618 84.2807C125.926 83.8583 125.381 83.2659 124.982 82.5033C124.583 81.7407 124.383 80.8725 124.383 79.8987ZM132.549 79.9163C132.549 79.1889 132.402 78.5554 132.109 78.0157C131.816 77.476 131.417 77.0654 130.912 76.7838C130.42 76.4905 129.874 76.3439 129.276 76.3439C128.677 76.3439 128.132 76.4847 127.639 76.7662C127.146 77.0478 126.753 77.4584 126.46 77.9981C126.167 78.5378 126.02 79.1713 126.02 79.8987C126.02 80.6379 126.167 81.2831 126.46 81.8345C126.753 82.3742 127.146 82.7907 127.639 83.084C128.132 83.3656 128.677 83.5064 129.276 83.5064C129.874 83.5064 130.42 83.3656 130.912 83.084C131.417 82.7907 131.816 82.3742 132.109 81.8345C132.402 81.2831 132.549 80.6437 132.549 79.9163ZM138.124 71.7331V84.7559H136.522V71.7331H138.124ZM139.903 79.8987C139.903 78.9132 140.102 78.0509 140.501 77.3118C140.9 76.5609 141.446 75.9802 142.138 75.5696C142.842 75.1589 143.622 74.9536 144.478 74.9536C145.323 74.9536 146.056 75.1355 146.678 75.4992C147.3 75.8629 147.763 76.3204 148.068 76.8718V75.112H149.687V84.7559H148.068V82.9608C147.752 83.524 147.276 83.9933 146.643 84.3687C146.021 84.7324 145.294 84.9142 144.461 84.9142C143.604 84.9142 142.83 84.7031 142.138 84.2807C141.446 83.8583 140.9 83.2659 140.501 82.5033C140.102 81.7407 139.903 80.8725 139.903 79.8987ZM148.068 79.9163C148.068 79.1889 147.922 78.5554 147.628 78.0157C147.335 77.476 146.936 77.0654 146.432 76.7838C145.939 76.4905 145.393 76.3439 144.795 76.3439C144.197 76.3439 143.651 76.4847 143.158 76.7662C142.666 77.0478 142.273 77.4584 141.979 77.9981C141.686 78.5378 141.539 79.1713 141.539 79.8987C141.539 80.6379 141.686 81.2831 141.979 81.8345C142.273 82.3742 142.666 82.7907 143.158 83.084C143.651 83.3656 144.197 83.5064 144.795 83.5064C145.393 83.5064 145.939 83.3656 146.432 83.084C146.936 82.7907 147.335 82.3742 147.628 81.8345C147.922 81.2831 148.068 80.6437 148.068 79.9163ZM156.74 74.936C157.914 74.936 158.864 75.2939 159.591 76.0095C160.319 76.7134 160.683 77.7341 160.683 79.0716V84.7559H159.099V79.3004C159.099 78.3384 158.858 77.6051 158.377 77.1006C157.896 76.5844 157.239 76.3263 156.406 76.3263C155.561 76.3263 154.887 76.5903 154.382 77.1182C153.89 77.6462 153.643 78.4146 153.643 79.4236V84.7559H152.042V75.112H153.643V76.4847C153.96 75.9919 154.388 75.6106 154.928 75.3408C155.479 75.0709 156.083 74.936 156.74 74.936ZM162.348 79.9163C162.348 78.9191 162.548 78.0509 162.947 77.3118C163.345 76.5609 163.897 75.9802 164.601 75.5696C165.316 75.1589 166.132 74.9536 167.047 74.9536C168.232 74.9536 169.206 75.2411 169.968 75.8159C170.743 76.3908 171.253 77.1886 171.499 78.2093H169.775C169.61 77.6227 169.288 77.1593 168.807 76.819C168.337 76.4788 167.751 76.3087 167.047 76.3087C166.132 76.3087 165.393 76.6255 164.83 77.259C164.266 77.8808 163.985 78.7666 163.985 79.9163C163.985 81.0778 164.266 81.9753 164.83 82.6089C165.393 83.2424 166.132 83.5592 167.047 83.5592C167.751 83.5592 168.337 83.3949 168.807 83.0664C169.276 82.7379 169.599 82.2686 169.775 81.6586H171.499C171.241 82.6441 170.725 83.436 169.951 84.0343C169.176 84.6209 168.208 84.9142 167.047 84.9142C166.132 84.9142 165.316 84.7089 164.601 84.2983C163.897 83.8877 163.345 83.3069 162.947 82.5561C162.548 81.8052 162.348 80.9253 162.348 79.9163ZM182.083 79.5644C182.083 79.8694 182.066 80.192 182.03 80.5323H174.322C174.381 81.4826 174.704 82.2276 175.29 82.7673C175.889 83.2952 176.61 83.5592 177.455 83.5592C178.147 83.5592 178.722 83.4008 179.18 83.084C179.649 82.7555 179.977 82.3214 180.165 81.7817H181.89C181.632 82.7086 181.115 83.4653 180.341 84.0519C179.567 84.6268 178.605 84.9142 177.455 84.9142C176.54 84.9142 175.719 84.7089 174.991 84.2983C174.275 83.8877 173.712 83.3069 173.302 82.5561C172.891 81.7935 172.686 80.9136 172.686 79.9163C172.686 78.9191 172.885 78.045 173.284 77.2942C173.683 76.5433 174.24 75.9685 174.956 75.5696C175.683 75.1589 176.516 74.9536 177.455 74.9536C178.37 74.9536 179.18 75.1531 179.883 75.552C180.587 75.9509 181.127 76.5023 181.503 77.2062C181.89 77.8984 182.083 78.6845 182.083 79.5644ZM180.429 79.23C180.429 78.6199 180.294 78.0978 180.024 77.6638C179.754 77.2179 179.385 76.8836 178.916 76.6607C178.458 76.426 177.948 76.3087 177.385 76.3087C176.575 76.3087 175.883 76.5668 175.308 77.083C174.745 77.5992 174.422 78.3149 174.34 79.23H180.429Z" fill="white"/>
<path d="M83.5294 131.563C83.5294 133.158 83.1305 134.687 82.3327 136.15C81.5349 137.579 80.3548 138.776 78.7925 139.74C77.2634 140.704 75.4185 141.253 73.2578 141.386V145.424H70.5653V141.386C67.5403 141.12 65.0805 140.156 63.1858 138.494C61.291 136.798 60.327 134.654 60.2938 132.061H65.1304C65.2633 133.458 65.7786 134.671 66.6761 135.701C67.6068 136.732 68.9032 137.38 70.5653 137.646V125.181C68.3381 124.615 66.5431 124.034 65.1802 123.435C63.8173 122.837 62.6539 121.906 61.6899 120.643C60.7259 119.38 60.2439 117.685 60.2439 115.557C60.2439 112.865 61.1747 110.637 63.0362 108.876C64.9309 107.114 67.4406 106.133 70.5653 105.934V101.795H73.2578V105.934C76.0833 106.167 78.3604 107.081 80.0889 108.676C81.8174 110.239 82.8147 112.283 83.0806 114.809H78.244C78.0778 113.646 77.5626 112.599 76.6983 111.668C75.834 110.704 74.6872 110.072 73.2578 109.773V121.939C75.4518 122.505 77.2302 123.086 78.593 123.685C79.9892 124.25 81.1526 125.164 82.0834 126.427C83.0474 127.69 83.5294 129.402 83.5294 131.563ZM64.8811 115.308C64.8811 116.937 65.363 118.183 66.327 119.048C67.291 119.912 68.7038 120.626 70.5653 121.192V109.673C68.8368 109.84 67.4572 110.405 66.4268 111.369C65.3963 112.3 64.8811 113.613 64.8811 115.308ZM73.2578 137.696C75.0529 137.496 76.449 136.848 77.4462 135.751C78.4767 134.654 78.9919 133.341 78.9919 131.812C78.9919 130.183 78.4933 128.937 77.4961 128.072C76.4989 127.175 75.0861 126.46 73.2578 125.928V137.696ZM90.8127 137.447C95.0343 134.056 98.3418 131.28 100.735 129.12C103.129 126.926 105.14 124.649 106.768 122.289C108.431 119.895 109.262 117.552 109.262 115.258C109.262 113.097 108.73 111.402 107.666 110.172C106.636 108.909 104.957 108.277 102.63 108.277C100.37 108.277 98.6078 108.992 97.3446 110.421C96.1147 111.818 95.4498 113.696 95.3501 116.056H90.9623C91.0952 112.333 92.2254 109.457 94.3529 107.43C96.4803 105.402 99.2227 104.388 102.58 104.388C106.004 104.388 108.713 105.336 110.708 107.23C112.735 109.125 113.749 111.734 113.749 115.059C113.749 117.818 112.918 120.51 111.256 123.136C109.627 125.729 107.766 128.023 105.672 130.017C103.577 131.978 100.901 134.272 97.6438 136.898H114.796V140.688H90.8127V137.447ZM143.028 108.975H125.526V120.344C126.291 119.28 127.421 118.416 128.917 117.751C130.413 117.053 132.025 116.704 133.753 116.704C136.512 116.704 138.756 117.286 140.485 118.449C142.213 119.579 143.443 121.059 144.175 122.887C144.939 124.682 145.321 126.593 145.321 128.621C145.321 131.014 144.873 133.158 143.975 135.053C143.078 136.948 141.698 138.444 139.837 139.541C138.008 140.638 135.731 141.186 133.006 141.186C129.515 141.186 126.69 140.289 124.529 138.494C122.368 136.699 121.055 134.305 120.59 131.314H125.028C125.46 133.208 126.374 134.687 127.77 135.751C129.166 136.815 130.928 137.347 133.055 137.347C135.681 137.347 137.659 136.566 138.989 135.003C140.319 133.408 140.983 131.314 140.983 128.721C140.983 126.128 140.319 124.133 138.989 122.737C137.659 121.308 135.698 120.593 133.105 120.593C131.343 120.593 129.798 121.025 128.468 121.89C127.172 122.721 126.224 123.867 125.626 125.33H121.338V104.986H143.028V108.975ZM156.786 134.804L151.202 148.217H148.16L151.8 134.804H156.786ZM160.687 137.447C164.909 134.056 168.216 131.28 170.61 129.12C173.003 126.926 175.014 124.649 176.643 122.289C178.305 119.895 179.136 117.552 179.136 115.258C179.136 113.097 178.604 111.402 177.541 110.172C176.51 108.909 174.831 108.277 172.505 108.277C170.244 108.277 168.482 108.992 167.219 110.421C165.989 111.818 165.325 113.696 165.225 116.056H160.837C160.97 112.333 162.1 109.457 164.228 107.43C166.355 105.402 169.097 104.388 172.455 104.388C175.879 104.388 178.588 105.336 180.582 107.23C182.61 109.125 183.624 111.734 183.624 115.059C183.624 117.818 182.793 120.51 181.131 123.136C179.502 125.729 177.64 128.023 175.546 130.017C173.452 131.978 170.776 134.272 167.518 136.898H184.671V140.688H160.687V137.447ZM188.719 109.175V105.036H198.093V141.086H193.506V109.175H188.719ZM228.874 108.975H211.372V120.344C212.137 119.28 213.267 118.416 214.763 117.751C216.259 117.053 217.871 116.704 219.599 116.704C222.358 116.704 224.602 117.286 226.331 118.449C228.059 119.579 229.289 121.059 230.021 122.887C230.785 124.682 231.167 126.593 231.167 128.621C231.167 131.014 230.719 133.158 229.821 135.053C228.924 136.948 227.544 138.444 225.683 139.541C223.854 140.638 221.577 141.186 218.852 141.186C215.361 141.186 212.536 140.289 210.375 138.494C208.214 136.699 206.901 134.305 206.436 131.314H210.874C211.306 133.208 212.22 134.687 213.616 135.751C215.012 136.815 216.774 137.347 218.901 137.347C221.527 137.347 223.505 136.566 224.835 135.003C226.165 133.408 226.829 131.314 226.829 128.721C226.829 126.128 226.165 124.133 224.835 122.737C223.505 121.308 221.544 120.593 218.951 120.593C217.189 120.593 215.644 121.025 214.314 121.89C213.018 122.721 212.07 123.867 211.472 125.33H207.184V104.986H228.874V108.975Z" fill="white"/>
</g>
<g clip-path="url(#clip2_1212_2344)">
<path d="M523.606 74.022C521.993 74.022 520.673 75.3418 520.673 76.955C520.673 78.5682 521.993 79.8881 523.606 79.8881C525.22 79.8881 526.539 78.5682 526.539 76.955C526.539 75.3418 525.22 74.022 523.606 74.022ZM541.205 74.022C539.591 74.022 538.272 75.3418 538.272 76.955C538.272 78.5682 539.591 79.8881 541.205 79.8881C542.818 79.8881 544.138 78.5682 544.138 76.955C544.138 75.3418 542.818 74.022 541.205 74.022ZM532.406 74.022C530.792 74.022 529.472 75.3418 529.472 76.955C529.472 78.5682 530.792 79.8881 532.406 79.8881C534.019 79.8881 535.339 78.5682 535.339 76.955C535.339 75.3418 534.019 74.022 532.406 74.022Z" fill="white"/>
</g>
</g>
<defs>
<filter id="filter0_b_1212_2344" x="-140.728" y="-138.624" width="891.646" height="503.017" filterUnits="userSpaceOnUse" color-interpolation-filters="sRGB">
<feFlood flood-opacity="0" result="BackgroundImageFix"/>
<feGaussianBlur in="BackgroundImageFix" stdDeviation="87.9914"/>
<feComposite in2="SourceAlpha" operator="in" result="effect1_backgroundBlur_1212_2344"/>
<feBlend mode="normal" in="SourceGraphic" in2="effect1_backgroundBlur_1212_2344" result="shape"/>
</filter>
<linearGradient id="paint0_linear_1212_2344" x1="169.135" y1="30.3668" x2="394.781" y2="326.07" gradientUnits="userSpaceOnUse">
<stop stop-color="white" stop-opacity="0.37"/>
<stop offset="1" stop-color="#696868"/>
</linearGradient>
<linearGradient id="paint1_linear_1212_2344" x1="40.3872" y1="20.4934" x2="134.403" y2="271.35" gradientUnits="userSpaceOnUse">
<stop stop-color="#D33A35"/>
<stop offset="1" stop-color="#D33A35" stop-opacity="0.38"/>
</linearGradient>
<linearGradient id="paint2_linear_1212_2344" x1="503.008" y1="-97.2386" x2="464.122" y2="234.815" gradientUnits="userSpaceOnUse">
<stop stop-color="white"/>
<stop offset="0.0001" stop-color="white"/>
<stop offset="1" stop-color="white" stop-opacity="0"/>
</linearGradient>
<clipPath id="clip0_1212_2344">
<rect width="35.1966" height="35.1966" fill="white" transform="translate(48.4529 263.203)"/>
</clipPath>
<clipPath id="clip1_1212_2344">
<rect x="35.2544" y="37.3584" width="539.681" height="151.052" rx="20.5313" fill="white"/>
</clipPath>
<clipPath id="clip2_1212_2344">
<rect width="35.1966" height="35.1966" fill="white" transform="translate(514.807 59.3564)"/>
</clipPath>
</defs>
</svg>
