<svg width="145" height="34" viewBox="0 0 145 34" fill="none" xmlns="http://www.w3.org/2000/svg">
<g clip-path="url(#clip0_1212_2114)">
<path d="M49.7172 12.3671C49.7172 11.6792 49.1866 11.1147 48.4438 11.1147C47.701 11.1147 47.1703 11.6792 47.1703 12.3671V22.5273C47.1703 23.2153 47.701 23.7798 48.4438 23.7798C49.2042 23.7798 49.7172 23.2153 49.7172 22.5273V12.3671Z" fill="white"/>
<path d="M62.2576 11.1147C61.5148 11.1147 61.0018 11.6792 61.0018 12.3671V16.7064L61.0725 20.5871L59.5338 16.9533L57.5175 12.8258C56.8985 11.5381 56.1911 11.1147 55.1829 11.1147C53.6973 11.1147 53.0428 12.0496 53.0428 13.3902V22.5273C53.0428 23.2153 53.5557 23.7798 54.2986 23.7798C55.0414 23.7798 55.5543 23.2153 55.5543 22.5273L55.5367 18.241L55.4836 13.8488L57.1284 17.8705L59.1624 22.0686C59.7992 23.4092 60.4713 23.7974 61.497 23.7974C62.8235 23.7974 63.5132 22.9859 63.5132 21.4867V12.3671C63.5132 11.6792 63.0004 11.1147 62.2576 11.1147Z" fill="white"/>
<path d="M72.9038 13.7076L75.7867 13.7782C76.4588 13.7958 76.9895 13.2843 76.9895 12.5435C76.9895 11.8026 76.4588 11.2911 75.7867 11.2911L67.4386 11.2734C66.7843 11.2734 66.236 11.785 66.236 12.5258C66.236 13.2667 66.7843 13.7782 67.4386 13.7606L70.3393 13.7076V22.5272C70.3393 23.2152 70.8698 23.7797 71.6127 23.7797C72.3732 23.7797 72.9038 23.2152 72.9038 22.5272V13.7076Z" fill="white"/>
<path d="M81.4504 23.621H87.6583C88.3128 23.621 88.8434 23.1271 88.8434 22.4391C88.8434 21.7336 88.3128 21.2396 87.6583 21.2396L82.264 21.2573V18.3115H86.9332C87.57 18.3115 88.0828 17.8352 88.0828 17.1827C88.0828 16.5123 87.57 16.036 86.9332 16.036L82.264 16.0713V13.6371H87.6583C88.3128 13.6371 88.8434 13.1433 88.8434 12.4377C88.8434 11.7321 88.3128 11.2559 87.6583 11.2559L81.4681 11.2735C80.3361 11.2735 79.6994 11.9085 79.6994 13.0374V21.8571C79.6994 22.9859 80.3361 23.621 81.4504 23.621Z" fill="white"/>
<path d="M98.955 18.5937C100.635 18.1527 101.626 16.8475 101.626 15.1188C101.626 13.1961 100.37 11.2734 97.3632 11.2734H93.4721C92.3403 11.2734 91.7035 11.9084 91.7035 13.0374V22.5272C91.7035 23.2152 92.2341 23.7797 93.0124 23.7797C93.7728 23.7797 94.3211 23.2152 94.3211 22.5272L94.3035 19.211H96.4435L98.6189 23.127C98.9727 23.7268 99.7155 23.9736 100.405 23.6209C101.095 23.2505 101.29 22.5096 100.918 21.9099L98.955 18.5937ZM94.3035 13.6195H97.3809C98.4244 13.6195 99.0788 14.2721 99.0788 15.2423C99.0788 16.1948 98.4598 16.9004 97.4163 16.9004H94.3035V13.6195Z" fill="white"/>
<path d="M109.437 23.8503C112.02 23.8503 113.682 22.6861 114.248 20.7987C114.549 19.7227 113.912 18.9466 112.957 18.9466C112.373 18.9466 111.984 19.2464 111.754 19.8991C111.401 20.887 110.534 21.5044 109.296 21.5044C107.333 21.5044 106.484 20.1813 106.484 17.4296C106.484 14.7308 107.35 13.4432 109.296 13.4432C110.516 13.4432 111.224 13.9547 111.666 15.1365C111.914 15.8069 112.32 16.1067 112.922 16.1067C113.841 16.1067 114.513 15.3659 114.231 14.3428C113.665 12.2614 112.02 11.0972 109.367 11.0972C105.723 11.0972 103.866 13.3197 103.866 17.4296C103.866 21.5748 105.723 23.8503 109.437 23.8503Z" fill="white"/>
<path d="M122.012 23.8149C125.762 23.8149 127.619 21.5216 127.619 17.4293C127.619 13.3018 125.708 11.0264 122.012 11.0264C118.298 11.0264 116.441 13.3371 116.423 17.4293C116.423 21.5393 118.315 23.8149 122.012 23.8149ZM122.012 21.4512C119.925 21.4512 119.023 20.1283 119.023 17.4293C119.023 14.6953 119.943 13.3724 121.994 13.3724C124.064 13.3724 125.036 14.6953 125.019 17.4293C125.019 20.1458 124.099 21.4512 122.012 21.4512Z" fill="white"/>
<path d="M144.083 13.3197C144.083 11.9262 143.217 11.0972 141.872 11.0972C140.776 11.0972 139.945 11.6969 139.538 13.0728L138.176 17.5002L137.274 20.6929L136.407 17.5002L134.957 13.0728C134.55 11.7851 133.843 11.0972 132.605 11.0972C131.243 11.0972 130.394 11.9086 130.394 13.3197V22.5273C130.394 23.2153 130.889 23.7798 131.614 23.7798C132.339 23.7798 132.835 23.2153 132.835 22.5273L132.817 18.0823L132.693 13.3197L134.09 18.1882L135.576 22.492C135.894 23.4446 136.496 23.7622 137.274 23.7622C137.999 23.7622 138.583 23.4975 138.883 22.5273L140.298 18.1882L141.802 13.2844L141.66 18.0823V22.5273C141.66 23.2153 142.173 23.7798 142.881 23.7798C143.606 23.7798 144.101 23.2153 144.101 22.5273L144.083 13.3197Z" fill="white"/>
<path d="M28.7235 19.0963C28.7235 19.3903 28.6076 19.6722 28.4014 19.88C28.1951 20.0879 27.9154 20.2047 27.6237 20.2047C27.332 20.2047 27.0523 20.0879 26.846 19.88C26.6398 19.6722 26.524 19.3903 26.524 19.0963V9.19459C26.524 8.90064 26.6398 8.61873 26.846 8.41088C27.0523 8.20302 27.332 8.08625 27.6237 8.08625C27.9154 8.08625 28.1951 8.20302 28.4014 8.41088C28.6076 8.61873 28.7235 8.90064 28.7235 9.19459V19.0963ZM28.3417 25.9571C28.1963 26.1036 24.1065 29.5385 16.6085 29.5385C9.1105 29.5385 5.04794 26.1219 4.87527 25.9753C4.76645 25.8829 4.67681 25.7696 4.61149 25.6422C4.54618 25.5146 4.50646 25.3755 4.49465 25.2325C4.48283 25.0896 4.49912 24.9457 4.54261 24.809C4.58608 24.6725 4.65589 24.5458 4.74802 24.4364C4.93783 24.2151 5.20677 24.0785 5.4962 24.056C5.78563 24.0338 6.07207 24.1278 6.29307 24.3174C6.35669 24.3632 10.0102 27.3493 16.5994 27.3493C23.1885 27.3493 26.8693 24.3449 26.9058 24.3174C27.1292 24.1294 27.4166 24.0367 27.7067 24.0589C27.997 24.0812 28.2672 24.2166 28.4598 24.4364C28.6452 24.6545 28.7378 24.9376 28.7174 25.2239C28.697 25.5103 28.5653 25.7771 28.3508 25.9662L28.3417 25.9571ZM4.48446 9.19459C4.50089 8.89972 4.63249 8.62337 4.85048 8.426C5.06846 8.22861 5.35512 8.12622 5.64779 8.14121C5.9191 8.15674 6.17511 8.27297 6.36642 8.46748C6.55775 8.66199 6.67084 8.92102 6.68387 9.19459V19.0781C6.68387 19.3719 6.56801 19.6538 6.36178 19.8617C6.15554 20.0696 5.87583 20.1864 5.58417 20.1864C5.29251 20.1864 5.01279 20.0696 4.80655 19.8617C4.60033 19.6538 4.48446 19.3719 4.48446 19.0781V9.19459ZM10.0012 6.99624C10.0176 6.70135 10.1492 6.42502 10.3672 6.22765C10.5852 6.03026 10.8718 5.92788 11.1645 5.94286C11.4358 5.95839 11.6918 6.07462 11.8831 6.26913C12.0745 6.46364 12.1875 6.72266 12.2006 6.99624V21.6519C12.2006 21.9459 12.0847 22.2278 11.8785 22.4356C11.6722 22.6435 11.3925 22.7602 11.1009 22.7602C10.8092 22.7602 10.5295 22.6435 10.3233 22.4356C10.117 22.2278 10.0012 21.9459 10.0012 21.6519V6.99624ZM15.5452 6.44665C15.5452 6.1527 15.661 5.87079 15.8673 5.66295C16.0735 5.45508 16.3532 5.33831 16.6448 5.33831C16.9365 5.33831 17.2162 5.45508 17.4224 5.66295C17.6287 5.87079 17.7445 6.1527 17.7445 6.44665V22.3847C17.7445 22.6786 17.6287 22.9605 17.4224 23.1685C17.2162 23.3763 16.9365 23.493 16.6448 23.493C16.3532 23.493 16.0735 23.3763 15.8673 23.1685C15.661 22.9605 15.5452 22.6786 15.5452 22.3847V6.44665ZM20.9983 6.99624C20.9983 6.70229 21.1141 6.42038 21.3203 6.21252C21.5266 6.00467 21.8063 5.8879 22.0979 5.8879C22.3896 5.8879 22.6693 6.00467 22.8755 6.21252C23.0818 6.42038 23.1976 6.70229 23.1976 6.99624V21.6519C23.1976 21.9459 23.0818 22.2278 22.8755 22.4356C22.6693 22.6435 22.3896 22.7602 22.0979 22.7602C21.8063 22.7602 21.5266 22.6435 21.3203 22.4356C21.1141 22.2278 20.9983 21.9459 20.9983 21.6519V6.99624ZM29.0233 0.950775H4.22998C3.68974 0.947156 3.15411 1.05097 2.65375 1.25627C2.15338 1.46157 1.6981 1.76432 1.31398 2.1472C0.929867 2.53008 0.624457 2.98554 0.415239 3.48755C0.206021 3.98954 0.0971051 4.5282 0.0947266 5.07268V29.8042C0.0971051 30.3486 0.206021 30.8873 0.415239 31.3893C0.624457 31.8912 0.929867 32.3468 1.31398 32.7296C1.6981 33.1124 2.15338 33.4153 2.65375 33.6205C3.15411 33.8259 3.68974 33.9296 4.22998 33.926H29.0233C29.5628 33.9296 30.0977 33.8262 30.5974 33.6214C31.0973 33.4167 31.5521 33.1147 31.9361 32.7328C32.3201 32.351 32.6257 31.8965 32.8354 31.3955C33.0453 30.8947 33.1551 30.357 33.1585 29.8133V5.07268C33.1562 4.52898 33.0476 3.99108 32.8389 3.48968C32.6303 2.98828 32.3258 2.53322 31.9425 2.15045C31.5594 1.7677 31.1052 1.46475 30.6058 1.25891C30.1066 1.05307 29.5719 0.948364 29.0324 0.950775" fill="white"/>
</g>
<defs>
<clipPath id="clip0_1212_2114">
<rect width="144.195" height="32.9754" fill="white" transform="translate(0.0947266 0.950684)"/>
</clipPath>
</defs>
</svg>
