<svg width="184" height="34" viewBox="0 0 184 34" fill="none" xmlns="http://www.w3.org/2000/svg">
<g clip-path="url(#clip0_1212_2074)">
<path fill-rule="evenodd" clip-rule="evenodd" d="M128.467 26.2915C127.908 26.2985 127.352 26.1943 126.833 25.985C126.315 25.7758 125.843 25.4656 125.444 25.0724C124.645 24.273 124.105 23.0589 124.105 21.4201C124.105 19.7614 124.645 18.5523 125.444 17.7529C125.844 17.3636 126.317 17.0572 126.836 16.8514C127.355 16.6456 127.909 16.5445 128.467 16.5538C129.606 16.5538 130.69 16.9535 131.49 17.7529C132.289 18.5523 132.824 19.7614 132.824 21.4201C132.824 23.0789 132.289 24.288 131.49 25.0874C131.09 25.4768 130.617 25.7831 130.098 25.9889C129.579 26.1947 129.025 26.2958 128.467 26.2866V26.2915ZM128.467 11.2528C122.681 11.2528 118.3 15.5095 118.3 21.4201C118.3 27.2908 122.681 31.5876 128.467 31.5876C134.253 31.5876 138.635 27.2908 138.635 21.4201C138.635 15.5095 134.253 11.2528 128.467 11.2528ZM80.363 26.4314C79.8034 26.4384 79.2483 26.3342 78.7292 26.1249C78.2106 25.9157 77.7384 25.6055 77.3402 25.2123C76.5408 24.4129 76.0062 23.2038 76.0062 21.565C76.0062 19.9063 76.5458 18.6922 77.3402 17.8978C77.7404 17.5069 78.2141 17.1993 78.7337 16.9926C79.2533 16.786 79.8089 16.6844 80.368 16.6937C81.5071 16.6937 82.5913 17.0984 83.3907 17.8928C84.1901 18.6922 84.7247 19.9063 84.7247 21.5601C84.7247 23.2188 84.1851 24.4329 83.3907 25.2273C82.9905 25.6182 82.5169 25.9258 81.9972 26.1325C81.4776 26.3391 80.922 26.4407 80.363 26.4314ZM80.363 11.3927C74.5823 11.3927 70.2005 15.6545 70.2005 21.5601C70.2005 27.4357 74.5823 31.7275 80.363 31.7275C86.1487 31.7275 90.5304 27.4307 90.5304 21.5601C90.5304 15.6545 86.1486 11.3976 80.368 11.3976L80.363 11.3927ZM154.443 31.5226H160.213V20.0612C160.213 19.1119 160.513 18.2875 161.033 17.7079C161.322 17.3944 161.674 17.1472 162.068 16.9833C162.461 16.8195 162.885 16.7428 163.311 16.7587C164.35 16.7587 165.06 17.1083 165.515 17.6379C165.979 18.1775 166.214 18.962 166.214 19.9113V31.5226H171.95V20.0612C171.95 19.1369 172.25 18.3124 172.769 17.7179C173.05 17.4047 173.396 17.1565 173.782 16.9908C174.169 16.8251 174.587 16.7459 175.007 16.7587C176.072 16.7587 176.776 17.1083 177.226 17.6379C177.685 18.1775 177.915 18.962 177.915 19.9113V31.5226H183.536V18.8821C183.536 16.299 182.687 14.4154 181.343 13.1863C180.009 11.9622 178.23 11.4176 176.446 11.4176C175.172 11.4176 174.008 11.6374 172.964 12.162C172.07 12.6117 171.285 13.2713 170.596 14.1906C169.482 12.3769 167.448 11.4176 165.05 11.4176C163.291 11.4176 161.268 12.1171 159.989 13.4661V11.8873H154.443V31.5226ZM152.269 11.9023V17.7828L151.82 17.6929C151.285 17.588 150.82 17.548 150.391 17.548C149.167 17.548 148.078 17.8478 147.298 18.5772C146.524 19.3017 145.989 20.5059 145.989 22.4444V31.5226H140.233V11.8873H145.839V13.7858C147.223 12.1171 149.377 11.7873 150.731 11.7873C151.16 11.7873 151.555 11.8323 151.93 11.8672L152.269 11.9023ZM48.4967 22.0597H54.1225L54.1875 22.1247C54.2274 22.1646 54.2574 22.2246 54.2624 22.2895C54.2869 22.8176 54.4158 23.3357 54.6421 23.8134C54.869 24.2912 55.1882 24.7192 55.5814 25.0724C56.3219 25.6768 57.2542 25.9958 58.2095 25.9717C58.7386 25.9895 59.2652 25.8918 59.7523 25.6857C60.24 25.4794 60.6766 25.1696 61.0324 24.7776C61.7238 23.939 62.0846 22.8762 62.0466 21.7899V5.34213H68.1321V21.9598C68.1321 27.2808 64.0601 31.7275 58.2494 31.7275C55.3516 31.7275 52.9134 30.7632 51.2047 29.0895C49.5359 27.4557 48.5417 25.1224 48.4967 22.2845V22.0597ZM117.485 8.00517L117.805 8.1001V3.6434L117.655 3.57845C117.332 3.45004 116.995 3.36113 116.651 3.31364C116.226 3.2437 115.727 3.19873 115.217 3.19873C113.233 3.19873 111.005 3.85824 109.851 5.04236C108.697 6.2215 108.057 7.90525 108.057 9.92375V10.863H105.159V15.9792H108.057V31.5226H113.878V15.9792H117.805V10.863H113.878V9.99369C113.878 9.08937 114.193 8.56476 114.597 8.26498C115.03 7.97085 115.544 7.82206 116.066 7.8403C116.816 7.8403 117.255 7.94022 117.485 8.00517ZM103.076 26.9311L103.376 26.8361V31.3078L103.236 31.3777C103.026 31.4776 102.686 31.5726 102.292 31.6426C101.892 31.7075 101.427 31.7524 100.943 31.7524C99.084 31.7524 96.9956 31.093 95.9114 29.9039C94.8272 28.7197 94.2276 27.0309 94.2276 25.0075V15.9792H91.5047V10.888H94.2276V5.37211H99.6886V10.893H103.376V15.9892H99.6886V24.9375C99.6886 25.8468 99.9883 26.3714 100.368 26.6762C100.758 26.991 101.272 27.1009 101.747 27.1009C102.452 27.1009 102.861 27.001 103.076 26.936V26.9311Z" fill="white"/>
<path d="M8.38155 32.3173C9.00109 32.9169 8.56142 33.9511 7.68207 33.9511H2.1462C1.63025 33.9578 1.13272 33.7596 0.762749 33.3999C0.392773 33.0403 0.180564 32.5485 0.172668 32.0326V26.6765C0.172668 25.8172 1.23688 25.3926 1.86141 25.9971L8.38155 32.3173Z" fill="white"/>
<path d="M17.0201 32.7318C16.6318 32.3463 16.3237 31.8879 16.1134 31.3828C15.9032 30.8777 15.7949 30.3361 15.7949 29.789C15.7949 29.2419 15.9032 28.7002 16.1134 28.1952C16.3237 27.6901 16.6318 27.2316 17.0201 26.8462L22.9257 20.9805C23.7136 20.1988 24.7786 19.7603 25.8885 19.7603C26.9984 19.7603 28.0633 20.1988 28.8512 20.9805C29.2395 21.366 29.5476 21.8245 29.7579 22.3295C29.9682 22.8346 30.0764 23.3763 30.0764 23.9234C30.0764 24.4704 29.9682 25.0121 29.7579 25.5172C29.5476 26.0222 29.2395 26.4807 28.8512 26.8662L22.9456 32.7318C22.1577 33.5135 21.0928 33.9521 19.9829 33.9521C18.873 33.9521 17.808 33.5135 17.0201 32.7318Z" fill="#FFB629"/>
<path d="M1.42179 17.9879C1.03356 17.6025 0.725441 17.144 0.515172 16.639C0.304906 16.1339 0.196655 15.5922 0.196655 15.0451C0.196655 14.4981 0.304906 13.9564 0.515172 13.4513C0.725441 12.9462 1.03356 12.4878 1.42179 12.1023L11.3594 2.22469C12.1473 1.44301 13.2123 1.00439 14.3222 1.00439C15.4321 1.00439 16.497 1.44301 17.285 2.22469C17.6732 2.61015 17.9813 3.06862 18.1916 3.57368C18.4019 4.07874 18.5101 4.62042 18.5101 5.1675C18.5101 5.71459 18.4019 6.25627 18.1916 6.76135C17.9813 7.26637 17.6732 7.72483 17.285 8.11029L7.34241 17.9879C6.55464 18.7681 5.49078 19.2058 4.38209 19.2058C3.2734 19.2058 2.20953 18.7681 1.42179 17.9879Z" fill="#0099FF"/>
<path d="M9.54576 25.0329C9.15749 24.6474 8.84937 24.189 8.63913 23.6839C8.42884 23.1788 8.32062 22.6371 8.32062 22.0901C8.32062 21.543 8.42884 21.0013 8.63913 20.4962C8.84937 19.9912 9.15749 19.5327 9.54576 19.1473L22.9708 5.80721C23.7587 5.02553 24.8236 4.58691 25.9335 4.58691C27.0434 4.58691 28.1084 5.02553 28.8963 5.80721C29.2846 6.19265 29.5927 6.65116 29.803 7.15618C30.0132 7.66125 30.1215 8.20295 30.1215 8.75004C30.1215 9.29709 30.0132 9.83878 29.803 10.3439C29.5927 10.8489 29.2846 11.3074 28.8963 11.6929L15.4713 25.0329C14.6834 25.8146 13.6184 26.2532 12.5085 26.2532C11.3986 26.2532 10.3337 25.8146 9.54576 25.0329Z" fill="#FF6100"/>
</g>
<defs>
<clipPath id="clip0_1212_2074">
<rect width="183.363" height="32.9754" fill="white" transform="translate(0.172852 0.975586)"/>
</clipPath>
</defs>
</svg>
