<svg width="111" height="34" viewBox="0 0 111 34" fill="none" xmlns="http://www.w3.org/2000/svg">
<g clip-path="url(#clip0_1212_2111)">
<path d="M33.1632 15.7127H23.1145L31.8167 10.6894L30.091 7.69966L21.3877 12.7229L26.4109 4.02289L23.4211 2.29718L18.3968 10.995V0.950684H14.9432V10.9961L9.9188 2.29718L6.92793 4.02289L11.9512 12.7207L3.25007 7.69966L1.52325 10.6894L10.2255 15.7127H0.176758V19.1652H10.2244L1.52325 24.1885L3.24897 27.1782L11.9523 22.155L6.92793 30.855L9.9177 32.5807L14.9432 23.8818V33.9261H18.3968V23.6664L23.5135 32.5258L26.3175 30.9078L21.1997 22.0462L30.0888 27.1771L31.8156 24.1874L23.1145 19.1641H33.1621V15.7127H33.1632ZM16.67 22.1319C16.0534 22.132 15.443 22.0107 14.8734 21.7748C14.3038 21.5389 13.7862 21.1932 13.3502 20.7573C12.9143 20.3214 12.5684 19.8039 12.3324 19.2344C12.0964 18.6648 11.9749 18.0544 11.9748 17.4379C11.9747 16.8213 12.0961 16.2108 12.3319 15.6412C12.5678 15.0716 12.9135 14.554 13.3495 14.1181C13.7853 13.6822 14.3028 13.3363 14.8724 13.1003C15.442 12.8643 16.0523 12.7428 16.6689 12.7427C17.9139 12.7426 19.1081 13.237 19.9886 14.1173C20.8692 14.9977 21.3639 16.1917 21.364 17.4368C21.3641 18.6818 20.8697 19.8759 19.9894 20.7565C19.1091 21.6371 17.915 22.1318 16.67 22.1319Z" fill="#5753F3"/>
<path d="M42.0654 29.5001V5.37744H46.4929V29.5001H42.0654ZM84.53 13.1069H88.7575V15.1074C89.6566 13.5081 91.7549 12.6408 93.5521 12.6408C95.7834 12.6408 97.5806 13.6081 98.4127 15.3723C99.7097 13.3718 101.442 12.6408 103.606 12.6408C106.636 12.6408 109.531 14.4732 109.531 18.871V29.5001H105.238V19.7712C105.238 18.0048 104.371 16.6715 102.34 16.6715C100.442 16.6715 99.3096 18.1389 99.3096 19.9053V29.5012H94.9173V19.7712C94.9173 18.0048 94.0182 16.6715 92.0199 16.6715C90.0886 16.6715 88.9564 18.106 88.9564 19.9053V29.5012H84.53V13.1069ZM56.4987 29.9749C51.5106 29.9749 47.8987 26.274 47.8987 21.3035C47.8987 16.4121 51.4996 12.6243 56.4987 12.6243C61.522 12.6243 65.0987 16.4473 65.0987 21.3035C65.0987 26.2388 61.4846 29.9749 56.4987 29.9749ZM56.4987 16.6364C55.2615 16.6381 54.0755 17.1305 53.2008 18.0058C52.3263 18.881 51.8347 20.0673 51.8338 21.3046C51.8347 22.5418 52.3263 23.7282 53.2008 24.6033C54.0755 25.4786 55.2615 25.971 56.4987 25.9728C57.7357 25.9707 58.9215 25.4782 59.7958 24.603C60.6701 23.7278 61.1617 22.5416 61.1625 21.3046C61.1617 20.0676 60.6701 18.8813 59.7958 18.0062C58.9215 17.131 57.7357 16.6384 56.4987 16.6364ZM74.555 29.9749C69.5669 29.9749 65.955 26.274 65.955 21.3035C65.955 16.4121 69.5559 12.6243 74.555 12.6243C79.5782 12.6243 83.155 16.4473 83.155 21.3035C83.155 26.2388 79.5387 29.9749 74.555 29.9749ZM74.555 16.5803C73.3035 16.5824 72.1039 17.0806 71.2194 17.9658C70.3348 18.851 69.8373 20.051 69.8362 21.3024C69.8373 22.5538 70.3348 23.7538 71.2194 24.6389C72.1039 25.5241 73.3035 26.0224 74.555 26.0245C75.8064 26.0224 77.0059 25.5241 77.8905 24.6389C78.7752 23.7538 79.2725 22.5538 79.2738 21.3024C79.2725 20.051 78.7752 18.851 77.8905 17.9658C77.0059 17.0806 75.8064 16.5824 74.555 16.5803Z" fill="white"/>
</g>
<defs>
<clipPath id="clip0_1212_2111">
<rect width="109.918" height="32.9754" fill="white" transform="translate(0.176758 0.950684)"/>
</clipPath>
</defs>
</svg>
