<svg width="430" height="423" viewBox="0 0 430 423" fill="none" xmlns="http://www.w3.org/2000/svg">
<g clip-path="url(#clip0_1214_234)">
<rect x="0.27832" y="0.783203" width="428.917" height="421.564" rx="24.5095" fill="url(#paint0_linear_1214_234)"/>
<path d="M40.3367 55.7999C39.2044 55.7999 38.1897 55.6161 37.2926 55.2485C36.3956 54.8808 35.675 54.3367 35.1309 53.6161C34.6015 52.8955 34.3221 52.0279 34.2927 51.0132H38.3073C38.3662 51.5867 38.5647 52.0279 38.9029 52.3367C39.2411 52.6308 39.6823 52.7779 40.2264 52.7779C40.7852 52.7779 41.2264 52.6529 41.5499 52.4029C41.8735 52.1382 42.0352 51.7779 42.0352 51.322C42.0352 50.9397 41.9029 50.6235 41.6382 50.3735C41.3882 50.1235 41.072 49.9176 40.6897 49.7559C40.322 49.5941 39.7926 49.4103 39.1014 49.2044C38.1015 48.8956 37.2853 48.5868 36.6529 48.2779C36.0206 47.9691 35.4765 47.5132 35.0206 46.9103C34.5647 46.3074 34.3368 45.5206 34.3368 44.55C34.3368 43.1089 34.8588 41.9839 35.9029 41.1751C36.9471 40.3516 38.3073 39.9398 39.9838 39.9398C41.6897 39.9398 43.0646 40.3516 44.1087 41.1751C45.1529 41.9839 45.7117 43.1162 45.7852 44.5721H41.7044C41.6749 44.0721 41.4911 43.6824 41.1529 43.403C40.8147 43.1089 40.3808 42.9618 39.8514 42.9618C39.3956 42.9618 39.0279 43.0868 38.7485 43.3368C38.4691 43.5721 38.3294 43.9177 38.3294 44.3736C38.3294 44.8736 38.5647 45.2633 39.0353 45.5427C39.5059 45.8221 40.2411 46.1236 41.2411 46.4471C42.2411 46.7853 43.0499 47.1088 43.6676 47.4177C44.2999 47.7265 44.844 48.175 45.2999 48.7632C45.7558 49.3515 45.9837 50.1088 45.9837 51.0353C45.9837 51.9176 45.7558 52.7191 45.2999 53.4396C44.8587 54.1602 44.2117 54.7338 43.3588 55.1602C42.5058 55.5867 41.4985 55.7999 40.3367 55.7999ZM47.5551 49.4691C47.5551 48.2044 47.7903 47.0941 48.2609 46.1383C48.7462 45.1824 49.4006 44.4471 50.2241 43.9324C51.0477 43.4177 51.9668 43.1603 52.9815 43.1603C53.8491 43.1603 54.6064 43.3368 55.2535 43.6898C55.9153 44.0427 56.4226 44.5059 56.7755 45.0794V43.3368H60.5476V55.6455H56.7755V53.9029C56.4079 54.4764 55.8932 54.9396 55.2314 55.2926C54.5844 55.6455 53.827 55.822 52.9594 55.822C51.9594 55.822 51.0477 55.5646 50.2241 55.0499C49.4006 54.5205 48.7462 53.7779 48.2609 52.822C47.7903 51.8514 47.5551 50.7338 47.5551 49.4691ZM56.7755 49.4912C56.7755 48.55 56.5108 47.8074 55.9814 47.2632C55.4667 46.7191 54.8344 46.4471 54.0844 46.4471C53.3344 46.4471 52.6947 46.7191 52.1653 47.2632C51.6506 47.7927 51.3932 48.5279 51.3932 49.4691C51.3932 50.4103 51.6506 51.1603 52.1653 51.7191C52.6947 52.2632 53.3344 52.5352 54.0844 52.5352C54.8344 52.5352 55.4667 52.2632 55.9814 51.7191C56.5108 51.175 56.7755 50.4323 56.7755 49.4912ZM70.1367 52.447V55.6455H68.2176C66.8499 55.6455 65.7838 55.3146 65.0191 54.6529C64.2544 53.9764 63.872 52.8808 63.872 51.3661V46.4691H62.372V43.3368H63.872V40.3368H67.6441V43.3368H70.1146V46.4691H67.6441V51.4103C67.6441 51.7779 67.7323 52.0426 67.9088 52.2044C68.0852 52.3661 68.3793 52.447 68.7911 52.447H70.1367ZM74.1348 42.0574C73.473 42.0574 72.9289 41.8662 72.5025 41.4839C72.0907 41.0868 71.8848 40.6016 71.8848 40.028C71.8848 39.4398 72.0907 38.9545 72.5025 38.5722C72.9289 38.1751 73.473 37.9766 74.1348 37.9766C74.7818 37.9766 75.3112 38.1751 75.723 38.5722C76.1495 38.9545 76.3627 39.4398 76.3627 40.028C76.3627 40.6016 76.1495 41.0868 75.723 41.4839C75.3112 41.8662 74.7818 42.0574 74.1348 42.0574ZM76.0098 43.3368V55.6455H72.2377V43.3368H76.0098ZM83.7506 55.822C82.6771 55.822 81.7212 55.6382 80.883 55.2705C80.0448 54.9029 79.383 54.4029 78.8977 53.7705C78.4124 53.1235 78.1404 52.4029 78.0816 51.6088H81.8095C81.8536 52.0353 82.0521 52.3808 82.405 52.6455C82.758 52.9102 83.1918 53.0426 83.7065 53.0426C84.1771 53.0426 84.5374 52.9544 84.7874 52.7779C85.0521 52.5867 85.1844 52.3441 85.1844 52.05C85.1844 51.697 85.0006 51.4397 84.633 51.2779C84.2653 51.1014 83.6697 50.9103 82.8462 50.7044C81.9639 50.4985 81.2286 50.2853 80.6404 50.0647C80.0521 49.8294 79.5448 49.4691 79.1183 48.9838C78.6918 48.4838 78.4786 47.8147 78.4786 46.9765C78.4786 46.2706 78.6698 45.6309 79.0521 45.0574C79.4492 44.4692 80.0227 44.0059 80.7727 43.6677C81.5374 43.3295 82.4418 43.1603 83.4859 43.1603C85.03 43.1603 86.2432 43.5427 87.1256 44.3074C88.0226 45.0721 88.5373 46.0868 88.6697 47.3515H85.1844C85.1256 46.925 84.9344 46.5868 84.6109 46.3368C84.3021 46.0868 83.8903 45.9618 83.3756 45.9618C82.9344 45.9618 82.5962 46.05 82.3609 46.2265C82.1256 46.3883 82.008 46.6162 82.008 46.9103C82.008 47.2632 82.1918 47.5279 82.5594 47.7044C82.9418 47.8809 83.53 48.0574 84.3241 48.2338C85.2359 48.4691 85.9785 48.7044 86.5521 48.9397C87.1256 49.1603 87.6256 49.5279 88.052 50.0426C88.4932 50.5426 88.7211 51.2191 88.7359 52.072C88.7359 52.7926 88.53 53.4396 88.1182 54.0132C87.7212 54.572 87.1403 55.0132 86.3756 55.3367C85.6256 55.6602 84.7506 55.822 83.7506 55.822ZM97.22 46.4691H95.1906V55.6455H91.4186V46.4691H90.0509V43.3368H91.4186V42.9839C91.4186 41.4692 91.8524 40.3221 92.72 39.5427C93.5876 38.7486 94.8597 38.3516 96.5361 38.3516C96.8156 38.3516 97.0214 38.3589 97.1538 38.3736V41.5721C96.4332 41.528 95.9259 41.631 95.6317 41.8809C95.3376 42.1309 95.1906 42.5795 95.1906 43.2265V43.3368H97.22V46.4691ZM98.2424 49.4691C98.2424 48.2044 98.4777 47.0941 98.9483 46.1383C99.4336 45.1824 100.088 44.4471 100.912 43.9324C101.735 43.4177 102.654 43.1603 103.669 43.1603C104.536 43.1603 105.294 43.3368 105.941 43.6898C106.603 44.0427 107.11 44.5059 107.463 45.0794V43.3368H111.235V55.6455H107.463V53.9029C107.095 54.4764 106.581 54.9396 105.919 55.2926C105.272 55.6455 104.514 55.822 103.647 55.822C102.647 55.822 101.735 55.5646 100.912 55.0499C100.088 54.5205 99.4336 53.7779 98.9483 52.822C98.4777 51.8514 98.2424 50.7338 98.2424 49.4691ZM107.463 49.4912C107.463 48.55 107.198 47.8074 106.669 47.2632C106.154 46.7191 105.522 46.4471 104.772 46.4471C104.022 46.4471 103.382 46.7191 102.853 47.2632C102.338 47.7927 102.081 48.5279 102.081 49.4691C102.081 50.4103 102.338 51.1603 102.853 51.7191C103.382 52.2632 104.022 52.5352 104.772 52.5352C105.522 52.5352 106.154 52.2632 106.669 51.7191C107.198 51.175 107.463 50.4323 107.463 49.4912ZM113.214 49.4912C113.214 48.2118 113.471 47.0941 113.986 46.1383C114.515 45.1824 115.243 44.4471 116.17 43.9324C117.111 43.4177 118.184 43.1603 119.39 43.1603C120.934 43.1603 122.221 43.5648 123.25 44.3736C124.295 45.1824 124.978 46.3221 125.302 47.7927H121.287C120.949 46.8515 120.295 46.3809 119.324 46.3809C118.633 46.3809 118.081 46.653 117.67 47.1971C117.258 47.7265 117.052 48.4912 117.052 49.4912C117.052 50.4912 117.258 51.2632 117.67 51.8073C118.081 52.3367 118.633 52.6014 119.324 52.6014C120.295 52.6014 120.949 52.1308 121.287 51.1897H125.302C124.978 52.6308 124.295 53.7632 123.25 54.5867C122.206 55.4102 120.92 55.822 119.39 55.822C118.184 55.822 117.111 55.5646 116.17 55.0499C115.243 54.5352 114.515 53.7999 113.986 52.8441C113.471 51.8882 113.214 50.7706 113.214 49.4912ZM134.18 52.447V55.6455H132.261C130.893 55.6455 129.827 55.3146 129.062 54.6529C128.298 53.9764 127.915 52.8808 127.915 51.3661V46.4691H126.415V43.3368H127.915V40.3368H131.687V43.3368H134.158V46.4691H131.687V51.4103C131.687 51.7779 131.775 52.0426 131.952 52.2044C132.128 52.3661 132.422 52.447 132.834 52.447H134.18ZM138.178 42.0574C137.516 42.0574 136.972 41.8662 136.546 41.4839C136.134 41.0868 135.928 40.6016 135.928 40.028C135.928 39.4398 136.134 38.9545 136.546 38.5722C136.972 38.1751 137.516 37.9766 138.178 37.9766C138.825 37.9766 139.354 38.1751 139.766 38.5722C140.193 38.9545 140.406 39.4398 140.406 40.028C140.406 40.6016 140.193 41.0868 139.766 41.4839C139.354 41.8662 138.825 42.0574 138.178 42.0574ZM140.053 43.3368V55.6455H136.281V43.3368H140.053ZM148.389 55.822C147.183 55.822 146.095 55.5646 145.125 55.0499C144.169 54.5352 143.411 53.7999 142.853 52.8441C142.309 51.8882 142.036 50.7706 142.036 49.4912C142.036 48.2265 142.316 47.1162 142.875 46.1603C143.434 45.1897 144.198 44.4471 145.169 43.9324C146.139 43.4177 147.228 43.1603 148.433 43.1603C149.639 43.1603 150.728 43.4177 151.698 43.9324C152.669 44.4471 153.433 45.1897 153.992 46.1603C154.551 47.1162 154.83 48.2265 154.83 49.4912C154.83 50.7559 154.544 51.8735 153.97 52.8441C153.411 53.7999 152.639 54.5352 151.654 55.0499C150.683 55.5646 149.595 55.822 148.389 55.822ZM148.389 52.5573C149.11 52.5573 149.72 52.2926 150.22 51.7632C150.735 51.2338 150.992 50.4764 150.992 49.4912C150.992 48.5059 150.742 47.7485 150.242 47.2191C149.757 46.6897 149.154 46.425 148.433 46.425C147.698 46.425 147.088 46.6897 146.603 47.2191C146.117 47.7338 145.875 48.4912 145.875 49.4912C145.875 50.4764 146.11 51.2338 146.581 51.7632C147.066 52.2926 147.669 52.5573 148.389 52.5573ZM164.331 43.2045C165.773 43.2045 166.92 43.675 167.773 44.6162C168.64 45.5427 169.074 46.8221 169.074 48.4544V55.6455H165.324V48.9618C165.324 48.1382 165.111 47.4985 164.684 47.0427C164.258 46.5868 163.684 46.3588 162.964 46.3588C162.243 46.3588 161.67 46.5868 161.243 47.0427C160.817 47.4985 160.604 48.1382 160.604 48.9618V55.6455H156.832V43.3368H160.604V44.9692C160.986 44.425 161.501 43.9986 162.148 43.6898C162.795 43.3662 163.523 43.2045 164.331 43.2045ZM184.267 55.6455L181.046 49.8H180.142V55.6455H176.37V40.1604H182.701C183.921 40.1604 184.958 40.3736 185.811 40.8001C186.679 41.2265 187.326 41.8148 187.752 42.5648C188.178 43.3001 188.392 44.1236 188.392 45.0353C188.392 46.0647 188.098 46.9838 187.509 47.7927C186.936 48.6015 186.083 49.175 184.951 49.5132L188.524 55.6455H184.267ZM180.142 47.1309H182.48C183.171 47.1309 183.686 46.9618 184.024 46.6235C184.377 46.2853 184.554 45.8074 184.554 45.1897C184.554 44.6015 184.377 44.1383 184.024 43.8C183.686 43.4618 183.171 43.2927 182.48 43.2927H180.142V47.1309ZM190.01 49.4691C190.01 48.2044 190.245 47.0941 190.715 46.1383C191.201 45.1824 191.855 44.4471 192.679 43.9324C193.502 43.4177 194.421 43.1603 195.436 43.1603C196.304 43.1603 197.061 43.3368 197.708 43.6898C198.37 44.0427 198.877 44.5059 199.23 45.0794V43.3368H203.002V55.6455H199.23V53.9029C198.862 54.4764 198.348 54.9396 197.686 55.2926C197.039 55.6455 196.282 55.822 195.414 55.822C194.414 55.822 193.502 55.5646 192.679 55.0499C191.855 54.5205 191.201 53.7779 190.715 52.822C190.245 51.8514 190.01 50.7338 190.01 49.4691ZM199.23 49.4912C199.23 48.55 198.965 47.8074 198.436 47.2632C197.921 46.7191 197.289 46.4471 196.539 46.4471C195.789 46.4471 195.149 46.7191 194.62 47.2632C194.105 47.7927 193.848 48.5279 193.848 49.4691C193.848 50.4103 194.105 51.1603 194.62 51.7191C195.149 52.2632 195.789 52.5352 196.539 52.5352C197.289 52.5352 197.921 52.2632 198.436 51.7191C198.965 51.175 199.23 50.4323 199.23 49.4912ZM212.591 52.447V55.6455H210.672C209.304 55.6455 208.238 55.3146 207.474 54.6529C206.709 53.9764 206.327 52.8808 206.327 51.3661V46.4691H204.827V43.3368H206.327V40.3368H210.099V43.3368H212.569V46.4691H210.099V51.4103C210.099 51.7779 210.187 52.0426 210.363 52.2044C210.54 52.3661 210.834 52.447 211.246 52.447H212.591ZM226.295 49.2926C226.295 49.6456 226.273 50.0132 226.229 50.3956H217.692C217.751 51.1603 217.994 51.7485 218.42 52.1603C218.861 52.5573 219.398 52.7558 220.03 52.7558C220.972 52.7558 221.626 52.3588 221.994 51.5647H226.008C225.802 52.3735 225.427 53.1014 224.883 53.7485C224.354 54.3955 223.685 54.9029 222.876 55.2705C222.067 55.6382 221.163 55.822 220.163 55.822C218.957 55.822 217.883 55.5646 216.942 55.0499C216.001 54.5352 215.266 53.7999 214.736 52.8441C214.207 51.8882 213.942 50.7706 213.942 49.4912C213.942 48.2118 214.2 47.0941 214.714 46.1383C215.244 45.1824 215.979 44.4471 216.92 43.9324C217.861 43.4177 218.942 43.1603 220.163 43.1603C221.354 43.1603 222.413 43.4103 223.339 43.9103C224.266 44.4103 224.986 45.1236 225.501 46.05C226.03 46.9765 226.295 48.0574 226.295 49.2926ZM222.435 48.3C222.435 47.6529 222.214 47.1382 221.773 46.7559C221.332 46.3735 220.78 46.1824 220.119 46.1824C219.486 46.1824 218.95 46.3662 218.508 46.7338C218.082 47.1015 217.817 47.6235 217.714 48.3H222.435Z" fill="black"/>
<path d="M41.67 71.2597V72.8553H36.6088V76.3724H40.5549V77.968H36.6088V83.1836H34.653V71.2597H41.67ZM45.4385 75.1028C45.7244 74.6224 46.1019 74.2507 46.5708 73.9876C47.0512 73.7131 47.6174 73.5759 48.2693 73.5759V75.6003H47.7718C47.0055 75.6003 46.4221 75.7948 46.0218 76.1837C45.6329 76.5726 45.4385 77.2474 45.4385 78.2082V83.1836H43.4826V73.7303H45.4385V75.1028ZM54.1676 83.338C53.2755 83.338 52.4691 83.1378 51.7485 82.7375C51.0279 82.3258 50.4618 81.7539 50.05 81.0219C49.6382 80.2784 49.4324 79.4206 49.4324 78.4483C49.4324 77.4876 49.644 76.6355 50.0672 75.892C50.4904 75.1485 51.068 74.5767 51.8 74.1763C52.532 73.776 53.3498 73.5759 54.2534 73.5759C55.157 73.5759 55.9748 73.776 56.7068 74.1763C57.4388 74.5767 58.0164 75.1485 58.4396 75.892C58.8628 76.6355 59.0744 77.4876 59.0744 78.4483C59.0744 79.4091 58.8571 80.2612 58.4225 81.0047C57.9878 81.7482 57.3931 82.3258 56.6382 82.7375C55.8947 83.1378 55.0712 83.338 54.1676 83.338ZM54.1676 81.6395C54.6709 81.6395 55.1398 81.5194 55.5745 81.2792C56.0205 81.039 56.3808 80.6787 56.6553 80.1983C56.9298 79.7179 57.0671 79.1346 57.0671 78.4483C57.0671 77.7621 56.9356 77.1845 56.6725 76.7155C56.4094 76.2351 56.0606 75.8748 55.6259 75.6347C55.1913 75.3945 54.7223 75.2744 54.2191 75.2744C53.7158 75.2744 53.2469 75.3945 52.8122 75.6347C52.389 75.8748 52.0516 76.2351 51.8 76.7155C51.5484 77.1845 51.4225 77.7621 51.4225 78.4483C51.4225 79.4663 51.6799 80.2555 52.1946 80.816C52.7207 81.365 53.3784 81.6395 54.1676 81.6395ZM72.4514 73.5759C73.1949 73.5759 73.8583 73.7303 74.4416 74.0391C75.0363 74.3479 75.4996 74.8054 75.8313 75.4116C76.1744 76.0178 76.346 76.7498 76.346 77.6077V83.1836H74.4073V77.8993C74.4073 77.0529 74.1957 76.4067 73.7725 75.9606C73.3493 75.5031 72.7717 75.2744 72.0396 75.2744C71.3076 75.2744 70.7243 75.5031 70.2897 75.9606C69.8665 76.4067 69.6549 77.0529 69.6549 77.8993V83.1836H67.7162V77.8993C67.7162 77.0529 67.5046 76.4067 67.0814 75.9606C66.6582 75.5031 66.0806 75.2744 65.3485 75.2744C64.6165 75.2744 64.0332 75.5031 63.5986 75.9606C63.1754 76.4067 62.9638 77.0529 62.9638 77.8993V83.1836H61.0079V73.7303H62.9638V74.8111C63.284 74.4222 63.6901 74.1191 64.1819 73.9018C64.6737 73.6845 65.1998 73.5759 65.7603 73.5759C66.5152 73.5759 67.19 73.736 67.7848 74.0562C68.3796 74.3765 68.8371 74.8397 69.1573 75.4459C69.4433 74.874 69.8893 74.4222 70.4955 74.0906C71.1017 73.7474 71.7537 73.5759 72.4514 73.5759ZM82.6395 78.414C82.6395 77.4647 82.834 76.624 83.2229 75.892C83.6232 75.16 84.1607 74.5938 84.8356 74.1935C85.5218 73.7817 86.2767 73.5759 87.1003 73.5759C87.8437 73.5759 88.49 73.7245 89.039 74.0219C89.5994 74.3079 90.0455 74.6682 90.3772 75.1028V73.7303H92.3502V83.1836H90.3772V81.7767C90.0455 82.2228 89.5937 82.5945 89.0218 82.8919C88.4499 83.1893 87.798 83.338 87.0659 83.338C86.2539 83.338 85.5104 83.1321 84.8356 82.7204C84.1607 82.2972 83.6232 81.7138 83.2229 80.9704C82.834 80.2155 82.6395 79.3634 82.6395 78.414ZM90.3772 78.4483C90.3772 77.7964 90.2399 77.2302 89.9654 76.7498C89.7024 76.2695 89.3535 75.9034 88.9189 75.6518C88.4842 75.4002 88.0153 75.2744 87.512 75.2744C87.0088 75.2744 86.5398 75.4002 86.1052 75.6518C85.6705 75.892 85.316 76.2523 85.0415 76.7327C84.7784 77.2016 84.6469 77.7621 84.6469 78.414C84.6469 79.066 84.7784 79.6379 85.0415 80.1297C85.316 80.6215 85.6705 80.999 86.1052 81.262C86.5512 81.5137 87.0202 81.6395 87.512 81.6395C88.0153 81.6395 88.4842 81.5137 88.9189 81.262C89.3535 81.0104 89.7024 80.6444 89.9654 80.164C90.2399 79.6722 90.3772 79.1003 90.3772 78.4483ZM96.875 70.4877V83.1836H94.9191V70.4877H96.875ZM101.399 70.4877V83.1836H99.4429V70.4877H101.399ZM110.379 75.12C110.711 74.6853 111.163 74.3193 111.735 74.0219C112.306 73.7245 112.953 73.5759 113.673 73.5759C114.497 73.5759 115.246 73.7817 115.921 74.1935C116.607 74.5938 117.145 75.16 117.534 75.892C117.922 76.624 118.117 77.4647 118.117 78.414C118.117 79.3634 117.922 80.2155 117.534 80.9704C117.145 81.7138 116.607 82.2972 115.921 82.7204C115.246 83.1321 114.497 83.338 113.673 83.338C112.953 83.338 112.312 83.195 111.752 82.9091C111.191 82.6117 110.734 82.2457 110.379 81.8111V87.6786H108.423V73.7303H110.379V75.12ZM116.127 78.414C116.127 77.7621 115.989 77.2016 115.715 76.7327C115.452 76.2523 115.097 75.892 114.651 75.6518C114.217 75.4002 113.748 75.2744 113.244 75.2744C112.753 75.2744 112.284 75.4002 111.838 75.6518C111.403 75.9034 111.048 76.2695 110.774 76.7498C110.511 77.2302 110.379 77.7964 110.379 78.4483C110.379 79.1003 110.511 79.6722 110.774 80.164C111.048 80.6444 111.403 81.0104 111.838 81.262C112.284 81.5137 112.753 81.6395 113.244 81.6395C113.748 81.6395 114.217 81.5137 114.651 81.262C115.097 80.999 115.452 80.6215 115.715 80.1297C115.989 79.6379 116.127 79.066 116.127 78.414ZM122.007 75.1028C122.293 74.6224 122.67 74.2507 123.139 73.9876C123.62 73.7131 124.186 73.5759 124.838 73.5759V75.6003H124.34C123.574 75.6003 122.991 75.7948 122.59 76.1837C122.201 76.5726 122.007 77.2474 122.007 78.2082V83.1836H120.051V73.7303H122.007V75.1028ZM130.736 83.338C129.844 83.338 129.037 83.1378 128.317 82.7375C127.596 82.3258 127.03 81.7539 126.618 81.0219C126.207 80.2784 126.001 79.4206 126.001 78.4483C126.001 77.4876 126.212 76.6355 126.636 75.892C127.059 75.1485 127.636 74.5767 128.368 74.1763C129.1 73.776 129.918 73.5759 130.822 73.5759C131.725 73.5759 132.543 73.776 133.275 74.1763C134.007 74.5767 134.585 75.1485 135.008 75.892C135.431 76.6355 135.643 77.4876 135.643 78.4483C135.643 79.4091 135.425 80.2612 134.991 81.0047C134.556 81.7482 133.961 82.3258 133.207 82.7375C132.463 83.1378 131.64 83.338 130.736 83.338ZM130.736 81.6395C131.239 81.6395 131.708 81.5194 132.143 81.2792C132.589 81.039 132.949 80.6787 133.224 80.1983C133.498 79.7179 133.635 79.1346 133.635 78.4483C133.635 77.7621 133.504 77.1845 133.241 76.7155C132.978 76.2351 132.629 75.8748 132.194 75.6347C131.76 75.3945 131.291 75.2744 130.787 75.2744C130.284 75.2744 129.815 75.3945 129.381 75.6347C128.957 75.8748 128.62 76.2351 128.368 76.7155C128.117 77.1845 127.991 77.7621 127.991 78.4483C127.991 79.4663 128.248 80.2555 128.763 80.816C129.289 81.365 129.947 81.6395 130.736 81.6395ZM138.571 72.4778C138.217 72.4778 137.919 72.3577 137.679 72.1175C137.439 71.8773 137.319 71.58 137.319 71.2254C137.319 70.8708 137.439 70.5734 137.679 70.3332C137.919 70.093 138.217 69.973 138.571 69.973C138.915 69.973 139.206 70.093 139.446 70.3332C139.687 70.5734 139.807 70.8708 139.807 71.2254C139.807 71.58 139.687 71.8773 139.446 72.1175C139.206 72.3577 138.915 72.4778 138.571 72.4778ZM139.532 85.0365C139.532 85.963 139.298 86.6321 138.829 87.0438C138.371 87.467 137.702 87.6786 136.821 87.6786H135.809V86.0316H136.478C136.879 86.0316 137.159 85.9515 137.319 85.7914C137.491 85.6427 137.576 85.3911 137.576 85.0365V73.7303H139.532V85.0365ZM150.764 78.2253C150.764 78.5799 150.741 78.9001 150.696 79.1861H143.473C143.53 79.941 143.81 80.5472 144.313 81.0047C144.816 81.4622 145.434 81.691 146.166 81.691C147.218 81.691 147.962 81.2506 148.397 80.3699H150.507C150.221 81.2392 149.7 81.954 148.946 82.5145C148.202 83.0635 147.276 83.338 146.166 83.338C145.263 83.338 144.45 83.1378 143.73 82.7375C143.021 82.3258 142.46 81.7539 142.049 81.0219C141.648 80.2784 141.448 79.4206 141.448 78.4483C141.448 77.4761 141.643 76.624 142.031 75.892C142.432 75.1485 142.986 74.5767 143.696 74.1763C144.416 73.776 145.24 73.5759 146.166 73.5759C147.058 73.5759 147.853 73.7703 148.551 74.1592C149.249 74.5481 149.792 75.0971 150.181 75.8062C150.57 76.5039 150.764 77.3103 150.764 78.2253ZM148.722 77.6077C148.711 76.8871 148.454 76.3095 147.95 75.8748C147.447 75.4402 146.824 75.2229 146.08 75.2229C145.406 75.2229 144.828 75.4402 144.348 75.8748C143.867 76.298 143.581 76.8757 143.49 77.6077H148.722ZM152.037 78.4483C152.037 77.4761 152.231 76.624 152.62 75.892C153.021 75.1485 153.57 74.5767 154.267 74.1763C154.965 73.776 155.766 73.5759 156.669 73.5759C157.813 73.5759 158.757 73.8504 159.5 74.3994C160.255 74.9369 160.764 75.709 161.027 76.7155H158.917C158.745 76.2466 158.471 75.8806 158.093 75.6175C157.716 75.3544 157.241 75.2229 156.669 75.2229C155.869 75.2229 155.228 75.5088 154.748 76.0807C154.279 76.6412 154.044 77.4304 154.044 78.4483C154.044 79.4663 154.279 80.2612 154.748 80.8331C155.228 81.405 155.869 81.691 156.669 81.691C157.802 81.691 158.551 81.1934 158.917 80.1983H161.027C160.753 81.1591 160.238 81.9254 159.483 82.4973C158.728 83.0578 157.79 83.338 156.669 83.338C155.766 83.338 154.965 83.1378 154.267 82.7375C153.57 82.3258 153.021 81.7539 152.62 81.0219C152.231 80.2784 152.037 79.4206 152.037 78.4483ZM165.258 75.3258V80.5586C165.258 80.9132 165.338 81.1705 165.498 81.3307C165.67 81.4794 165.956 81.5537 166.356 81.5537H167.557V83.1836H166.013C165.132 83.1836 164.457 82.9777 163.988 82.566C163.519 82.1542 163.285 81.4851 163.285 80.5586V75.3258H162.17V73.7303H163.285V71.3798H165.258V73.7303H167.557V75.3258H165.258ZM172.791 83.338C172.048 83.338 171.378 83.2065 170.784 82.9434C170.2 82.6689 169.737 82.3029 169.394 81.8454C169.051 81.3764 168.868 80.856 168.845 80.2841H170.869C170.904 80.6844 171.093 81.0219 171.436 81.2964C171.79 81.5594 172.231 81.691 172.757 81.691C173.306 81.691 173.729 81.588 174.026 81.3821C174.335 81.1648 174.49 80.8903 174.49 80.5586C174.49 80.2041 174.318 79.941 173.975 79.7694C173.643 79.5978 173.111 79.4091 172.379 79.2032C171.67 79.0088 171.093 78.8201 170.646 78.6371C170.2 78.4541 169.811 78.1738 169.48 77.7964C169.16 77.4189 168.999 76.9214 168.999 76.3038C168.999 75.8005 169.148 75.343 169.445 74.9312C169.743 74.508 170.166 74.1763 170.715 73.9361C171.276 73.6959 171.916 73.5759 172.637 73.5759C173.712 73.5759 174.575 73.8504 175.227 74.3994C175.891 74.9369 176.245 75.6747 176.291 76.6126H174.335C174.301 76.1894 174.129 75.852 173.82 75.6003C173.512 75.3487 173.094 75.2229 172.568 75.2229C172.053 75.2229 171.659 75.3201 171.384 75.5146C171.11 75.709 170.972 75.9664 170.972 76.2866C170.972 76.5382 171.064 76.7498 171.247 76.9214C171.43 77.093 171.653 77.2302 171.916 77.3332C172.179 77.4247 172.568 77.5448 173.083 77.6935C173.769 77.8765 174.329 78.0652 174.764 78.2596C175.21 78.4426 175.593 78.7171 175.914 79.0831C176.234 79.4492 176.4 79.9353 176.411 80.5415C176.411 81.079 176.262 81.5594 175.965 81.9826C175.668 82.4058 175.244 82.7375 174.695 82.9777C174.158 83.2179 173.523 83.338 172.791 83.338Z" fill="black"/>
<path d="M323.439 293.083C326.448 294.82 330.313 293.796 331.869 290.69C339.234 275.982 343.088 259.734 343.088 243.228C343.088 226.722 339.234 210.475 331.869 195.767C330.313 192.66 326.448 191.637 323.439 193.374C320.429 195.111 319.419 198.951 320.95 202.07C327.225 214.854 330.506 228.932 330.506 243.228C330.506 257.525 327.225 271.602 320.95 284.387C319.419 287.506 320.429 291.345 323.439 293.083Z" fill="#9F9F9F"/>
<path d="M327.776 199.48C331.715 197.863 333.618 193.347 331.771 189.511C323.645 172.638 311.952 157.693 297.467 145.728C280.997 132.123 261.427 122.789 240.488 118.554C219.55 114.319 197.891 115.314 177.428 121.449C156.966 127.584 138.333 138.671 123.179 153.728C108.025 168.785 96.8182 187.347 90.5514 207.769C84.2845 228.191 83.151 249.844 87.2511 270.809C91.3513 291.774 100.559 311.405 114.058 327.961C125.93 342.523 140.799 354.312 157.619 362.546C161.443 364.418 165.971 362.544 167.613 358.615C169.255 354.687 167.388 350.194 163.578 348.291C149.092 341.055 136.278 330.813 126.008 318.218C114.112 303.626 105.997 286.326 102.384 267.85C98.7706 249.373 99.7695 230.291 105.292 212.293C110.815 194.294 120.692 177.936 134.047 164.667C147.402 151.397 163.824 141.626 181.857 136.219C199.89 130.812 218.979 129.936 237.432 133.668C255.884 137.4 273.132 145.626 287.647 157.616C300.176 167.966 310.335 180.846 317.478 195.378C319.356 199.2 323.837 201.096 327.776 199.48Z" fill="url(#paint1_linear_1214_234)"/>
<g filter="url(#filter0_b_1214_234)">
<rect x="35.8171" y="275.288" width="359.065" height="100.489" rx="24.5095" fill="url(#paint2_linear_1214_234)"/>
<path d="M184.605 317.777C184.948 319.584 186 320.488 187.762 320.488C188.974 320.488 189.832 319.95 190.335 318.875C190.838 317.8 191.09 316.05 191.09 313.625C190.587 314.334 189.901 314.883 189.031 315.272C188.162 315.661 187.19 315.856 186.115 315.856C184.651 315.856 183.347 315.558 182.203 314.963C181.059 314.346 180.156 313.442 179.492 312.253C178.852 311.04 178.531 309.576 178.531 307.86C178.531 306.168 178.874 304.692 179.561 303.434C180.27 302.176 181.265 301.204 182.546 300.517C183.85 299.831 185.383 299.488 187.144 299.488C190.53 299.488 192.897 300.54 194.247 302.645C195.597 304.749 196.271 307.849 196.271 311.944C196.271 314.918 195.997 317.377 195.448 319.321C194.922 321.243 194.018 322.707 192.737 323.713C191.479 324.72 189.752 325.223 187.556 325.223C185.817 325.223 184.33 324.88 183.095 324.194C181.883 323.507 180.945 322.604 180.281 321.483C179.641 320.362 179.275 319.127 179.183 317.777H184.605ZM187.453 311.223C188.414 311.223 189.18 310.937 189.752 310.365C190.324 309.771 190.61 308.97 190.61 307.963C190.61 306.865 190.312 306.019 189.718 305.424C189.123 304.829 188.322 304.532 187.316 304.532C186.309 304.532 185.508 304.841 184.914 305.459C184.342 306.053 184.056 306.877 184.056 307.929C184.056 308.913 184.342 309.713 184.914 310.331C185.508 310.926 186.355 311.223 187.453 311.223ZM217.039 305.184H206.333V309.919C206.791 309.416 207.431 309.004 208.255 308.684C209.078 308.364 209.97 308.204 210.931 308.204C212.647 308.204 214.065 308.593 215.186 309.37C216.33 310.148 217.165 311.155 217.691 312.39C218.217 313.625 218.48 314.963 218.48 316.405C218.48 319.081 217.725 321.208 216.215 322.787C214.706 324.342 212.578 325.12 209.833 325.12C208.003 325.12 206.413 324.811 205.064 324.194C203.714 323.553 202.673 322.672 201.941 321.552C201.209 320.431 200.809 319.138 200.74 317.674H206.47C206.608 318.383 206.939 318.978 207.466 319.458C207.992 319.916 208.712 320.145 209.627 320.145C210.702 320.145 211.503 319.802 212.029 319.115C212.555 318.429 212.818 317.514 212.818 316.37C212.818 315.249 212.544 314.391 211.995 313.797C211.446 313.202 210.645 312.905 209.593 312.905C208.815 312.905 208.175 313.099 207.671 313.488C207.168 313.854 206.836 314.346 206.676 314.963H201.015V300.037H217.039V305.184ZM221.239 306.385C221.239 304.532 221.765 303.102 222.817 302.096C223.892 301.089 225.276 300.586 226.969 300.586C228.662 300.586 230.034 301.089 231.087 302.096C232.139 303.102 232.665 304.532 232.665 306.385C232.665 308.238 232.139 309.668 231.087 310.674C230.034 311.681 228.662 312.184 226.969 312.184C225.276 312.184 223.892 311.681 222.817 310.674C221.765 309.668 221.239 308.238 221.239 306.385ZM244.537 300.964L231.327 325.12H225.665L238.876 300.964H244.537ZM226.935 304.017C225.837 304.017 225.288 304.807 225.288 306.385C225.288 307.941 225.837 308.718 226.935 308.718C227.461 308.718 227.873 308.524 228.17 308.135C228.467 307.746 228.616 307.163 228.616 306.385C228.616 304.807 228.056 304.017 226.935 304.017ZM237.572 319.699C237.572 317.846 238.098 316.416 239.15 315.409C240.202 314.403 241.575 313.9 243.268 313.9C244.961 313.9 246.333 314.403 247.385 315.409C248.438 316.416 248.964 317.846 248.964 319.699C248.964 321.552 248.438 322.981 247.385 323.988C246.333 324.994 244.961 325.498 243.268 325.498C241.575 325.498 240.202 324.994 239.15 323.988C238.098 322.981 237.572 321.552 237.572 319.699ZM243.233 317.331C242.707 317.331 242.296 317.525 241.998 317.914C241.724 318.303 241.586 318.898 241.586 319.699C241.586 321.254 242.135 322.032 243.233 322.032C243.76 322.032 244.171 321.837 244.469 321.449C244.766 321.06 244.915 320.476 244.915 319.699C244.915 318.921 244.766 318.338 244.469 317.949C244.171 317.537 243.76 317.331 243.233 317.331Z" fill="white"/>
<path d="M174.433 344.282C174.806 344.341 175.144 344.493 175.448 344.738C175.762 344.983 176.007 345.287 176.183 345.65C176.37 346.013 176.463 346.4 176.463 346.812C176.463 347.331 176.33 347.802 176.066 348.223C175.801 348.635 175.414 348.963 174.904 349.209C174.404 349.444 173.811 349.562 173.125 349.562H169.301V339.312H172.977C173.674 339.312 174.267 339.429 174.757 339.665C175.247 339.89 175.615 340.199 175.86 340.591C176.105 340.983 176.227 341.424 176.227 341.915C176.227 342.522 176.061 343.027 175.727 343.429C175.404 343.821 174.973 344.106 174.433 344.282ZM170.639 343.738H172.889C173.517 343.738 174.002 343.591 174.345 343.297C174.688 343.003 174.86 342.596 174.86 342.076C174.86 341.557 174.688 341.15 174.345 340.856C174.002 340.562 173.507 340.415 172.86 340.415H170.639V343.738ZM173.007 348.459C173.674 348.459 174.193 348.302 174.566 347.988C174.938 347.674 175.125 347.238 175.125 346.679C175.125 346.111 174.928 345.665 174.536 345.341C174.144 345.008 173.62 344.841 172.963 344.841H170.639V348.459H173.007ZM177.82 345.503C177.82 344.679 177.986 343.959 178.32 343.341C178.653 342.714 179.109 342.228 179.687 341.885C180.276 341.542 180.928 341.37 181.643 341.37C182.349 341.37 182.962 341.522 183.481 341.826C184.001 342.13 184.388 342.513 184.643 342.973V341.503H185.996V349.562H184.643V348.062C184.379 348.532 183.981 348.924 183.452 349.238C182.932 349.542 182.325 349.694 181.629 349.694C180.913 349.694 180.266 349.517 179.687 349.164C179.109 348.812 178.653 348.316 178.32 347.679C177.986 347.042 177.82 346.316 177.82 345.503ZM184.643 345.517C184.643 344.91 184.521 344.38 184.276 343.929C184.031 343.478 183.697 343.135 183.276 342.9C182.864 342.655 182.408 342.532 181.908 342.532C181.408 342.532 180.952 342.65 180.54 342.885C180.129 343.12 179.8 343.464 179.555 343.915C179.31 344.366 179.187 344.895 179.187 345.503C179.187 346.12 179.31 346.66 179.555 347.12C179.8 347.571 180.129 347.919 180.54 348.164C180.952 348.4 181.408 348.517 181.908 348.517C182.408 348.517 182.864 348.4 183.276 348.164C183.697 347.919 184.031 347.571 184.276 347.12C184.521 346.66 184.643 346.125 184.643 345.517ZM191.111 349.694C190.493 349.694 189.939 349.591 189.449 349.385C188.959 349.169 188.571 348.875 188.287 348.503C188.003 348.12 187.846 347.684 187.816 347.194H189.199C189.238 347.596 189.424 347.924 189.758 348.179C190.101 348.434 190.547 348.562 191.096 348.562C191.606 348.562 192.008 348.449 192.302 348.223C192.596 347.998 192.743 347.714 192.743 347.37C192.743 347.017 192.586 346.758 192.272 346.591C191.959 346.414 191.473 346.243 190.816 346.076C190.218 345.919 189.728 345.763 189.346 345.606C188.973 345.439 188.65 345.199 188.375 344.885C188.111 344.562 187.978 344.14 187.978 343.62C187.978 343.209 188.101 342.831 188.346 342.488C188.591 342.145 188.939 341.875 189.39 341.679C189.841 341.473 190.356 341.37 190.934 341.37C191.826 341.37 192.547 341.596 193.096 342.047C193.645 342.498 193.939 343.116 193.978 343.9H192.64C192.611 343.478 192.439 343.14 192.125 342.885C191.821 342.63 191.41 342.503 190.89 342.503C190.41 342.503 190.027 342.606 189.743 342.812C189.459 343.017 189.316 343.287 189.316 343.62C189.316 343.885 189.4 344.106 189.566 344.282C189.743 344.449 189.959 344.586 190.214 344.694C190.478 344.792 190.841 344.905 191.302 345.032C191.88 345.189 192.351 345.346 192.713 345.503C193.076 345.65 193.385 345.875 193.64 346.179C193.905 346.483 194.042 346.88 194.052 347.37C194.052 347.812 193.929 348.209 193.684 348.562C193.439 348.914 193.091 349.194 192.64 349.4C192.199 349.596 191.689 349.694 191.111 349.694ZM203.294 345.223C203.294 345.478 203.279 345.748 203.25 346.032H196.808C196.857 346.826 197.127 347.449 197.617 347.9C198.117 348.341 198.72 348.562 199.426 348.562C200.004 348.562 200.485 348.429 200.867 348.164C201.259 347.89 201.534 347.527 201.691 347.076H203.132C202.916 347.851 202.485 348.483 201.838 348.973C201.191 349.454 200.387 349.694 199.426 349.694C198.661 349.694 197.975 349.522 197.367 349.179C196.769 348.836 196.299 348.351 195.956 347.723C195.612 347.086 195.441 346.351 195.441 345.517C195.441 344.684 195.607 343.954 195.941 343.326C196.274 342.699 196.74 342.218 197.338 341.885C197.946 341.542 198.642 341.37 199.426 341.37C200.191 341.37 200.867 341.537 201.455 341.87C202.044 342.204 202.495 342.665 202.808 343.253C203.132 343.831 203.294 344.488 203.294 345.223ZM201.911 344.944C201.911 344.434 201.799 343.998 201.573 343.635C201.348 343.263 201.039 342.983 200.647 342.797C200.264 342.601 199.838 342.503 199.367 342.503C198.691 342.503 198.112 342.718 197.632 343.15C197.161 343.581 196.892 344.179 196.823 344.944H201.911ZM204.56 345.503C204.56 344.679 204.727 343.959 205.06 343.341C205.393 342.714 205.849 342.228 206.428 341.885C207.016 341.542 207.673 341.37 208.398 341.37C209.026 341.37 209.609 341.517 210.148 341.812C210.687 342.096 211.099 342.473 211.384 342.944V338.679H212.736V349.562H211.384V348.047C211.119 348.527 210.727 348.924 210.207 349.238C209.687 349.542 209.08 349.694 208.384 349.694C207.668 349.694 207.016 349.517 206.428 349.164C205.849 348.812 205.393 348.316 205.06 347.679C204.727 347.042 204.56 346.316 204.56 345.503ZM211.384 345.517C211.384 344.91 211.261 344.38 211.016 343.929C210.771 343.478 210.437 343.135 210.016 342.9C209.604 342.655 209.148 342.532 208.648 342.532C208.148 342.532 207.692 342.65 207.281 342.885C206.869 343.12 206.54 343.464 206.295 343.915C206.05 344.366 205.928 344.895 205.928 345.503C205.928 346.12 206.05 346.66 206.295 347.12C206.54 347.571 206.869 347.919 207.281 348.164C207.692 348.4 208.148 348.517 208.648 348.517C209.148 348.517 209.604 348.4 210.016 348.164C210.437 347.919 210.771 347.571 211.016 347.12C211.261 346.66 211.384 346.125 211.384 345.517ZM222.433 349.694C221.678 349.694 220.992 349.522 220.374 349.179C219.767 348.836 219.286 348.351 218.933 347.723C218.59 347.086 218.419 346.351 218.419 345.517C218.419 344.694 218.595 343.968 218.948 343.341C219.311 342.704 219.801 342.218 220.418 341.885C221.036 341.542 221.727 341.37 222.492 341.37C223.257 341.37 223.948 341.542 224.566 341.885C225.183 342.218 225.668 342.699 226.021 343.326C226.384 343.954 226.565 344.684 226.565 345.517C226.565 346.351 226.379 347.086 226.007 347.723C225.644 348.351 225.149 348.836 224.521 349.179C223.894 349.522 223.198 349.694 222.433 349.694ZM222.433 348.517C222.914 348.517 223.365 348.405 223.786 348.179C224.208 347.954 224.546 347.615 224.801 347.164C225.065 346.714 225.198 346.165 225.198 345.517C225.198 344.87 225.07 344.321 224.816 343.87C224.561 343.419 224.227 343.086 223.816 342.87C223.404 342.645 222.958 342.532 222.477 342.532C221.987 342.532 221.536 342.645 221.124 342.87C220.722 343.086 220.399 343.419 220.154 343.87C219.909 344.321 219.786 344.87 219.786 345.517C219.786 346.174 219.904 346.728 220.139 347.179C220.384 347.63 220.708 347.968 221.11 348.194C221.512 348.41 221.953 348.517 222.433 348.517ZM232.251 341.356C233.232 341.356 234.026 341.655 234.634 342.253C235.242 342.841 235.546 343.694 235.546 344.812V349.562H234.222V345.003C234.222 344.199 234.021 343.586 233.619 343.165C233.217 342.733 232.668 342.517 231.972 342.517C231.266 342.517 230.702 342.738 230.281 343.179C229.869 343.62 229.663 344.263 229.663 345.106V349.562H228.325V341.503H229.663V342.65C229.928 342.238 230.286 341.919 230.737 341.694C231.198 341.468 231.702 341.356 232.251 341.356ZM242.99 338.679V349.562H241.652V338.679H242.99ZM245.962 340.194C245.707 340.194 245.492 340.106 245.315 339.929C245.139 339.753 245.05 339.537 245.05 339.282C245.05 339.027 245.139 338.812 245.315 338.635C245.492 338.459 245.707 338.37 245.962 338.37C246.207 338.37 246.413 338.459 246.58 338.635C246.756 338.812 246.845 339.027 246.845 339.282C246.845 339.537 246.756 339.753 246.58 339.929C246.413 340.106 246.207 340.194 245.962 340.194ZM246.609 341.503V349.562H245.271V341.503H246.609ZM253.39 349.562L250.228 346.003V349.562H248.89V338.679H250.228V345.076L253.331 341.503H255.199L251.405 345.517L255.214 349.562H253.39ZM263.811 345.223C263.811 345.478 263.796 345.748 263.767 346.032H257.326C257.375 346.826 257.645 347.449 258.135 347.9C258.635 348.341 259.238 348.562 259.944 348.562C260.522 348.562 261.002 348.429 261.385 348.164C261.777 347.89 262.051 347.527 262.208 347.076H263.649C263.434 347.851 263.002 348.483 262.355 348.973C261.708 349.454 260.904 349.694 259.944 349.694C259.179 349.694 258.493 349.522 257.885 349.179C257.287 348.836 256.816 348.351 256.473 347.723C256.13 347.086 255.958 346.351 255.958 345.517C255.958 344.684 256.125 343.954 256.458 343.326C256.792 342.699 257.257 342.218 257.855 341.885C258.463 341.542 259.159 341.37 259.944 341.37C260.708 341.37 261.385 341.537 261.973 341.87C262.561 342.204 263.012 342.665 263.326 343.253C263.649 343.831 263.811 344.488 263.811 345.223ZM262.429 344.944C262.429 344.434 262.316 343.998 262.091 343.635C261.865 343.263 261.556 342.983 261.164 342.797C260.782 342.601 260.355 342.503 259.885 342.503C259.208 342.503 258.63 342.718 258.149 343.15C257.679 343.581 257.409 344.179 257.341 344.944H262.429ZM268.431 349.694C267.813 349.694 267.259 349.591 266.769 349.385C266.279 349.169 265.891 348.875 265.607 348.503C265.323 348.12 265.166 347.684 265.136 347.194H266.519C266.558 347.596 266.744 347.924 267.078 348.179C267.421 348.434 267.867 348.562 268.416 348.562C268.926 348.562 269.328 348.449 269.622 348.223C269.916 347.998 270.063 347.714 270.063 347.37C270.063 347.017 269.906 346.758 269.592 346.591C269.279 346.414 268.793 346.243 268.136 346.076C267.538 345.919 267.048 345.763 266.666 345.606C266.293 345.439 265.97 345.199 265.695 344.885C265.431 344.562 265.298 344.14 265.298 343.62C265.298 343.209 265.421 342.831 265.666 342.488C265.911 342.145 266.259 341.875 266.71 341.679C267.161 341.473 267.676 341.37 268.254 341.37C269.146 341.37 269.867 341.596 270.416 342.047C270.965 342.498 271.259 343.116 271.298 343.9H269.96C269.93 343.478 269.759 343.14 269.445 342.885C269.141 342.63 268.73 342.503 268.21 342.503C267.73 342.503 267.347 342.606 267.063 342.812C266.779 343.017 266.636 343.287 266.636 343.62C266.636 343.885 266.72 344.106 266.886 344.282C267.063 344.449 267.279 344.586 267.533 344.694C267.798 344.792 268.161 344.905 268.622 345.032C269.2 345.189 269.671 345.346 270.033 345.503C270.396 345.65 270.705 345.875 270.96 346.179C271.225 346.483 271.362 346.88 271.372 347.37C271.372 347.812 271.249 348.209 271.004 348.562C270.759 348.914 270.411 349.194 269.96 349.4C269.519 349.596 269.009 349.694 268.431 349.694Z" fill="#A0AEC0"/>
<path d="M67.3656 303.694C67.3656 302.007 67.6401 300.694 68.1891 299.753C68.7381 298.802 69.6989 298.326 71.0715 298.326C72.4342 298.326 73.3901 298.802 73.9391 299.753C74.4881 300.694 74.7626 302.007 74.7626 303.694C74.7626 305.409 74.4881 306.743 73.9391 307.694C73.3901 308.645 72.4342 309.12 71.0715 309.12C69.6989 309.12 68.7381 308.645 68.1891 307.694C67.6401 306.743 67.3656 305.409 67.3656 303.694ZM73.4391 303.694C73.4391 302.841 73.3803 302.12 73.2626 301.532C73.1548 300.934 72.9244 300.454 72.5714 300.091C72.2283 299.728 71.7283 299.547 71.0715 299.547C70.4048 299.547 69.895 299.728 69.5421 300.091C69.1989 300.454 68.9685 300.934 68.8509 301.532C68.743 302.12 68.6891 302.841 68.6891 303.694C68.6891 304.576 68.743 305.316 68.8509 305.914C68.9685 306.512 69.1989 306.993 69.5421 307.355C69.895 307.718 70.4048 307.9 71.0715 307.9C71.7283 307.9 72.2283 307.718 72.5714 307.355C72.9244 306.993 73.1548 306.512 73.2626 305.914C73.3803 305.316 73.4391 304.576 73.4391 303.694ZM76.3057 300.885C76.3057 300.218 76.5066 299.689 76.9086 299.297C77.3106 298.895 77.8253 298.694 78.4527 298.694C79.0801 298.694 79.5948 298.895 79.9968 299.297C80.3988 299.689 80.5997 300.218 80.5997 300.885C80.5997 301.561 80.3988 302.101 79.9968 302.503C79.5948 302.895 79.0801 303.091 78.4527 303.091C77.8253 303.091 77.3106 302.895 76.9086 302.503C76.5066 302.101 76.3057 301.561 76.3057 300.885ZM84.8938 298.856L78.938 309.12H77.6145L83.5703 298.856H84.8938ZM78.4527 299.517C78.1194 299.517 77.8547 299.635 77.6586 299.87C77.4723 300.096 77.3792 300.434 77.3792 300.885C77.3792 301.336 77.4723 301.679 77.6586 301.914C77.8547 302.15 78.1194 302.267 78.4527 302.267C78.786 302.267 79.0507 302.15 79.2468 301.914C79.4429 301.669 79.5409 301.326 79.5409 300.885C79.5409 300.434 79.4429 300.096 79.2468 299.87C79.0507 299.635 78.786 299.517 78.4527 299.517ZM81.938 307.091C81.938 306.414 82.1389 305.88 82.5409 305.488C82.9428 305.086 83.4575 304.885 84.085 304.885C84.7124 304.885 85.2222 305.086 85.6144 305.488C86.0163 305.88 86.2173 306.414 86.2173 307.091C86.2173 307.757 86.0163 308.292 85.6144 308.694C85.2222 309.096 84.7124 309.297 84.085 309.297C83.4575 309.297 82.9428 309.101 82.5409 308.708C82.1389 308.306 81.938 307.767 81.938 307.091ZM84.0703 305.723C83.737 305.723 83.4722 305.841 83.2762 306.076C83.0801 306.302 82.9821 306.64 82.9821 307.091C82.9821 307.532 83.0801 307.87 83.2762 308.105C83.4722 308.331 83.737 308.444 84.0703 308.444C84.4036 308.444 84.6683 308.331 84.8644 308.105C85.0605 307.87 85.1585 307.532 85.1585 307.091C85.1585 306.64 85.0605 306.302 84.8644 306.076C84.6683 305.841 84.4036 305.723 84.0703 305.723Z" fill="#A0AEC0"/>
<path d="M334.167 299.708V298.488H336.932V309.12H335.579V299.708H334.167ZM339.23 303.694C339.23 302.007 339.505 300.694 340.054 299.753C340.603 298.802 341.564 298.326 342.936 298.326C344.299 298.326 345.255 298.802 345.804 299.753C346.353 300.694 346.627 302.007 346.627 303.694C346.627 305.409 346.353 306.743 345.804 307.694C345.255 308.645 344.299 309.12 342.936 309.12C341.564 309.12 340.603 308.645 340.054 307.694C339.505 306.743 339.23 305.409 339.23 303.694ZM345.304 303.694C345.304 302.841 345.245 302.12 345.127 301.532C345.019 300.934 344.789 300.454 344.436 300.091C344.093 299.728 343.593 299.547 342.936 299.547C342.27 299.547 341.76 299.728 341.407 300.091C341.064 300.454 340.833 300.934 340.716 301.532C340.608 302.12 340.554 302.841 340.554 303.694C340.554 304.576 340.608 305.316 340.716 305.914C340.833 306.512 341.064 306.993 341.407 307.355C341.76 307.718 342.27 307.9 342.936 307.9C343.593 307.9 344.093 307.718 344.436 307.355C344.789 306.993 345.019 306.512 345.127 305.914C345.245 305.316 345.304 304.576 345.304 303.694ZM348.464 303.694C348.464 302.007 348.739 300.694 349.288 299.753C349.837 298.802 350.798 298.326 352.17 298.326C353.533 298.326 354.489 298.802 355.038 299.753C355.587 300.694 355.861 302.007 355.861 303.694C355.861 305.409 355.587 306.743 355.038 307.694C354.489 308.645 353.533 309.12 352.17 309.12C350.798 309.12 349.837 308.645 349.288 307.694C348.739 306.743 348.464 305.409 348.464 303.694ZM354.538 303.694C354.538 302.841 354.479 302.12 354.361 301.532C354.254 300.934 354.023 300.454 353.67 300.091C353.327 299.728 352.827 299.547 352.17 299.547C351.504 299.547 350.994 299.728 350.641 300.091C350.298 300.454 350.067 300.934 349.95 301.532C349.842 302.12 349.788 302.841 349.788 303.694C349.788 304.576 349.842 305.316 349.95 305.914C350.067 306.512 350.298 306.993 350.641 307.355C350.994 307.718 351.504 307.9 352.17 307.9C352.827 307.9 353.327 307.718 353.67 307.355C354.023 306.993 354.254 306.512 354.361 305.914C354.479 305.316 354.538 304.576 354.538 303.694ZM357.405 300.885C357.405 300.218 357.606 299.689 358.007 299.297C358.409 298.895 358.924 298.694 359.552 298.694C360.179 298.694 360.694 298.895 361.096 299.297C361.498 299.689 361.699 300.218 361.699 300.885C361.699 301.561 361.498 302.101 361.096 302.503C360.694 302.895 360.179 303.091 359.552 303.091C358.924 303.091 358.409 302.895 358.007 302.503C357.606 302.101 357.405 301.561 357.405 300.885ZM365.993 298.856L360.037 309.12H358.713L364.669 298.856H365.993ZM359.552 299.517C359.218 299.517 358.954 299.635 358.757 299.87C358.571 300.096 358.478 300.434 358.478 300.885C358.478 301.336 358.571 301.679 358.757 301.914C358.954 302.15 359.218 302.267 359.552 302.267C359.885 302.267 360.15 302.15 360.346 301.914C360.542 301.669 360.64 301.326 360.64 300.885C360.64 300.434 360.542 300.096 360.346 299.87C360.15 299.635 359.885 299.517 359.552 299.517ZM363.037 307.091C363.037 306.414 363.238 305.88 363.64 305.488C364.042 305.086 364.556 304.885 365.184 304.885C365.811 304.885 366.321 305.086 366.713 305.488C367.115 305.88 367.316 306.414 367.316 307.091C367.316 307.757 367.115 308.292 366.713 308.694C366.321 309.096 365.811 309.297 365.184 309.297C364.556 309.297 364.042 309.101 363.64 308.708C363.238 308.306 363.037 307.767 363.037 307.091ZM365.169 305.723C364.836 305.723 364.571 305.841 364.375 306.076C364.179 306.302 364.081 306.64 364.081 307.091C364.081 307.532 364.179 307.87 364.375 308.105C364.571 308.331 364.836 308.444 365.169 308.444C365.502 308.444 365.767 308.331 365.963 308.105C366.159 307.87 366.257 307.532 366.257 307.091C366.257 306.64 366.159 306.302 365.963 306.076C365.767 305.841 365.502 305.723 365.169 305.723Z" fill="#A0AEC0"/>
</g>
<circle cx="214.737" cy="207.887" r="29.4115" fill="#B7FF06"/>
<path d="M214.752 192.568C206.297 192.568 199.449 199.431 199.449 207.887C199.449 216.343 206.297 223.205 214.752 223.205C223.223 223.205 230.086 216.343 230.086 207.887C230.086 199.431 223.223 192.568 214.752 192.568ZM214.768 220.142C207.997 220.142 202.513 214.658 202.513 207.887C202.513 201.116 207.997 195.632 214.768 195.632C221.538 195.632 227.022 201.116 227.022 207.887C227.022 214.658 221.538 220.142 214.768 220.142ZM220.129 206.355C221.401 206.355 222.427 205.329 222.427 204.057C222.427 202.786 221.401 201.759 220.129 201.759C218.858 201.759 217.831 202.786 217.831 204.057C217.831 205.329 218.858 206.355 220.129 206.355ZM209.406 206.355C210.678 206.355 211.704 205.329 211.704 204.057C211.704 202.786 210.678 201.759 209.406 201.759C208.135 201.759 207.108 202.786 207.108 204.057C207.108 205.329 208.135 206.355 209.406 206.355ZM214.768 216.312C217.877 216.312 220.589 214.612 222.044 212.099C222.335 211.594 221.967 210.951 221.37 210.951H208.165C207.583 210.951 207.2 211.594 207.491 212.099C208.947 214.612 211.658 216.312 214.768 216.312Z" fill="black"/>
</g>
<defs>
<filter id="filter0_b_1214_234" x="-111.24" y="128.231" width="653.179" height="394.604" filterUnits="userSpaceOnUse" color-interpolation-filters="sRGB">
<feFlood flood-opacity="0" result="BackgroundImageFix"/>
<feGaussianBlur in="BackgroundImageFix" stdDeviation="73.5286"/>
<feComposite in2="SourceAlpha" operator="in" result="effect1_backgroundBlur_1214_234"/>
<feBlend mode="normal" in="SourceGraphic" in2="effect1_backgroundBlur_1214_234" result="shape"/>
</filter>
<linearGradient id="paint0_linear_1214_234" x1="119.15" y1="36.322" x2="389.98" y2="244.653" gradientUnits="userSpaceOnUse">
<stop stop-color="white"/>
<stop offset="1" stop-color="#E9E9E9" stop-opacity="0.86"/>
</linearGradient>
<linearGradient id="paint1_linear_1214_234" x1="190.841" y1="131.295" x2="89.1262" y2="263.646" gradientUnits="userSpaceOnUse">
<stop stop-color="#D33A35"/>
<stop offset="1" stop-color="#D33A35" stop-opacity="0"/>
</linearGradient>
<linearGradient id="paint2_linear_1214_234" x1="215.35" y1="274.66" x2="263.444" y2="404.039" gradientUnits="userSpaceOnUse">
<stop stop-opacity="0.87"/>
<stop offset="1" stop-color="#1A1A1A" stop-opacity="0.71"/>
</linearGradient>
<clipPath id="clip0_1214_234">
<rect x="0.27832" y="0.783203" width="428.917" height="421.564" rx="24.5095" fill="white"/>
</clipPath>
</defs>
</svg>
