<svg width="58" height="58" viewBox="0 0 58 58" fill="none" xmlns="http://www.w3.org/2000/svg">
<g clip-path="url(#clip0_1213_59)">
<path d="M36.3771 51.251C34.0875 52.2672 31.5889 52.8015 29.0086 52.8015C26.4283 52.8015 23.9301 52.2672 21.6406 51.251C20.8749 52.2961 19.895 53.1251 18.776 53.6931C21.885 55.3675 25.3784 56.2569 29.0086 56.2569C32.6393 56.2569 36.1326 55.3675 39.2416 53.6931C38.1222 53.1251 37.1423 52.2965 36.3771 51.251Z" fill="#D33A35"/>
<path d="M41.5342 21.4774C41.6417 21.5801 41.7484 21.6842 41.8543 21.79C43.3375 23.2732 44.5317 24.9681 45.4106 26.806C46.2274 26.5856 47.0779 26.4688 47.9472 26.4688C48.3246 26.4688 48.6976 26.4929 49.0666 26.5353C47.9931 23.8762 46.3861 21.4354 44.2973 19.3465C43.6156 18.6648 42.8954 18.0352 42.1429 17.4575C42.288 18.8096 42.0847 20.187 41.5342 21.4774Z" fill="#D33A35"/>
<path d="M12.6065 26.806C13.4859 24.9681 14.6801 23.2732 16.1633 21.79C16.2691 21.6842 16.3758 21.5801 16.4834 21.4774C15.9324 20.187 15.7291 18.8096 15.8747 17.4575C15.1221 18.0352 14.402 18.6648 13.7203 19.3465C11.6318 21.4354 10.0244 23.8762 8.95093 26.5353C9.31999 26.4929 9.69342 26.4688 10.0703 26.4688C10.9396 26.4688 11.7901 26.5856 12.6065 26.806Z" fill="#D33A35"/>
<path d="M19.9496 15.9311C19.083 17.3929 19.0699 19.1503 19.9142 20.6322C20.7656 22.1268 22.2995 23.0197 24.0171 23.0197H34.0001C35.7181 23.0197 37.2516 22.1268 38.1034 20.6322C38.9478 19.1503 38.9342 17.3929 38.068 15.9311C37.0439 14.2039 35.5541 12.8326 33.8155 11.9379C34.7172 10.8351 35.2074 9.46691 35.2074 8.02348C35.2074 6.36753 34.5628 4.81084 33.3918 3.64026C32.2212 2.46925 30.6646 1.82471 29.0086 1.82471C27.3531 1.82471 25.7964 2.46925 24.6254 3.64026C23.4548 4.81084 22.8098 6.36753 22.8098 8.02348C22.8098 9.46691 23.3005 10.8351 24.2021 11.9379C22.4635 12.8326 20.9733 14.2039 19.9496 15.9311Z" fill="#D33A35"/>
<path d="M19.1647 48.7285C20.0091 47.2466 19.996 45.4897 19.1293 44.0279C18.1056 42.3006 16.6154 40.9294 14.8768 40.0347C15.7785 38.9319 16.2691 37.5637 16.2691 36.1202C16.2691 34.4643 15.6241 32.9076 14.4531 31.7366C12.0363 29.3202 8.10391 29.3202 5.68711 31.7366C4.51609 32.9076 3.87112 34.4643 3.87112 36.1198C3.87112 37.5637 4.36174 38.9319 5.26339 40.0347C3.5248 40.9289 2.03501 42.3006 1.01092 44.0279C0.144248 45.4892 0.13113 47.2466 0.975502 48.7285C1.82687 50.2236 3.36082 51.116 5.07843 51.116H15.0613C16.7794 51.116 18.3133 50.2236 19.1647 48.7285Z" fill="#D33A35"/>
<path d="M52.7542 40.0346C53.6554 38.9318 54.146 37.5636 54.146 36.1201C54.146 34.4642 53.501 32.9075 52.3305 31.7369C49.9136 29.3201 45.9808 29.3201 43.564 31.7369C42.393 32.9075 41.7485 34.4642 41.7485 36.1201C41.7485 37.5636 42.2387 38.9318 43.1403 40.0346C41.4017 40.9292 39.9119 42.3005 38.8878 44.0278C38.0216 45.4896 38.008 47.247 38.8524 48.7289C39.7042 50.2235 41.2382 51.1159 42.9553 51.1159H52.9383C54.6559 51.1159 56.1898 50.2235 57.0416 48.7289C57.886 47.247 57.8724 45.4896 57.0062 44.0278C55.9825 42.3005 54.4928 40.9292 52.7542 40.0346Z" fill="#D33A35"/>
</g>
<defs>
<clipPath id="clip0_1213_59">
<rect width="57.314" height="57.314" fill="white" transform="translate(0.35144 0.369141)"/>
</clipPath>
</defs>
</svg>
