<svg width="51" height="50" viewBox="0 0 51 50" fill="none" xmlns="http://www.w3.org/2000/svg">
<path d="M41.1292 20.709H39.1149H39.1144V13.6143C39.1143 6.10748 33.007 0 25.5 0C17.9934 0 11.8859 6.10748 11.8859 13.6144V20.7091H9.87122C8.27861 20.7091 6.9873 22.0002 6.9873 23.5929V25.3473V45.3618V47.1161C6.9873 48.7089 8.2785 50 9.87122 50H25.5001H41.1292C42.7218 50 44.0129 48.7089 44.0129 47.1161V45.3618V25.3473V23.5929C44.0129 22.0001 42.7218 20.709 41.1292 20.709ZM28.5696 41.3664H22.4306L23.5294 36.1309C22.5018 35.477 21.8155 34.3352 21.8155 33.027C21.8155 30.9922 23.4653 29.3427 25.5001 29.3427C27.535 29.3427 29.1845 30.9922 29.1845 33.027C29.1845 34.3352 28.4983 35.477 27.4709 36.1307L28.5696 41.3664ZM34.2566 20.709H25.5001H16.7441H16.7436V13.6143C16.7436 8.7855 20.6715 4.85769 25.5001 4.85769C30.3289 4.85769 34.2566 8.7856 34.2566 13.6143V20.709Z" fill="#D33A35"/>
</svg>
