<svg width="96" height="33" viewBox="0 0 96 33" fill="none" xmlns="http://www.w3.org/2000/svg">
<g clip-path="url(#clip0_1212_2040)">
<path d="M64.9529 24.7631C64.1972 25.8482 63.114 26.6628 61.8618 27.0876C60.6097 27.5125 59.2544 27.5252 57.9944 27.1241C56.7345 26.7229 55.6361 25.9288 54.8601 24.8582C54.0841 23.7875 53.6713 22.4966 53.6822 21.1743C53.693 19.8521 54.1269 18.5681 54.9204 17.5103C55.7138 16.4525 56.8251 15.6766 58.0914 15.2961C59.3578 14.9157 60.7127 14.9507 61.9577 15.396C63.2027 15.8413 64.2725 16.6736 65.0103 17.7709L69.5852 15.0698C68.2531 12.9682 66.2751 11.3554 63.9483 10.4738C61.6214 9.59219 59.0714 9.48925 56.6811 10.1804C54.2907 10.8716 52.1892 12.3197 50.6919 14.3071C49.1947 16.2945 48.3827 18.714 48.3778 21.2022C48.3729 23.6905 49.1754 26.1132 50.6647 28.1065C52.1541 30.0998 54.2499 31.5561 56.6375 32.2567C59.0251 32.9573 61.5755 32.8645 63.9058 31.992C66.2361 31.1196 68.2204 29.5147 69.5609 27.4184L64.9543 24.7631H64.9529ZM77.5581 0H72.2505V31.8371H77.5553V21.2247C77.5553 19.5828 78.2075 18.0082 79.3685 16.8472C80.5295 15.6862 82.1041 15.0339 83.746 15.0339C85.3879 15.0339 86.9626 15.6862 88.1236 16.8472C89.2846 18.0082 89.9368 19.5828 89.9368 21.2247V31.8371H95.243V20.1924C95.2422 18.1442 94.6405 16.1413 93.5124 14.4318C92.3843 12.7223 90.7793 11.3813 88.8965 10.5751C87.0136 9.76895 84.9356 9.53293 82.9199 9.89633C80.9042 10.2597 79.0395 11.2066 77.5567 12.6196V0H77.5581ZM40.4163 0H35.1101V24.7617C35.1099 26.2899 35.5497 27.7858 36.3769 29.0707C37.2041 30.3557 38.3838 31.3753 39.775 32.0078C41.1661 32.6402 42.71 32.8588 44.222 32.6373C45.7341 32.4159 47.1504 31.7637 48.3018 30.7589L45.7383 26.409C45.4901 26.7226 45.1742 26.976 44.8141 27.1501C44.4541 27.3241 44.0593 27.4144 43.6594 27.4141H43.0687C42.3654 27.4137 41.6909 27.1341 41.1936 26.6368C40.6963 26.1394 40.4167 25.465 40.4163 24.7617V15.9185H45.7211V10.6124H40.4163V0ZM28.9237 0C28.1419 0 27.3921 0.310562 26.8393 0.863366C26.2865 1.41617 25.976 2.16593 25.976 2.94772C25.976 3.7295 26.2865 4.47926 26.8393 5.03207C27.3921 5.58487 28.1419 5.89543 28.9237 5.89543C29.7055 5.89543 30.4552 5.58487 31.008 5.03207C31.5608 4.47926 31.8714 3.7295 31.8714 2.94772C31.8714 2.16593 31.5608 1.41617 31.008 0.863366C30.4552 0.310562 29.7055 0 28.9237 0V0ZM31.576 31.8371V10.6124H26.2713V31.8371H31.576Z" fill="white"/>
<path fill-rule="evenodd" clip-rule="evenodd" d="M0.62207 31.8371H5.92681V25.6463H10.7914C12.4754 25.6463 14.1428 25.3146 15.6986 24.6702C17.2544 24.0258 18.668 23.0812 19.8587 21.8905C21.0495 20.6997 21.994 19.2861 22.6384 17.7303C23.2829 16.1746 23.6145 14.5071 23.6145 12.8231C23.6145 11.1392 23.2829 9.47171 22.6384 7.91594C21.994 6.36016 21.0495 4.94655 19.8587 3.75581C18.668 2.56507 17.2544 1.62053 15.6986 0.976103C14.1428 0.33168 12.4754 -3.54868e-08 10.7914 0L0.62207 0V31.8371ZM5.92681 5.30474H10.7914C12.785 5.30474 14.697 6.09671 16.1067 7.50641C17.5164 8.91612 18.3084 10.8281 18.3084 12.8217C18.3084 14.8153 17.5164 16.7273 16.1067 18.137C14.697 19.5467 12.785 20.3387 10.7914 20.3387H5.92825V5.30474H5.92681Z" fill="white"/>
</g>
<defs>
<clipPath id="clip0_1212_2040">
<rect width="94.6252" height="32.9754" fill="white" transform="translate(0.62207)"/>
</clipPath>
</defs>
</svg>
