<svg width="58" height="58" viewBox="0 0 58 58" fill="none" xmlns="http://www.w3.org/2000/svg">
<g clip-path="url(#clip0_1213_84)">
<path d="M53.7934 0.204102H17.3023C15.2488 0.204102 13.5787 1.8742 13.5787 3.92764V13.2937C13.5787 15.3471 15.2488 17.0172 17.3023 17.0172H53.7934C55.8468 17.0172 57.5169 15.3471 57.5169 13.2937V3.92764C57.5169 1.8742 55.8468 0.204102 53.7934 0.204102ZM21.9853 10.292C21.0572 10.292 20.304 9.53873 20.304 8.61065C20.304 7.68256 21.0572 6.92934 21.9853 6.92934C22.9134 6.92934 23.6666 7.68256 23.6666 8.61065C23.6666 9.53873 22.9134 10.292 21.9853 10.292ZM49.1104 10.292H28.7105C27.7824 10.292 27.0292 9.53873 27.0292 8.61065C27.0292 7.68256 27.7824 6.92934 28.7105 6.92934H49.1104C50.0385 6.92934 50.7917 7.68256 50.7917 8.61065C50.7917 9.53873 50.0385 10.292 49.1104 10.292Z" fill="#D33A35"/>
<path d="M53.7934 40.7798H17.3023C15.2488 40.7798 13.5787 42.4499 13.5787 44.5033V53.8693C13.5787 55.9228 15.2488 57.5929 17.3023 57.5929H53.7934C55.8468 57.5929 57.5169 55.9228 57.5169 53.8693V44.5033C57.5169 42.4499 55.8468 40.7798 53.7934 40.7798ZM21.9853 50.8676C21.0572 50.8676 20.304 50.1144 20.304 49.1863C20.304 48.2582 21.0572 47.505 21.9853 47.505C22.9134 47.505 23.6666 48.2582 23.6666 49.1863C23.6666 50.1144 22.9134 50.8676 21.9853 50.8676ZM49.1104 50.8676H28.7105C27.7824 50.8676 27.0292 50.1144 27.0292 49.1863C27.0292 48.2582 27.7824 47.505 28.7105 47.505H49.1104C50.0385 47.505 50.7917 48.2582 50.7917 49.1863C50.7917 50.1144 50.0385 50.8676 49.1104 50.8676Z" fill="#D33A35"/>
<path d="M1.80961 6.92475C2.24002 6.92475 2.67055 6.76043 2.99885 6.43201L3.48419 5.94634V15.4479C3.48419 16.3764 4.23697 17.1292 5.1655 17.1292C6.09403 17.1292 6.84681 16.3764 6.84681 15.4479V5.94612L7.33226 6.4319C7.98853 7.08851 9.05325 7.08885 9.70997 6.43269C10.3668 5.7763 10.3671 4.7117 9.71075 4.05487L6.35474 0.696732C5.72829 0.0462897 4.60248 0.0465139 3.97625 0.696732L0.620359 4.05487C-0.036024 4.7117 -0.0356877 5.77619 0.621144 6.43269C0.949447 6.76077 1.37953 6.92475 1.80961 6.92475Z" fill="#D33A35"/>
<path d="M54.6463 31.1333L54.161 31.619V22.1173C54.161 21.1888 53.4082 20.436 52.4797 20.436C51.5512 20.436 50.7984 21.1888 50.7984 22.1173V31.619L50.3129 31.1333C49.6567 30.4767 48.5919 30.4764 47.9352 31.1325C47.2784 31.7889 47.2781 32.8535 47.9344 33.5103L51.2903 36.8685C51.9198 37.517 53.0341 37.5242 53.6688 36.8685L57.0247 33.5103C57.681 32.8535 57.6808 31.789 57.0239 31.1325C56.3673 30.476 55.3027 30.4766 54.6463 31.1333Z" fill="#D33A35"/>
<path d="M40.343 37.3028C42.3964 37.3028 44.0665 35.6327 44.0665 33.5793V24.2133C44.0665 22.1598 42.3964 20.4897 40.343 20.4897H3.85184C1.7984 20.4897 0.128296 22.1598 0.128296 24.2133V33.5793C0.128296 35.6327 1.7984 37.3028 3.85184 37.3028H40.343ZM8.53484 30.5776C7.60676 30.5776 6.85353 29.8255 6.85353 28.8963C6.85353 27.9682 7.60676 27.215 8.53484 27.215C9.46292 27.215 10.2162 27.9682 10.2162 28.8963C10.2162 29.8255 9.46292 30.5776 8.53484 30.5776ZM15.2601 30.5776C14.332 30.5776 13.5788 29.8244 13.5788 28.8963C13.5788 27.9682 14.332 27.215 15.2601 27.215H35.66C36.588 27.215 37.3413 27.9682 37.3413 28.8963C37.3413 29.8244 36.588 30.5776 35.66 30.5776H15.2601Z" fill="#D33A35"/>
</g>
<defs>
<clipPath id="clip0_1213_84">
<rect width="57.3887" height="57.3887" fill="white" transform="translate(0.128296 0.204102)"/>
</clipPath>
</defs>
</svg>
