<svg width="12" height="12" viewBox="0 0 12 12" fill="none" xmlns="http://www.w3.org/2000/svg">
<g clip-path="url(#clip0_1018_18)">
<path d="M0.755634 11.6548C0.650506 11.6548 0.545378 11.6151 0.465891 11.5343C0.305634 11.3741 0.305634 11.1138 0.465891 10.9535L10.2525 1.16573H5.50763C5.28071 1.16573 5.09738 0.982394 5.09738 0.755471C5.09738 0.528548 5.28071 0.345215 5.50763 0.345215H11.2435C11.4089 0.345215 11.5589 0.445215 11.623 0.599061C11.6871 0.752907 11.6512 0.928548 11.5346 1.0465L1.04666 11.5356C0.965891 11.6151 0.860762 11.6548 0.755634 11.6548Z" fill="white"/>
<path d="M11.2435 6.89137C11.0166 6.89137 10.8333 6.70804 10.8333 6.48111V0.755471C10.8333 0.528548 11.0166 0.345215 11.2435 0.345215C11.4704 0.345215 11.6538 0.528548 11.6538 0.755471V6.48111C11.6538 6.70804 11.4704 6.89137 11.2435 6.89137Z" fill="white"/>
</g>
<defs>
<clipPath id="clip0_1018_18">
<rect width="12" height="12" fill="white"/>
</clipPath>
</defs>
</svg>
