<svg width="17" height="17" viewBox="0 0 17 17" fill="none" xmlns="http://www.w3.org/2000/svg">
<g clip-path="url(#clip0_1214_398)">
<path d="M16.1868 15.5323L11.902 11.2473C12.8414 10.1209 13.4084 8.6736 13.4084 7.0955C13.4084 3.51521 10.4957 0.602509 6.91536 0.602509C3.33506 0.602509 0.422363 3.51521 0.422363 7.0955C0.422363 10.6758 3.33506 13.5885 6.91536 13.5885C8.49345 13.5885 9.9408 13.0215 11.0672 12.0821L15.3521 16.3671C15.4674 16.4823 15.6185 16.54 15.7694 16.54C15.9204 16.54 16.0715 16.4823 16.1868 16.3671C16.4174 16.1364 16.4174 15.7628 16.1868 15.5323ZM1.60291 7.0955C1.60291 4.16628 3.98584 1.78305 6.91536 1.78305C9.84488 1.78305 12.2278 4.16628 12.2278 7.0955C12.2278 10.0247 9.84488 12.408 6.91536 12.408C3.98584 12.408 1.60291 10.0247 1.60291 7.0955Z" fill="white"/>
</g>
<defs>
<clipPath id="clip0_1214_398">
<rect width="16" height="16" fill="white" transform="translate(0.391113 0.540009)"/>
</clipPath>
</defs>
</svg>
