<svg width="925" height="446" viewBox="0 0 925 446" fill="none" xmlns="http://www.w3.org/2000/svg">
<g filter="url(#filter0_b_1214_252)">
<rect x="0.468994" y="0.0644531" width="924" height="445" rx="20" fill="url(#paint0_linear_1214_252)"/>
</g>
<path d="M26.057 76.9905C25.1517 76.1225 24.447 75.0025 23.943 73.6305C23.439 72.2585 23.187 70.7791 23.187 69.1925C23.187 67.5871 23.4483 66.0891 23.971 64.6985C24.4937 63.2985 25.2357 62.1598 26.197 61.2825H28.549V61.5065C27.569 62.4771 26.813 63.6438 26.281 65.0065C25.749 66.3598 25.483 67.7551 25.483 69.1925C25.483 70.6205 25.7397 71.9971 26.253 73.3225C26.7663 74.6478 27.4897 75.7958 28.423 76.7665V76.9905H26.057ZM36.6069 70.2425H34.1709V72.7345H31.9029V70.2425H29.4669V68.1005H31.9029V65.5945H34.1709V68.1005H36.6069V70.2425ZM45.2579 65.9305H40.8899V67.8625C41.0766 67.6571 41.3379 67.4891 41.6739 67.3585C42.0099 67.2278 42.3739 67.1625 42.7659 67.1625C43.4659 67.1625 44.0446 67.3211 44.5019 67.6385C44.9686 67.9558 45.3092 68.3665 45.5239 68.8705C45.7386 69.3745 45.8459 69.9205 45.8459 70.5085C45.8459 71.6005 45.5379 72.4685 44.9219 73.1125C44.3059 73.7471 43.4379 74.0645 42.3179 74.0645C41.5712 74.0645 40.9226 73.9385 40.3719 73.6865C39.8212 73.4251 39.3966 73.0658 39.0979 72.6085C38.7992 72.1511 38.6359 71.6238 38.6079 71.0265H40.9459C41.0019 71.3158 41.1372 71.5585 41.3519 71.7545C41.5666 71.9411 41.8606 72.0345 42.2339 72.0345C42.6726 72.0345 42.9992 71.8945 43.2139 71.6145C43.4286 71.3345 43.5359 70.9611 43.5359 70.4945C43.5359 70.0371 43.4239 69.6871 43.1999 69.4445C42.9759 69.2018 42.6492 69.0805 42.2199 69.0805C41.9026 69.0805 41.6412 69.1598 41.4359 69.3185C41.2306 69.4678 41.0952 69.6685 41.0299 69.9205H38.7199V63.8305H45.2579V65.9305ZM46.7614 76.9905V76.7665C47.6947 75.7958 48.418 74.6478 48.9314 73.3225C49.4447 71.9971 49.7014 70.6205 49.7014 69.1925C49.7014 67.7551 49.4354 66.3598 48.9034 65.0065C48.3714 63.6438 47.6154 62.4771 46.6354 61.5065V61.2825H48.9874C49.9487 62.1598 50.6907 63.2985 51.2134 64.6985C51.736 66.0891 51.9974 67.5871 51.9974 69.1925C51.9974 70.7791 51.7454 72.2585 51.2414 73.6305C50.7374 75.0025 50.0327 76.1225 49.1274 76.9905H46.7614ZM67.012 66.1685C67.9827 66.1685 68.7527 66.4625 69.322 67.0505C69.9007 67.6385 70.19 68.4551 70.19 69.5005V74.0645H67.81V69.8225C67.81 69.3185 67.6747 68.9311 67.404 68.6605C67.1427 68.3805 66.7787 68.2405 66.312 68.2405C65.8454 68.2405 65.4767 68.3805 65.206 68.6605C64.9447 68.9311 64.814 69.3185 64.814 69.8225V74.0645H62.434V69.8225C62.434 69.3185 62.2987 68.9311 62.028 68.6605C61.7667 68.3805 61.4027 68.2405 60.936 68.2405C60.4694 68.2405 60.1007 68.3805 59.83 68.6605C59.5687 68.9311 59.438 69.3185 59.438 69.8225V74.0645H57.044V66.2525H59.438V67.2325C59.6807 66.9058 59.998 66.6491 60.39 66.4625C60.782 66.2665 61.2254 66.1685 61.72 66.1685C62.308 66.1685 62.8307 66.2945 63.288 66.5465C63.7547 66.7985 64.1187 67.1578 64.38 67.6245C64.6507 67.1951 65.0194 66.8451 65.486 66.5745C65.9527 66.3038 66.4614 66.1685 67.012 66.1685ZM75.4203 74.1765C74.655 74.1765 73.9643 74.0131 73.3483 73.6865C72.7417 73.3598 72.261 72.8931 71.9063 72.2865C71.561 71.6798 71.3883 70.9705 71.3883 70.1585C71.3883 69.3558 71.5657 68.6511 71.9203 68.0445C72.275 67.4285 72.7603 66.9571 73.3763 66.6305C73.9923 66.3038 74.683 66.1405 75.4483 66.1405C76.2137 66.1405 76.9043 66.3038 77.5203 66.6305C78.1363 66.9571 78.6217 67.4285 78.9763 68.0445C79.331 68.6511 79.5083 69.3558 79.5083 70.1585C79.5083 70.9611 79.3263 71.6705 78.9623 72.2865C78.6077 72.8931 78.1177 73.3598 77.4923 73.6865C76.8763 74.0131 76.1857 74.1765 75.4203 74.1765ZM75.4203 72.1045C75.8777 72.1045 76.265 71.9365 76.5823 71.6005C76.909 71.2645 77.0723 70.7838 77.0723 70.1585C77.0723 69.5331 76.9137 69.0525 76.5963 68.7165C76.2883 68.3805 75.9057 68.2125 75.4483 68.2125C74.9817 68.2125 74.5943 68.3805 74.2863 68.7165C73.9783 69.0431 73.8243 69.5238 73.8243 70.1585C73.8243 70.7838 73.9737 71.2645 74.2723 71.6005C74.5803 71.9365 74.963 72.1045 75.4203 72.1045ZM83.1724 67.5545C83.4524 67.1251 83.8024 66.7891 84.2224 66.5465C84.6424 66.2945 85.1091 66.1685 85.6224 66.1685V68.7025H84.9644C84.3671 68.7025 83.9191 68.8331 83.6204 69.0945C83.3217 69.3465 83.1724 69.7945 83.1724 70.4385V74.0645H80.7784V66.2525H83.1724V67.5545ZM94.1307 70.0325C94.1307 70.2565 94.1167 70.4898 94.0887 70.7325H88.6707C88.708 71.2178 88.862 71.5911 89.1327 71.8525C89.4127 72.1045 89.7534 72.2305 90.1547 72.2305C90.752 72.2305 91.1674 71.9785 91.4007 71.4745H93.9487C93.818 71.9878 93.58 72.4498 93.2347 72.8605C92.8987 73.2711 92.474 73.5931 91.9607 73.8265C91.4474 74.0598 90.8734 74.1765 90.2387 74.1765C89.4734 74.1765 88.792 74.0131 88.1947 73.6865C87.5974 73.3598 87.1307 72.8931 86.7947 72.2865C86.4587 71.6798 86.2907 70.9705 86.2907 70.1585C86.2907 69.3465 86.454 68.6371 86.7807 68.0305C87.1167 67.4238 87.5834 66.9571 88.1807 66.6305C88.778 66.3038 89.464 66.1405 90.2387 66.1405C90.9947 66.1405 91.6667 66.2991 92.2547 66.6165C92.8427 66.9338 93.3 67.3865 93.6267 67.9745C93.9627 68.5625 94.1307 69.2485 94.1307 70.0325ZM91.6807 69.4025C91.6807 68.9918 91.5407 68.6651 91.2607 68.4225C90.9807 68.1798 90.6307 68.0585 90.2107 68.0585C89.8094 68.0585 89.4687 68.1751 89.1887 68.4085C88.918 68.6418 88.75 68.9731 88.6847 69.4025H91.6807Z" fill="#B7FF06"/>
<path d="M99.9941 65.1465C99.7514 65.1465 99.5461 65.0625 99.3781 64.8945C99.2101 64.7265 99.1261 64.5211 99.1261 64.2785C99.1261 64.0358 99.2101 63.8305 99.3781 63.6625C99.5461 63.4945 99.7514 63.4105 99.9941 63.4105C100.227 63.4105 100.423 63.4945 100.582 63.6625C100.75 63.8305 100.834 64.0358 100.834 64.2785C100.834 64.5211 100.75 64.7265 100.582 64.8945C100.423 65.0625 100.227 65.1465 99.9941 65.1465ZM100.61 66.3925V74.0645H99.3361V66.3925H100.61ZM106.519 66.2525C107.453 66.2525 108.209 66.5371 108.787 67.1065C109.366 67.6665 109.655 68.4785 109.655 69.5425V74.0645H108.395V69.7245C108.395 68.9591 108.204 68.3758 107.821 67.9745C107.439 67.5638 106.916 67.3585 106.253 67.3585C105.581 67.3585 105.045 67.5685 104.643 67.9885C104.251 68.4085 104.055 69.0198 104.055 69.8225V74.0645H102.781V66.3925H104.055V67.4845C104.307 67.0925 104.648 66.7891 105.077 66.5745C105.516 66.3598 105.997 66.2525 106.519 66.2525ZM115.105 73.0425C116.29 72.0905 117.219 71.3111 117.891 70.7045C118.563 70.0885 119.128 69.4491 119.585 68.7865C120.052 68.1145 120.285 67.4565 120.285 66.8125C120.285 66.2058 120.136 65.7298 119.837 65.3845C119.548 65.0298 119.076 64.8525 118.423 64.8525C117.788 64.8525 117.294 65.0531 116.939 65.4545C116.594 65.8465 116.407 66.3738 116.379 67.0365H115.147C115.184 65.9911 115.502 65.1838 116.099 64.6145C116.696 64.0451 117.466 63.7605 118.409 63.7605C119.37 63.7605 120.131 64.0265 120.691 64.5585C121.26 65.0905 121.545 65.8231 121.545 66.7565C121.545 67.5311 121.312 68.2871 120.845 69.0245C120.388 69.7525 119.865 70.3965 119.277 70.9565C118.689 71.5071 117.938 72.1511 117.023 72.8885H121.839V73.9525H115.105V73.0425ZM123.312 68.8985C123.312 67.2931 123.573 66.0425 124.096 65.1465C124.618 64.2411 125.533 63.7885 126.84 63.7885C128.137 63.7885 129.047 64.2411 129.57 65.1465C130.092 66.0425 130.354 67.2931 130.354 68.8985C130.354 70.5318 130.092 71.8011 129.57 72.7065C129.047 73.6118 128.137 74.0645 126.84 74.0645C125.533 74.0645 124.618 73.6118 124.096 72.7065C123.573 71.8011 123.312 70.5318 123.312 68.8985ZM129.094 68.8985C129.094 68.0865 129.038 67.4005 128.926 66.8405C128.823 66.2711 128.604 65.8138 128.268 65.4685C127.941 65.1231 127.465 64.9505 126.84 64.9505C126.205 64.9505 125.72 65.1231 125.384 65.4685C125.057 65.8138 124.838 66.2711 124.726 66.8405C124.623 67.4005 124.572 68.0865 124.572 68.8985C124.572 69.7385 124.623 70.4431 124.726 71.0125C124.838 71.5818 125.057 72.0391 125.384 72.3845C125.72 72.7298 126.205 72.9025 126.84 72.9025C127.465 72.9025 127.941 72.7298 128.268 72.3845C128.604 72.0391 128.823 71.5818 128.926 71.0125C129.038 70.4431 129.094 69.7385 129.094 68.8985ZM131.949 73.0425C133.134 72.0905 134.063 71.3111 134.735 70.7045C135.407 70.0885 135.971 69.4491 136.429 68.7865C136.895 68.1145 137.129 67.4565 137.129 66.8125C137.129 66.2058 136.979 65.7298 136.681 65.3845C136.391 65.0298 135.92 64.8525 135.267 64.8525C134.632 64.8525 134.137 65.0531 133.783 65.4545C133.437 65.8465 133.251 66.3738 133.223 67.0365H131.991C132.028 65.9911 132.345 65.1838 132.943 64.6145C133.54 64.0451 134.31 63.7605 135.253 63.7605C136.214 63.7605 136.975 64.0265 137.535 64.5585C138.104 65.0905 138.389 65.8231 138.389 66.7565C138.389 67.5311 138.155 68.2871 137.689 69.0245C137.231 69.7525 136.709 70.3965 136.121 70.9565C135.533 71.5071 134.781 72.1511 133.867 72.8885H138.683V73.9525H131.949V73.0425ZM139.819 65.1045V63.9425H142.451V74.0645H141.163V65.1045H139.819Z" fill="black"/>
<path d="M27.157 47.1905C26.233 47.1905 25.405 47.0405 24.673 46.7405C23.941 46.4405 23.353 45.9965 22.909 45.4085C22.477 44.8205 22.249 44.1125 22.225 43.2845H25.501C25.549 43.7525 25.711 44.1125 25.987 44.3645C26.263 44.6045 26.623 44.7245 27.067 44.7245C27.523 44.7245 27.883 44.6225 28.147 44.4185C28.411 44.2025 28.543 43.9085 28.543 43.5365C28.543 43.2245 28.435 42.9665 28.219 42.7625C28.015 42.5585 27.757 42.3905 27.445 42.2585C27.145 42.1265 26.713 41.9765 26.149 41.8085C25.333 41.5565 24.667 41.3045 24.151 41.0525C23.635 40.8005 23.191 40.4285 22.819 39.9365C22.447 39.4445 22.261 38.8025 22.261 38.0105C22.261 36.8345 22.687 35.9165 23.539 35.2565C24.391 34.5845 25.501 34.2485 26.869 34.2485C28.261 34.2485 29.383 34.5845 30.235 35.2565C31.087 35.9165 31.543 36.8405 31.603 38.0285H28.273C28.249 37.6205 28.099 37.3025 27.823 37.0745C27.547 36.8345 27.193 36.7145 26.761 36.7145C26.389 36.7145 26.089 36.8165 25.861 37.0205C25.633 37.2125 25.519 37.4945 25.519 37.8665C25.519 38.2745 25.711 38.5925 26.095 38.8205C26.479 39.0485 27.079 39.2945 27.895 39.5585C28.711 39.8345 29.371 40.0985 29.875 40.3505C30.391 40.6025 30.835 40.9685 31.207 41.4485C31.579 41.9285 31.765 42.5465 31.765 43.3025C31.765 44.0225 31.579 44.6765 31.207 45.2645C30.847 45.8525 30.319 46.3205 29.623 46.6685C28.927 47.0165 28.105 47.1905 27.157 47.1905ZM33.0472 42.0245C33.0472 40.9925 33.2392 40.0865 33.6232 39.3065C34.0192 38.5265 34.5532 37.9265 35.2252 37.5065C35.8972 37.0865 36.6472 36.8765 37.4752 36.8765C38.1832 36.8765 38.8012 37.0205 39.3292 37.3085C39.8692 37.5965 40.2832 37.9745 40.5712 38.4425V37.0205H43.6492V47.0645H40.5712V45.6425C40.2712 46.1105 39.8512 46.4885 39.3112 46.7765C38.7832 47.0645 38.1652 47.2085 37.4572 47.2085C36.6412 47.2085 35.8972 46.9985 35.2252 46.5785C34.5532 46.1465 34.0192 45.5405 33.6232 44.7605C33.2392 43.9685 33.0472 43.0565 33.0472 42.0245ZM40.5712 42.0425C40.5712 41.2745 40.3552 40.6685 39.9232 40.2245C39.5032 39.7805 38.9872 39.5585 38.3752 39.5585C37.7632 39.5585 37.2412 39.7805 36.8092 40.2245C36.3892 40.6565 36.1792 41.2565 36.1792 42.0245C36.1792 42.7925 36.3892 43.4045 36.8092 43.8605C37.2412 44.3045 37.7632 44.5265 38.3752 44.5265C38.9872 44.5265 39.5032 44.3045 39.9232 43.8605C40.3552 43.4165 40.5712 42.8105 40.5712 42.0425ZM48.954 33.7445V47.0645H45.876V33.7445H48.954ZM60.6526 41.8805C60.6526 42.1685 60.6346 42.4685 60.5986 42.7805H53.6326C53.6806 43.4045 53.8786 43.8845 54.2266 44.2205C54.5866 44.5445 55.0246 44.7065 55.5406 44.7065C56.3086 44.7065 56.8426 44.3825 57.1426 43.7345H60.4186C60.2506 44.3945 59.9446 44.9885 59.5006 45.5165C59.0686 46.0445 58.5226 46.4585 57.8626 46.7585C57.2026 47.0585 56.4646 47.2085 55.6486 47.2085C54.6646 47.2085 53.7886 46.9985 53.0206 46.5785C52.2526 46.1585 51.6526 45.5585 51.2206 44.7785C50.7886 43.9985 50.5726 43.0865 50.5726 42.0425C50.5726 40.9985 50.7826 40.0865 51.2026 39.3065C51.6346 38.5265 52.2346 37.9265 53.0026 37.5065C53.7706 37.0865 54.6526 36.8765 55.6486 36.8765C56.6206 36.8765 57.4846 37.0805 58.2406 37.4885C58.9966 37.8965 59.5846 38.4785 60.0046 39.2345C60.4366 39.9905 60.6526 40.8725 60.6526 41.8805ZM57.5026 41.0705C57.5026 40.5425 57.3226 40.1225 56.9626 39.8105C56.6026 39.4985 56.1526 39.3425 55.6126 39.3425C55.0966 39.3425 54.6586 39.4925 54.2986 39.7925C53.9506 40.0925 53.7346 40.5185 53.6506 41.0705H57.5026ZM66.3624 47.2085C65.4864 47.2085 64.7064 47.0585 64.0224 46.7585C63.3384 46.4585 62.7984 46.0505 62.4024 45.5345C62.0064 45.0065 61.7844 44.4185 61.7364 43.7705H64.7784C64.8144 44.1185 64.9764 44.4005 65.2644 44.6165C65.5524 44.8325 65.9064 44.9405 66.3264 44.9405C66.7104 44.9405 67.0044 44.8685 67.2084 44.7245C67.4244 44.5685 67.5324 44.3705 67.5324 44.1305C67.5324 43.8425 67.3824 43.6325 67.0824 43.5005C66.7824 43.3565 66.2964 43.2005 65.6244 43.0325C64.9044 42.8645 64.3044 42.6905 63.8244 42.5105C63.3444 42.3185 62.9304 42.0245 62.5824 41.6285C62.2344 41.2205 62.0604 40.6745 62.0604 39.9905C62.0604 39.4145 62.2164 38.8925 62.5284 38.4245C62.8524 37.9445 63.3204 37.5665 63.9324 37.2905C64.5564 37.0145 65.2944 36.8765 66.1464 36.8765C67.4064 36.8765 68.3964 37.1885 69.1164 37.8125C69.8484 38.4365 70.2684 39.2645 70.3764 40.2965H67.5324C67.4844 39.9485 67.3284 39.6725 67.0644 39.4685C66.8124 39.2645 66.4764 39.1625 66.0564 39.1625C65.6964 39.1625 65.4204 39.2345 65.2284 39.3785C65.0364 39.5105 64.9404 39.6965 64.9404 39.9365C64.9404 40.2245 65.0904 40.4405 65.3904 40.5845C65.7024 40.7285 66.1824 40.8725 66.8304 41.0165C67.5744 41.2085 68.1804 41.4005 68.6484 41.5925C69.1164 41.7725 69.5244 42.0725 69.8724 42.4925C70.2324 42.9005 70.4184 43.4525 70.4304 44.1485C70.4304 44.7365 70.2624 45.2645 69.9264 45.7325C69.6024 46.1885 69.1284 46.5485 68.5044 46.8125C67.8924 47.0765 67.1784 47.2085 66.3624 47.2085ZM80.7 47.2085C79.716 47.2085 78.828 46.9985 78.036 46.5785C77.256 46.1585 76.638 45.5585 76.182 44.7785C75.738 43.9985 75.516 43.0865 75.516 42.0425C75.516 41.0105 75.744 40.1045 76.2 39.3245C76.656 38.5325 77.28 37.9265 78.072 37.5065C78.864 37.0865 79.752 36.8765 80.736 36.8765C81.72 36.8765 82.608 37.0865 83.4 37.5065C84.192 37.9265 84.816 38.5325 85.272 39.3245C85.728 40.1045 85.956 41.0105 85.956 42.0425C85.956 43.0745 85.722 43.9865 85.254 44.7785C84.798 45.5585 84.168 46.1585 83.364 46.5785C82.572 46.9985 81.684 47.2085 80.7 47.2085ZM80.7 44.5445C81.288 44.5445 81.786 44.3285 82.194 43.8965C82.614 43.4645 82.824 42.8465 82.824 42.0425C82.824 41.2385 82.62 40.6205 82.212 40.1885C81.816 39.7565 81.324 39.5405 80.736 39.5405C80.136 39.5405 79.638 39.7565 79.242 40.1885C78.846 40.6085 78.648 41.2265 78.648 42.0425C78.648 42.8465 78.84 43.4645 79.224 43.8965C79.62 44.3285 80.112 44.5445 80.7 44.5445ZM92.1069 44.1845L94.2849 37.0205H97.5609L93.9969 47.0645H90.1989L86.6349 37.0205H89.9289L92.1069 44.1845ZM108.324 41.8805C108.324 42.1685 108.306 42.4685 108.27 42.7805H101.304C101.352 43.4045 101.55 43.8845 101.898 44.2205C102.258 44.5445 102.696 44.7065 103.212 44.7065C103.98 44.7065 104.514 44.3825 104.814 43.7345H108.09C107.922 44.3945 107.616 44.9885 107.172 45.5165C106.74 46.0445 106.194 46.4585 105.534 46.7585C104.874 47.0585 104.136 47.2085 103.32 47.2085C102.336 47.2085 101.46 46.9985 100.692 46.5785C99.9245 46.1585 99.3245 45.5585 98.8925 44.7785C98.4605 43.9985 98.2445 43.0865 98.2445 42.0425C98.2445 40.9985 98.4545 40.0865 98.8745 39.3065C99.3065 38.5265 99.9065 37.9265 100.674 37.5065C101.442 37.0865 102.324 36.8765 103.32 36.8765C104.292 36.8765 105.156 37.0805 105.912 37.4885C106.668 37.8965 107.256 38.4785 107.676 39.2345C108.108 39.9905 108.324 40.8725 108.324 41.8805ZM105.174 41.0705C105.174 40.5425 104.994 40.1225 104.634 39.8105C104.274 39.4985 103.824 39.3425 103.284 39.3425C102.768 39.3425 102.33 39.4925 101.97 39.7925C101.622 40.0925 101.406 40.5185 101.322 41.0705H105.174ZM113.026 38.6945C113.386 38.1425 113.836 37.7105 114.376 37.3985C114.916 37.0745 115.516 36.9125 116.176 36.9125V40.1705H115.33C114.562 40.1705 113.986 40.3385 113.602 40.6745C113.218 40.9985 113.026 41.5745 113.026 42.4025V47.0645H109.948V37.0205H113.026V38.6945ZM122.166 44.1845L124.344 37.0205H127.62L124.056 47.0645H120.258L116.694 37.0205H119.988L122.166 44.1845ZM130.463 35.9765C129.923 35.9765 129.479 35.8205 129.131 35.5085C128.795 35.1845 128.627 34.7885 128.627 34.3205C128.627 33.8405 128.795 33.4445 129.131 33.1325C129.479 32.8085 129.923 32.6465 130.463 32.6465C130.991 32.6465 131.423 32.8085 131.759 33.1325C132.107 33.4445 132.281 33.8405 132.281 34.3205C132.281 34.7885 132.107 35.1845 131.759 35.5085C131.423 35.8205 130.991 35.9765 130.463 35.9765ZM131.993 37.0205V47.0645H128.915V37.0205H131.993ZM143.692 41.8805C143.692 42.1685 143.674 42.4685 143.638 42.7805H136.672C136.72 43.4045 136.918 43.8845 137.266 44.2205C137.626 44.5445 138.064 44.7065 138.58 44.7065C139.348 44.7065 139.882 44.3825 140.182 43.7345H143.458C143.29 44.3945 142.984 44.9885 142.54 45.5165C142.108 46.0445 141.562 46.4585 140.902 46.7585C140.242 47.0585 139.504 47.2085 138.688 47.2085C137.704 47.2085 136.828 46.9985 136.06 46.5785C135.292 46.1585 134.692 45.5585 134.26 44.7785C133.828 43.9985 133.612 43.0865 133.612 42.0425C133.612 40.9985 133.822 40.0865 134.242 39.3065C134.674 38.5265 135.274 37.9265 136.042 37.5065C136.81 37.0865 137.692 36.8765 138.688 36.8765C139.66 36.8765 140.524 37.0805 141.28 37.4885C142.036 37.8965 142.624 38.4785 143.044 39.2345C143.476 39.9905 143.692 40.8725 143.692 41.8805ZM140.542 41.0705C140.542 40.5425 140.362 40.1225 140.002 39.8105C139.642 39.4985 139.192 39.3425 138.652 39.3425C138.136 39.3425 137.698 39.4925 137.338 39.7925C136.99 40.0925 136.774 40.5185 136.69 41.0705H140.542ZM159.733 37.0205L157.015 47.0645H153.613L152.029 40.5485L150.391 47.0645H147.007L144.271 37.0205H147.349L148.771 44.2025L150.463 37.0205H153.721L155.431 44.1665L156.835 37.0205H159.733Z" fill="black"/>
<path d="M889.191 406.117V410.814H890.577C891.287 410.814 891.782 410.465 892.062 409.765C892.215 409.381 892.291 408.923 892.291 408.393C892.291 407.66 892.176 407.099 891.945 406.708C891.717 406.314 891.261 406.117 890.577 406.117H889.191ZM890.831 404.867C891.277 404.874 891.648 404.926 891.945 405.023C892.449 405.189 892.858 405.494 893.17 405.937C893.421 406.295 893.592 406.682 893.683 407.099C893.774 407.515 893.82 407.912 893.82 408.29C893.82 409.247 893.628 410.058 893.243 410.722C892.723 411.617 891.919 412.064 890.831 412.064H887.731V404.867H890.831ZM896.945 407.748C896.622 407.748 896.372 407.849 896.193 408.051C896.017 408.253 895.906 408.526 895.861 408.871H898.024C898.001 408.503 897.889 408.225 897.687 408.036C897.488 407.844 897.241 407.748 896.945 407.748ZM896.945 406.601C897.387 406.601 897.786 406.684 898.141 406.85C898.496 407.016 898.789 407.278 899.02 407.636C899.228 407.951 899.363 408.318 899.425 408.734C899.461 408.979 899.476 409.33 899.469 409.789H895.826C895.846 410.323 896.014 410.697 896.329 410.912C896.521 411.046 896.753 411.112 897.023 411.112C897.309 411.112 897.542 411.031 897.721 410.868C897.819 410.78 897.905 410.658 897.98 410.502H899.401C899.365 410.818 899.2 411.138 898.907 411.464C898.452 411.981 897.814 412.24 896.993 412.24C896.316 412.24 895.719 412.022 895.201 411.586C894.684 411.15 894.425 410.44 894.425 409.457C894.425 408.536 894.658 407.829 895.123 407.338C895.592 406.846 896.199 406.601 896.945 406.601ZM903.59 408.651C903.564 408.453 903.497 408.274 903.39 408.114C903.234 407.899 902.991 407.792 902.662 407.792C902.194 407.792 901.873 408.025 901.7 408.49C901.609 408.738 901.564 409.066 901.564 409.477C901.564 409.867 901.609 410.181 901.7 410.419C901.866 410.862 902.179 411.083 902.638 411.083C902.963 411.083 903.195 410.995 903.331 410.819C903.468 410.644 903.551 410.416 903.58 410.136H905.001C904.969 410.559 904.816 410.959 904.542 411.337C904.106 411.946 903.46 412.25 902.604 412.25C901.748 412.25 901.118 411.996 900.714 411.488C900.31 410.98 900.109 410.321 900.109 409.511C900.109 408.596 900.332 407.885 900.778 407.377C901.224 406.869 901.839 406.615 902.623 406.615C903.291 406.615 903.836 406.765 904.259 407.064C904.685 407.364 904.938 407.893 905.016 408.651H903.59Z" fill="black"/>
<path d="M811.706 404.867H813.283L816.15 409.892V404.867H817.551V412.064H816.047L813.108 406.952V412.064H811.706V404.867ZM821.233 411.083C821.64 411.083 821.952 410.938 822.17 410.648C822.388 410.359 822.497 409.947 822.497 409.413C822.497 408.879 822.388 408.469 822.17 408.183C821.952 407.893 821.64 407.748 821.233 407.748C820.826 407.748 820.512 407.893 820.29 408.183C820.072 408.469 819.963 408.879 819.963 409.413C819.963 409.947 820.072 410.359 820.29 410.648C820.512 410.938 820.826 411.083 821.233 411.083ZM823.957 409.413C823.957 410.194 823.733 410.863 823.283 411.42C822.834 411.973 822.152 412.25 821.238 412.25C820.323 412.25 819.641 411.973 819.192 411.42C818.742 410.863 818.518 410.194 818.518 409.413C818.518 408.645 818.742 407.979 819.192 407.416C819.641 406.853 820.323 406.571 821.238 406.571C822.152 406.571 822.834 406.853 823.283 407.416C823.733 407.979 823.957 408.645 823.957 409.413ZM828.24 406.742H829.734L827.815 412.064H826.345L824.436 406.742H825.998L827.107 410.668L828.24 406.742Z" fill="black"/>
<path d="M740.914 410.99C741.51 410.99 741.982 410.771 742.33 410.331C742.682 409.892 742.858 409.267 742.858 408.456C742.858 407.649 742.682 407.025 742.33 406.586C741.982 406.143 741.51 405.922 740.914 405.922C740.319 405.922 739.843 406.142 739.489 406.581C739.134 407.021 738.956 407.646 738.956 408.456C738.956 409.267 739.134 409.892 739.489 410.331C739.843 410.771 740.319 410.99 740.914 410.99ZM744.362 408.456C744.362 409.748 743.999 410.738 743.273 411.425C742.729 411.985 741.943 412.265 740.914 412.265C739.886 412.265 739.1 411.985 738.556 411.425C737.827 410.738 737.462 409.748 737.462 408.456C737.462 407.138 737.827 406.148 738.556 405.487C739.1 404.927 739.886 404.647 740.914 404.647C741.943 404.647 742.729 404.927 743.273 405.487C743.999 406.148 744.362 407.138 744.362 408.456ZM748.58 408.651C748.554 408.453 748.488 408.274 748.38 408.114C748.224 407.899 747.981 407.792 747.653 407.792C747.184 407.792 746.863 408.025 746.691 408.49C746.6 408.738 746.554 409.066 746.554 409.477C746.554 409.867 746.6 410.181 746.691 410.419C746.857 410.862 747.169 411.083 747.628 411.083C747.954 411.083 748.185 410.995 748.322 410.819C748.458 410.644 748.541 410.416 748.571 410.136H749.991C749.959 410.559 749.806 410.959 749.532 411.337C749.096 411.946 748.45 412.25 747.594 412.25C746.738 412.25 746.108 411.996 745.704 411.488C745.301 410.98 745.099 410.321 745.099 409.511C745.099 408.596 745.322 407.885 745.768 407.377C746.214 406.869 746.829 406.615 747.614 406.615C748.281 406.615 748.826 406.765 749.249 407.064C749.676 407.364 749.928 407.893 750.006 408.651H748.58ZM750.421 407.782V406.791H751.163V405.307H752.54V406.791H753.405V407.782H752.54V410.595C752.54 410.813 752.568 410.95 752.623 411.005C752.679 411.057 752.848 411.083 753.131 411.083C753.173 411.083 753.217 411.083 753.263 411.083C753.312 411.08 753.359 411.076 753.405 411.073V412.113L752.745 412.138C752.088 412.16 751.639 412.047 751.398 411.796C751.241 411.636 751.163 411.391 751.163 411.059V407.782H750.421Z" fill="black"/>
<path d="M663.32 409.843C663.365 410.172 663.455 410.417 663.588 410.58C663.832 410.876 664.251 411.024 664.843 411.024C665.198 411.024 665.486 410.985 665.707 410.907C666.127 410.757 666.337 410.479 666.337 410.072C666.337 409.835 666.233 409.651 666.025 409.521C665.816 409.394 665.489 409.281 665.043 409.184L664.281 409.013C663.533 408.843 663.015 408.66 662.729 408.461C662.244 408.129 662.001 407.61 662.001 406.903C662.001 406.259 662.236 405.723 662.704 405.297C663.173 404.87 663.862 404.657 664.77 404.657C665.528 404.657 666.174 404.859 666.708 405.263C667.245 405.663 667.527 406.246 667.553 407.011H666.108C666.082 406.578 665.893 406.27 665.541 406.088C665.307 405.967 665.016 405.907 664.667 405.907C664.28 405.907 663.971 405.985 663.74 406.142C663.508 406.298 663.393 406.516 663.393 406.796C663.393 407.053 663.507 407.245 663.735 407.372C663.881 407.457 664.194 407.556 664.672 407.67L665.912 407.968C666.456 408.098 666.866 408.272 667.143 408.49C667.573 408.829 667.787 409.319 667.787 409.96C667.787 410.618 667.535 411.164 667.031 411.601C666.529 412.034 665.82 412.25 664.902 412.25C663.964 412.25 663.227 412.037 662.69 411.61C662.153 411.181 661.884 410.591 661.884 409.843H663.32ZM670.888 407.748C670.566 407.748 670.315 407.849 670.136 408.051C669.96 408.253 669.85 408.526 669.804 408.871H671.967C671.944 408.503 671.832 408.225 671.63 408.036C671.432 407.844 671.184 407.748 670.888 407.748ZM670.888 406.601C671.331 406.601 671.729 406.684 672.084 406.85C672.439 407.016 672.732 407.278 672.963 407.636C673.171 407.951 673.307 408.318 673.368 408.734C673.404 408.979 673.419 409.33 673.412 409.789H669.77C669.789 410.323 669.957 410.697 670.273 410.912C670.465 411.046 670.696 411.112 670.966 411.112C671.253 411.112 671.485 411.031 671.664 410.868C671.762 410.78 671.848 410.658 671.923 410.502H673.344C673.308 410.818 673.144 411.138 672.851 411.464C672.395 411.981 671.757 412.24 670.937 412.24C670.26 412.24 669.662 412.022 669.145 411.586C668.627 411.15 668.368 410.44 668.368 409.457C668.368 408.536 668.601 407.829 669.067 407.338C669.535 406.846 670.142 406.601 670.888 406.601ZM678.022 409.403C678.022 408.993 677.927 408.63 677.739 408.314C677.553 407.999 677.25 407.841 676.83 407.841C676.326 407.841 675.979 408.08 675.79 408.559C675.693 408.812 675.644 409.135 675.644 409.525C675.644 410.144 675.808 410.578 676.137 410.829C676.332 410.976 676.563 411.049 676.83 411.049C677.218 411.049 677.512 410.899 677.714 410.6C677.919 410.3 678.022 409.901 678.022 409.403ZM677.231 406.625C677.852 406.625 678.378 406.854 678.808 407.313C679.241 407.772 679.457 408.446 679.457 409.335C679.457 410.272 679.246 410.987 678.823 411.479C678.403 411.97 677.861 412.216 677.197 412.216C676.773 412.216 676.422 412.11 676.142 411.898C675.989 411.781 675.839 411.61 675.693 411.386V414.159H674.316V406.742H675.649V407.528C675.798 407.297 675.958 407.115 676.127 406.981C676.436 406.744 676.804 406.625 677.231 406.625Z" fill="black"/>
<path d="M587.698 409.345H589.525L588.626 406.513L587.698 409.345ZM587.791 404.867H589.49L592.039 412.064H590.408L589.945 410.585H587.293L586.795 412.064H585.223L587.791 404.867ZM594.232 406.742V409.95C594.232 410.253 594.267 410.481 594.339 410.634C594.466 410.904 594.715 411.039 595.086 411.039C595.561 411.039 595.887 410.847 596.063 410.463C596.154 410.255 596.199 409.979 596.199 409.638V406.742H597.611V412.064H596.258V411.312C596.245 411.329 596.212 411.378 596.16 411.459C596.108 411.54 596.046 411.612 595.975 411.674C595.757 411.869 595.545 412.003 595.34 412.074C595.138 412.146 594.901 412.182 594.627 412.182C593.839 412.182 593.309 411.898 593.035 411.332C592.882 411.02 592.806 410.559 592.806 409.95V406.742H594.232ZM601.243 410.922C601.569 410.922 601.844 410.8 602.069 410.556C602.293 410.308 602.406 409.916 602.406 409.379C602.406 408.874 602.298 408.49 602.083 408.227C601.872 407.963 601.587 407.831 601.229 407.831C600.74 407.831 600.404 408.061 600.218 408.52C600.12 408.764 600.072 409.065 600.072 409.423C600.072 409.732 600.124 410.007 600.228 410.248C600.417 410.697 600.755 410.922 601.243 410.922ZM600.897 406.615C601.164 406.615 601.396 406.656 601.595 406.737C601.934 406.877 602.207 407.134 602.415 407.509V406.742H603.768V411.791C603.768 412.478 603.652 412.995 603.421 413.344C603.024 413.943 602.262 414.242 601.136 414.242C600.456 414.242 599.901 414.109 599.471 413.842C599.041 413.575 598.804 413.176 598.758 412.646H600.272C600.311 412.808 600.374 412.925 600.462 412.997C600.612 413.124 600.864 413.188 601.219 413.188C601.72 413.188 602.056 413.02 602.225 412.685C602.336 412.47 602.391 412.108 602.391 411.601V411.259C602.257 411.487 602.114 411.658 601.961 411.771C601.684 411.983 601.325 412.089 600.882 412.089C600.198 412.089 599.652 411.85 599.241 411.371C598.835 410.889 598.631 410.238 598.631 409.418C598.631 408.627 598.828 407.963 599.222 407.426C599.616 406.885 600.174 406.615 600.897 406.615Z" fill="black"/>
<path d="M515.11 409.335V409.501C515.123 410.058 515.183 410.45 515.29 410.678C515.401 410.902 515.635 411.015 515.993 411.015C516.348 411.015 516.583 410.891 516.697 410.644C516.765 410.497 516.799 410.25 516.799 409.901V404.867H518.303V409.877C518.303 410.489 518.197 410.974 517.986 411.332C517.628 411.938 516.981 412.24 516.047 412.24C515.113 412.24 514.486 411.996 514.167 411.508C513.848 411.016 513.689 410.347 513.689 409.501V409.335H515.11ZM521.072 406.742V409.95C521.072 410.253 521.107 410.481 521.179 410.634C521.306 410.904 521.555 411.039 521.926 411.039C522.401 411.039 522.727 410.847 522.903 410.463C522.994 410.255 523.039 409.979 523.039 409.638V406.742H524.45V412.064H523.098V411.312C523.085 411.329 523.052 411.378 523 411.459C522.948 411.54 522.886 411.612 522.815 411.674C522.597 411.869 522.385 412.003 522.18 412.074C521.978 412.146 521.74 412.182 521.467 412.182C520.679 412.182 520.149 411.898 519.875 411.332C519.722 411.02 519.646 410.559 519.646 409.95V406.742H521.072ZM527.219 412.064H525.827V404.867H527.219V412.064Z" fill="black"/>
<path d="M440.11 409.335V409.501C440.123 410.058 440.183 410.45 440.29 410.678C440.401 410.902 440.635 411.015 440.993 411.015C441.348 411.015 441.583 410.891 441.697 410.644C441.765 410.497 441.799 410.25 441.799 409.901V404.867H443.303V409.877C443.303 410.489 443.197 410.974 442.986 411.332C442.628 411.938 441.981 412.24 441.047 412.24C440.113 412.24 439.486 411.996 439.167 411.508C438.848 411.016 438.689 410.347 438.689 409.501V409.335H440.11ZM446.072 406.742V409.95C446.072 410.253 446.107 410.481 446.179 410.634C446.306 410.904 446.555 411.039 446.926 411.039C447.401 411.039 447.727 410.847 447.903 410.463C447.994 410.255 448.039 409.979 448.039 409.638V406.742H449.45V412.064H448.098V411.312C448.085 411.329 448.052 411.378 448 411.459C447.948 411.54 447.886 411.612 447.815 411.674C447.597 411.869 447.385 412.003 447.18 412.074C446.978 412.146 446.74 412.182 446.467 412.182C445.679 412.182 445.149 411.898 444.875 411.332C444.722 411.02 444.646 410.559 444.646 409.95V406.742H446.072ZM453.747 406.615C454.297 406.615 454.747 406.76 455.095 407.05C455.447 407.336 455.622 407.813 455.622 408.48V412.064H454.197V408.827C454.197 408.547 454.159 408.332 454.084 408.183C453.948 407.909 453.687 407.772 453.303 407.772C452.831 407.772 452.507 407.973 452.331 408.373C452.24 408.585 452.195 408.855 452.195 409.184V412.064H450.808V406.752H452.151V407.528C452.33 407.255 452.499 407.058 452.658 406.938C452.945 406.723 453.308 406.615 453.747 406.615Z" fill="black"/>
<path d="M367.501 404.867H369.664V412.064H368.263V407.196C368.263 407.056 368.265 406.861 368.268 406.61C368.271 406.356 368.273 406.161 368.273 406.024L366.91 412.064H365.45L364.098 406.024C364.098 406.161 364.1 406.356 364.103 406.61C364.106 406.861 364.108 407.056 364.108 407.196V412.064H362.706V404.867H364.894L366.202 410.526L367.501 404.867ZM373.883 409.477C373.795 409.532 373.706 409.577 373.615 409.613C373.527 409.646 373.405 409.677 373.248 409.706L372.936 409.765C372.643 409.817 372.433 409.88 372.306 409.955C372.091 410.082 371.984 410.279 371.984 410.546C371.984 410.784 372.049 410.956 372.179 411.063C372.312 411.168 372.474 411.22 372.662 411.22C372.962 411.22 373.237 411.132 373.488 410.956C373.741 410.78 373.873 410.46 373.883 409.994V409.477ZM373.038 408.827C373.295 408.795 373.479 408.754 373.59 408.705C373.789 408.62 373.888 408.489 373.888 408.31C373.888 408.091 373.811 407.942 373.658 407.86C373.509 407.776 373.287 407.733 372.994 407.733C372.666 407.733 372.433 407.815 372.296 407.978C372.198 408.098 372.133 408.261 372.101 408.466H370.758C370.787 408 370.918 407.618 371.149 407.318C371.517 406.85 372.148 406.615 373.043 406.615C373.626 406.615 374.143 406.731 374.596 406.962C375.048 407.193 375.275 407.629 375.275 408.271V410.712C375.275 410.881 375.278 411.086 375.284 411.327C375.294 411.509 375.322 411.633 375.367 411.698C375.413 411.763 375.481 411.817 375.573 411.859V412.064H374.059C374.017 411.957 373.987 411.856 373.971 411.762C373.955 411.667 373.942 411.56 373.932 411.439C373.74 411.648 373.518 411.825 373.268 411.972C372.968 412.144 372.63 412.23 372.252 412.23C371.77 412.23 371.372 412.094 371.056 411.82C370.743 411.544 370.587 411.153 370.587 410.648C370.587 409.994 370.839 409.521 371.344 409.228C371.621 409.068 372.028 408.954 372.565 408.886L373.038 408.827ZM376.73 413.085L376.906 413.095C377.042 413.101 377.172 413.096 377.296 413.08C377.42 413.064 377.524 413.026 377.609 412.968C377.69 412.912 377.765 412.797 377.833 412.621C377.905 412.445 377.934 412.338 377.921 412.299L375.968 406.742H377.516L378.678 410.668L379.777 406.742H381.256L379.43 411.977C379.078 412.986 378.8 413.611 378.595 413.852C378.39 414.096 377.98 414.218 377.365 414.218C377.241 414.218 377.142 414.216 377.067 414.213C376.992 414.213 376.879 414.208 376.73 414.198V413.085Z" fill="black"/>
<path d="M290.198 409.345H292.025L291.126 406.513L290.198 409.345ZM290.291 404.867H291.99L294.539 412.064H292.908L292.445 410.585H289.793L289.295 412.064H287.723L290.291 404.867ZM299.012 409.403C299.012 408.993 298.918 408.63 298.729 408.314C298.543 407.999 298.24 407.841 297.821 407.841C297.316 407.841 296.969 408.08 296.781 408.559C296.683 408.812 296.634 409.135 296.634 409.525C296.634 410.144 296.798 410.578 297.127 410.829C297.323 410.976 297.554 411.049 297.821 411.049C298.208 411.049 298.503 410.899 298.704 410.6C298.909 410.3 299.012 409.901 299.012 409.403ZM298.221 406.625C298.843 406.625 299.368 406.854 299.798 407.313C300.231 407.772 300.448 408.446 300.448 409.335C300.448 410.272 300.236 410.987 299.813 411.479C299.393 411.97 298.851 412.216 298.187 412.216C297.764 412.216 297.412 412.11 297.132 411.898C296.979 411.781 296.829 411.61 296.683 411.386V414.159H295.306V406.742H296.639V407.528C296.789 407.297 296.948 407.115 297.117 406.981C297.427 406.744 297.795 406.625 298.221 406.625ZM304.349 406.615C304.375 406.615 304.396 406.617 304.412 406.62C304.432 406.62 304.473 406.622 304.534 406.625V408.051C304.447 408.041 304.368 408.035 304.3 408.031C304.232 408.028 304.176 408.026 304.134 408.026C303.574 408.026 303.198 408.209 303.006 408.573C302.899 408.778 302.845 409.094 302.845 409.521V412.064H301.444V406.742H302.772V407.67C302.987 407.315 303.174 407.073 303.333 406.942C303.594 406.724 303.932 406.615 304.349 406.615Z" fill="black"/>
<path d="M218.001 404.867H220.164V412.064H218.763V407.196C218.763 407.056 218.765 406.861 218.768 406.61C218.771 406.356 218.773 406.161 218.773 406.024L217.41 412.064H215.95L214.598 406.024C214.598 406.161 214.6 406.356 214.603 406.61C214.606 406.861 214.608 407.056 214.608 407.196V412.064H213.206V404.867H215.394L216.702 410.526L218.001 404.867ZM224.383 409.477C224.295 409.532 224.206 409.577 224.115 409.613C224.027 409.646 223.905 409.677 223.748 409.706L223.436 409.765C223.143 409.817 222.933 409.88 222.806 409.955C222.591 410.082 222.484 410.279 222.484 410.546C222.484 410.784 222.549 410.956 222.679 411.063C222.812 411.168 222.974 411.22 223.162 411.22C223.462 411.22 223.737 411.132 223.988 410.956C224.241 410.78 224.373 410.46 224.383 409.994V409.477ZM223.538 408.827C223.795 408.795 223.979 408.754 224.09 408.705C224.289 408.62 224.388 408.489 224.388 408.31C224.388 408.091 224.311 407.942 224.158 407.86C224.009 407.776 223.787 407.733 223.494 407.733C223.166 407.733 222.933 407.815 222.796 407.978C222.698 408.098 222.633 408.261 222.601 408.466H221.258C221.287 408 221.418 407.618 221.649 407.318C222.017 406.85 222.648 406.615 223.543 406.615C224.126 406.615 224.643 406.731 225.096 406.962C225.548 407.193 225.775 407.629 225.775 408.271V410.712C225.775 410.881 225.778 411.086 225.784 411.327C225.794 411.509 225.822 411.633 225.867 411.698C225.913 411.763 225.981 411.817 226.073 411.859V412.064H224.559C224.517 411.957 224.487 411.856 224.471 411.762C224.455 411.667 224.442 411.56 224.432 411.439C224.24 411.648 224.018 411.825 223.768 411.972C223.468 412.144 223.13 412.23 222.752 412.23C222.27 412.23 221.872 412.094 221.556 411.82C221.243 411.544 221.087 411.153 221.087 410.648C221.087 409.994 221.339 409.521 221.844 409.228C222.121 409.068 222.528 408.954 223.065 408.886L223.538 408.827ZM229.906 406.615C229.932 406.615 229.953 406.617 229.969 406.62C229.989 406.62 230.029 406.622 230.091 406.625V408.051C230.003 408.041 229.925 408.035 229.857 408.031C229.788 408.028 229.733 408.026 229.691 408.026C229.131 408.026 228.755 408.209 228.563 408.573C228.455 408.778 228.402 409.094 228.402 409.521V412.064H227V406.742H228.328V407.67C228.543 407.315 228.73 407.073 228.89 406.942C229.15 406.724 229.489 406.615 229.906 406.615Z" fill="black"/>
<path d="M138.231 404.877H143.333V406.142H139.725V407.797H142.884V409.047H139.725V412.064H138.231V404.877ZM146.331 407.748C146.009 407.748 145.758 407.849 145.579 408.051C145.404 408.253 145.293 408.526 145.247 408.871H147.41C147.388 408.503 147.275 408.225 147.073 408.036C146.875 407.844 146.628 407.748 146.331 407.748ZM146.331 406.601C146.774 406.601 147.173 406.684 147.528 406.85C147.882 407.016 148.175 407.278 148.406 407.636C148.615 407.951 148.75 408.318 148.812 408.734C148.848 408.979 148.862 409.33 148.856 409.789H145.213C145.233 410.323 145.4 410.697 145.716 410.912C145.908 411.046 146.139 411.112 146.409 411.112C146.696 411.112 146.929 411.031 147.108 410.868C147.205 410.78 147.292 410.658 147.366 410.502H148.787C148.752 410.818 148.587 411.138 148.294 411.464C147.838 411.981 147.2 412.24 146.38 412.24C145.703 412.24 145.106 412.022 144.588 411.586C144.071 411.15 143.812 410.44 143.812 409.457C143.812 408.536 144.045 407.829 144.51 407.338C144.979 406.846 145.586 406.601 146.331 406.601ZM152.674 406.625C153.374 406.625 153.921 406.877 154.315 407.382C154.712 407.886 154.91 408.537 154.91 409.335C154.91 410.162 154.715 410.847 154.324 411.391C153.934 411.934 153.389 412.206 152.689 412.206C152.249 412.206 151.896 412.118 151.629 411.942C151.47 411.838 151.297 411.656 151.112 411.396V412.064H149.749V404.877H151.136V407.436C151.312 407.188 151.505 406.999 151.717 406.869C151.968 406.706 152.287 406.625 152.674 406.625ZM152.318 411.059C152.676 411.059 152.954 410.914 153.153 410.624C153.351 410.334 153.45 409.953 153.45 409.481C153.45 409.104 153.402 408.791 153.304 408.544C153.118 408.075 152.777 407.841 152.279 407.841C151.774 407.841 151.427 408.07 151.239 408.529C151.141 408.773 151.092 409.089 151.092 409.477C151.092 409.932 151.193 410.31 151.395 410.609C151.597 410.909 151.904 411.059 152.318 411.059Z" fill="black"/>
<path d="M64.6096 409.335V409.501C64.6226 410.058 64.6829 410.45 64.7903 410.678C64.901 410.902 65.1353 411.015 65.4934 411.015C65.8482 411.015 66.0826 410.891 66.1965 410.644C66.2649 410.497 66.2991 410.25 66.2991 409.901V404.867H67.803V409.877C67.803 410.489 67.6972 410.974 67.4856 411.332C67.1275 411.938 66.4814 412.24 65.5471 412.24C64.6129 412.24 63.9862 411.996 63.6672 411.508C63.3482 411.016 63.1887 410.347 63.1887 409.501V409.335H64.6096ZM72.1194 409.477C72.0315 409.532 71.942 409.577 71.8508 409.613C71.7629 409.646 71.6409 409.677 71.4846 409.706L71.1721 409.765C70.8792 409.817 70.6692 409.88 70.5422 409.955C70.3274 410.082 70.22 410.279 70.22 410.546C70.22 410.784 70.2851 410.956 70.4153 411.063C70.5487 411.168 70.7099 411.22 70.8987 411.22C71.1982 411.22 71.4732 411.132 71.7239 410.956C71.9778 410.78 72.1096 410.46 72.1194 409.994V409.477ZM71.2747 408.827C71.5318 408.795 71.7157 408.754 71.8264 408.705C72.025 408.62 72.1243 408.489 72.1243 408.31C72.1243 408.091 72.0478 407.942 71.8948 407.86C71.745 407.776 71.5237 407.733 71.2307 407.733C70.9019 407.733 70.6692 407.815 70.5325 407.978C70.4348 408.098 70.3697 408.261 70.3372 408.466H68.9944C69.0237 408 69.1539 407.618 69.385 407.318C69.7528 406.85 70.3844 406.615 71.2795 406.615C71.8622 406.615 72.3798 406.731 72.8323 406.962C73.2847 407.193 73.511 407.629 73.511 408.271V410.712C73.511 410.881 73.5142 411.086 73.5208 411.327C73.5305 411.509 73.5582 411.633 73.6038 411.698C73.6493 411.763 73.7177 411.817 73.8088 411.859V412.064H72.2952C72.2528 411.957 72.2236 411.856 72.2073 411.762C72.191 411.667 72.178 411.56 72.1682 411.439C71.9762 411.648 71.7548 411.825 71.5042 411.972C71.2047 412.144 70.8661 412.23 70.4885 412.23C70.0068 412.23 69.608 412.094 69.2922 411.82C68.9797 411.544 68.8235 411.153 68.8235 410.648C68.8235 409.994 69.0758 409.521 69.5803 409.228C69.857 409.068 70.2639 408.954 70.801 408.886L71.2747 408.827ZM77.7004 406.615C78.2506 406.615 78.6998 406.76 79.0481 407.05C79.3997 407.336 79.5754 407.813 79.5754 408.48V412.064H78.1497V408.827C78.1497 408.547 78.1122 408.332 78.0374 408.183C77.9006 407.909 77.6402 407.772 77.2561 407.772C76.7841 407.772 76.4602 407.973 76.2844 408.373C76.1933 408.585 76.1477 408.855 76.1477 409.184V412.064H74.761V406.752H76.1038V407.528C76.2828 407.255 76.4521 407.058 76.6116 406.938C76.898 406.723 77.261 406.615 77.7004 406.615Z" fill="black"/>
<path d="M34.7024 377.093C34.7024 377.907 34.7691 378.53 34.9026 378.963C35.0361 379.393 35.3095 379.607 35.7229 379.607C36.1363 379.607 36.4065 379.393 36.5334 378.963C36.6637 378.53 36.7288 377.907 36.7288 377.093C36.7288 376.24 36.6637 375.608 36.5334 375.198C36.4065 374.788 36.1363 374.583 35.7229 374.583C35.3095 374.583 35.0361 374.788 34.9026 375.198C34.7691 375.608 34.7024 376.24 34.7024 377.093ZM35.7229 373.436C36.6246 373.436 37.2561 373.753 37.6174 374.388C37.982 375.022 38.1643 375.924 38.1643 377.093C38.1643 378.261 37.982 379.161 37.6174 379.793C37.2561 380.424 36.6246 380.74 35.7229 380.74C34.8212 380.74 34.1881 380.424 33.8235 379.793C33.4622 379.161 33.2815 378.261 33.2815 377.093C33.2815 375.924 33.4622 375.022 33.8235 374.388C34.1881 373.753 34.8212 373.436 35.7229 373.436Z" fill="black"/>
<path d="M22.6624 325.682V324.734C23.1018 324.715 23.4094 324.686 23.5852 324.646C23.8652 324.585 24.093 324.461 24.2688 324.275C24.3892 324.148 24.4804 323.979 24.5422 323.768C24.578 323.641 24.5959 323.546 24.5959 323.484H25.7532V330.564H24.3274V325.682H22.6624ZM29.2688 327.093C29.2688 327.907 29.3355 328.53 29.469 328.963C29.6025 329.393 29.8759 329.607 30.2893 329.607C30.7027 329.607 30.9729 329.393 31.0999 328.963C31.2301 328.53 31.2952 327.907 31.2952 327.093C31.2952 326.24 31.2301 325.608 31.0999 325.198C30.9729 324.788 30.7027 324.583 30.2893 324.583C29.8759 324.583 29.6025 324.788 29.469 325.198C29.3355 325.608 29.2688 326.24 29.2688 327.093ZM30.2893 323.436C31.191 323.436 31.8225 323.753 32.1838 324.388C32.5484 325.022 32.7307 325.924 32.7307 327.093C32.7307 328.261 32.5484 329.161 32.1838 329.793C31.8225 330.424 31.191 330.74 30.2893 330.74C29.3876 330.74 28.7545 330.424 28.3899 329.793C28.0286 329.161 27.8479 328.261 27.8479 327.093C27.8479 325.924 28.0286 325.022 28.3899 324.388C28.7545 323.753 29.3876 323.436 30.2893 323.436ZM34.8352 327.093C34.8352 327.907 34.9019 328.53 35.0354 328.963C35.1689 329.393 35.4423 329.607 35.8557 329.607C36.2691 329.607 36.5393 329.393 36.6663 328.963C36.7965 328.53 36.8616 327.907 36.8616 327.093C36.8616 326.24 36.7965 325.608 36.6663 325.198C36.5393 324.788 36.2691 324.583 35.8557 324.583C35.4423 324.583 35.1689 324.788 35.0354 325.198C34.9019 325.608 34.8352 326.24 34.8352 327.093ZM35.8557 323.436C36.7574 323.436 37.3889 323.753 37.7502 324.388C38.1148 325.022 38.2971 325.924 38.2971 327.093C38.2971 328.261 38.1148 329.161 37.7502 329.793C37.3889 330.424 36.7574 330.74 35.8557 330.74C34.954 330.74 34.3209 330.424 33.9563 329.793C33.595 329.161 33.4143 328.261 33.4143 327.093C33.4143 325.924 33.595 325.022 33.9563 324.388C34.3209 323.753 34.954 323.436 35.8557 323.436Z" fill="black"/>
<path d="M22.2815 280.564C22.2945 280.057 22.4036 279.593 22.6086 279.173C22.8072 278.701 23.276 278.201 24.0149 277.674C24.6562 277.215 25.0712 276.886 25.26 276.688C25.5497 276.378 25.6946 276.04 25.6946 275.672C25.6946 275.372 25.6116 275.123 25.4456 274.925C25.2795 274.726 25.0419 274.627 24.7327 274.627C24.3095 274.627 24.0214 274.785 23.8684 275.101C23.7805 275.283 23.7284 275.573 23.7122 275.97H22.3596C22.3824 275.368 22.4915 274.881 22.6868 274.51C23.0579 273.803 23.717 273.45 24.6643 273.45C25.413 273.45 26.0087 273.659 26.4514 274.075C26.8941 274.489 27.1155 275.037 27.1155 275.721C27.1155 276.245 26.9592 276.71 26.6467 277.117C26.4417 277.387 26.1047 277.688 25.636 278.021L25.0793 278.416C24.731 278.663 24.4918 278.842 24.3616 278.953C24.2346 279.064 24.1272 279.192 24.0393 279.339H27.1301V280.564H22.2815ZM29.2688 277.093C29.2688 277.907 29.3355 278.53 29.469 278.963C29.6025 279.393 29.8759 279.607 30.2893 279.607C30.7027 279.607 30.9729 279.393 31.0999 278.963C31.2301 278.53 31.2952 277.907 31.2952 277.093C31.2952 276.24 31.2301 275.608 31.0999 275.198C30.9729 274.788 30.7027 274.583 30.2893 274.583C29.8759 274.583 29.6025 274.788 29.469 275.198C29.3355 275.608 29.2688 276.24 29.2688 277.093ZM30.2893 273.436C31.191 273.436 31.8225 273.753 32.1838 274.388C32.5484 275.022 32.7307 275.924 32.7307 277.093C32.7307 278.261 32.5484 279.161 32.1838 279.793C31.8225 280.424 31.191 280.74 30.2893 280.74C29.3876 280.74 28.7545 280.424 28.3899 279.793C28.0286 279.161 27.8479 278.261 27.8479 277.093C27.8479 275.924 28.0286 275.022 28.3899 274.388C28.7545 273.753 29.3876 273.436 30.2893 273.436ZM34.8352 277.093C34.8352 277.907 34.9019 278.53 35.0354 278.963C35.1689 279.393 35.4423 279.607 35.8557 279.607C36.2691 279.607 36.5393 279.393 36.6663 278.963C36.7965 278.53 36.8616 277.907 36.8616 277.093C36.8616 276.24 36.7965 275.608 36.6663 275.198C36.5393 274.788 36.2691 274.583 35.8557 274.583C35.4423 274.583 35.1689 274.788 35.0354 275.198C34.9019 275.608 34.8352 276.24 34.8352 277.093ZM35.8557 273.436C36.7574 273.436 37.3889 273.753 37.7502 274.388C38.1148 275.022 38.2971 275.924 38.2971 277.093C38.2971 278.261 38.1148 279.161 37.7502 279.793C37.3889 280.424 36.7574 280.74 35.8557 280.74C34.954 280.74 34.3209 280.424 33.9563 279.793C33.595 279.161 33.4143 278.261 33.4143 277.093C33.4143 275.924 33.595 275.022 33.9563 274.388C34.3209 273.753 34.954 273.436 35.8557 273.436Z" fill="black"/>
<path d="M23.5999 228.392C23.5999 228.675 23.6454 228.909 23.7366 229.095C23.9058 229.437 24.2135 229.607 24.6594 229.607C24.9329 229.607 25.1705 229.515 25.3723 229.329C25.5774 229.14 25.6799 228.87 25.6799 228.519C25.6799 228.053 25.4911 227.742 25.1135 227.586C24.8987 227.498 24.5601 227.454 24.0979 227.454V226.458C24.5504 226.451 24.8661 226.408 25.0452 226.326C25.3544 226.189 25.509 225.913 25.509 225.496C25.509 225.226 25.4293 225.006 25.2698 224.837C25.1135 224.668 24.8922 224.583 24.6057 224.583C24.2769 224.583 24.0344 224.687 23.8782 224.896C23.7252 225.104 23.6519 225.382 23.6584 225.73H22.3596C22.3726 225.379 22.4329 225.045 22.5403 224.729C22.6542 224.453 22.8333 224.197 23.0774 223.963C23.2597 223.797 23.4762 223.67 23.7268 223.582C23.9775 223.494 24.2851 223.45 24.6497 223.45C25.3267 223.45 25.872 223.626 26.2854 223.978C26.7021 224.326 26.9104 224.795 26.9104 225.384C26.9104 225.8 26.7867 226.152 26.5393 226.438C26.3831 226.618 26.2203 226.74 26.051 226.805C26.178 226.805 26.3603 226.914 26.5979 227.132C26.9527 227.461 27.1301 227.91 27.1301 228.479C27.1301 229.078 26.9218 229.606 26.5051 230.062C26.0917 230.514 25.4781 230.74 24.6643 230.74C23.6617 230.74 22.9651 230.413 22.5745 229.759C22.3694 229.41 22.2555 228.955 22.2327 228.392H23.5999ZM29.2688 227.093C29.2688 227.907 29.3355 228.53 29.469 228.963C29.6025 229.393 29.8759 229.607 30.2893 229.607C30.7027 229.607 30.9729 229.393 31.0999 228.963C31.2301 228.53 31.2952 227.907 31.2952 227.093C31.2952 226.24 31.2301 225.608 31.0999 225.198C30.9729 224.788 30.7027 224.583 30.2893 224.583C29.8759 224.583 29.6025 224.788 29.469 225.198C29.3355 225.608 29.2688 226.24 29.2688 227.093ZM30.2893 223.436C31.191 223.436 31.8225 223.753 32.1838 224.388C32.5484 225.022 32.7307 225.924 32.7307 227.093C32.7307 228.261 32.5484 229.161 32.1838 229.793C31.8225 230.424 31.191 230.74 30.2893 230.74C29.3876 230.74 28.7545 230.424 28.3899 229.793C28.0286 229.161 27.8479 228.261 27.8479 227.093C27.8479 225.924 28.0286 225.022 28.3899 224.388C28.7545 223.753 29.3876 223.436 30.2893 223.436ZM34.8352 227.093C34.8352 227.907 34.9019 228.53 35.0354 228.963C35.1689 229.393 35.4423 229.607 35.8557 229.607C36.2691 229.607 36.5393 229.393 36.6663 228.963C36.7965 228.53 36.8616 227.907 36.8616 227.093C36.8616 226.24 36.7965 225.608 36.6663 225.198C36.5393 224.788 36.2691 224.583 35.8557 224.583C35.4423 224.583 35.1689 224.788 35.0354 225.198C34.9019 225.608 34.8352 226.24 34.8352 227.093ZM35.8557 223.436C36.7574 223.436 37.3889 223.753 37.7502 224.388C38.1148 225.022 38.2971 225.924 38.2971 227.093C38.2971 228.261 38.1148 229.161 37.7502 229.793C37.3889 230.424 36.7574 230.74 35.8557 230.74C34.954 230.74 34.3209 230.424 33.9563 229.793C33.595 229.161 33.4143 228.261 33.4143 227.093C33.4143 225.924 33.595 225.022 33.9563 224.388C34.3209 223.753 34.954 223.436 35.8557 223.436Z" fill="black"/>
<path d="M27.1985 179.041H26.3977V180.564H25.0354V179.041H22.2327V177.825L24.8352 173.528H26.3977V177.952H27.1985V179.041ZM25.0354 177.952V174.896L23.2629 177.952H25.0354ZM29.2688 177.093C29.2688 177.907 29.3355 178.53 29.469 178.963C29.6025 179.393 29.8759 179.607 30.2893 179.607C30.7027 179.607 30.9729 179.393 31.0999 178.963C31.2301 178.53 31.2952 177.907 31.2952 177.093C31.2952 176.24 31.2301 175.608 31.0999 175.198C30.9729 174.788 30.7027 174.583 30.2893 174.583C29.8759 174.583 29.6025 174.788 29.469 175.198C29.3355 175.608 29.2688 176.24 29.2688 177.093ZM30.2893 173.436C31.191 173.436 31.8225 173.753 32.1838 174.388C32.5484 175.022 32.7307 175.924 32.7307 177.093C32.7307 178.261 32.5484 179.161 32.1838 179.793C31.8225 180.424 31.191 180.74 30.2893 180.74C29.3876 180.74 28.7545 180.424 28.3899 179.793C28.0286 179.161 27.8479 178.261 27.8479 177.093C27.8479 175.924 28.0286 175.022 28.3899 174.388C28.7545 173.753 29.3876 173.436 30.2893 173.436ZM34.8352 177.093C34.8352 177.907 34.9019 178.53 35.0354 178.963C35.1689 179.393 35.4423 179.607 35.8557 179.607C36.2691 179.607 36.5393 179.393 36.6663 178.963C36.7965 178.53 36.8616 177.907 36.8616 177.093C36.8616 176.24 36.7965 175.608 36.6663 175.198C36.5393 174.788 36.2691 174.583 35.8557 174.583C35.4423 174.583 35.1689 174.788 35.0354 175.198C34.9019 175.608 34.8352 176.24 34.8352 177.093ZM35.8557 173.436C36.7574 173.436 37.3889 173.753 37.7502 174.388C38.1148 175.022 38.2971 175.924 38.2971 177.093C38.2971 178.261 38.1148 179.161 37.7502 179.793C37.3889 180.424 36.7574 180.74 35.8557 180.74C34.954 180.74 34.3209 180.424 33.9563 179.793C33.595 179.161 33.4143 178.261 33.4143 177.093C33.4143 175.924 33.595 175.022 33.9563 174.388C34.3209 173.753 34.954 173.436 35.8557 173.436Z" fill="black"/>
<path d="M23.6194 128.67C23.6747 128.973 23.7805 129.207 23.9368 129.373C24.093 129.536 24.3209 129.617 24.6204 129.617C24.9654 129.617 25.2275 129.497 25.4065 129.256C25.5888 129.012 25.6799 128.706 25.6799 128.338C25.6799 127.977 25.5953 127.672 25.426 127.425C25.2568 127.174 24.9931 127.049 24.635 127.049C24.4657 127.049 24.3193 127.07 24.1956 127.112C23.9775 127.19 23.8131 127.335 23.7024 127.547L22.4524 127.488L22.9504 123.577H26.8518V124.759H23.9563L23.7024 126.307C23.9172 126.167 24.0849 126.074 24.2053 126.028C24.4071 125.953 24.6529 125.916 24.9426 125.916C25.5286 125.916 26.0396 126.113 26.4758 126.507C26.912 126.901 27.1301 127.474 27.1301 128.226C27.1301 128.88 26.9202 129.464 26.5002 129.979C26.0803 130.493 25.4521 130.75 24.6155 130.75C23.9417 130.75 23.3883 130.569 22.9553 130.208C22.5224 129.847 22.2815 129.334 22.2327 128.67H23.6194ZM29.2688 127.093C29.2688 127.907 29.3355 128.53 29.469 128.963C29.6025 129.393 29.8759 129.607 30.2893 129.607C30.7027 129.607 30.9729 129.393 31.0999 128.963C31.2301 128.53 31.2952 127.907 31.2952 127.093C31.2952 126.24 31.2301 125.608 31.0999 125.198C30.9729 124.788 30.7027 124.583 30.2893 124.583C29.8759 124.583 29.6025 124.788 29.469 125.198C29.3355 125.608 29.2688 126.24 29.2688 127.093ZM30.2893 123.436C31.191 123.436 31.8225 123.753 32.1838 124.388C32.5484 125.022 32.7307 125.924 32.7307 127.093C32.7307 128.261 32.5484 129.161 32.1838 129.793C31.8225 130.424 31.191 130.74 30.2893 130.74C29.3876 130.74 28.7545 130.424 28.3899 129.793C28.0286 129.161 27.8479 128.261 27.8479 127.093C27.8479 125.924 28.0286 125.022 28.3899 124.388C28.7545 123.753 29.3876 123.436 30.2893 123.436ZM34.8352 127.093C34.8352 127.907 34.9019 128.53 35.0354 128.963C35.1689 129.393 35.4423 129.607 35.8557 129.607C36.2691 129.607 36.5393 129.393 36.6663 128.963C36.7965 128.53 36.8616 127.907 36.8616 127.093C36.8616 126.24 36.7965 125.608 36.6663 125.198C36.5393 124.788 36.2691 124.583 35.8557 124.583C35.4423 124.583 35.1689 124.788 35.0354 125.198C34.9019 125.608 34.8352 126.24 34.8352 127.093ZM35.8557 123.436C36.7574 123.436 37.3889 123.753 37.7502 124.388C38.1148 125.022 38.2971 125.924 38.2971 127.093C38.2971 128.261 38.1148 129.161 37.7502 129.793C37.3889 130.424 36.7574 130.74 35.8557 130.74C34.954 130.74 34.3209 130.424 33.9563 129.793C33.595 129.161 33.4143 128.261 33.4143 127.093C33.4143 125.924 33.595 125.022 33.9563 124.388C34.3209 123.753 34.954 123.436 35.8557 123.436Z" fill="black"/>
<line x1="63.469" y1="376.564" x2="902.469" y2="376.565" stroke="#7C7C7C" stroke-linecap="round" stroke-linejoin="round" stroke-dasharray="3.5 3.5"/>
<line x1="63.469" y1="326.564" x2="902.469" y2="326.565" stroke="#7C7C7C" stroke-linecap="round" stroke-linejoin="round" stroke-dasharray="3.5 3.5"/>
<line x1="63.469" y1="276.564" x2="902.469" y2="276.565" stroke="#7C7C7C" stroke-linecap="round" stroke-linejoin="round" stroke-dasharray="3.5 3.5"/>
<line x1="63.469" y1="226.564" x2="902.469" y2="226.565" stroke="#7C7C7C" stroke-linecap="round" stroke-linejoin="round" stroke-dasharray="3.5 3.5"/>
<line x1="63.469" y1="176.564" x2="902.469" y2="176.565" stroke="#7C7C7C" stroke-linecap="round" stroke-linejoin="round" stroke-dasharray="3.5 3.5"/>
<line x1="63.469" y1="126.564" x2="902.469" y2="126.565" stroke="#7C7C7C" stroke-linecap="round" stroke-linejoin="round" stroke-dasharray="3.5 3.5"/>
<path d="M788.172 296.61C831.78 283.512 882.873 302.067 902.969 312.982V376.814H62.969V127.064C105.17 134.557 132.299 196.159 139.081 235.285C144.613 267.196 144.859 289.95 174.249 296.61C203.796 303.305 238.828 282 268.469 253.141C292.182 230.054 327.584 243.522 342.321 253.141C368.445 269.883 411.479 281.237 446.043 264.144C489.249 242.777 513.113 248.882 567.622 264.144C622.132 279.406 616.605 289.118 662.072 312.982C707.538 336.846 733.663 312.982 788.172 296.61Z" fill="url(#paint1_linear_1214_252)"/>
<path d="M902.969 312.982C882.873 302.067 831.78 283.512 788.172 296.61C733.663 312.982 707.538 336.846 662.072 312.982C616.605 289.118 622.132 279.406 567.622 264.144C513.113 248.882 489.249 242.777 446.043 264.144C411.479 281.237 368.445 269.883 342.321 253.141C327.584 243.522 292.182 230.054 268.469 253.141C238.828 282 203.796 303.305 174.249 296.61C144.859 289.95 144.613 267.196 139.081 235.285C132.299 196.159 105.17 134.557 62.969 127.064" stroke="black" stroke-width="3"/>
<path d="M176.883 269.521C133.611 256.433 82.9102 274.974 62.969 285.881V376.564H901.969V161.972C860.092 169.459 824.519 167.517 817.789 206.614C812.299 238.502 812.056 261.239 782.892 267.894C753.572 274.584 736.528 235.452 707.115 206.614C683.584 183.544 643.955 213.564 629.331 223.177C603.408 239.906 544.476 203.405 518.936 174.712C482.469 133.743 434.512 129.995 398.292 174.712C362.073 219.43 326.147 182.768 281.03 206.614C235.913 230.461 230.974 285.881 176.883 269.521Z" fill="url(#paint2_linear_1214_252)"/>
<path d="M62.969 286.064C82.9102 275.144 133.611 256.579 176.883 269.684C230.974 286.064 235.913 230.573 281.03 206.696C326.147 182.819 362.073 219.528 398.292 174.754C434.512 129.979 482.469 133.731 518.936 174.754C544.476 203.483 603.408 240.031 629.331 223.28C643.955 213.655 683.584 183.597 707.115 206.696C736.528 235.571 753.572 274.753 782.892 268.055C812.056 261.391 812.3 238.625 817.789 206.696C824.519 167.549 860.092 169.493 901.969 161.997" stroke="#D33A35" stroke-width="3"/>
<defs>
<filter id="filter0_b_1214_252" x="-119.531" y="-119.936" width="1164" height="685" filterUnits="userSpaceOnUse" color-interpolation-filters="sRGB">
<feFlood flood-opacity="0" result="BackgroundImageFix"/>
<feGaussianBlur in="BackgroundImageFix" stdDeviation="60"/>
<feComposite in2="SourceAlpha" operator="in" result="effect1_backgroundBlur_1214_252"/>
<feBlend mode="normal" in="SourceGraphic" in2="effect1_backgroundBlur_1214_252" result="shape"/>
</filter>
<linearGradient id="paint0_linear_1214_252" x1="462.469" y1="-2.71678" x2="758.485" y2="460.03" gradientUnits="userSpaceOnUse">
<stop stop-color="white"/>
<stop offset="1" stop-color="#E9E8E8" stop-opacity="0.71"/>
</linearGradient>
<linearGradient id="paint1_linear_1214_252" x1="482.969" y1="127.064" x2="482.969" y2="376.814" gradientUnits="userSpaceOnUse">
<stop stop-color="#787878" stop-opacity="0.36"/>
<stop offset="1" stop-color="#303030" stop-opacity="0"/>
</linearGradient>
<linearGradient id="paint2_linear_1214_252" x1="482.469" y1="142.564" x2="482.469" y2="376.564" gradientUnits="userSpaceOnUse">
<stop stop-color="#D33A35"/>
<stop offset="1" stop-color="#D33A35" stop-opacity="0"/>
</linearGradient>
</defs>
</svg>
