<svg width="58" height="58" viewBox="0 0 58 58" fill="none" xmlns="http://www.w3.org/2000/svg">
<g clip-path="url(#clip0_1213_66)">
<path d="M51.747 9.65976C48.8662 8.66958 46.5572 6.34878 45.5714 3.44953C44.9452 1.60699 43.2191 0.369141 41.2781 0.369141H16.2573C14.3159 0.369141 12.5897 1.60699 11.9636 3.44953C10.9778 6.34878 8.67053 8.66958 5.78922 9.65976C3.95542 10.2894 2.72327 12.0204 2.72327 13.9658V20.295C2.72327 28.5543 5.19896 36.5073 9.88124 43.2934C14.1649 49.5027 20.0693 54.3622 26.9542 57.3464C27.5309 57.5962 28.1492 57.7205 28.7675 57.7205C29.3862 57.7205 30.0044 57.5962 30.5803 57.3464C37.4661 54.3622 43.3705 49.5027 47.6541 43.2934C52.3364 36.5073 54.8121 28.5543 54.8121 20.295V13.9658C54.8121 12.0204 53.5799 10.2894 51.747 9.65976ZM39.9536 35.8711C39.9536 40.0261 36.573 43.4067 32.4184 43.4067H25.1169C20.9623 43.4067 17.5814 40.0261 17.5814 35.8711V26.2007C17.5814 23.9692 19.3963 22.1546 21.6274 22.1546H21.7416V17.3691C21.7416 13.4954 24.8938 10.3432 28.7675 10.3432C32.6411 10.3432 35.7933 13.4954 35.7933 17.3691V22.1546H35.9075C38.139 22.1546 39.9536 23.9692 39.9536 26.2007V35.8711Z" fill="#D33A35"/>
<path d="M32.4329 17.3695C32.4329 15.3489 30.7886 13.7041 28.7675 13.7041C26.7469 13.7041 25.1025 15.3489 25.1025 17.3695V22.1551H32.4329V17.3695Z" fill="#D33A35"/>
<path d="M35.9075 25.5151H21.6274C21.2498 25.5151 20.9418 25.8232 20.9418 26.2008V35.8712C20.9418 38.1732 22.8149 40.0464 25.1169 40.0464H32.4184C34.7204 40.0464 36.5931 38.1732 36.5931 35.8712V26.2008C36.5931 25.8232 36.2864 25.5151 35.9075 25.5151ZM30.4477 34.3682C30.4477 35.2967 29.6951 36.0484 28.7675 36.0484C27.8403 36.0484 27.0872 35.2967 27.0872 34.3682V31.1933C27.0872 30.2661 27.8403 29.5131 28.7675 29.5131C29.6951 29.5131 30.4477 30.2661 30.4477 31.1933V34.3682Z" fill="#D33A35"/>
</g>
<defs>
<clipPath id="clip0_1213_66">
<rect width="57.3513" height="57.3513" fill="white" transform="translate(0.146973 0.369141)"/>
</clipPath>
</defs>
</svg>
