<svg width="58" height="58" viewBox="0 0 58 58" fill="none" xmlns="http://www.w3.org/2000/svg">
<g clip-path="url(#clip0_1213_74)">
<path d="M55.5998 24.2431C54.3393 24.0968 53.1987 25.0005 53.0529 26.2611L51.7648 31.8409C51.6483 32.3466 51.3602 32.7967 50.95 33.1141L42.5981 39.5824C41.6927 40.2996 40.8564 39.7242 40.2899 38.8941C39.613 38.0399 39.7566 36.7986 40.6108 36.1217L43.2654 33.9771C44.1231 33.284 44.2895 32.0414 43.6442 31.1474C42.9519 30.1885 41.599 30.0007 40.6721 30.7354C38.7412 32.2652 37.8708 32.9543 33.9004 36.1002C31.8973 37.6874 30.7046 40.0841 30.6469 42.6394V57.5557H40.7693V49.9351C40.842 48.7634 41.099 47.6772 41.9948 46.9679C42.8127 46.3199 48.7143 41.7589 53.4181 38.0674C54.9509 36.8643 55.9987 35.1492 56.3691 33.2359L57.6174 26.79C57.7934 25.2742 56.4751 24.2431 55.5998 24.2431Z" fill="#D33A35"/>
<path d="M24.159 36.1002C19.9951 32.8007 20.5468 33.2385 17.3878 30.7354C16.4604 30.0007 15.1075 30.1885 14.4153 31.1474C13.7699 32.0414 13.9363 33.284 14.794 33.9771L17.4486 36.1217C18.3029 36.7986 18.4465 38.0399 17.77 38.8941C17.1172 39.7829 16.3667 40.2996 15.4613 39.5824L7.10991 33.1141C6.69921 32.7967 6.41155 32.3466 6.29465 31.8409L5.00652 26.2611C4.86072 25.0005 3.72058 24.0968 2.46004 24.2431C1.55721 24.2431 0.269082 25.2956 0.442029 26.79L1.69031 33.2359C2.06116 35.1492 3.10892 36.8643 4.6418 38.0674C9.34508 41.7589 15.2472 46.3199 16.0646 46.9679C16.9604 47.6776 17.2179 48.7634 17.2906 49.9351V57.5557H27.413V42.6394C27.3552 40.0841 26.1625 37.6874 24.159 36.1002Z" fill="#D33A35"/>
<path d="M32.5152 21.4856V22.212C32.5152 22.7041 32.914 23.103 33.4062 23.103H37.0512C37.5429 23.103 37.9417 22.705 37.9422 22.2133L37.9457 18.5669C37.9466 18.0752 38.345 17.6768 38.8367 17.6768H38.9094C40.9208 17.6768 42.5351 15.9736 42.3889 13.9311C42.2571 12.0961 40.6774 10.7007 38.8376 10.7007C38.3459 10.7007 37.947 10.3018 37.947 9.80969V6.16467C37.947 5.67253 37.5481 5.27366 37.056 5.27366H33.4114C32.9193 5.27366 32.5208 4.87479 32.5208 4.38266V3.5547C32.5208 1.63564 30.9512 0.111958 29.033 0.168002H29.0269C27.1087 0.111958 25.539 1.63608 25.539 3.55514V4.38266C25.539 4.87479 25.1402 5.27366 24.648 5.27366H21.0039C20.5117 5.27366 20.1129 5.67253 20.1129 6.16467V9.80969C20.1129 10.3018 19.714 10.7007 19.2219 10.7007C17.3216 10.7007 15.7152 12.1907 15.6631 14.09C15.6088 16.0616 17.1912 17.6768 19.1501 17.6768H19.2223C19.714 17.6768 20.1129 18.0757 20.1129 18.5678V22.2124C20.1129 22.7045 20.5117 23.1034 21.0039 23.1034H24.6537C25.1459 23.1034 25.5447 22.7045 25.5447 22.2124V21.4856C25.5447 19.5604 27.1052 17.9991 29.0299 17.9973C30.9547 17.9986 32.5152 19.5604 32.5152 21.4856Z" fill="#D33A35"/>
<path d="M45.7441 8.39946L48.7669 5.37661C49.4377 4.70583 49.4377 3.61868 48.7669 2.9479C48.0966 2.27713 47.0094 2.27713 46.3387 2.9479L43.3158 5.97076C42.6451 6.64153 42.6451 7.72869 43.3158 8.39946C43.9862 9.06979 45.0738 9.06979 45.7441 8.39946Z" fill="#D33A35"/>
<path d="M46.5953 25.8231C47.266 26.4938 48.3532 26.4938 49.024 25.8231C49.6943 25.1527 49.6943 24.0656 49.024 23.3948L45.7441 20.1154C45.0738 19.4446 43.9866 19.4446 43.3158 20.1154C42.6451 20.7862 42.6451 21.8733 43.3158 22.5436L46.5953 25.8231Z" fill="#D33A35"/>
<path d="M46.0922 14.5287C46.0922 15.4771 46.861 16.2459 47.8094 16.2459H51.3997C52.348 16.2459 53.1169 15.4771 53.1169 14.5287C53.1169 13.5804 52.348 12.8115 51.3997 12.8115H47.8094C46.861 12.8115 46.0922 13.5804 46.0922 14.5287Z" fill="#D33A35"/>
<path d="M12.3154 20.3717L9.29251 23.3946C8.62174 24.0649 8.62174 25.1521 9.29251 25.8228C9.96328 26.4936 11.0504 26.4936 11.7208 25.8228L14.7441 22.8C15.4144 22.1292 15.4144 21.0421 14.7441 20.3717C14.0733 19.701 12.9861 19.701 12.3154 20.3717Z" fill="#D33A35"/>
<path d="M12.3153 8.65603C12.9857 9.32637 14.0733 9.32637 14.744 8.65603C15.4144 7.98526 15.4144 6.8981 14.744 6.22733L11.4642 2.9479C10.7938 2.27713 9.70625 2.27713 9.03592 2.9479C8.36514 3.61868 8.36514 4.70583 9.03592 5.37661L12.3153 8.65603Z" fill="#D33A35"/>
<path d="M6.65984 15.9593H10.2501C11.1985 15.9593 11.9673 15.19 11.9673 14.2416C11.9673 13.2933 11.1985 12.5244 10.2501 12.5244H6.65984C5.71148 12.5244 4.94263 13.2933 4.94263 14.2416C4.94263 15.19 5.71148 15.9593 6.65984 15.9593Z" fill="#D33A35"/>
</g>
<defs>
<clipPath id="clip0_1213_74">
<rect width="57.3887" height="57.3887" fill="white" transform="translate(0.314087 0.166992)"/>
</clipPath>
</defs>
</svg>
