<svg width="383" height="81" viewBox="0 0 383 81" fill="none" xmlns="http://www.w3.org/2000/svg">
<g filter="url(#filter0_b_1212_2373)">
<rect x="0.412842" y="0.291992" width="382" height="80" rx="20" fill="url(#paint0_linear_1212_2373)"/>
</g>
<path d="M28.2008 22.452V23.568H25.9808V30.792H24.6128V23.568H22.3808V22.452H28.2008ZM32.4543 30.9C31.8303 30.9 31.2663 30.76 30.7623 30.48C30.2583 30.192 29.8623 29.792 29.5743 29.28C29.2863 28.76 29.1423 28.16 29.1423 27.48C29.1423 26.808 29.2903 26.212 29.5863 25.692C29.8823 25.172 30.2863 24.772 30.7983 24.492C31.3103 24.212 31.8823 24.072 32.5143 24.072C33.1463 24.072 33.7183 24.212 34.2303 24.492C34.7423 24.772 35.1463 25.172 35.4423 25.692C35.7383 26.212 35.8863 26.808 35.8863 27.48C35.8863 28.152 35.7343 28.748 35.4303 29.268C35.1263 29.788 34.7103 30.192 34.1823 30.48C33.6623 30.76 33.0863 30.9 32.4543 30.9ZM32.4543 29.712C32.8063 29.712 33.1343 29.628 33.4383 29.46C33.7503 29.292 34.0023 29.04 34.1943 28.704C34.3863 28.368 34.4823 27.96 34.4823 27.48C34.4823 27 34.3903 26.596 34.2063 26.268C34.0223 25.932 33.7783 25.68 33.4743 25.512C33.1703 25.344 32.8423 25.26 32.4903 25.26C32.1383 25.26 31.8103 25.344 31.5063 25.512C31.2103 25.68 30.9743 25.932 30.7983 26.268C30.6223 26.596 30.5343 27 30.5343 27.48C30.5343 28.192 30.7143 28.744 31.0743 29.136C31.4423 29.52 31.9023 29.712 32.4543 29.712ZM38.8346 25.296V28.956C38.8346 29.204 38.8906 29.384 39.0026 29.496C39.1226 29.6 39.3226 29.652 39.6026 29.652H40.4426V30.792H39.3626C38.7466 30.792 38.2746 30.648 37.9466 30.36C37.6186 30.072 37.4546 29.604 37.4546 28.956V25.296H36.6746V24.18H37.4546V22.536H38.8346V24.18H40.4426V25.296H38.8346ZM41.2475 27.456C41.2475 26.792 41.3835 26.204 41.6555 25.692C41.9355 25.18 42.3115 24.784 42.7835 24.504C43.2635 24.216 43.7915 24.072 44.3675 24.072C44.8875 24.072 45.3395 24.176 45.7235 24.384C46.1155 24.584 46.4275 24.836 46.6595 25.14V24.18H48.0395V30.792H46.6595V29.808C46.4275 30.12 46.1115 30.38 45.7115 30.588C45.3115 30.796 44.8555 30.9 44.3435 30.9C43.7755 30.9 43.2555 30.756 42.7835 30.468C42.3115 30.172 41.9355 29.764 41.6555 29.244C41.3835 28.716 41.2475 28.12 41.2475 27.456ZM46.6595 27.48C46.6595 27.024 46.5635 26.628 46.3715 26.292C46.1875 25.956 45.9435 25.7 45.6395 25.524C45.3355 25.348 45.0075 25.26 44.6555 25.26C44.3035 25.26 43.9755 25.348 43.6715 25.524C43.3675 25.692 43.1195 25.944 42.9275 26.28C42.7435 26.608 42.6515 27 42.6515 27.456C42.6515 27.912 42.7435 28.312 42.9275 28.656C43.1195 29 43.3675 29.264 43.6715 29.448C43.9835 29.624 44.3115 29.712 44.6555 29.712C45.0075 29.712 45.3355 29.624 45.6395 29.448C45.9435 29.272 46.1875 29.016 46.3715 28.68C46.5635 28.336 46.6595 27.936 46.6595 27.48ZM51.2043 21.912V30.792H49.8363V21.912H51.2043ZM58.8655 30.876C58.3055 30.876 57.8015 30.78 57.3535 30.588C56.9055 30.388 56.5535 30.108 56.2975 29.748C56.0415 29.388 55.9135 28.968 55.9135 28.488H57.3775C57.4095 28.848 57.5495 29.144 57.7975 29.376C58.0535 29.608 58.4095 29.724 58.8655 29.724C59.3375 29.724 59.7055 29.612 59.9695 29.388C60.2335 29.156 60.3655 28.86 60.3655 28.5C60.3655 28.22 60.2815 27.992 60.1135 27.816C59.9535 27.64 59.7495 27.504 59.5015 27.408C59.2615 27.312 58.9255 27.208 58.4935 27.096C57.9495 26.952 57.5055 26.808 57.1615 26.664C56.8255 26.512 56.5375 26.28 56.2975 25.968C56.0575 25.656 55.9375 25.24 55.9375 24.72C55.9375 24.24 56.0575 23.82 56.2975 23.46C56.5375 23.1 56.8735 22.824 57.3055 22.632C57.7375 22.44 58.2375 22.344 58.8055 22.344C59.6135 22.344 60.2735 22.548 60.7855 22.956C61.3055 23.356 61.5935 23.908 61.6495 24.612H60.1375C60.1135 24.308 59.9695 24.048 59.7055 23.832C59.4415 23.616 59.0935 23.508 58.6615 23.508C58.2695 23.508 57.9495 23.608 57.7015 23.808C57.4535 24.008 57.3295 24.296 57.3295 24.672C57.3295 24.928 57.4055 25.14 57.5575 25.308C57.7175 25.468 57.9175 25.596 58.1575 25.692C58.3975 25.788 58.7255 25.892 59.1415 26.004C59.6935 26.156 60.1415 26.308 60.4855 26.46C60.8375 26.612 61.1335 26.848 61.3735 27.168C61.6215 27.48 61.7455 27.9 61.7455 28.428C61.7455 28.852 61.6295 29.252 61.3975 29.628C61.1735 30.004 60.8415 30.308 60.4015 30.54C59.9695 30.764 59.4575 30.876 58.8655 30.876ZM62.9037 27.456C62.9037 26.792 63.0397 26.204 63.3117 25.692C63.5917 25.18 63.9677 24.784 64.4397 24.504C64.9197 24.216 65.4477 24.072 66.0237 24.072C66.5437 24.072 66.9957 24.176 67.3797 24.384C67.7717 24.584 68.0837 24.836 68.3157 25.14V24.18H69.6957V30.792H68.3157V29.808C68.0837 30.12 67.7677 30.38 67.3677 30.588C66.9677 30.796 66.5117 30.9 65.9997 30.9C65.4317 30.9 64.9117 30.756 64.4397 30.468C63.9677 30.172 63.5917 29.764 63.3117 29.244C63.0397 28.716 62.9037 28.12 62.9037 27.456ZM68.3157 27.48C68.3157 27.024 68.2197 26.628 68.0277 26.292C67.8437 25.956 67.5997 25.7 67.2957 25.524C66.9917 25.348 66.6637 25.26 66.3117 25.26C65.9597 25.26 65.6317 25.348 65.3277 25.524C65.0237 25.692 64.7757 25.944 64.5837 26.28C64.3997 26.608 64.3077 27 64.3077 27.456C64.3077 27.912 64.3997 28.312 64.5837 28.656C64.7757 29 65.0237 29.264 65.3277 29.448C65.6397 29.624 65.9677 29.712 66.3117 29.712C66.6637 29.712 66.9917 29.624 67.2957 29.448C67.5997 29.272 67.8437 29.016 68.0277 28.68C68.2197 28.336 68.3157 27.936 68.3157 27.48ZM72.8605 21.912V30.792H71.4925V21.912H72.8605ZM80.7166 27.324C80.7166 27.572 80.7006 27.796 80.6686 27.996H75.6166C75.6566 28.524 75.8526 28.948 76.2046 29.268C76.5566 29.588 76.9886 29.748 77.5006 29.748C78.2366 29.748 78.7566 29.44 79.0606 28.824H80.5366C80.3366 29.432 79.9726 29.932 79.4446 30.324C78.9246 30.708 78.2766 30.9 77.5006 30.9C76.8686 30.9 76.3006 30.76 75.7966 30.48C75.3006 30.192 74.9086 29.792 74.6206 29.28C74.3406 28.76 74.2006 28.16 74.2006 27.48C74.2006 26.8 74.3366 26.204 74.6086 25.692C74.8886 25.172 75.2766 24.772 75.7726 24.492C76.2766 24.212 76.8526 24.072 77.5006 24.072C78.1246 24.072 78.6806 24.208 79.1686 24.48C79.6566 24.752 80.0366 25.136 80.3086 25.632C80.5806 26.12 80.7166 26.684 80.7166 27.324ZM79.2886 26.892C79.2806 26.388 79.1006 25.984 78.7486 25.68C78.3966 25.376 77.9606 25.224 77.4406 25.224C76.9686 25.224 76.5646 25.376 76.2286 25.68C75.8926 25.976 75.6926 26.38 75.6286 26.892H79.2886ZM84.4628 30.9C83.9428 30.9 83.4748 30.808 83.0588 30.624C82.6508 30.432 82.3268 30.176 82.0868 29.856C81.8468 29.528 81.7188 29.164 81.7028 28.764H83.1188C83.1428 29.044 83.2748 29.28 83.5148 29.472C83.7628 29.656 84.0708 29.748 84.4388 29.748C84.8228 29.748 85.1188 29.676 85.3268 29.532C85.5428 29.38 85.6508 29.188 85.6508 28.956C85.6508 28.708 85.5308 28.524 85.2908 28.404C85.0588 28.284 84.6868 28.152 84.1748 28.008C83.6788 27.872 83.2748 27.74 82.9628 27.612C82.6508 27.484 82.3788 27.288 82.1468 27.024C81.9228 26.76 81.8108 26.412 81.8108 25.98C81.8108 25.628 81.9148 25.308 82.1228 25.02C82.3308 24.724 82.6268 24.492 83.0108 24.324C83.4028 24.156 83.8508 24.072 84.3548 24.072C85.1068 24.072 85.7108 24.264 86.1668 24.648C86.6308 25.024 86.8788 25.54 86.9108 26.196H85.5428C85.5188 25.9 85.3988 25.664 85.1828 25.488C84.9668 25.312 84.6748 25.224 84.3068 25.224C83.9468 25.224 83.6708 25.292 83.4788 25.428C83.2868 25.564 83.1908 25.744 83.1908 25.968C83.1908 26.144 83.2548 26.292 83.3828 26.412C83.5108 26.532 83.6668 26.628 83.8508 26.7C84.0348 26.764 84.3068 26.848 84.6668 26.952C85.1468 27.08 85.5388 27.212 85.8428 27.348C86.1548 27.476 86.4228 27.668 86.6468 27.924C86.8708 28.18 86.9868 28.52 86.9948 28.944C86.9948 29.32 86.8908 29.656 86.6828 29.952C86.4748 30.248 86.1788 30.48 85.7948 30.648C85.4188 30.816 84.9748 30.9 84.4628 30.9Z" fill="black"/>
<path d="M32.5868 52.12C32.5868 52.78 32.4128 53.392 32.0648 53.956C31.7288 54.508 31.2248 54.964 30.5528 55.324C29.8928 55.672 29.1068 55.864 28.1948 55.9V57.358H27.0428V55.882C25.7708 55.774 24.7448 55.396 23.9648 54.748C23.1848 54.088 22.7708 53.194 22.7228 52.066H25.9988C26.0708 52.786 26.4188 53.248 27.0428 53.452V50.608C26.1068 50.368 25.3568 50.134 24.7928 49.906C24.2408 49.678 23.7548 49.312 23.3348 48.808C22.9148 48.304 22.7048 47.614 22.7048 46.738C22.7048 45.646 23.1068 44.77 23.9108 44.11C24.7268 43.45 25.7708 43.078 27.0428 42.994V41.536H28.1948V42.994C29.4548 43.09 30.4508 43.456 31.1828 44.092C31.9148 44.728 32.3228 45.61 32.4068 46.738H29.1128C29.0408 46.09 28.7348 45.67 28.1948 45.478V48.268C29.1908 48.544 29.9588 48.79 30.4988 49.006C31.0388 49.222 31.5188 49.582 31.9388 50.086C32.3708 50.578 32.5868 51.256 32.5868 52.12ZM25.9628 46.594C25.9628 46.894 26.0528 47.146 26.2328 47.35C26.4248 47.554 26.6948 47.734 27.0428 47.89V45.388C26.7068 45.448 26.4428 45.58 26.2508 45.784C26.0588 45.976 25.9628 46.246 25.9628 46.594ZM28.1948 53.506C28.5548 53.446 28.8368 53.302 29.0408 53.074C29.2568 52.846 29.3648 52.564 29.3648 52.228C29.3648 51.916 29.2628 51.664 29.0588 51.472C28.8668 51.268 28.5788 51.094 28.1948 50.95V53.506ZM34.2465 45.514V42.652H39.2325V55.792H36.0285V45.514H34.2465ZM49.7261 44.956L45.2081 55.792H42.0581L46.6301 45.298H41.0321V42.67H49.7261V44.956ZM51.0789 46.36C51.1269 45.076 51.5469 44.086 52.3389 43.39C53.1309 42.694 54.2049 42.346 55.5609 42.346C56.4609 42.346 57.2289 42.502 57.8649 42.814C58.5129 43.126 58.9989 43.552 59.3229 44.092C59.6589 44.632 59.8269 45.238 59.8269 45.91C59.8269 46.702 59.6289 47.35 59.2329 47.854C58.8369 48.346 58.3749 48.682 57.8469 48.862V48.934C58.5309 49.162 59.0709 49.54 59.4669 50.068C59.8629 50.596 60.0609 51.274 60.0609 52.102C60.0609 52.846 59.8869 53.506 59.5389 54.082C59.2029 54.646 58.7049 55.09 58.0449 55.414C57.3969 55.738 56.6229 55.9 55.7229 55.9C54.2829 55.9 53.1309 55.546 52.2669 54.838C51.4149 54.13 50.9649 53.062 50.9169 51.634H53.9049C53.9169 52.162 54.0669 52.582 54.3549 52.894C54.6429 53.194 55.0629 53.344 55.6149 53.344C56.0829 53.344 56.4429 53.212 56.6949 52.948C56.9589 52.672 57.0909 52.312 57.0909 51.868C57.0909 51.292 56.9049 50.878 56.5329 50.626C56.1729 50.362 55.5909 50.23 54.7869 50.23H54.2109V47.728H54.7869C55.3989 47.728 55.8909 47.626 56.2629 47.422C56.6469 47.206 56.8389 46.828 56.8389 46.288C56.8389 45.856 56.7189 45.52 56.4789 45.28C56.2389 45.04 55.9089 44.92 55.4889 44.92C55.0329 44.92 54.6909 45.058 54.4629 45.334C54.2469 45.61 54.1209 45.952 54.0849 46.36H51.0789ZM65.4873 52.948L63.4893 58.114H61.5273L62.5713 52.948H65.4873ZM67.0373 49.042C67.0373 46.978 67.4333 45.352 68.2253 44.164C69.0293 42.976 70.3193 42.382 72.0953 42.382C73.8713 42.382 75.1553 42.976 75.9473 44.164C76.7513 45.352 77.1533 46.978 77.1533 49.042C77.1533 51.13 76.7513 52.768 75.9473 53.956C75.1553 55.144 73.8713 55.738 72.0953 55.738C70.3193 55.738 69.0293 55.144 68.2253 53.956C67.4333 52.768 67.0373 51.13 67.0373 49.042ZM74.1293 49.042C74.1293 47.83 73.9973 46.9 73.7333 46.252C73.4693 45.592 72.9233 45.262 72.0953 45.262C71.2673 45.262 70.7213 45.592 70.4573 46.252C70.1933 46.9 70.0613 47.83 70.0613 49.042C70.0613 49.858 70.1093 50.536 70.2053 51.076C70.3013 51.604 70.4933 52.036 70.7813 52.372C71.0813 52.696 71.5193 52.858 72.0953 52.858C72.6713 52.858 73.1033 52.696 73.3913 52.372C73.6913 52.036 73.8893 51.604 73.9853 51.076C74.0813 50.536 74.1293 49.858 74.1293 49.042ZM78.7795 49.042C78.7795 46.978 79.1755 45.352 79.9675 44.164C80.7715 42.976 82.0615 42.382 83.8375 42.382C85.6135 42.382 86.8975 42.976 87.6895 44.164C88.4935 45.352 88.8955 46.978 88.8955 49.042C88.8955 51.13 88.4935 52.768 87.6895 53.956C86.8975 55.144 85.6135 55.738 83.8375 55.738C82.0615 55.738 80.7715 55.144 79.9675 53.956C79.1755 52.768 78.7795 51.13 78.7795 49.042ZM85.8715 49.042C85.8715 47.83 85.7395 46.9 85.4755 46.252C85.2115 45.592 84.6655 45.262 83.8375 45.262C83.0095 45.262 82.4635 45.592 82.1995 46.252C81.9355 46.9 81.8035 47.83 81.8035 49.042C81.8035 49.858 81.8515 50.536 81.9475 51.076C82.0435 51.604 82.2355 52.036 82.5235 52.372C82.8235 52.696 83.2615 52.858 83.8375 52.858C84.4135 52.858 84.8455 52.696 85.1335 52.372C85.4335 52.036 85.6315 51.604 85.7275 51.076C85.8235 50.536 85.8715 49.858 85.8715 49.042ZM90.5217 49.042C90.5217 46.978 90.9177 45.352 91.7097 44.164C92.5137 42.976 93.8037 42.382 95.5797 42.382C97.3557 42.382 98.6397 42.976 99.4317 44.164C100.236 45.352 100.638 46.978 100.638 49.042C100.638 51.13 100.236 52.768 99.4317 53.956C98.6397 55.144 97.3557 55.738 95.5797 55.738C93.8037 55.738 92.5137 55.144 91.7097 53.956C90.9177 52.768 90.5217 51.13 90.5217 49.042ZM97.6137 49.042C97.6137 47.83 97.4817 46.9 97.2177 46.252C96.9537 45.592 96.4077 45.262 95.5797 45.262C94.7517 45.262 94.2057 45.592 93.9417 46.252C93.6777 46.9 93.5457 47.83 93.5457 49.042C93.5457 49.858 93.5937 50.536 93.6897 51.076C93.7857 51.604 93.9777 52.036 94.2657 52.372C94.5657 52.696 95.0037 52.858 95.5797 52.858C96.1557 52.858 96.5877 52.696 96.8757 52.372C97.1757 52.036 97.3737 51.604 97.4697 51.076C97.5657 50.536 97.6137 49.858 97.6137 49.042Z" fill="black"/>
<path d="M115.379 51.97H112.943V54.462H110.675V51.97H108.239V49.828H110.675V47.322H112.943V49.828H115.379V51.97ZM118.514 50.304C117.637 49.8373 117.198 49.1047 117.198 48.106C117.198 47.602 117.329 47.1447 117.59 46.734C117.851 46.314 118.248 45.9827 118.78 45.74C119.312 45.488 119.965 45.362 120.74 45.362C121.515 45.362 122.163 45.488 122.686 45.74C123.218 45.9827 123.615 46.314 123.876 46.734C124.137 47.1447 124.268 47.602 124.268 48.106C124.268 48.61 124.147 49.0487 123.904 49.422C123.671 49.7953 123.353 50.0893 122.952 50.304C123.456 50.5467 123.843 50.8827 124.114 51.312C124.385 51.732 124.52 52.2267 124.52 52.796C124.52 53.4587 124.352 54.0327 124.016 54.518C123.68 54.994 123.223 55.358 122.644 55.61C122.075 55.862 121.44 55.988 120.74 55.988C120.04 55.988 119.401 55.862 118.822 55.61C118.253 55.358 117.8 54.994 117.464 54.518C117.128 54.0327 116.96 53.4587 116.96 52.796C116.96 52.2173 117.095 51.718 117.366 51.298C117.637 50.8687 118.019 50.5373 118.514 50.304ZM121.944 48.47C121.944 48.0873 121.832 47.7933 121.608 47.588C121.393 47.3733 121.104 47.266 120.74 47.266C120.376 47.266 120.082 47.3733 119.858 47.588C119.643 47.8027 119.536 48.1013 119.536 48.484C119.536 48.848 119.648 49.1373 119.872 49.352C120.096 49.5573 120.385 49.66 120.74 49.66C121.095 49.66 121.384 49.5527 121.608 49.338C121.832 49.1233 121.944 48.834 121.944 48.47ZM120.74 51.34C120.301 51.34 119.947 51.4613 119.676 51.704C119.405 51.9373 119.27 52.264 119.27 52.684C119.27 53.076 119.401 53.398 119.662 53.65C119.933 53.902 120.292 54.028 120.74 54.028C121.188 54.028 121.538 53.902 121.79 53.65C122.051 53.398 122.182 53.076 122.182 52.684C122.182 52.2733 122.047 51.9467 121.776 51.704C121.515 51.4613 121.169 51.34 120.74 51.34ZM125.716 48.148C125.716 47.392 125.931 46.8087 126.36 46.398C126.799 45.9873 127.363 45.782 128.054 45.782C128.745 45.782 129.305 45.9873 129.734 46.398C130.163 46.8087 130.378 47.392 130.378 48.148C130.378 48.904 130.163 49.4873 129.734 49.898C129.305 50.3087 128.745 50.514 128.054 50.514C127.363 50.514 126.799 50.3087 126.36 49.898C125.931 49.4873 125.716 48.904 125.716 48.148ZM135.222 45.936L129.832 55.792H127.522L132.912 45.936H135.222ZM128.04 47.182C127.592 47.182 127.368 47.504 127.368 48.148C127.368 48.7827 127.592 49.1 128.04 49.1C128.255 49.1 128.423 49.0207 128.544 48.862C128.665 48.7033 128.726 48.4653 128.726 48.148C128.726 47.504 128.497 47.182 128.04 47.182ZM132.38 53.58C132.38 52.824 132.595 52.2407 133.024 51.83C133.453 51.4193 134.013 51.214 134.704 51.214C135.395 51.214 135.955 51.4193 136.384 51.83C136.813 52.2407 137.028 52.824 137.028 53.58C137.028 54.336 136.813 54.9193 136.384 55.33C135.955 55.7407 135.395 55.946 134.704 55.946C134.013 55.946 133.453 55.7407 133.024 55.33C132.595 54.9193 132.38 54.336 132.38 53.58ZM134.69 52.614C134.475 52.614 134.307 52.6933 134.186 52.852C134.074 53.0107 134.018 53.2533 134.018 53.58C134.018 54.2147 134.242 54.532 134.69 54.532C134.905 54.532 135.073 54.4527 135.194 54.294C135.315 54.1353 135.376 53.8973 135.376 53.58C135.376 53.2627 135.315 53.0247 135.194 52.866C135.073 52.698 134.905 52.614 134.69 52.614Z" fill="#D33A35"/>
<g filter="url(#filter1_d_1212_2373)">
<rect x="319.913" y="17.792" width="45" height="45" rx="12" fill="#D33A35"/>
</g>
<path d="M338.897 48.7295C339.674 48.7295 340.303 48.0999 340.303 47.3232C340.303 46.5466 339.674 45.917 338.897 45.917C338.12 45.917 337.491 46.5466 337.491 47.3232C337.491 48.0999 338.12 48.7295 338.897 48.7295Z" fill="white"/>
<path d="M348.741 48.7295C349.517 48.7295 350.147 48.0999 350.147 47.3232C350.147 46.5466 349.517 45.917 348.741 45.917C347.964 45.917 347.335 46.5466 347.335 47.3232C347.335 48.0999 347.964 48.7295 348.741 48.7295Z" fill="white"/>
<path d="M351.237 34.3497C351.138 34.2289 351.014 34.1316 350.873 34.0648C350.732 33.9981 350.577 33.9636 350.421 33.9639H337.047L336.777 32.4354C336.748 32.2726 336.663 32.1252 336.537 32.0189C336.41 31.9127 336.25 31.8545 336.085 31.8545H333.272C333.086 31.8545 332.907 31.9286 332.775 32.0604C332.643 32.1923 332.569 32.3711 332.569 32.5576C332.569 32.7441 332.643 32.9229 332.775 33.0548C332.907 33.1867 333.086 33.2607 333.272 33.2607H335.495L337.501 44.6329C337.53 44.7957 337.615 44.9432 337.742 45.0494C337.869 45.1557 338.029 45.2139 338.194 45.2139H349.444C349.63 45.2139 349.809 45.1398 349.941 45.0079C350.073 44.8761 350.147 44.6972 350.147 44.5107C350.147 44.3243 350.073 44.1454 349.941 44.0136C349.809 43.8817 349.63 43.8076 349.444 43.8076H338.784L338.536 42.4014H349.156C349.4 42.4011 349.636 42.3165 349.824 42.162C350.013 42.0076 350.143 41.7926 350.191 41.5537L351.457 35.2255C351.487 35.0724 351.483 34.9144 351.445 34.7629C351.407 34.6115 351.336 34.4703 351.237 34.3497Z" fill="white"/>
<defs>
<filter id="filter0_b_1212_2373" x="-119.587" y="-119.708" width="622" height="320.001" filterUnits="userSpaceOnUse" color-interpolation-filters="sRGB">
<feFlood flood-opacity="0" result="BackgroundImageFix"/>
<feGaussianBlur in="BackgroundImageFix" stdDeviation="60"/>
<feComposite in2="SourceAlpha" operator="in" result="effect1_backgroundBlur_1212_2373"/>
<feBlend mode="normal" in="SourceGraphic" in2="effect1_backgroundBlur_1212_2373" result="shape"/>
</filter>
<filter id="filter1_d_1212_2373" x="314.413" y="15.792" width="56" height="56" filterUnits="userSpaceOnUse" color-interpolation-filters="sRGB">
<feFlood flood-opacity="0" result="BackgroundImageFix"/>
<feColorMatrix in="SourceAlpha" type="matrix" values="0 0 0 0 0 0 0 0 0 0 0 0 0 0 0 0 0 0 127 0" result="hardAlpha"/>
<feOffset dy="3.5"/>
<feGaussianBlur stdDeviation="2.75"/>
<feColorMatrix type="matrix" values="0 0 0 0 0 0 0 0 0 0 0 0 0 0 0 0 0 0 0.02 0"/>
<feBlend mode="normal" in2="BackgroundImageFix" result="effect1_dropShadow_1212_2373"/>
<feBlend mode="normal" in="SourceGraphic" in2="effect1_dropShadow_1212_2373" result="shape"/>
</filter>
<linearGradient id="paint0_linear_1212_2373" x1="191.413" y1="-0.208005" x2="221.681" y2="108.605" gradientUnits="userSpaceOnUse">
<stop stop-color="white"/>
<stop offset="0.0001" stop-color="white"/>
<stop offset="1" stop-color="white" stop-opacity="0.68"/>
</linearGradient>
</defs>
</svg>
