<svg width="34" height="34" viewBox="0 0 34 34" fill="none" xmlns="http://www.w3.org/2000/svg">
<path d="M33.8545 15.2024H23.8058L32.508 10.1792L30.7823 7.1894L22.0789 12.2127L27.1022 3.51264L24.1124 1.78693L19.0881 10.4847V0.44043H15.6344V10.4858L10.6101 1.78693L7.61921 3.51264L12.6425 12.2105L3.94135 7.1894L2.21454 10.1792L10.9168 15.2024H0.868042V18.655H10.9157L2.21454 23.6782L3.94025 26.668L12.6436 21.6447L7.61921 30.3447L10.609 32.0705L15.6344 23.3715V33.4159H19.0881V23.1561L24.2048 32.0155L27.0088 30.3975L21.891 21.5359L30.7801 26.6669L32.5069 23.6771L23.8058 18.6539H33.8534V15.2024H33.8545ZM17.3613 21.6216C16.7447 21.6218 16.1342 21.5004 15.5646 21.2645C14.995 21.0286 14.4774 20.6829 14.0415 20.247C13.6056 19.8112 13.2597 19.2937 13.0237 18.7241C12.7877 18.1545 12.6662 17.5441 12.6661 16.9276C12.666 16.3111 12.7873 15.7006 13.0232 15.131C13.2591 14.5614 13.6048 14.0438 14.0407 13.6078C14.4766 13.1719 14.9941 12.826 15.5637 12.59C16.1332 12.354 16.7436 12.2326 17.3602 12.2324C18.6052 12.2323 19.7993 12.7267 20.6799 13.6071C21.5605 14.4874 22.0552 15.6815 22.0553 16.9265C22.0554 18.1715 21.561 19.3657 20.6807 20.2462C19.8003 21.1268 18.6063 21.6215 17.3613 21.6216Z" fill="#5753F3"/>
</svg>
