<svg width="36" height="25" viewBox="0 0 36 25" fill="none" xmlns="http://www.w3.org/2000/svg">
<path d="M23.5978 17.1187C23.8299 16.3846 26.6786 7.4913 26.6786 7.4913C28.0503 3.84171 30.7091 0.42283 35.7524 0.42283L28.5989 17.8947C27.1218 21.3975 24.3785 24.6066 19.2719 24.6066C19.2719 24.6066 17.0984 9.6517 17.0773 9.3161C16.9507 9.67267 13.8909 17.5382 13.8909 17.5382C12.456 21.1668 9.71275 24.5857 4.62721 24.6066L0.617859 0.42283C3.93085 0.42283 8.02461 3.12857 8.32003 7.5752C8.32003 7.5752 8.82648 16.4475 8.84758 17.1397C9.143 16.3846 12.6037 7.47033 12.6037 7.47033C13.9753 3.8417 16.5709 0.401855 21.4243 0.401855C21.4243 0.401855 23.5134 16.3636 23.5978 17.1187Z" fill="white"/>
</svg>
