<svg width="133" height="33" viewBox="0 0 133 33" fill="none" xmlns="http://www.w3.org/2000/svg">
<g clip-path="url(#clip0_1212_2038)">
<path d="M43.3108 12.895C43.3108 10.5431 41.0099 8.04516 37.0282 8.04516C32.557 8.04516 27.6451 11.3054 26.8945 17.8097C26.1275 24.3788 30.2397 27.2984 34.3846 27.2984C38.5295 27.2984 40.6998 25.6926 42.9191 23.5516C41.0099 21.1672 38.5458 22.2702 38.0726 22.5135C37.5504 22.773 36.8813 23.1298 35.5106 23.1298C33.9114 23.1298 32.2795 22.4162 32.2795 19.4479C42.5275 18.4422 43.3108 15.2469 43.3108 12.895ZM38.2358 13.2843C38.1705 14.0142 37.8768 15.2631 32.6875 15.9606C33.7808 12.1002 35.8696 11.8082 36.8324 11.8082C37.7299 11.8082 38.301 12.5057 38.2358 13.2843ZM20.873 13.9168C20.873 13.9168 18.67 20.7941 18.4905 21.3619C18.4252 20.7779 16.8097 8.43444 16.8097 8.43444C13.0564 8.43444 11.0493 11.0945 9.98859 13.9006C9.98859 13.9006 7.31237 20.7941 7.08391 21.3781C7.06759 20.8428 6.67595 13.9817 6.67595 13.9817C6.44749 10.5431 3.28172 8.45066 0.719727 8.45066L3.82023 27.1524C7.75296 27.1362 9.87436 24.4923 10.984 21.6863C10.984 21.6863 13.3502 15.6037 13.4481 15.328C13.4644 15.5875 15.1452 27.1524 15.1452 27.1524C19.0943 27.1524 21.2157 24.6707 22.3579 21.962L27.8899 8.45066C23.9898 8.45066 21.9337 11.0945 20.873 13.9168ZM57.8015 8.01272C55.3701 8.01272 53.5098 9.32655 51.9432 11.2567V11.2405L53.3466 0C50.1156 0 47.4883 2.78985 46.9824 6.9422L44.5347 27.0064C46.395 27.0064 48.3695 26.4712 49.4302 25.1087C50.3767 26.3252 51.7964 27.2984 53.9014 27.2984C59.3518 27.2984 63.0887 21.005 63.0887 15.1009C63.0561 9.71583 60.4288 8.01272 57.8015 8.01272ZM57.2957 17.6637C56.7245 20.9564 54.8805 23.1947 53.1018 23.1947C51.3068 23.1947 50.5398 22.3999 50.5398 22.3999C50.8825 19.5128 51.0947 17.7448 51.7474 16.2201C52.4001 14.6954 53.9504 12.2624 55.5659 12.2624C57.1488 12.2624 57.8668 14.3548 57.2957 17.6637ZM76.6983 8.45066H72.8961L72.9124 8.25602C73.1735 5.79057 73.7609 4.49296 75.7028 4.2821C77.0246 4.15234 77.6121 3.4711 77.759 2.72497C77.8732 2.14105 78.2322 0.113541 78.2322 0.113541C70.5952 0.0648803 68.1964 3.34134 67.5763 8.33712L67.56 8.45066H67.4784C66.2382 8.45066 64.8674 9.84559 64.639 11.6136L64.5574 12.2624H67.103L64.9653 29.8125L64.3126 32.9592C64.3942 32.9592 64.4921 32.9754 64.5737 32.9754C68.1474 32.8457 70.432 30.0396 70.9379 25.9684L72.6023 12.2624H73.7936C74.9685 12.2624 76.3393 11.0945 76.584 9.14813L76.6983 8.45066ZM96.4762 8.12626C92.0865 8.12626 87.9417 11.3378 86.6688 16.3823C85.396 21.4267 87.3215 27.3957 93.7836 27.3957C100.229 27.3957 103.95 21.1834 103.95 16.0092C103.95 10.8675 100.442 8.12626 96.4762 8.12626ZM98.2549 17.5015C98.0264 19.7885 97.0147 23.2596 94.2406 23.2596C91.4501 23.2596 91.8417 19.2046 92.1192 17.2744C92.4129 15.2144 93.5715 12.2786 96.0682 12.2786C98.3038 12.2786 98.516 14.9225 98.2549 17.5015ZM125.637 13.9168C125.637 13.9168 123.434 20.7941 123.255 21.3619C123.189 20.7779 121.574 8.43444 121.574 8.43444C117.821 8.43444 115.813 11.0945 114.753 13.9006C114.753 13.9006 112.077 20.7941 111.848 21.3781C111.832 20.8428 111.44 13.9817 111.44 13.9817C111.212 10.5431 108.046 8.45066 105.484 8.45066L108.568 27.1524C112.501 27.1362 114.622 24.4923 115.732 21.6863C115.732 21.6863 118.098 15.6037 118.18 15.328C118.212 15.5875 119.877 27.1524 119.877 27.1524C123.826 27.1524 125.947 24.6707 127.09 21.962L132.621 8.45066C128.738 8.45066 126.682 11.0945 125.637 13.9168ZM80.2883 0.113541L77.0899 25.7575L76.4372 28.9204C76.5188 28.9204 76.6167 28.9366 76.6983 28.9366C80.1414 28.888 82.5892 25.8873 83.0461 22.108L84.8901 7.39636C85.4449 2.90339 82.7524 0.113541 80.2883 0.113541Z" fill="white"/>
</g>
<defs>
<clipPath id="clip0_1212_2038">
<rect width="131.902" height="32.9754" fill="white" transform="translate(0.719727)"/>
</clipPath>
</defs>
</svg>
